<svg width="45" height="45" viewBox="0 0 45 45" fill="none" xmlns="http://www.w3.org/2000/svg">
<path d="M0 22.5C0 10.0736 10.0736 0 22.5 0C34.9264 0 45 10.0736 45 22.5C45 34.9264 34.9264 45 22.5 45C10.0736 45 0 34.9264 0 22.5Z" fill=""/>
<g clip-path="url(#clip0_225_74)">
<path d="M26.9189 10.8594C25.9912 11.0645 25.166 11.5039 24.4775 12.1582C23.7646 12.8369 23.3545 13.5059 23.0518 14.4727L22.9199 14.9072L22.9004 17.2363C22.8857 19.5312 22.8857 19.5654 22.9834 19.6631C23.0664 19.7461 23.1494 19.7656 23.374 19.7656H23.6572L23.7939 20.1416C23.8672 20.3516 23.999 20.6787 24.082 20.8643L24.2383 21.2061L23.9941 21.084L23.7451 20.9619L17.876 20.9473C12.0215 20.9375 12.0068 20.9375 11.7334 21.04C11.3721 21.1768 11.0205 21.5234 10.8838 21.8896C10.7812 22.1582 10.7812 22.2266 10.7812 26.0156C10.7812 29.8047 10.7812 29.873 10.8838 30.1416C11.0205 30.5029 11.3721 30.8545 11.7334 30.9912C11.9873 31.0889 12.1045 31.0937 13.4668 31.0937C14.2725 31.0937 14.9316 31.1035 14.9316 31.1182C14.9316 31.1328 14.79 31.7139 14.6143 32.4121C14.4385 33.1104 14.2969 33.7549 14.2969 33.8525C14.2969 33.96 14.3359 34.0625 14.3945 34.1211C14.4922 34.2187 14.5557 34.2187 17.8125 34.2187C21.0693 34.2187 21.1328 34.2187 21.2305 34.1211C21.3232 34.0283 21.3281 33.96 21.3281 33.0469C21.3281 32.1338 21.3232 32.0654 21.2305 31.9727C21.1768 31.9189 21.0791 31.875 21.0107 31.875C20.8691 31.875 20.8643 31.8408 20.9521 31.4111L21.0156 31.1182L21.9971 31.1035L22.9834 31.0937L22.9443 31.2256C22.9199 31.3037 22.7246 31.9727 22.5049 32.7246C22.2803 33.4717 22.1191 34.1016 22.1436 34.1211C22.2119 34.1846 22.8662 34.3604 22.8955 34.3262C22.9102 34.3066 23.0957 33.6914 23.3105 32.9639C23.5205 32.2314 23.7061 31.6309 23.7207 31.6309C23.7354 31.6357 23.8037 31.7285 23.8818 31.8457L24.0137 32.0605V33.1348C24.0137 33.7305 24.0332 34.2236 24.0576 34.2383C24.082 34.2529 24.2676 34.2529 24.4727 34.2334L24.8486 34.2041L24.834 32.9541L24.8193 31.7041L24.6387 31.4551C24.5361 31.3184 24.4189 31.1133 24.3701 31.001L24.2773 30.791L24.4434 30.6201C24.5313 30.5273 24.6533 30.3564 24.7119 30.2441C24.8193 30.0439 24.8193 30.0342 24.834 27.0508L24.8486 24.0576L25.0732 24.0723L25.2979 24.0869L25.5029 24.751C25.7275 25.4932 25.8887 25.7812 26.2793 26.1523C26.7383 26.5869 27.3047 26.8066 27.9688 26.8066C28.6865 26.8066 29.292 26.5479 29.7656 26.04C30.1221 25.6592 30.2539 25.4004 30.4639 24.6533L30.6299 24.0625H30.8594H31.0938V26.0937V28.125L31.3086 28.4521C31.6553 28.9795 31.748 29.2725 31.748 29.873C31.7529 30.2295 31.7285 30.4687 31.6699 30.6592L31.582 30.9326L30.9814 30.9912L30.376 31.0547L29.9121 30.8203L29.4482 30.5908L29.8145 30.0244C30.2686 29.3262 30.3125 29.2187 30.3125 28.8477C30.3125 28.3496 30.0879 27.9932 29.6533 27.793C29.1797 27.5684 28.54 27.6855 28.208 28.0469C28.1348 28.125 27.4365 29.1748 26.6553 30.3809C25.4834 32.1924 25.2344 32.6074 25.2344 32.749C25.2344 33.0518 25.4834 33.9893 25.5957 34.1162C25.6885 34.2187 25.7227 34.2285 26.0156 34.1943C26.1914 34.1797 26.3867 34.165 26.4551 34.1699C26.5234 34.1797 27.9834 34.1846 29.7022 34.1895L32.8272 34.1943L33.1201 34.0527C33.4961 33.8672 33.8672 33.4961 34.0527 33.1201L34.1943 32.8271L34.209 29.0234C34.2188 25.6543 34.2139 25.1855 34.1406 24.9463C33.9355 24.2187 33.3252 23.5986 32.6025 23.374C32.3438 23.2959 32.1484 23.2812 31.1133 23.2812H29.9219V22.8906V22.5H30.5957C31.0596 22.5 31.2939 22.4805 31.3477 22.4365C31.543 22.29 32.1484 21.1475 32.4365 20.4004C32.6367 19.8877 32.8223 19.1943 32.9248 18.623C32.9785 18.3057 33.0322 18.1396 33.125 18.0176C33.5254 17.4951 33.5449 16.6602 33.1738 16.1035C33.0762 15.9619 33.0518 15.8496 33.0322 15.4199C32.9736 14.2383 32.4365 13.1006 31.5186 12.2119C30.8594 11.5723 30.2539 11.2158 29.3555 10.9473C28.9746 10.8301 28.8232 10.8154 28.0908 10.8008C27.4707 10.7861 27.1729 10.8008 26.9189 10.8594ZM28.8916 11.6895C30.459 12.0459 31.7041 13.2617 32.0996 14.8242C32.2705 15.4883 32.2754 15.4687 31.9238 15.4687C31.665 15.4687 31.5869 15.4443 31.3477 15.293C30.5273 14.7705 30.0391 14.0967 29.6777 13.0078C29.5898 12.7441 29.4775 12.4853 29.4287 12.4365C29.3262 12.334 29.0479 12.3145 28.9014 12.3926C28.7891 12.4512 28.8184 12.3682 28.335 13.9062C27.8272 15.5127 27.8223 15.5322 27.5684 16.0205C27.041 17.0312 26.1865 17.876 25.1611 18.3887C24.7656 18.5889 24.165 18.8037 23.8428 18.8672L23.6719 18.8965V17.4658C23.6768 15.0195 23.7744 14.4922 24.4336 13.4863C25.2344 12.2607 26.7334 11.5039 28.1885 11.5918C28.4033 11.6064 28.7207 11.6504 28.8916 11.6895ZM29.5752 14.7607C29.8096 15.1025 30.4834 15.752 30.8203 15.957L31.1035 16.1279L31.0791 17.3975C31.0498 18.7744 31.0156 18.9893 30.752 19.5459C30.3662 20.3467 29.585 20.9814 28.7109 21.2061C28.3496 21.2988 27.6465 21.3086 27.3047 21.2256C27.1729 21.1963 26.8799 21.084 26.6504 20.9717C26.3135 20.8154 26.1621 20.7031 25.8447 20.3809C25.6006 20.1367 25.3906 19.8682 25.2881 19.6777C25.2002 19.5068 25.1367 19.3603 25.1465 19.3506C25.1514 19.3457 25.3027 19.2676 25.4785 19.1797C26.8018 18.5205 27.8857 17.4023 28.4766 16.084C28.5889 15.8398 28.7842 15.2832 28.9209 14.8486L29.1602 14.0576L29.2871 14.2871C29.3555 14.4141 29.4873 14.624 29.5752 14.7607ZM32.2559 16.3965C32.7246 16.6846 32.7246 17.3779 32.2559 17.666C32.168 17.7197 32.0459 17.7637 31.9873 17.7637C31.875 17.7637 31.875 17.7588 31.875 17.0312C31.875 16.3037 31.875 16.2988 31.9873 16.2988C32.0459 16.2988 32.168 16.3428 32.2559 16.3965ZM32.0459 18.7695C31.9238 19.4434 31.5039 20.5664 31.1279 21.2305L30.8643 21.6943L30.3955 21.709C30.0977 21.7187 29.9219 21.7041 29.9219 21.6699C29.9219 21.6455 30.0049 21.5723 30.1074 21.5039C31.0059 20.9326 31.6943 19.8779 31.8506 18.8232C31.8799 18.6377 31.9043 18.5937 31.9824 18.5937C32.0703 18.5937 32.0752 18.6133 32.0459 18.7695ZM25.7813 21.4502C26.0938 21.6455 26.084 21.7187 25.752 21.7187H25.4834L25.3174 21.4355C25.2246 21.2842 25.0928 21.0449 25.0195 20.9033L24.8926 20.6494L25.2246 20.9766C25.4053 21.1572 25.6543 21.3721 25.7813 21.4502ZM23.3984 21.7676C23.6377 21.8213 23.8135 21.9482 23.9404 22.1631C24.0332 22.3242 24.0381 22.4316 24.0527 25.7959C24.0625 27.7002 24.0527 29.375 24.0381 29.5166C24.0039 29.8193 23.8574 30.0488 23.623 30.1855C23.457 30.2832 23.3691 30.2881 21.4648 30.3027C19.5703 30.3174 19.4727 30.3125 19.4727 30.2295C19.4727 30.1807 19.541 29.624 19.6191 28.9941C19.7949 27.6123 19.7998 27.417 19.668 27.2852C19.5752 27.1924 19.5068 27.1875 17.8223 27.1875C16.416 27.1875 16.0547 27.2021 15.9814 27.2559C15.9131 27.3047 15.7959 27.7002 15.5176 28.8037L15.1416 30.2881H13.6572C12.2461 30.2881 12.1631 30.2832 12.002 30.1855C11.7676 30.0488 11.6211 29.8193 11.5869 29.5166C11.5723 29.375 11.5625 27.7002 11.5723 25.7959C11.5869 22.4316 11.5918 22.3242 11.6846 22.1631C11.8066 21.958 11.9873 21.8164 12.2021 21.7676C12.4365 21.7139 23.1641 21.709 23.3984 21.7676ZM27.1875 22.0557C27.6221 22.1533 28.6182 22.1143 29.0576 21.9824C29.1357 21.958 29.1406 22.0166 29.1406 22.7588C29.1406 23.5107 29.1455 23.5693 29.2529 23.7256C29.3115 23.8184 29.4531 23.9355 29.5605 23.9941L29.7607 24.0967L29.6289 24.541C29.4629 25.0977 29.2822 25.3955 28.9697 25.6348C28.6279 25.8936 28.335 25.9814 27.8809 25.957C27.4316 25.9375 27.1191 25.8008 26.8164 25.498C26.5576 25.2393 26.4697 25.0732 26.3086 24.5264L26.1816 24.0918L26.3818 23.9893C26.4893 23.9355 26.626 23.8184 26.6846 23.7256C26.792 23.5693 26.7969 23.5107 26.7969 22.7588C26.7969 22.0166 26.8018 21.958 26.8848 21.9824C26.9287 21.9971 27.0654 22.0312 27.1875 22.0557ZM25.5273 22.5H26.0156V22.8906V23.2812H25.4297H24.8438V22.793V22.3047L24.9414 22.4023C25.0244 22.4853 25.1025 22.5 25.5273 22.5ZM32.5586 24.2578C32.8125 24.3848 33.1104 24.6875 33.2373 24.9316C33.4131 25.2783 33.4375 25.6641 33.4375 28.2227C33.4375 30.5371 33.4326 30.6982 33.3545 30.7227C33.3057 30.7324 33.0908 30.7617 32.8809 30.7812L32.4951 30.8154L32.5293 30.6982C32.5488 30.6348 32.5781 30.3613 32.5928 30.0879C32.6367 29.3311 32.4365 28.5986 32.0264 27.998L31.875 27.7783V25.9375V24.0967L32.1143 24.126C32.2461 24.1406 32.4463 24.1992 32.5586 24.2578ZM18.8867 28.0762C18.8818 28.1396 18.7354 29.3652 18.5547 30.8008L18.2227 33.4131L16.7236 33.4277C15.8984 33.4326 15.2246 33.4277 15.2246 33.4131C15.2246 33.3789 16.5381 28.1104 16.5674 28.0273C16.582 27.9834 16.8604 27.9687 17.7393 27.9687H18.8867V28.0762ZM29.3701 28.6133C29.5557 28.7891 29.5117 28.9258 29.0576 29.6387L28.6279 30.3027L28.2129 30.3857C27.9834 30.4297 27.749 30.4785 27.6855 30.4932C27.5928 30.5127 27.6855 30.3467 28.1885 29.5752C28.5303 29.0527 28.8428 28.5986 28.8867 28.5645C29.0088 28.4717 29.2432 28.4961 29.3701 28.6133ZM20.1563 31.1475C20.1563 31.1719 20.1221 31.3477 20.0781 31.5381L20 31.875H19.6338H19.2676L19.3018 31.5186C19.3213 31.3281 19.3457 31.1523 19.3604 31.1279C19.3945 31.0742 20.1563 31.084 20.1563 31.1475ZM29.4336 31.5088C30.0147 31.8018 30.21 31.875 30.3809 31.875C30.498 31.875 31.1816 31.8066 31.8994 31.7285C32.6172 31.6455 33.2568 31.582 33.3252 31.582H33.4522L33.4229 32.0361C33.4082 32.2852 33.3594 32.5781 33.3154 32.6855C33.208 32.9395 32.9736 33.1836 32.7051 33.3105C32.4902 33.4082 32.4219 33.4131 29.8389 33.4277L27.1875 33.4424V32.4414V31.4404L27.4463 31.3916C27.583 31.3623 27.9004 31.2939 28.1397 31.2451C28.3838 31.1963 28.6084 31.1523 28.6426 31.1475C28.6768 31.1426 29.0332 31.3086 29.4336 31.5088ZM26.3965 33.2666C26.3867 33.2764 26.3379 33.291 26.2891 33.3008C26.2109 33.3105 26.1816 33.2715 26.1328 33.0811C26.0742 32.8516 26.0791 32.8369 26.2256 32.5977L26.3818 32.3486L26.3965 32.8027C26.4014 33.0518 26.4014 33.2617 26.3965 33.2666ZM20.5469 33.0469V33.4375H19.8096H19.0723L19.1064 33.0811C19.126 32.8906 19.1504 32.7148 19.165 32.6904C19.1748 32.6709 19.4922 32.6562 19.8682 32.6562H20.5469V33.0469Z" fill="#991850"/>
<path d="M29.3066 16.416C29.1602 16.5625 29.1406 16.6113 29.1406 16.8359C29.1406 17.0605 29.1602 17.1094 29.3066 17.2559C29.4531 17.4023 29.502 17.4219 29.7266 17.4219C29.9512 17.4219 30 17.4023 30.1465 17.2559C30.293 17.1094 30.3125 17.0605 30.3125 16.8359C30.3125 16.6113 30.293 16.5625 30.1465 16.416C30 16.2695 29.9512 16.25 29.7266 16.25C29.502 16.25 29.4531 16.2695 29.3066 16.416Z" fill="#991850"/>
<path d="M26.7969 18.7402C26.7969 19.0869 27.0947 19.502 27.4561 19.6729C27.583 19.7314 27.7637 19.7656 27.9688 19.7656C28.1738 19.7656 28.3545 19.7314 28.4814 19.6729C28.8428 19.502 29.1406 19.0869 29.1406 18.7402V18.5938H28.7354C28.335 18.5938 28.3301 18.5938 28.2764 18.7402C28.2422 18.8281 28.1738 18.8965 28.0957 18.916C27.8906 18.9648 27.7197 18.8965 27.6611 18.7402C27.6074 18.5938 27.6025 18.5938 27.2021 18.5938H26.7969V18.7402Z" fill="#991850"/>
<path d="M12.3438 22.8906V23.2812H13.125H13.9062V22.8906V22.5H13.125H12.3438V22.8906Z" fill="#991850"/>
<path d="M14.6875 22.8906V23.2812H15.4688H16.25V22.8906V22.5H15.4688H14.6875V22.8906Z" fill="#991850"/>
<path d="M17.0312 22.8906V23.2812H17.8125H18.5938V22.8906V22.5H17.8125H17.0312V22.8906Z" fill="#991850"/>
<path d="M19.375 22.8906V23.2812H20.1562H20.9375V22.8906V22.5H20.1562H19.375V22.8906Z" fill="#991850"/>
<path d="M21.7188 22.8906V23.2812H22.5H23.2812V22.8906V22.5H22.5H21.7188V22.8906Z" fill="#991850"/>
</g>
<defs>
<clipPath id="clip0_225_74">
<rect width="25" height="25" fill="white" transform="translate(10 10)"/>
</clipPath>
</defs>
</svg>
