<svg width="45" height="45" viewBox="0 0 45 45" fill="none" xmlns="http://www.w3.org/2000/svg">
<path d="M0 22.5C0 10.0736 10.0736 0 22.5 0C34.9264 0 45 10.0736 45 22.5C45 34.9264 34.9264 45 22.5 45C10.0736 45 0 34.9264 0 22.5Z" fill=""/>
<g clip-path="url(#clip0_225_87)">
<path d="M16.0051 13.005C15.9451 13.05 15.9001 13.455 15.9001 13.905V14.7H13.6651C12.4201 14.7 11.3851 14.76 11.3251 14.835C11.2801 14.91 11.5201 15.69 11.8651 16.575L12.4801 18.165L12.0901 18.525C11.7751 18.825 11.7001 19.02 11.7001 19.65C11.7001 20.19 11.7751 20.475 11.9851 20.685C12.2701 20.97 12.2701 21 11.4301 22.83L10.5751 24.675L10.5301 26.73C10.4551 29.73 10.9201 30.87 12.6301 31.71L13.4101 32.1H22.4551H31.5001V31.245V30.39L32.2951 31.17C32.7301 31.605 33.1501 31.95 33.2401 31.95C33.5101 31.95 34.5001 30.825 34.5001 30.51C34.5001 30.345 34.0051 29.715 33.3151 29.04C32.2501 27.975 32.1451 27.825 32.2651 27.495C32.5951 26.61 32.2351 24.585 31.6651 24.225C31.5451 24.165 31.5001 22.905 31.5001 19.92L31.5151 15.705L30.1201 14.295L28.7251 12.9H22.4101C18.9451 12.9 16.0501 12.945 16.0051 13.005ZM28.2001 14.85V16.2H29.5501H30.9001V19.875V23.565L30.4351 23.31C30.0751 23.13 29.6701 23.085 28.8601 23.13C27.4501 23.19 26.6701 23.685 26.0551 24.885C25.2001 26.595 25.8151 28.545 27.4951 29.43C28.1101 29.745 28.8451 29.805 30.3751 29.67L30.8251 29.625L30.8701 30.555L30.9151 31.5H23.7751H16.6501V22.5V13.5H22.4251H28.2001V14.85ZM30.1501 15.555C30.1501 15.585 29.8501 15.6 29.4751 15.6H28.8001V14.895V14.19L29.4751 14.85C29.8501 15.21 30.1501 15.525 30.1501 15.555ZM15.9001 16.8V18.315L14.6101 18.27L13.3201 18.225L12.8101 16.905C12.5251 16.17 12.3001 15.51 12.3001 15.435C12.3001 15.36 13.1101 15.3 14.1001 15.3H15.9001V16.8ZM15.9001 19.65V20.4H14.4001C13.0951 20.4 12.8551 20.355 12.6001 20.1C12.4351 19.935 12.3001 19.725 12.3001 19.65C12.3001 19.56 12.4351 19.365 12.6001 19.2C12.8551 18.945 13.0951 18.9 14.4001 18.9H15.9001V19.65ZM15.9001 23.25V25.5H15.3451C14.2801 25.5 13.3501 26.43 13.3501 27.48C13.3501 28.425 14.4001 29.4 15.4051 29.4H15.9001V30.465V31.545L14.7601 31.44C14.1451 31.38 13.4701 31.275 13.2901 31.2C12.7801 31.005 11.8801 30.18 11.6101 29.67C11.2201 28.92 11.0701 27.54 11.2351 26.1C11.3551 24.99 11.5201 24.495 12.2551 22.89L13.1251 21H14.5051H15.9001V23.25ZM30.5701 24.285C31.3051 24.795 31.6951 25.68 31.6201 26.64C31.4401 28.86 28.8001 29.85 27.2401 28.275C25.9651 27 26.2351 25.125 27.8251 24.12C28.4551 23.715 29.8951 23.805 30.5701 24.285ZM15.8701 27.36C15.9151 28.44 15.8251 28.65 15.2551 28.65C14.8801 28.65 14.1001 27.84 14.1001 27.45C14.1001 26.955 14.9101 26.22 15.4051 26.28C15.8101 26.325 15.8251 26.355 15.8701 27.36ZM32.6701 29.595C33.5101 30.45 33.5851 30.57 33.3751 30.75C33.1651 30.93 33.0151 30.825 32.1751 30C31.4401 29.265 31.2451 28.995 31.3801 28.845C31.4701 28.74 31.5751 28.65 31.6351 28.65C31.6951 28.65 32.1601 29.07 32.6701 29.595Z" fill="#991850"/>
<path d="M18.3003 17.1C18.3003 17.385 18.4053 17.4 22.0503 17.4C25.6953 17.4 25.8003 17.385 25.8003 17.1C25.8003 16.815 25.6953 16.8 22.0503 16.8C18.4053 16.8 18.3003 16.815 18.3003 17.1Z" fill="#991850"/>
<path d="M18.3003 20.1C18.3003 20.385 18.4053 20.4 20.5503 20.4C22.6953 20.4 22.8003 20.385 22.8003 20.1C22.8003 19.815 22.6953 19.8 20.5503 19.8C18.4053 19.8 18.3003 19.815 18.3003 20.1Z" fill="#991850"/>
<path d="M18.3003 23.1C18.3003 23.385 18.4053 23.4 21.3003 23.4C24.1953 23.4 24.3003 23.385 24.3003 23.1C24.3003 22.815 24.1953 22.8 21.3003 22.8C18.4053 22.8 18.3003 22.815 18.3003 23.1Z" fill="#991850"/>
<path d="M18.3003 26.1C18.3003 26.385 18.4053 26.4 20.4003 26.4C22.3953 26.4 22.5003 26.385 22.5003 26.1C22.5003 25.815 22.3953 25.8 20.4003 25.8C18.4053 25.8 18.3003 25.815 18.3003 26.1Z" fill="#991850"/>
<path d="M18.3003 29.1C18.3003 29.385 18.4053 29.4 22.0503 29.4C25.6953 29.4 25.8003 29.385 25.8003 29.1C25.8003 28.815 25.6953 28.8 22.0503 28.8C18.4053 28.8 18.3003 28.815 18.3003 29.1Z" fill="#991850"/>
<path d="M27.8702 24.57C27.6152 24.72 27.4502 24.945 27.4502 25.155C27.4502 25.56 27.8252 25.605 28.2602 25.275C28.6202 25.005 29.4452 24.99 29.8352 25.23C30.0602 25.365 30.1802 25.365 30.3602 25.215C30.7052 24.93 30.6602 24.795 30.1502 24.525C29.5652 24.225 28.3802 24.24 27.8702 24.57Z" fill="#991850"/>
</g>
<defs>
<clipPath id="clip0_225_87">
<rect width="25" height="21" fill="white" transform="translate(10 12)"/>
</clipPath>
</defs>
</svg>
