<svg width="45" height="45" viewBox="0 0 45 45" fill="none" xmlns="http://www.w3.org/2000/svg">
<path d="M0 22.5C0 10.0736 10.0736 0 22.5 0C34.9264 0 45 10.0736 45 22.5C45 34.9264 34.9264 45 22.5 45C10.0736 45 0 34.9264 0 22.5Z" fill=""/>
<g clip-path="url(#clip0_225_99)">
<path d="M13.7612 10.708C13.5842 10.7744 13.2081 11.0398 12.9205 11.2832C12.5665 11.6151 12.1904 11.7478 11.6594 11.7036C10.1329 11.5708 9.40281 13.3628 10.5975 14.3142C10.9957 14.6239 11.394 14.7567 11.7701 14.6903C12.124 14.6018 12.478 14.7124 12.7878 15C13.5179 15.6859 14.4471 15.8628 15.4426 15.5089C15.9072 15.3319 16.7258 15.1991 17.2347 15.1991C18.1196 15.1991 18.1639 15.2213 18.2302 15.9071C18.2745 16.4602 18.4072 16.6372 18.7391 16.6372C19.071 16.6372 19.2037 16.4602 19.2479 15.9071L19.3143 15.1991H21.394H23.4736L23.54 15.9071C23.5842 16.3938 23.7391 16.6593 24.0046 16.7036C24.3143 16.7699 24.3807 16.6151 24.3807 15.9956V15.1991H26.4603H28.5621L28.6285 15.9071C28.6727 16.4602 28.8055 16.6372 29.1373 16.6372C29.4692 16.6372 29.6019 16.4602 29.6462 15.9071L29.7125 15.1991H31.8143H33.894V15.9735C33.894 16.6151 33.9825 16.7478 34.3364 16.7478C34.7568 16.7478 34.801 16.6372 34.7347 15.4646L34.6683 14.2036L25.9294 14.1372L17.1683 14.0929L17.1462 13.0974L17.1019 12.1018L25.8851 12.0575L34.6683 11.9912L34.7347 11.5044L34.801 10.9956L25.2214 10.9292C19.9559 10.885 15.2878 10.7744 14.8674 10.708C14.4471 10.6195 13.9382 10.6195 13.7612 10.708ZM15.5975 12.0354C16.2612 12.8097 16.2833 13.5841 15.6417 14.2036C15.1993 14.6682 14.9338 14.7567 14.4692 14.646C13.6063 14.4248 13.0975 13.8938 13.0975 13.1637C13.0975 11.9027 14.7789 11.1505 15.5975 12.0354ZM11.9913 13.1195C11.9913 13.5398 11.3718 13.7832 11.0621 13.4735C10.8851 13.2965 10.8851 13.1416 11.0842 12.8982C11.394 12.5221 11.9913 12.677 11.9913 13.1195Z" fill="#991850"/>
<path d="M18.562 19.0044C18.208 19.2699 18.1859 19.8894 18.2301 26.8142C18.2965 34.1593 18.2965 34.3363 18.739 34.3363C19.1594 34.3363 19.1815 34.1593 19.2478 27.8319C19.2921 21.7699 19.3142 21.3496 19.6903 21.5044C21.2832 22.1682 22.4558 22.0354 23.4293 21.1283L23.9381 20.6416L24.3806 21.1283C25.3319 22.146 27.3894 22.1682 28.6063 21.1947C29.1151 20.7965 29.1372 20.7965 29.6461 21.1947C31.4381 22.6106 34.27 21.7478 34.6903 19.6682C34.8231 19.0487 34.7788 18.9602 34.3806 18.9602C34.093 18.9602 33.8275 19.2257 33.5841 19.7124C32.854 21.2611 30.9071 21.3053 29.9337 19.7788C29.2921 18.7832 28.916 18.739 28.4735 19.6018C27.5886 21.3496 25.3319 21.3717 24.6018 19.6239C24.2478 18.7611 23.6284 18.7611 23.2744 19.6239C22.9647 20.354 22.0576 20.9513 21.239 20.9513C20.5089 20.9513 19.8009 20.3982 19.3363 19.4912C19.0045 18.8275 18.8939 18.7611 18.562 19.0044Z" fill="#991850"/>
<path d="M23.6064 23.208C23.54 23.3629 23.5179 25.9513 23.54 28.9159C23.6064 33.562 23.6507 34.3363 23.9383 34.3363C24.2259 34.3363 24.2701 33.562 24.2701 28.7168C24.2701 24.4027 24.2038 23.0752 24.0046 23.0089C23.8498 22.9425 23.6728 23.031 23.6064 23.208Z" fill="#991850"/>
<path d="M28.8276 23.1416C28.6506 23.2522 28.5843 24.7788 28.6285 28.8275C28.6949 34.1593 28.717 34.3363 29.1374 34.3363C29.5577 34.3363 29.5798 34.1593 29.6462 28.7832C29.6905 24.2478 29.6462 23.1859 29.4028 23.0974C29.2259 23.031 28.9825 23.0531 28.8276 23.1416Z" fill="#991850"/>
<path d="M34.0044 23.2301C33.938 23.385 33.9159 25.9513 33.938 28.9159C34.0044 33.562 34.0486 34.3363 34.3362 34.3363C34.6238 34.3363 34.6681 33.5398 34.7344 28.6283C34.7787 23.6283 34.7566 22.9425 34.4468 22.9425C34.2477 22.9425 34.0486 23.0752 34.0044 23.2301Z" fill="#991850"/>
</g>
<defs>
<clipPath id="clip0_225_99">
<rect width="25" height="23.8938" fill="white" transform="translate(10 10.5531)"/>
</clipPath>
</defs>
</svg>
