<svg width="45" height="45" viewBox="0 0 45 45" fill="none" xmlns="http://www.w3.org/2000/svg">
<path d="M0 22.5C0 10.0736 10.0736 0 22.5 0C34.9264 0 45 10.0736 45 22.5C45 34.9264 34.9264 45 22.5 45C10.0736 45 0 34.9264 0 22.5Z" fill=""/>
<g clip-path="url(#clip0_225_109)">
<path d="M13.0718 17.8403L13.0708 17.8378C12.8571 17.3094 12.7934 16.4332 12.9292 15.8014C13.0201 15.3979 13.1833 14.9851 13.3899 14.6428L13.0718 17.8403ZM13.0718 17.8403C13.1171 17.9544 13.1654 18.0883 13.1664 18.2449C13.1673 18.3989 13.1218 18.5346 13.0796 18.6509L13.0796 18.6509M13.0718 17.8403L13.0796 18.6509M13.0796 18.6509L13.0778 18.6557M13.0796 18.6509L13.0778 18.6557M13.0778 18.6557C12.7977 19.3973 12.782 20.3028 13.0377 21.0575L13.0388 21.0606M13.0778 18.6557L13.0388 21.0606M13.0388 21.0606C13.2572 21.7223 13.4927 22.1007 13.9494 22.5573C14.7297 23.3376 15.6662 23.7016 16.7733 23.6578L16.7743 23.6578M13.0388 21.0606L16.7743 23.6578M16.7743 23.6578C17.1042 23.6456 17.5949 23.5469 17.8721 23.4425L17.8742 23.4418M16.7743 23.6578L17.8742 23.4418M17.8742 23.4418C17.9983 23.3958 18.13 23.3604 18.3034 23.3745C18.4464 23.3861 18.6025 23.4313 18.7804 23.4861L18.7804 23.4861M17.8742 23.4418L18.7804 23.4861M18.7804 23.4861L18.7843 23.4873M18.7804 23.4861L18.7843 23.4873M18.7843 23.4873C19.3766 23.6764 20.1406 23.7232 20.584 23.6214C20.7121 23.5892 20.8167 23.6255 20.8435 23.6348C20.8903 23.651 20.9289 23.6722 20.954 23.6871C21.006 23.7178 21.0593 23.7574 21.1079 23.7959C21.2081 23.8752 21.335 23.9877 21.4786 24.1208L21.4786 24.1207L21.4811 24.1231C21.631 24.2644 21.735 24.3563 21.8152 24.4155C21.8506 24.4415 21.875 24.4563 21.8901 24.4645C21.9278 24.4433 21.987 24.4 22.0904 24.3109L22.3422 24.0936L22.6353 23.8407L22.909 24.1145L26.4515 27.6569C27.6181 28.8235 28.5173 29.7158 29.1373 30.3238C29.4475 30.628 29.6868 30.8599 29.8543 31.0191C29.9382 31.0989 30.0024 31.1588 30.0478 31.1997C30.0647 31.215 30.0778 31.2266 30.0876 31.2351C30.2423 31.3089 30.4943 31.3314 30.6992 31.267C31.0999 31.1319 31.3555 30.7109 31.3032 30.3445C31.2833 30.2053 31.261 30.1396 31.2006 30.0486C31.1232 29.9319 30.9829 29.7761 30.689 29.4822L30.1781 28.9712L29.8736 28.6667L30.1879 28.3724L30.5125 28.0686L30.837 27.7647L31.0487 27.5665L31.3081 27.6962L31.4854 27.7849M18.7843 23.4873L31.4854 27.7849M31.4854 27.7849C31.8881 27.9793 32.4555 27.7593 32.6275 27.3037L32.6275 27.3037L32.6293 27.2991C32.7175 27.0737 32.7183 26.9253 32.6423 26.711C32.6204 26.6504 32.6119 26.6306 32.6011 26.6114C32.5905 26.5925 32.5698 26.5605 32.5146 26.4967C32.3967 26.3601 32.1779 26.1407 31.7156 25.6819L31.7145 25.6808C31.3745 25.3408 31.1356 25.1071 30.9672 24.952C30.883 24.8744 30.8211 24.8209 30.7761 24.7852C30.7406 24.757 30.7249 24.7475 30.7241 24.7468C30.5523 24.6657 30.2978 24.6504 30.089 24.7229C29.9716 24.7643 29.9414 24.7809 29.9189 24.7967C29.8908 24.8164 29.8512 24.8522 29.7456 24.9716L29.7454 24.9718C29.4727 25.2799 29.4402 25.5913 29.5801 25.8804C29.5802 25.8806 29.5803 25.8809 29.5805 25.8811L29.666 26.0556L29.7926 26.3138L29.596 26.5238L29.2922 26.8483L28.9884 27.1729L28.6941 27.4872L28.3896 27.1827L26.2524 25.0455L24.1152 22.9083L23.8414 22.6346L24.0944 22.3415L24.3116 22.0897C24.4007 21.9863 24.444 21.9271 24.4652 21.8894C24.457 21.8743 24.4423 21.8499 24.4162 21.8145C24.357 21.7342 24.2651 21.6303 24.1238 21.4804L24.1215 21.4779C23.9884 21.3343 23.8759 21.2074 23.7966 21.1072C23.7581 21.0586 23.7185 21.0053 23.6878 20.9533C23.673 20.9282 23.6518 20.8895 23.6355 20.8428C23.6262 20.816 23.5899 20.7113 23.6221 20.5833C23.7239 20.1399 23.6771 19.3759 23.488 18.7836L23.488 18.7836L23.4868 18.7797C23.432 18.6018 23.3868 18.4457 23.3752 18.3027C23.3611 18.1293 23.3965 17.9976 23.4425 17.8735L23.4432 17.8714C23.5476 17.5941 23.6463 17.1035 23.6585 16.7736L23.6585 16.7726C23.7023 15.6655 23.3383 14.729 22.558 13.9486C22.1014 13.492 21.723 13.2565 21.0613 13.0381L21.0582 13.037C20.3035 12.7813 19.398 12.797 18.6564 13.0771L18.6564 13.0771L18.6516 13.0789C18.5353 13.1211 18.3996 13.1666 18.2456 13.1656C18.089 13.1647 17.9551 13.1164 17.841 13.0711L17.8403 13.0708C17.1084 12.7786 16.0803 12.7816 15.227 13.1016C14.554 13.3544 13.7744 14.0062 13.39 14.6427L31.4854 27.7849ZM30.1049 31.2495C30.1049 31.2495 30.1041 31.2489 30.1026 31.2478L30.1049 31.2495ZM18.2918 14.4794L18.2918 14.4794L18.2956 14.4775C18.7526 14.2549 19.0979 14.1696 19.6002 14.1696L19.6013 14.1696C21.1158 14.1736 22.3025 15.3039 22.3473 16.8147L22.3473 16.8179C22.3589 17.347 22.2903 17.7089 22.0728 18.1479L22.0712 18.1511C22.0476 18.1978 22.0306 18.2322 22.0183 18.2588C22.1303 18.4739 22.2133 18.6711 22.2659 18.8888C22.3196 19.1113 22.3371 19.3362 22.3371 19.5995C22.3371 20.3999 22.1016 21.002 21.5521 21.5514C21.0027 22.1009 20.4006 22.3364 19.6002 22.3364C19.3369 22.3364 19.112 22.3189 18.8895 22.2652C18.6718 22.2126 18.4746 22.1296 18.2595 22.0176C18.233 22.0299 18.1985 22.0469 18.1518 22.0705L18.1518 22.0705L18.1486 22.0721C17.7096 22.2895 17.3477 22.3582 16.8186 22.3466L16.8154 22.3466C15.3046 22.3018 14.1743 21.1151 14.1703 19.6006L14.1703 19.5995C14.1703 19.0972 14.2556 18.7519 14.4782 18.2949L14.4801 18.2911C14.4867 18.2779 14.4924 18.2664 14.4973 18.2562C14.1559 17.6318 14.0695 16.7308 14.2834 16.0644L14.2844 16.0615C14.4936 15.4259 14.9218 14.8787 15.481 14.5514C16.3188 14.06 17.4101 14.0307 18.2569 14.4966C18.2671 14.4916 18.2787 14.486 18.2918 14.4794Z" stroke="#991850" stroke-width="0.833333"/>
</g>
<defs>
<clipPath id="clip0_225_109">
<rect width="25" height="25" fill="white" transform="translate(10 10)"/>
</clipPath>
</defs>
</svg>
