<svg width="45" height="45" viewBox="0 0 45 45" fill="none" xmlns="http://www.w3.org/2000/svg">
<path d="M0 22.5C0 10.0736 10.0736 0 22.5 0C34.9264 0 45 10.0736 45 22.5C45 34.9264 34.9264 45 22.5 45C10.0736 45 0 34.9264 0 22.5Z" fill=""/>
<g clip-path="url(#clip0_411_308)">
<path d="M33.7354 14.5712C34.2221 14.0975 34.4896 13.4626 34.4885 12.7835C34.4873 12.1043 34.2177 11.4703 33.7294 10.9982C33.241 10.5262 32.5984 10.2779 31.9194 10.3003C31.2406 10.3222 30.6152 10.6111 30.1583 11.1136L29.928 11.3669L29.6962 11.1351C28.9645 10.4031 27.9914 10 26.9563 10C25.9212 10 24.9482 10.4031 24.2166 11.1351C23.4848 11.8668 23.0818 12.8398 23.0818 13.8748C23.0818 14.9102 23.4848 15.8834 24.2166 16.6152L24.7093 17.108L23.716 18.2007C22.3228 19.7333 20.948 21.2927 19.5944 22.8739L18.2117 21.4912C17.5274 20.8069 16.6176 20.43 15.6499 20.43C14.6822 20.43 13.7724 20.8069 13.0881 21.4912C12.4039 22.1754 12.0272 23.0852 12.0272 24.0531C12.0272 25.0213 12.4039 25.9313 13.0881 26.6154L14.957 28.4844C13.4775 30.338 12.0303 32.2137 10.6219 34.1064C10.454 34.3321 10.4797 34.6474 10.6819 34.8428C10.7899 34.9471 10.9302 35.0001 11.071 35.0001C11.194 35.0001 11.3175 34.9597 11.42 34.8778C13.2519 33.4154 15.0656 31.9152 16.8565 30.384L18.6079 32.1353C18.7171 32.2446 18.8603 32.2992 19.0035 32.2992C19.1467 32.2992 19.29 32.2446 19.3992 32.1353C19.6177 31.9168 19.6177 31.5624 19.3992 31.3439L17.7077 29.6524C18.973 28.5589 20.2261 27.45 21.4648 26.3271L23.5635 28.4258C24.5014 29.3636 25.7484 29.8801 27.075 29.8801C28.4015 29.8801 29.6485 29.3637 30.5863 28.4259C31.5246 27.4879 32.0412 26.2409 32.0412 24.9144C32.0412 23.5878 31.5246 22.3408 30.5864 21.4029L28.677 19.4936L32.5765 15.699C32.7667 16.0248 32.8686 16.3964 32.8686 16.7836C32.8686 17.3596 32.6444 17.9011 32.237 18.3085L32.0571 18.4884C31.8386 18.7069 31.8387 19.0613 32.0572 19.2798C32.1665 19.389 32.3096 19.4436 32.4528 19.4436C32.596 19.4436 32.7393 19.3889 32.8486 19.2797L33.0283 19.0998C33.647 18.4811 33.9878 17.6586 33.9878 16.7836C33.9878 16.1008 33.7794 15.4503 33.3941 14.9033L33.7354 14.5712ZM25.0079 15.8238C24.4876 15.3034 24.2009 14.6113 24.2009 13.8748C24.2009 13.1388 24.4876 12.4468 25.008 11.9264C25.5283 11.4058 26.2202 11.1192 26.9563 11.1192C27.6925 11.1192 28.3844 11.4058 28.9047 11.9264L29.1743 12.196L25.463 16.2788L25.0079 15.8238ZM24.5441 18.9535L29.9666 12.9883L30.5061 13.5278L29.3705 14.7026C29.1558 14.9248 29.1618 15.2791 29.384 15.4939C29.4926 15.5988 29.6328 15.6511 29.7729 15.6511C29.9193 15.6511 30.0655 15.594 30.1753 15.4804L32.4983 13.077C32.7131 12.8548 32.707 12.5005 32.4848 12.2858C32.2626 12.071 31.9083 12.0771 31.6936 12.2992L31.284 12.723L30.7202 12.1593L30.9864 11.8665C31.2378 11.5899 31.5819 11.431 31.9555 11.4189C31.9707 11.4184 31.986 11.4182 32.0011 11.4182C32.3577 11.4182 32.6937 11.5538 32.9515 11.803C33.2202 12.0627 33.3686 12.4116 33.3692 12.7854C33.3698 13.1591 33.2226 13.5085 32.9548 13.7691L26.0909 20.4485C24.5873 21.9116 23.0557 23.3565 21.5009 24.7803L20.3882 23.6676C21.7528 22.0724 23.139 20.4993 24.5441 18.9535ZM13.8795 25.824C13.4067 25.3513 13.1463 24.7223 13.1463 24.0531C13.1463 23.3841 13.4067 22.7553 13.8795 22.2826C14.3524 21.8096 14.9812 21.5492 15.65 21.5492C16.3187 21.5492 16.9475 21.8096 17.4204 22.2826L18.8668 23.729C17.7835 25.0082 16.7146 26.3014 15.6617 27.6063L13.8795 25.824ZM14.3958 31.0004C16.1054 28.8093 17.8633 26.6471 19.6607 24.5229L20.6726 25.5348C18.6165 27.3976 16.5213 29.2225 14.3958 31.0004ZM29.7951 22.1942C30.5218 22.9208 30.9221 23.8868 30.9221 24.9143C30.9221 25.9418 30.5219 26.9078 29.795 27.6343C29.0686 28.3607 28.1025 28.7608 27.075 28.7608C26.0474 28.7608 25.0813 28.3607 24.3549 27.6343L22.2932 25.5726C23.8439 24.1518 25.3715 22.7101 26.8714 21.2506L27.8749 20.274L29.7951 22.1942Z" fill="#991850"/>
</g>
<defs>
<clipPath id="clip0_411_308">
<rect width="25" height="25" fill="white" transform="translate(10 10)"/>
</clipPath>
</defs>
</svg>
