<svg width="45" height="45" viewBox="0 0 45 45" fill="none" xmlns="http://www.w3.org/2000/svg">
<path d="M0 22.5C0 10.0736 10.0736 0 22.5 0C34.9264 0 45 10.0736 45 22.5C45 34.9264 34.9264 45 22.5 45C10.0736 45 0 34.9264 0 22.5Z" fill=""/>
<g clip-path="url(#clip0_473_56)">
<path d="M29.5981 10.7771C29.5275 10.798 29.4203 10.8268 29.3628 10.8425C29.3053 10.8608 29.2242 10.8843 29.1798 10.8948C29.1379 10.9079 28.9837 10.9497 28.8399 10.9863C28.6961 11.0229 28.4791 11.083 28.3562 11.117C28.0216 11.2137 27.9955 11.219 27.3758 11.3889C27.0595 11.4752 26.7432 11.5641 26.67 11.585C26.5994 11.6033 26.3981 11.6582 26.2255 11.7026C25.7889 11.8177 25.7 11.8516 25.6268 11.9405C25.5275 12.0556 25.517 12.1732 25.5824 12.3745C25.6138 12.4686 25.6321 12.5523 25.6242 12.5628C25.6138 12.5706 24.2935 12.5811 22.6909 12.5837C19.9353 12.5915 19.7706 12.5941 19.6948 12.6386C19.6504 12.6647 19.5902 12.7248 19.5615 12.7745C19.5118 12.8582 19.5092 12.9079 19.5144 13.9431C19.5196 14.6464 19.5118 15.0412 19.4935 15.0752C19.4804 15.1013 19.2634 15.2686 19.0151 15.4438C18.7693 15.6216 18.5549 15.7758 18.5392 15.7863C18.5262 15.7994 18.1549 16.0634 17.7157 16.3719C17.2765 16.683 16.8138 17.0124 16.6857 17.1039L16.4504 17.2713L15.8098 17.266L15.1667 17.2582L15.1379 17.1013C15.0464 16.6281 14.9392 16.0948 14.9183 16.0033C14.9053 15.9458 14.8765 15.7915 14.853 15.6634C14.7301 15.002 14.5471 14.6177 14.1758 14.2647C13.9301 14.0294 13.6556 13.8726 13.2974 13.7601C13.1379 13.7105 13.049 13.7052 11.9589 13.6948C10.6647 13.6843 10.6987 13.6817 10.568 13.8543C10.4477 14.0111 10.4896 14.2255 10.6621 14.3484L10.7484 14.4085L11.8987 14.4216C12.5314 14.4294 13.0726 14.4451 13.1013 14.4582C13.1301 14.4686 13.2033 14.5026 13.2634 14.5288C13.3262 14.5549 13.3811 14.5784 13.3889 14.5784C13.3968 14.5784 13.4674 14.6255 13.5458 14.683C13.687 14.7876 13.8674 14.9915 13.9379 15.1248C13.9928 15.232 14.0791 15.517 14.1105 15.6869C14.1419 15.8569 14.1445 15.8699 14.2517 16.4085C14.3379 16.8425 14.3536 16.9131 14.4085 17.1928C14.4321 17.3157 14.4608 17.4726 14.4765 17.5458C14.4922 17.6164 14.5131 17.7288 14.5236 17.7941C14.5654 18.032 14.8425 19.4046 14.866 19.4935C14.8791 19.5431 14.9209 19.7445 14.9575 19.9379C14.9941 20.1314 15.036 20.3379 15.049 20.3954C15.0621 20.453 15.104 20.6647 15.1406 20.866C15.1772 21.0673 15.219 21.2739 15.2321 21.3235C15.253 21.4046 15.3889 22.0686 15.4412 22.3562C15.4517 22.4137 15.4857 22.5837 15.517 22.7353C15.5458 22.8869 15.585 23.0752 15.6007 23.1536C15.6164 23.232 15.6399 23.3445 15.6504 23.402C15.6713 23.4961 15.7 23.6425 15.7837 24.0686C15.7994 24.1471 15.8229 24.2595 15.8334 24.317C15.8464 24.3745 15.8752 24.5105 15.8961 24.6177C15.917 24.7248 15.9406 24.8477 15.951 24.8922C15.9589 24.934 15.9772 25.0229 15.9876 25.0882C16.0321 25.334 16.3066 26.7013 16.3301 26.7876C16.351 26.8634 16.4896 27.5431 16.5314 27.7811C16.5523 27.8882 16.6673 28.4634 16.6961 28.6046C16.7118 28.6752 16.7693 28.9706 16.8268 29.2582C17.0386 30.3248 17.07 30.4608 17.1693 30.6699C17.3758 31.117 17.7732 31.4621 18.2386 31.5981C18.5811 31.7 18.5575 31.6739 18.4713 31.8516C18.1915 32.4164 18.2961 33.0856 18.7353 33.5667C19.0386 33.8987 19.4098 34.0582 19.8778 34.0582C20.3092 34.0608 20.636 33.9275 20.9445 33.6242C21.4255 33.151 21.5562 32.4817 21.2843 31.8726C21.2477 31.7889 21.219 31.7131 21.219 31.7C21.219 31.6869 22.8399 31.6765 24.866 31.6765C27.951 31.6765 28.5131 31.6817 28.5131 31.7131C28.5131 31.7314 28.4843 31.8124 28.4504 31.8882C28.3615 32.0974 28.3223 32.2909 28.3249 32.5235C28.3275 32.7981 28.3667 32.9523 28.4896 33.2085C28.6778 33.5928 29.0412 33.8935 29.4647 34.0137C29.6739 34.0765 30.0974 34.0739 30.304 34.0111C30.8164 33.8569 31.2321 33.4333 31.3758 32.9183C31.4229 32.7431 31.4203 32.2673 31.3706 32.0869C31.3262 31.9301 31.1876 31.6739 31.0778 31.5379C30.8347 31.2451 30.5758 31.0882 30.1602 30.9889C30.0791 30.9706 28.2595 30.9575 24.2647 30.9471L18.487 30.9314L18.3432 30.8634C18.2647 30.8268 18.1392 30.7405 18.0634 30.6726C17.8438 30.4739 17.7915 30.3353 17.6216 29.4935C17.5379 29.0909 17.47 28.7248 17.47 28.683L17.4673 28.6046L23.6373 28.5915L29.8072 28.5784L30.0425 28.5079C30.4216 28.3954 30.704 28.2673 30.9968 28.0739C31.2896 27.8778 31.5379 27.6399 31.7366 27.3654C32.1157 26.8451 32.2281 26.5497 32.3955 25.6111C32.4347 25.402 32.4739 25.1902 32.487 25.1405C32.5 25.0909 32.5419 24.8791 32.5785 24.6699C32.6151 24.4608 32.6595 24.2386 32.6726 24.1732C32.7196 23.9562 32.8085 23.5065 32.8268 23.3889C32.8477 23.2739 32.8634 23.1928 32.9445 22.7745C32.9654 22.6595 32.9889 22.5288 32.9968 22.4869C33.0046 22.4425 33.0229 22.3484 33.036 22.2778C33.0517 22.2046 33.0909 21.9928 33.1275 21.8072C33.1641 21.619 33.2059 21.4072 33.219 21.3366C33.2347 21.2634 33.2739 21.0516 33.3105 20.866C33.3471 20.6778 33.3863 20.466 33.402 20.3954C33.4151 20.3222 33.4569 20.1052 33.4935 19.9118C33.5301 19.7183 33.5693 19.4987 33.585 19.4281C33.6556 19.0856 33.7236 18.7379 33.7419 18.6307C33.768 18.4765 33.8072 18.2726 33.8621 18.0164C33.9379 17.6347 33.9379 17.5431 33.8621 17.4412C33.8229 17.3915 33.7654 17.3366 33.734 17.3183C33.6922 17.2922 33.4307 17.2817 32.7615 17.2713L31.849 17.2582L31.8307 17.1798C31.802 17.0647 31.5902 16.2438 31.4778 15.8203C31.4255 15.619 31.3732 15.4124 31.3628 15.3628C31.3523 15.3131 31.3183 15.1824 31.2896 15.0752C31.1144 14.4268 31.0647 14.2412 31.049 14.1601C31.036 14.1105 30.9837 13.9039 30.9314 13.7026C30.8765 13.5013 30.8242 13.2948 30.8138 13.2451C30.8033 13.1954 30.7615 13.036 30.7223 12.8922C30.683 12.7484 30.6124 12.4765 30.5654 12.2909C30.5157 12.1026 30.4347 11.7863 30.3824 11.585C30.3301 11.3837 30.2778 11.1771 30.2673 11.1275C30.236 10.9837 30.1602 10.8425 30.0817 10.7876C29.9928 10.7248 29.7941 10.7196 29.5981 10.7771ZM29.6791 11.7941C29.7105 11.9222 29.768 12.1471 29.8072 12.2909C29.8464 12.4347 29.8883 12.5941 29.8987 12.6438C29.9118 12.6935 29.951 12.853 29.9902 12.9967C30.0294 13.1405 30.0687 13.3 30.0817 13.3497C30.0922 13.3994 30.134 13.5588 30.1732 13.7026C30.2124 13.8464 30.2543 14.0059 30.2647 14.0556C30.2778 14.1052 30.3275 14.3065 30.3772 14.5C30.4294 14.6935 30.5236 15.0595 30.5889 15.3105C30.6517 15.5614 30.7249 15.8386 30.7484 15.9248C30.7719 16.0111 30.8007 16.1235 30.8138 16.1732C30.8242 16.2229 30.887 16.4739 30.9549 16.7275C31.0203 16.9837 31.0752 17.2085 31.0752 17.232C31.0752 17.266 31.0046 17.2713 30.5602 17.2713L30.0425 17.2686L29.8412 17.0333L29.6373 16.7954V14.8556V12.9157L29.5798 12.8007C29.5432 12.7327 29.483 12.6621 29.4281 12.6307C29.3392 12.5811 29.287 12.5784 27.8857 12.5706C26.7902 12.5654 26.4321 12.5549 26.4164 12.5314C26.3589 12.4425 26.4138 12.4111 26.8268 12.2987C26.9262 12.2726 27.0229 12.2464 27.2713 12.1758C27.4177 12.1366 28.5079 11.8386 28.6177 11.8098C28.7223 11.7811 28.887 11.734 29.2582 11.6268C29.402 11.585 29.5432 11.5536 29.5719 11.5536C29.6138 11.5588 29.6321 11.6007 29.6791 11.7941ZM28.8216 13.3131L28.8791 13.3288V14.6229V15.9144L28.6778 15.6843C28.568 15.5588 28.466 15.4412 28.4504 15.4229C28.4347 15.4072 28.3275 15.2817 28.2124 15.1458C27.9092 14.785 27.7732 14.7118 27.5824 14.8033C27.5301 14.8268 26.9026 15.3941 26.1889 16.0608L24.8922 17.2713H24.6255C24.3928 17.2713 24.3562 17.266 24.3562 17.2294C24.3562 17.1798 24.4033 16.9967 24.4347 16.9183C24.4608 16.8582 24.6778 16.1706 24.8373 15.6373C24.9288 15.3366 24.9392 15.2686 24.9053 15.1719C24.866 15.049 24.7824 14.9784 24.602 14.9157C24.5183 14.8843 24.3353 14.8216 24.1994 14.7719C24.0634 14.7248 23.7628 14.6203 23.5327 14.5392C23.3026 14.4556 23.0674 14.3745 23.0098 14.3562C22.9523 14.3379 22.6987 14.2464 22.4477 14.1575C22.1105 14.0373 21.9458 13.9902 21.8177 13.9824C21.6477 13.9745 21.6451 13.9745 21.5562 14.0739C21.4778 14.1601 21.4229 14.3039 21.1301 15.1928C20.9445 15.7523 20.7144 16.4477 20.6177 16.7353L20.4425 17.2582L20.3484 17.266L20.2517 17.2739L20.2464 15.3366C20.2412 14.2699 20.2464 13.3758 20.2569 13.3471C20.2752 13.2974 20.3432 13.2974 24.5183 13.2974C26.853 13.2974 28.7876 13.3052 28.8216 13.3131ZM22.4347 14.934C22.6229 14.9994 22.8033 15.0621 22.8399 15.0752C22.9811 15.1222 23.9562 15.4647 24.0242 15.4909C24.1079 15.5248 24.1105 15.5379 24.0451 15.7262C24.0164 15.8072 23.951 16.0137 23.8987 16.1863C23.7785 16.5784 23.6294 17.0464 23.585 17.1667L23.551 17.2582L22.419 17.266C21.7941 17.2686 21.2713 17.266 21.253 17.2608C21.2347 17.253 21.2582 17.1458 21.3288 16.9262C21.3863 16.7484 21.4412 16.5811 21.4543 16.5523C21.4674 16.5235 21.5902 16.1471 21.7314 15.7157C22.0111 14.8477 22.0242 14.8137 22.066 14.8137C22.0817 14.8137 22.249 14.8686 22.4347 14.934ZM28.1419 16.1837C28.3536 16.4294 28.5575 16.6647 28.5968 16.7092C28.7876 16.9262 29.036 17.232 29.036 17.2503C29.036 17.2608 28.351 17.2713 27.517 17.2713C26.1183 17.2713 26.0007 17.2686 26.0321 17.2294C26.0817 17.1693 26.4739 16.798 27.266 16.0582C27.619 15.7288 27.6843 15.6765 27.7209 15.7052C27.7419 15.7235 27.9327 15.9405 28.1419 16.1837ZM19.5066 16.6229C19.4987 16.9445 19.4935 17.2216 19.4935 17.2373C19.4935 17.2634 19.3026 17.2713 18.6307 17.2713C18.1575 17.2713 17.768 17.2634 17.768 17.2503C17.768 17.2399 17.849 17.1745 17.9484 17.1065C18.0477 17.036 18.1497 16.9628 18.1758 16.9418C18.5236 16.6804 19.4386 16.0451 19.4726 16.0425C19.5118 16.0425 19.5144 16.0896 19.5066 16.6229ZM33.0987 18.0242C33.104 18.0347 33.0778 18.215 33.036 18.4216C32.9941 18.6307 32.9314 18.9654 32.8922 19.1667C32.8556 19.368 32.8138 19.5798 32.8007 19.6373C32.7876 19.6948 32.7562 19.8464 32.7327 19.9771C32.6935 20.2046 32.5419 20.9915 32.487 21.2582C32.4713 21.3288 32.4321 21.5484 32.3955 21.7418C32.3249 22.1235 32.2857 22.3222 32.2517 22.4869C32.2386 22.5445 32.2098 22.6909 32.1889 22.8137C32.1654 22.9366 32.134 23.0935 32.1209 23.1667C32.0399 23.5719 31.9824 23.8778 31.8857 24.3824C31.8281 24.6909 31.768 25.002 31.7523 25.0752C31.7392 25.1458 31.7157 25.2634 31.7026 25.3366C31.5353 26.1863 31.5066 26.2909 31.3837 26.5523C31.1066 27.1353 30.5889 27.5667 29.8961 27.7837L29.7026 27.8464L23.517 27.8543L17.3314 27.8595L17.3026 27.7235C17.2843 27.6477 17.2425 27.4438 17.2085 27.2713C17.1745 27.0987 17.1379 26.9209 17.1275 26.8791C17.1196 26.8347 17.1013 26.7484 17.0883 26.683C17.0778 26.6177 17.036 26.4111 16.9968 26.2255C16.9575 26.0373 16.9157 25.8386 16.9053 25.7811C16.8948 25.7235 16.853 25.5222 16.8138 25.3366C16.7745 25.1484 16.7379 24.968 16.7301 24.9314C16.7066 24.8111 16.5602 24.0817 16.5366 23.9771C16.5262 23.9196 16.4974 23.7837 16.4765 23.6765C16.4556 23.5693 16.3824 23.2216 16.317 22.9052C16.2517 22.5889 16.1053 21.8647 15.9902 21.2974C15.8046 20.3798 15.7549 20.1471 15.6504 19.6373C15.619 19.4804 15.504 18.9079 15.4647 18.7222C15.4517 18.649 15.4124 18.466 15.3785 18.3118C15.3445 18.1575 15.3236 18.0242 15.3314 18.0164C15.3549 17.9954 33.083 18.0007 33.0987 18.0242ZM20.1471 31.7471C20.3301 31.8046 20.5392 31.9981 20.6203 32.1784C20.7092 32.3824 20.7066 32.6595 20.6124 32.853C20.4556 33.1745 20.2229 33.3235 19.8726 33.3235C19.7053 33.3235 19.6347 33.3105 19.5275 33.2608C19.2216 33.117 19.0334 32.8059 19.0543 32.4817C19.0778 32.1288 19.3079 31.8333 19.6504 31.7209C19.7392 31.6896 20.019 31.7052 20.1471 31.7471ZM30.1419 31.7392C30.3693 31.8203 30.5706 32.0216 30.649 32.2438C30.6673 32.2987 30.683 32.419 30.683 32.5131C30.683 32.7693 30.5994 32.9628 30.4216 33.1248C30.2569 33.2739 30.1157 33.3235 29.8647 33.3235C29.6138 33.3235 29.4883 33.2765 29.3183 33.117C29.1484 32.9628 29.0778 32.8033 29.0674 32.5523C29.0569 32.3248 29.104 32.168 29.2321 32.0007C29.3079 31.9013 29.5301 31.7549 29.6451 31.7288C29.7811 31.6948 30.0347 31.7026 30.1419 31.7392Z" fill="#991850"/>
</g>
<defs>
<clipPath id="clip0_473_56">
<rect width="24.366" height="24" fill="white" transform="translate(10.317 10.5)"/>
</clipPath>
</defs>
</svg>
