<svg width="45" height="45" viewBox="0 0 45 45" fill="none" xmlns="http://www.w3.org/2000/svg">
<path d="M0 22.5C0 10.0736 10.0736 0 22.5 0C34.9264 0 45 10.0736 45 22.5C45 34.9264 34.9264 45 22.5 45C10.0736 45 0 34.9264 0 22.5Z" fill=""/>
<g clip-path="url(#clip0_473_78)">
<path d="M20.0901 10.5496C19.7827 10.6736 19.6389 11.0851 19.7926 11.3876C19.9563 11.695 20.0306 11.7149 21.3001 11.7298L22.4505 11.7496V12.8603C22.4505 13.7281 22.4356 13.9711 22.386 13.9711C22.2372 13.9711 21.4488 14.0802 21.0868 14.1496C19.6141 14.4372 18.0571 15.1264 16.9215 15.9992C16.4207 16.381 15.8009 16.9562 15.7215 17.1149C15.5579 17.4273 15.7711 17.8884 16.1083 17.9579C16.3711 18.0074 16.5496 17.9331 16.9017 17.6058C18.2703 16.3512 20.0207 15.5132 21.8306 15.2554C22.391 15.1711 23.8339 15.176 24.3596 15.2554C24.91 15.3446 25.4753 15.4785 25.981 15.6521C29.6505 16.8917 32.1199 20.3331 32.1199 24.2008C32.1199 26.7 31.1529 28.9959 29.3877 30.7116C27.9893 32.0603 26.3034 32.8983 24.3992 33.186C23.7348 33.2851 22.4554 33.2851 21.7959 33.186C19.9463 32.9083 18.2108 32.0752 16.8819 30.8306C16.6042 30.5727 16.5149 30.5182 16.3364 30.4983C15.8306 30.4388 15.4984 30.9198 15.7265 31.3661C15.8455 31.5992 16.7331 32.3479 17.4422 32.814C19.4257 34.1231 21.8753 34.7033 24.2604 34.4256C27.7265 34.024 30.6918 31.9413 32.2637 28.8074C33.6422 26.0653 33.7017 22.8322 32.4323 19.9909C32.0455 19.1281 31.6538 18.5033 30.91 17.5711L30.7711 17.3926L31.391 16.7727C31.7331 16.4306 32.0306 16.1529 32.0554 16.1529C32.0802 16.1529 32.2538 16.3116 32.4422 16.5C32.8091 16.8669 33.0323 16.976 33.2951 16.9165C33.6075 16.8421 33.8158 16.4901 33.7315 16.1678C33.6968 16.014 31.4951 13.7678 31.267 13.6438C30.9744 13.4901 30.5976 13.6091 30.4587 13.9017C30.305 14.2289 30.3744 14.4174 30.8406 14.8983L31.1976 15.2653L30.5827 15.8802C30.2406 16.2223 29.943 16.5 29.9133 16.5C29.8835 16.5 29.7298 16.3909 29.5662 16.262C27.9447 14.9529 26.1149 14.2041 24.0273 13.9909L23.6901 13.9612V12.8504V11.7446L24.8455 11.7298C25.8472 11.7149 26.0158 11.705 26.1348 11.6256C26.4323 11.4322 26.5265 11.0554 26.343 10.7777C26.1546 10.495 26.229 10.5 23.0852 10.505C21.4934 10.505 20.1496 10.5248 20.0901 10.5496Z" fill="#991850"/>
<path d="M22.7033 16.7281C22.505 16.8967 22.4504 17.1099 22.4504 17.7645C22.4504 18.4141 22.505 18.6322 22.6984 18.8008C23.0009 19.0488 23.3827 18.9893 23.5909 18.657C23.6802 18.5132 23.6901 18.4141 23.6901 17.7645C23.6901 17.1794 23.6752 17.0108 23.6108 16.8967C23.4223 16.5843 22.9761 16.5 22.7033 16.7281Z" fill="#991850"/>
<path d="M25.7876 20.6752L24.0868 22.3711L23.9132 22.2868C23.6008 22.138 23.0951 22.0785 22.738 22.143C21.5876 22.3562 20.8141 23.4273 21.0025 24.5578C21.2356 25.9562 22.748 26.7446 24.0075 26.1248C24.9645 25.6537 25.4108 24.5529 25.0686 23.5165L24.9645 23.1892L26.6256 21.5182C27.7711 20.3677 28.3017 19.8025 28.3215 19.7033C28.4058 19.3463 28.1033 18.9793 27.7166 18.9793H27.4885L25.7876 20.6752ZM23.6157 23.5116C24.3347 24.062 23.8885 25.2025 22.9909 25.1182C22.5397 25.0735 22.2025 24.7016 22.2025 24.2454C22.2025 23.9529 22.2769 23.7793 22.4851 23.581C22.6835 23.3925 22.8323 23.343 23.1546 23.3578C23.3678 23.3677 23.4719 23.4074 23.6157 23.5116Z" fill="#991850"/>
<path d="M11.5364 19.8074C11.1496 20.0454 11.1546 20.6008 11.5414 20.8339C11.6653 20.9033 11.9876 20.9132 14.6405 20.9132C17.2934 20.9132 17.6157 20.9033 17.7397 20.8339C18.1314 20.6008 18.1314 20.0355 17.7397 19.8025C17.6157 19.733 17.2934 19.7231 14.6306 19.7231C11.9777 19.7281 11.6504 19.733 11.5364 19.8074Z" fill="#991850"/>
<path d="M12.8554 23.814C12.7116 23.9628 12.6819 24.0273 12.6819 24.2008C12.6868 24.4537 12.7662 24.6074 12.9596 24.7364C13.0984 24.8256 13.2224 24.8306 16.0538 24.8306C18.91 24.8306 19.0092 24.8256 19.1678 24.7314C19.5249 24.5132 19.5645 24.0719 19.2472 23.7942L19.0736 23.6405H16.0538H13.034L12.8554 23.814Z" fill="#991850"/>
<path d="M28.6389 23.7199C28.4654 23.8091 28.3513 24.0273 28.3513 24.2603C28.3513 24.3893 28.3959 24.4835 28.5199 24.6223L28.6885 24.8058L29.4769 24.8207C30.3497 24.8356 30.434 24.8157 30.6174 24.538C30.7513 24.3397 30.7612 24.186 30.6571 23.9678C30.5183 23.6802 30.3844 23.6405 29.5315 23.6405C28.9563 23.6455 28.7381 23.6603 28.6389 23.7199Z" fill="#991850"/>
<path d="M11.7149 27.543C11.3132 27.6471 11.1297 28.0885 11.343 28.4356C11.5413 28.7628 11.4223 28.7529 14.7198 28.738L17.7 28.7232L17.8686 28.5298C18.1264 28.2323 18.0768 27.8455 17.7545 27.6273C17.6206 27.538 17.4768 27.5331 14.7149 27.5281C13.1182 27.5232 11.7694 27.5281 11.7149 27.543Z" fill="#991850"/>
<path d="M27.0125 27.8108C26.7001 27.9347 26.5563 28.2422 26.6604 28.5595C26.7348 28.7876 27.6819 29.7248 27.9001 29.7893C28.1282 29.8537 28.3315 29.7992 28.4951 29.6356C28.6538 29.4818 28.6935 29.338 28.6588 29.0901C28.624 28.8571 27.672 27.8802 27.4141 27.8058C27.2009 27.7463 27.1712 27.7463 27.0125 27.8108Z" fill="#991850"/>
<path d="M22.8124 29.5711C22.505 29.7248 22.4752 29.824 22.4752 30.6818C22.4752 31.5298 22.5099 31.6488 22.8025 31.8025C23.0455 31.9265 23.2736 31.8917 23.4818 31.7033L23.6653 31.5347L23.6802 30.7661C23.7 29.9033 23.6653 29.7645 23.3777 29.5909C23.1843 29.4719 23.0256 29.467 22.8124 29.5711Z" fill="#991850"/>
</g>
<defs>
<clipPath id="clip0_473_78">
<rect width="22.5124" height="24" fill="white" transform="translate(11.2438 10.5)"/>
</clipPath>
</defs>
</svg>
