<svg width="45" height="45" viewBox="0 0 45 45" fill="none" xmlns="http://www.w3.org/2000/svg">
<path d="M0 22.5C0 10.0736 10.0736 0 22.5 0C34.9264 0 45 10.0736 45 22.5C45 34.9264 34.9264 45 22.5 45C10.0736 45 0 34.9264 0 22.5Z" fill=""/>
<g clip-path="url(#clip0_473_83)">
<path d="M10.7187 11.4253C10.668 11.4493 10.5987 11.516 10.564 11.572L10.5 11.6733V14.9747C10.5 18.5293 10.4947 18.3613 10.6307 18.484C10.7587 18.6013 10.8094 18.604 12.4254 18.6067C13.2707 18.6067 13.9694 18.6147 13.9747 18.6253C13.98 18.6387 13.868 19.1853 13.724 19.8467C13.4467 21.1187 13.4174 21.252 13.38 21.42C13.3667 21.4787 13.2414 22.06 13.1 22.7133C12.9587 23.3667 12.828 23.972 12.8067 24.06C12.7694 24.2093 12.6654 24.7027 12.6094 24.98C12.5054 25.4813 12.3054 26.356 12.2894 26.3747C12.2787 26.3853 11.9214 26.5373 11.5 26.7133C11.076 26.8867 10.7 27.052 10.6627 27.0813C10.516 27.1907 10.5054 27.244 10.5027 27.8013C10.5 28.3693 10.5214 28.4627 10.6787 28.5693C10.7507 28.62 10.9 28.62 16.78 28.62C22.58 28.62 22.8094 28.6173 22.8787 28.572C22.9187 28.5453 22.9747 28.4707 23.0067 28.4067C23.06 28.2973 23.0627 28.2547 23.0547 27.676C23.044 26.7987 23.132 26.876 21.8334 26.6333C21.6654 26.6013 21.412 26.5533 21.2734 26.5267C21.004 26.4733 20.5347 26.3853 19.94 26.2733C19.372 26.1667 19.3267 26.1533 19.3267 26.1053C19.3267 26.0787 19.34 25.9693 19.356 25.86C19.3694 25.7507 19.3934 25.5693 19.4067 25.46C19.4387 25.1987 19.556 24.2787 19.5934 24.0067C19.6094 23.8893 19.6334 23.692 19.6494 23.5667C19.6947 23.1587 19.684 23.18 19.876 23.0893C19.972 23.044 20.0547 23.0067 20.06 23.0067C20.0654 23.0067 20.1747 22.9587 20.3 22.9C20.4254 22.8413 20.5347 22.7933 20.5427 22.7933C20.596 22.7933 20.7667 22.6387 20.804 22.5587C20.828 22.5053 20.9534 21.9133 21.084 21.2467C21.2174 20.58 21.3347 19.98 21.3507 19.9133C21.444 19.492 21.492 19.172 21.4787 19.052C21.468 18.94 21.452 18.9027 21.3747 18.8307C21.284 18.748 21.204 18.7187 20.8334 18.6307C20.676 18.5907 20.6734 18.588 20.6654 18.4947L20.6574 18.3987L20.8254 18.3827C20.9187 18.3747 21.372 18.3613 21.8334 18.3533C22.2947 18.3427 22.716 18.3267 22.7667 18.3107C22.8254 18.2947 23.3427 17.9107 24.18 17.2573C25.748 16.0387 25.7507 16.036 25.796 15.924C25.8254 15.852 25.8334 15.5347 25.8334 14.22C25.8334 12.476 25.8387 12.5347 25.692 12.396C25.6227 12.332 25.5267 12.2973 23.6814 11.6893L22.7427 11.38H16.7747C11.2867 11.38 10.7987 11.3853 10.7187 11.4253ZM23.7827 12.5533C24.4494 12.7747 25.0014 12.964 25.0147 12.9773C25.0254 12.988 25.036 13.58 25.036 14.2893L25.0334 15.58L24.9587 15.6467C24.916 15.684 24.7934 15.7827 24.684 15.8653C24.5747 15.9507 24.0494 16.3587 23.5134 16.7773L22.5427 17.5373L22.3267 17.5507C22.2094 17.5587 21.6734 17.5747 21.1347 17.5907C20.0414 17.6173 20.0387 17.6173 19.9267 17.8067C19.8787 17.8893 19.8734 17.9533 19.8654 18.396C19.86 18.7 19.868 18.9347 19.884 19.0013C19.932 19.1747 20.052 19.2573 20.3534 19.3293C20.4974 19.3613 20.6174 19.404 20.6254 19.4227C20.6387 19.46 20.1374 22.0333 20.1054 22.0973C20.092 22.1187 19.892 22.22 19.6574 22.324C19.1107 22.5667 19.0414 22.6093 18.9907 22.7293C18.9694 22.7827 18.932 22.9587 18.9134 23.124C18.892 23.2867 18.8627 23.516 18.8467 23.6333C18.8307 23.7507 18.8067 23.9373 18.7934 24.0467C18.78 24.156 18.7507 24.3907 18.7267 24.5667C18.7027 24.7427 18.6734 24.9773 18.66 25.0867C18.6467 25.196 18.604 25.5213 18.5667 25.8067C18.4867 26.4387 18.484 26.5667 18.5534 26.6787C18.6467 26.8333 18.5907 26.8173 20.4334 27.1693C20.7427 27.228 21.0547 27.2867 21.1267 27.3027C21.2014 27.316 21.4227 27.3587 21.62 27.396C21.8174 27.4333 22.044 27.476 22.1214 27.492L22.2627 27.5213L22.2547 27.684L22.2467 27.8467H16.78H11.3134V27.7453V27.644L12.0547 27.3373C12.4654 27.1693 12.828 27.012 12.8627 26.9853C12.98 26.9053 13.0254 26.7667 13.1907 25.9933C13.2814 25.5747 13.372 25.1613 13.3934 25.0733C13.4147 24.9853 13.4574 24.7933 13.4867 24.6467C13.516 24.5 13.5534 24.3293 13.5667 24.2653C13.5827 24.204 13.604 24.1027 13.62 24.0387C13.6334 23.9773 13.7587 23.3933 13.9 22.74C14.0414 22.0867 14.1667 21.5053 14.18 21.4467C14.1934 21.388 14.236 21.196 14.2734 21.02C14.3107 20.844 14.3534 20.652 14.3667 20.5933C14.4894 20.0653 14.8734 18.2493 14.8734 18.1933C14.8734 18.068 14.7774 17.924 14.652 17.8627C14.5374 17.8067 14.508 17.8067 12.9187 17.8067H11.3V14.98V12.1533H16.9374H22.5747L23.7827 12.5533Z" fill="#991850"/>
<path d="M26.7 12.3266C26.556 12.3773 26.4574 12.5 26.436 12.652C26.4094 12.844 26.4174 15.54 26.4467 15.6573C26.46 15.7186 26.508 15.8013 26.564 15.8573L26.66 15.9533H27.5614H28.4654L28.5614 15.8786C28.74 15.7426 28.7427 15.716 28.7347 14.0706C28.7267 12.6573 28.724 12.6173 28.6707 12.5133C28.5614 12.3053 28.54 12.3 27.62 12.2946C26.9694 12.2893 26.7854 12.2946 26.7 12.3266ZM27.9347 14.132L27.9267 15.18H27.58H27.2334L27.2254 14.132L27.22 13.0866H27.58H27.94L27.9347 14.132Z" fill="#991850"/>
<path d="M29.3347 13.1293C29.2867 13.1533 29.22 13.2173 29.188 13.2707C29.1267 13.364 29.1267 13.3827 29.1267 14.1533C29.1267 14.9187 29.1294 14.9427 29.1854 15.036C29.2627 15.1587 29.3587 15.2067 29.5267 15.2067C29.7694 15.204 29.884 15.0653 29.9107 14.7427L29.9267 14.54L32.0467 14.532C34.0787 14.524 34.172 14.5213 34.276 14.4707C34.604 14.316 34.5534 13.8547 34.196 13.756C34.1267 13.7373 33.4254 13.7347 32.0067 13.7453L29.9214 13.7613L29.908 13.5613C29.8894 13.2573 29.7827 13.1213 29.5454 13.0973C29.46 13.0893 29.3934 13.0973 29.3347 13.1293Z" fill="#991850"/>
<path d="M10.8227 29.3267C10.7107 29.3533 10.6094 29.428 10.5507 29.5293C10.508 29.5987 10.5027 29.732 10.5027 30.9507C10.5 31.884 10.508 32.3267 10.5294 32.3907C10.6307 32.7053 10.6814 32.8173 10.8094 32.9773C10.98 33.196 11.2627 33.396 11.4734 33.444C11.5187 33.4547 11.6014 33.4947 11.6574 33.5347L11.7614 33.6067L16.764 33.6147C20.3747 33.62 21.812 33.6147 21.9267 33.5933C22.324 33.5187 22.716 33.2227 22.8947 32.8627C23.0574 32.5373 23.0627 32.46 23.0547 30.9427L23.0467 29.58L22.9854 29.492C22.9507 29.444 22.884 29.3853 22.8387 29.3587C22.7587 29.316 22.396 29.3133 16.8334 29.308C13.5774 29.308 10.8734 29.316 10.8227 29.3267ZM22.2547 31.2653L22.2467 32.4333L22.1694 32.5453C22.1294 32.6067 22.0334 32.6973 21.9587 32.7453L21.82 32.8333L17.02 32.8413C12.2867 32.8493 12.2174 32.8467 12.1134 32.796C12.0547 32.7667 11.932 32.732 11.8414 32.716C11.6254 32.6813 11.468 32.5747 11.372 32.3987L11.3 32.2653V31.1827V30.1H16.78H22.2627L22.2547 31.2653Z" fill="#991850"/>
</g>
<defs>
<clipPath id="clip0_473_83">
<rect width="24" height="24" fill="white" transform="translate(10.5 10.5)"/>
</clipPath>
</defs>
</svg>
