<svg width="24" height="25" viewBox="0 0 24 25" fill="none" xmlns="http://www.w3.org/2000/svg">
<g id="ruler">
<g id="Group">
<path id="Vector" d="M23.4595 1.01929H19.1895C18.9918 1.01929 18.819 1.12549 18.7249 1.2839C18.6935 1.3367 14.6755 9.95142 14.6755 9.95142V1.55975C14.6755 1.26125 14.4335 1.01929 14.135 1.01929H9.86497C9.66705 1.01929 9.49421 1.1257 9.40012 1.28444C9.36877 1.33735 5.35099 9.95196 5.35099 9.95196V1.55975C5.35099 1.26125 5.10902 1.01929 4.81053 1.01929H0.54046C0.241964 1.01929 0 1.26125 0 1.55975V22.4745C0 22.773 0.241964 23.0149 0.54046 23.0149H4.81053C5.00861 23.0149 5.18161 22.9083 5.27559 22.7494C5.30694 22.6964 9.32445 14.0819 9.32445 14.0819V22.4745C9.32445 22.773 9.56642 23.0149 9.86491 23.0149H14.135C14.3333 23.0149 14.5064 22.9081 14.6003 22.7489C14.6316 22.6958 18.6489 14.0813 18.6489 14.0813V22.4745C18.6489 22.773 18.8909 23.0149 19.1894 23.0149H23.4594C23.7579 23.0149 23.9999 22.773 23.9999 22.4745V1.55975C24 1.26125 23.758 1.01929 23.4595 1.01929ZM22.9191 2.10021V17.7838H19.7299V16.7624H20.8452C21.1437 16.7624 21.3857 16.5204 21.3857 16.2219C21.3857 15.9234 21.1437 15.6814 20.8452 15.6814H19.7299V14.66H20.8452C21.1437 14.66 21.3857 14.4181 21.3857 14.1196C21.3857 13.8211 21.1437 13.5791 20.8452 13.5791H19.7299V12.5576H20.8452C21.1437 12.5576 21.3857 12.3157 21.3857 12.0172C21.3857 11.7187 21.1437 11.4767 20.8452 11.4767H19.7299V10.4553H20.8452C21.1437 10.4553 21.3857 10.2133 21.3857 9.91483C21.3857 9.61633 21.1437 9.37437 20.8452 9.37437H19.7299V8.3529H20.8452C21.1437 8.3529 21.3857 8.11094 21.3857 7.81244C21.3857 7.51394 21.1437 7.27198 20.8452 7.27198H19.7299V6.25056H20.8452C21.1437 6.25056 21.3857 6.0086 21.3857 5.7101C21.3857 5.41161 21.1437 5.16964 20.8452 5.16964H19.7299V4.14812H20.8452C21.1437 4.14812 21.3857 3.90616 21.3857 3.60766C21.3857 3.30916 21.1437 3.0672 20.8452 3.0672H19.7299V2.10021H22.9191ZM18.649 4.02457V11.5357L14.6755 20.0081V12.4971L18.649 4.02457ZM9.32451 4.02511V11.5363L5.35099 20.0087V12.4976L9.32451 4.02511ZM4.27007 2.10021V5.16959H1.08092V2.10021H4.27007ZM1.08092 21.934V20.967H2.19621C2.49471 20.967 2.73667 20.7251 2.73667 20.4266C2.73667 20.1281 2.49471 19.8861 2.19621 19.8861H1.08092V18.8646H2.19621C2.49471 18.8646 2.73667 18.6227 2.73667 18.3242C2.73667 18.0257 2.49471 17.7837 2.19621 17.7837H1.08092V16.7623H2.19621C2.49471 16.7623 2.73667 16.5203 2.73667 16.2218C2.73667 15.9233 2.49471 15.6814 2.19621 15.6814H1.08092V14.66H2.19621C2.49471 14.66 2.73667 14.418 2.73667 14.1195C2.73667 13.821 2.49471 13.579 2.19621 13.579H1.08092V12.5576H2.19621C2.49471 12.5576 2.73667 12.3156 2.73667 12.0171C2.73667 11.7186 2.49471 11.4767 2.19621 11.4767H1.08092V10.4552H2.19621C2.49471 10.4552 2.73667 10.2133 2.73667 9.91478C2.73667 9.61628 2.49471 9.37432 2.19621 9.37432H1.08092V8.35285H2.19621C2.49471 8.35285 2.73667 8.11088 2.73667 7.81239C2.73667 7.51389 2.49471 7.27192 2.19621 7.27192H1.08092V6.25051H4.27007V21.9341H1.08092V21.934ZM13.5946 21.934H10.4054V20.967H11.5207C11.8192 20.967 12.0612 20.725 12.0612 20.4265C12.0612 20.128 11.8192 19.8861 11.5207 19.8861H10.4054V18.8646H11.5207C11.8192 18.8646 12.0612 18.6226 12.0612 18.3241C12.0612 18.0256 11.8192 17.7837 11.5207 17.7837H10.4054V16.7622H11.5207C11.8192 16.7622 12.0612 16.5203 12.0612 16.2218C12.0612 15.9233 11.8192 15.6813 11.5207 15.6813H10.4054V14.6599H11.5207C11.8192 14.6599 12.0612 14.4179 12.0612 14.1194C12.0612 13.821 11.8192 13.579 11.5207 13.579H10.4054V12.5575H11.5207C11.8192 12.5575 12.0612 12.3156 12.0612 12.0171C12.0612 11.7186 11.8192 11.4766 11.5207 11.4766H10.4054V10.4552H11.5207C11.8192 10.4552 12.0612 10.2132 12.0612 9.91472C12.0612 9.61623 11.8192 9.37426 11.5207 9.37426H10.4054V8.35279H11.5207C11.8192 8.35279 12.0612 8.11083 12.0612 7.81233C12.0612 7.51384 11.8192 7.27187 11.5207 7.27187H10.4054V6.25046H11.5207C11.8192 6.25046 12.0612 6.00849 12.0612 5.71C12.0612 5.4115 11.8192 5.16954 11.5207 5.16954H10.4054V4.14807H11.5207C11.8192 4.14807 12.0612 3.9061 12.0612 3.6076C12.0612 3.30911 11.8192 3.06714 11.5207 3.06714H10.4054V2.10015H13.5946V21.934ZM19.7299 21.934V18.8646H22.9191V21.934H19.7299Z" fill="#EE4C7D"/>
<path id="Vector_2" d="M2.02161 4.17565C2.16429 4.17565 2.30373 4.11782 2.40425 4.01729C2.50478 3.91622 2.56207 3.77733 2.56207 3.63519C2.56207 3.4925 2.50478 3.35361 2.40425 3.25254C2.30319 3.15202 2.16429 3.09473 2.02161 3.09473C1.87947 3.09473 1.74057 3.15202 1.6395 3.25254C1.53898 3.35361 1.48169 3.4925 1.48169 3.63519C1.48169 3.77733 1.53898 3.91677 1.6395 4.01729C1.74003 4.11782 1.87947 4.17565 2.02161 4.17565Z" fill="#EE4C7D"/>
<path id="Vector_3" d="M3.32928 4.17565C3.47142 4.17565 3.61086 4.11782 3.71138 4.01729C3.81191 3.91677 3.86974 3.77733 3.86974 3.63519C3.86974 3.49305 3.81191 3.35361 3.71138 3.25254C3.61086 3.15202 3.47142 3.09473 3.32928 3.09473C3.18714 3.09473 3.0477 3.15202 2.94717 3.25254C2.84665 3.35361 2.78882 3.49305 2.78882 3.63519C2.78882 3.77733 2.84665 3.91677 2.94717 4.01729C3.0477 4.11782 3.18714 4.17565 3.32928 4.17565Z" fill="#EE4C7D"/>
<path id="Vector_4" d="M20.6708 19.8591C20.5287 19.8591 20.3893 19.9164 20.2887 20.0169C20.1882 20.118 20.1304 20.2569 20.1304 20.3996C20.1304 20.5417 20.1882 20.6812 20.2887 20.7817C20.3893 20.8822 20.5287 20.9401 20.6708 20.9401C20.8135 20.9401 20.9524 20.8822 21.0529 20.7817C21.154 20.6806 21.2113 20.5417 21.2113 20.3996C21.2113 20.2569 21.154 20.118 21.0529 20.0169C20.9524 19.9164 20.8135 19.8591 20.6708 19.8591Z" fill="#EE4C7D"/>
<path id="Vector_5" d="M21.978 19.8591C21.8358 19.8591 21.6964 19.9164 21.5959 20.0169C21.4953 20.118 21.4375 20.2569 21.4375 20.3996C21.4375 20.5417 21.4953 20.6806 21.5959 20.7817C21.6964 20.8822 21.8358 20.9401 21.978 20.9401C22.1201 20.9401 22.2595 20.8822 22.3601 20.7817C22.4606 20.6806 22.5184 20.5417 22.5184 20.3996C22.5184 20.2569 22.4606 20.118 22.3601 20.0169C22.2595 19.9164 22.1201 19.8591 21.978 19.8591Z" fill="#EE4C7D"/>
</g>
</g>
</svg>
