<svg width="24" height="25" viewBox="0 0 24 25" fill="none" xmlns="http://www.w3.org/2000/svg">
<g id="pattern-1" clip-path="url(#clip0_407_167)">
<g id="Group">
<path id="Vector" d="M23.4146 9.9717C18.2484 9.9717 14.0453 5.76866 14.0453 0.602456C14.0453 0.279158 13.7832 0.0170898 13.46 0.0170898H0.585366C0.262127 0.0170898 0 0.279158 0 0.602456V23.4317C0 23.755 0.262127 24.0171 0.585366 24.0171H23.4146C23.7379 24.0171 24 23.755 24 23.4317V10.5571C24 10.2338 23.7379 9.9717 23.4146 9.9717ZM22.8293 22.8464H21.7073V21.8769C21.7073 21.5536 21.4452 21.2916 21.1219 21.2916C20.7987 21.2916 20.5366 21.5536 20.5366 21.8769V22.8464H12.9315C13.0418 22.6544 13.1473 22.4594 13.2451 22.2621C13.3888 21.9725 13.2705 21.6212 12.9808 21.4776C12.6913 21.3339 12.34 21.4521 12.1963 21.7418C12.0498 22.0373 11.886 22.3284 11.7098 22.6072C11.6624 22.6822 11.6348 22.7638 11.6244 22.8464H1.17073V16.8444L1.52523 16.6165C1.79713 16.4416 1.8758 16.0794 1.70096 15.8075C1.58189 15.6223 1.3759 15.527 1.17073 15.5401V8.68724C1.44281 8.57409 1.5919 8.27204 1.50714 7.98269C1.45557 7.80632 1.32802 7.67297 1.17073 7.60718V1.18782H12.8907C13.003 3.2294 13.6997 5.11768 14.8151 6.68891C14.6084 6.87787 14.5612 7.19332 14.7177 7.43678C14.8296 7.61075 15.0181 7.70558 15.2107 7.70558C15.3191 7.70558 15.4288 7.67549 15.5267 7.6125L15.5423 7.60249C16.858 9.08054 18.5824 10.1868 20.5365 10.7423V11.9258C20.5365 12.2491 20.7986 12.5111 21.1219 12.5111C21.4451 12.5111 21.7072 12.2491 21.7072 11.9258V11.0035C22.0753 11.0638 22.4495 11.1056 22.8292 11.1265V22.8464H22.8293Z" fill="#EE4C7D"/>
<path id="Vector_2" d="M8.36997 10.8228L7.41529 11.4367C7.14339 11.6116 7.06472 11.9738 7.23956 12.2457C7.35143 12.4197 7.53998 12.5146 7.7325 12.5146C7.84091 12.5146 7.95061 12.4844 8.04854 12.4215L9.00321 11.8076C9.27512 11.6327 9.35379 11.2705 9.17894 10.9986C9.00409 10.7266 8.64199 10.648 8.36997 10.8228Z" fill="#EE4C7D"/>
<path id="Vector_3" d="M11.6716 9.39558C11.4968 9.12362 11.1345 9.04489 10.8626 9.21986L9.90797 9.83373C9.63606 10.0086 9.55739 10.3708 9.73224 10.6427C9.8441 10.8167 10.0327 10.9115 10.2252 10.9115C10.3336 10.9115 10.4433 10.8814 10.5412 10.8184L11.4959 10.2046C11.7677 10.0297 11.8465 9.66748 11.6716 9.39558Z" fill="#EE4C7D"/>
<path id="Vector_4" d="M3.38461 14.0289L2.42994 14.6428C2.15804 14.8176 2.07936 15.1798 2.25421 15.4517C2.36608 15.6257 2.55462 15.7205 2.74715 15.7205C2.85556 15.7205 2.96526 15.6905 3.06319 15.6275L4.01786 15.0136C4.28976 14.8387 4.36844 14.4765 4.19359 14.2046C4.01874 13.9327 3.65663 13.854 3.38461 14.0289Z" fill="#EE4C7D"/>
<path id="Vector_5" d="M12.7179 9.30847C12.8263 9.30847 12.936 9.27839 13.0339 9.2154L13.9886 8.60153C14.2605 8.42668 14.3391 8.06446 14.1643 7.79255C13.9894 7.52059 13.6273 7.44186 13.3553 7.61683L12.4006 8.2307C12.1287 8.40555 12.0501 8.76777 12.2249 9.03967C12.3368 9.21364 12.5253 9.30847 12.7179 9.30847Z" fill="#EE4C7D"/>
<path id="Vector_6" d="M5.87729 12.4259L4.92262 13.0397C4.65071 13.2146 4.57204 13.5768 4.74689 13.8487C4.85875 14.0227 5.0473 14.1175 5.23983 14.1175C5.34824 14.1175 5.45793 14.0874 5.55587 14.0244L6.51054 13.4106C6.78244 13.2357 6.86111 12.8735 6.68627 12.6016C6.51142 12.3297 6.14931 12.251 5.87729 12.4259Z" fill="#EE4C7D"/>
<path id="Vector_7" d="M21.122 18.5403C20.7987 18.5403 20.5366 18.8024 20.5366 19.1256V20.1793C20.5366 20.5026 20.7987 20.7647 21.122 20.7647C21.4452 20.7647 21.7074 20.5026 21.7074 20.1793V19.1256C21.7074 18.8024 21.4452 18.5403 21.122 18.5403Z" fill="#EE4C7D"/>
<path id="Vector_8" d="M21.122 6.54053C20.7987 6.54053 20.5366 6.8026 20.5366 7.12589V8.17955C20.5366 8.50285 20.7987 8.76492 21.122 8.76492C21.4452 8.76492 21.7074 8.50285 21.7074 8.17955V7.12589C21.7074 6.80265 21.4452 6.54053 21.122 6.54053Z" fill="#EE4C7D"/>
<path id="Vector_9" d="M19.7612 1.90243C19.7612 2.22567 20.0233 2.48779 20.3466 2.48779L21.4003 2.48779C21.7236 2.48779 21.9856 2.22567 21.9856 1.90243C21.9856 1.57919 21.7236 1.31706 21.4003 1.31706L20.3466 1.31706C20.0234 1.31706 19.7612 1.57919 19.7612 1.90243Z" fill="#EE4C7D"/>
<path id="Vector_10" d="M21.122 13.0378C20.7987 13.0378 20.5366 13.2999 20.5366 13.6232V14.6769C20.5366 15.0002 20.7987 15.2622 21.122 15.2622C21.4452 15.2622 21.7074 15.0002 21.7074 14.6769V13.6232C21.7074 13.3 21.4452 13.0378 21.122 13.0378Z" fill="#EE4C7D"/>
<path id="Vector_11" d="M21.122 1.0376C20.7987 1.0376 20.5366 1.29967 20.5366 1.62296V2.67662C20.5366 2.99992 20.7987 3.26199 21.122 3.26199C21.4452 3.26199 21.7074 2.99992 21.7074 2.67662V1.62296C21.7074 1.29972 21.4452 1.0376 21.122 1.0376Z" fill="#EE4C7D"/>
<path id="Vector_12" d="M14.2583 1.90243C14.2583 2.22567 14.5204 2.48779 14.8437 2.48779L15.8973 2.48779C16.2206 2.48779 16.4827 2.22567 16.4827 1.90243C16.4827 1.57919 16.2206 1.31706 15.8973 1.31706L14.8437 1.31706C14.5204 1.31706 14.2583 1.57919 14.2583 1.90243Z" fill="#EE4C7D"/>
<path id="Vector_13" d="M21.122 15.7891C20.7987 15.7891 20.5366 16.0511 20.5366 16.3744V17.4281C20.5366 17.7514 20.7987 18.0135 21.122 18.0135C21.4452 18.0135 21.7074 17.7514 21.7074 17.4281V16.3744C21.7074 16.0512 21.4452 15.7891 21.122 15.7891Z" fill="#EE4C7D"/>
<path id="Vector_14" d="M21.122 3.78955C20.7987 3.78955 20.5366 4.05162 20.5366 4.37492V5.42858C20.5366 5.75187 20.7987 6.01394 21.122 6.01394C21.4452 6.01394 21.7074 5.75187 21.7074 5.42858V4.37492C21.7074 4.05168 21.4452 3.78955 21.122 3.78955Z" fill="#EE4C7D"/>
<path id="Vector_15" d="M17.0103 1.90243C17.0103 2.22567 17.2723 2.48779 17.5956 2.48779L18.6493 2.48779C18.9726 2.48779 19.2346 2.22567 19.2346 1.90243C19.2346 1.57919 18.9726 1.31706 18.6493 1.31706L17.5956 1.31706C17.2724 1.31706 17.0103 1.57919 17.0103 1.90243Z" fill="#EE4C7D"/>
<path id="Vector_16" d="M13.4802 15.5772C13.5268 15.5772 13.5741 15.5716 13.6214 15.5599C13.9352 15.4822 14.1266 15.1648 14.0489 14.851C13.96 14.4918 13.8511 14.1332 13.7255 13.7852C13.6157 13.4811 13.2803 13.3235 12.976 13.4335C12.672 13.5433 12.5145 13.8788 12.6243 14.1829C12.7363 14.4929 12.8332 14.8124 12.9125 15.1324C12.9785 15.3989 13.2175 15.5772 13.4802 15.5772Z" fill="#EE4C7D"/>
<path id="Vector_17" d="M9.21197 8.58629C8.89125 8.40178 8.55735 8.23197 8.21971 8.0817C7.9244 7.95029 7.57839 8.08317 7.44697 8.37848C7.3155 8.67386 7.44838 9.01987 7.74369 9.15129C8.04469 9.28522 8.34223 9.43654 8.62818 9.60102C8.72014 9.65394 8.82048 9.67905 8.91952 9.67905C9.12217 9.67905 9.31921 9.57375 9.4275 9.38549C9.58871 9.10534 9.49218 8.7475 9.21197 8.58629Z" fill="#EE4C7D"/>
<path id="Vector_18" d="M12.978 12.1552C12.7964 11.833 12.596 11.5166 12.3822 11.2147C12.1954 10.9508 11.8301 10.8884 11.5663 11.0752C11.3024 11.2621 11.24 11.6274 11.4268 11.8912C11.6174 12.1606 11.7962 12.4428 11.9581 12.7301C12.0657 12.9208 12.2642 13.0281 12.4686 13.0281C12.5659 13.0281 12.6647 13.0038 12.7555 12.9526C13.0372 12.7938 13.1367 12.4368 12.978 12.1552Z" fill="#EE4C7D"/>
<path id="Vector_19" d="M2.60618 8.39368C2.62918 8.39368 2.65248 8.39233 2.67583 8.38952C3.00253 8.35077 3.33601 8.32847 3.66704 8.3232C3.99027 8.31811 4.24819 8.05188 4.24309 7.72864C4.23794 7.4054 3.9723 7.14842 3.64854 7.15264C3.27777 7.15849 2.90413 7.18349 2.53798 7.22698C2.21697 7.26503 1.98756 7.55619 2.02561 7.87721C2.06091 8.17481 2.31361 8.39368 2.60618 8.39368Z" fill="#EE4C7D"/>
<path id="Vector_20" d="M13.7049 16.0813C13.3825 16.1061 13.1413 16.3875 13.1661 16.7098C13.1851 16.9582 13.1948 17.2109 13.1948 17.461C13.1948 17.5419 13.1938 17.6226 13.1918 17.7029C13.1838 18.0261 13.4393 18.2946 13.7625 18.3026C13.7675 18.3027 13.7724 18.3028 13.7773 18.3028C14.0938 18.3028 14.3543 18.0502 14.3622 17.732C14.3644 17.6419 14.3655 17.5516 14.3655 17.461C14.3655 17.1811 14.3547 16.8982 14.3333 16.6202C14.3086 16.2978 14.027 16.0566 13.7049 16.0813Z" fill="#EE4C7D"/>
<path id="Vector_21" d="M6.52709 7.49194C6.16914 7.3998 5.80194 7.3254 5.43585 7.27073C5.11606 7.22267 4.81811 7.44341 4.77041 7.7632C4.7227 8.08298 4.94315 8.38088 5.26287 8.42864C5.58916 8.4774 5.91638 8.54372 6.2354 8.62579C6.28428 8.63838 6.33339 8.64441 6.38163 8.64441C6.64235 8.64441 6.88018 8.46891 6.94814 8.20474C7.02869 7.89157 6.84026 7.57249 6.52709 7.49194Z" fill="#EE4C7D"/>
<path id="Vector_22" d="M13.7069 18.8282C13.389 18.7673 13.0826 18.9753 13.0217 19.2928C12.9595 19.6167 12.8798 19.9409 12.7845 20.2563C12.6909 20.5658 12.8661 20.8925 13.1755 20.986C13.232 21.003 13.2889 21.0112 13.345 21.0112C13.5964 21.0112 13.8287 20.848 13.9051 20.595C14.0121 20.2409 14.1017 19.877 14.1715 19.5134C14.2324 19.1959 14.0244 18.8891 13.7069 18.8282Z" fill="#EE4C7D"/>
</g>
</g>
<defs>
<clipPath id="clip0_407_167">
<rect width="24" height="24" fill="white" transform="translate(0 0.0170898)"/>
</clipPath>
</defs>
</svg>
