<svg width="24" height="25" viewBox="0 0 24 25" fill="none" xmlns="http://www.w3.org/2000/svg">
<g id="image 15_layerstyle">
<path id="Vector" fill-rule="evenodd" clip-rule="evenodd" d="M10.4273 0.0200092C10.5033 0.0200092 10.6055 0.0404447 10.6522 0.0637995C10.6989 0.0871543 10.7719 0.15138 10.8099 0.203928C10.8683 0.279832 10.9238 0.516299 11.391 2.83718L11.3443 2.97439C11.3092 3.06781 11.2596 3.1408 11.1866 3.19335C11.1165 3.24589 11.0318 3.27801 10.9471 3.28677C10.8508 3.2926 10.7778 3.27801 10.6872 3.23422C10.6201 3.2021 10.5383 3.12912 10.5091 3.07657C10.4799 3.02694 10.4244 2.84594 10.3923 2.67662C10.3572 2.5073 10.331 2.36717 10.331 2.36133C10.331 2.35841 10.255 2.35549 9.99513 2.35549L9.69434 4.15673C9.52789 5.14931 9.39647 5.96089 9.40232 5.96381C9.40816 5.96673 9.48408 6.00468 9.57169 6.05139C9.6593 6.0981 9.82575 6.22655 9.93672 6.34041C10.0798 6.48054 10.1791 6.61775 10.2638 6.77831C10.331 6.90676 10.4069 7.09652 10.4302 7.20162C10.4565 7.30671 10.477 7.51107 10.477 7.65412C10.477 7.79717 10.4565 7.99568 10.4332 8.09202C10.4098 8.18836 10.3368 8.3752 10.2726 8.50657C10.1849 8.69049 10.1032 8.80142 9.94256 8.96199C9.80239 9.10212 9.6593 9.21013 9.28842 9.40573L9.36435 9.4612C9.40524 9.49331 9.51036 9.58381 9.59505 9.66555C9.67974 9.74729 9.79363 9.87283 9.84912 9.94581C9.90168 10.0188 9.99221 10.1677 10.0477 10.2815C10.1032 10.3954 10.182 10.5851 10.2171 10.7048C10.2755 10.8888 10.2872 10.988 10.2872 11.3179C10.2872 11.604 10.2726 11.7646 10.2346 11.9018C10.2083 12.0069 10.1324 12.1966 10.0711 12.3251C10.0097 12.4535 9.89584 12.6433 9.81699 12.7455C9.73814 12.8506 9.61257 12.9878 9.40232 13.1717L9.56293 13.3177C9.65346 13.3994 9.75275 13.5279 9.79363 13.6096C9.85496 13.738 9.9338 14.3102 10.4594 18.3535C10.7894 20.8817 11.061 23.0099 11.0639 23.0829C11.0669 23.1559 11.0669 23.2551 11.0639 23.3018C11.061 23.3632 11.0201 23.4274 10.9355 23.5091C10.8508 23.5938 10.7369 23.658 10.5646 23.7252C10.4273 23.7777 10.1645 23.8507 9.98053 23.8886C9.79655 23.9266 9.50744 23.9704 9.33807 23.9879C9.16869 24.0025 8.77446 24.0171 8.46199 24.0171C8.14952 24.0171 7.6706 23.9967 7.3961 23.9733C7.12159 23.9499 6.66895 23.8945 6.38861 23.8536C6.10826 23.8157 5.67314 23.7427 5.42492 23.693C5.1767 23.6434 4.73574 23.5471 4.44663 23.4741C4.15753 23.4011 3.69028 23.2668 3.40994 23.1734C3.12959 23.0771 2.77916 22.9486 2.63607 22.8844C2.49006 22.8202 2.26812 22.718 2.13963 22.6508C2.01113 22.5866 1.78627 22.4552 1.64318 22.3618C1.49717 22.2655 1.30151 22.1166 1.20514 22.029C1.09709 21.9298 1.00948 21.8159 0.977362 21.7371C0.939398 21.6524 0.930638 21.5736 0.942319 21.5064C0.951079 21.451 1.03285 21.2583 1.12337 21.0831C1.2139 20.908 1.96733 19.4541 2.79668 17.8573C3.62896 16.2604 4.54008 14.5058 4.82335 13.9599C5.26431 13.1133 5.36067 12.9469 5.48333 12.8272C5.58553 12.7309 5.6819 12.6725 5.97977 12.5732L5.86296 12.3309C5.79871 12.1995 5.71987 11.9806 5.68482 11.8434C5.63226 11.6332 5.6235 11.5398 5.6381 11.2303C5.64686 10.9676 5.67022 10.807 5.71695 10.6611C5.75199 10.5472 5.82207 10.3779 5.8688 10.2815C5.91844 10.1852 6.02649 10.0159 6.11118 9.90202C6.19587 9.78816 6.34772 9.6276 6.44993 9.54294C6.55214 9.45828 6.73612 9.33858 6.85585 9.27728C6.97558 9.21305 7.14495 9.14299 7.38149 9.07L7.21212 8.88608C7.12159 8.78391 6.99602 8.60291 6.93761 8.48321C6.87921 8.36352 6.80912 8.18252 6.78576 8.07742C6.75948 7.97233 6.73904 7.78841 6.73904 7.66871C6.73904 7.54902 6.75948 7.35926 6.78284 7.24541C6.80912 7.13155 6.86169 6.96807 6.90257 6.88049C6.94346 6.79291 7.03398 6.63818 7.10699 6.53601C7.17708 6.43675 7.31725 6.29078 7.41654 6.20904C7.51875 6.13022 7.67936 6.02512 7.77573 5.97841C7.8721 5.9317 8.02979 5.87331 8.12616 5.84704C8.22253 5.82076 8.3335 5.80033 8.44739 5.80033L8.78614 3.79473C9.01392 2.43139 9.14241 1.75119 9.18038 1.67236C9.2125 1.60522 9.28259 1.53223 9.35267 1.49136C9.45488 1.43006 9.50744 1.4213 9.79655 1.4213C10.0419 1.4213 10.1265 1.41254 10.1265 1.38627C10.1265 1.36583 10.0886 1.15272 10.0389 0.910412C9.96885 0.565928 9.95716 0.452073 9.98053 0.370332C9.99513 0.314864 10.0302 0.236041 10.0594 0.201009C10.0886 0.163058 10.1499 0.10759 10.1995 0.0754769C10.2521 0.0404447 10.3397 0.0200092 10.4244 0.0200092H10.4273ZM8.07652 6.89509C8.01519 6.93304 7.93342 7.00894 7.89546 7.06149C7.8575 7.11404 7.79617 7.22205 7.76113 7.30379C7.71148 7.40889 7.69396 7.50815 7.69396 7.65412C7.69104 7.82636 7.70564 7.89058 7.78741 8.05407C7.8575 8.20296 7.91882 8.28178 8.03271 8.37228C8.12032 8.43942 8.25757 8.50949 8.3481 8.53576C8.45907 8.56787 8.57004 8.57663 8.69853 8.56495C8.81242 8.55328 8.94675 8.51825 9.03436 8.47446C9.11321 8.4365 9.23294 8.346 9.29427 8.27594C9.35851 8.20879 9.43736 8.09202 9.46948 8.01904C9.51329 7.9227 9.53081 7.82636 9.53081 7.65412C9.53081 7.48188 9.51329 7.38554 9.46948 7.2892C9.43736 7.21621 9.35851 7.09944 9.29427 7.02938C9.23294 6.95931 9.11321 6.86881 9.03436 6.82794C8.92339 6.77247 8.83286 6.75204 8.65473 6.74328C8.49411 6.73744 8.38314 6.74912 8.3043 6.77831C8.24005 6.80167 8.13784 6.85421 8.07652 6.89509ZM7.1654 10.194C7.07195 10.2582 6.93761 10.3837 6.86753 10.4713C6.79744 10.5589 6.71275 10.7048 6.68063 10.7924C6.64559 10.88 6.60471 11.0435 6.58718 11.1573C6.56382 11.3091 6.56382 11.4113 6.5901 11.5573C6.61055 11.6682 6.67187 11.8521 6.73028 11.966C6.79452 12.0945 6.89965 12.2375 6.98726 12.3251C7.07195 12.4039 7.2238 12.5119 7.32601 12.5616C7.43114 12.6141 7.58591 12.6696 7.66768 12.6871C7.75237 12.7046 7.89254 12.7192 7.97431 12.7192C8.059 12.7192 8.20793 12.6988 8.3043 12.6725C8.40067 12.6491 8.55836 12.5849 8.65181 12.5353C8.74818 12.4827 8.89419 12.366 8.98472 12.2667C9.07233 12.1704 9.16869 12.0448 9.19498 11.9894C9.22418 11.9339 9.2709 11.8084 9.29719 11.712C9.32639 11.6069 9.34683 11.4434 9.34683 11.3033C9.34391 11.1457 9.32347 11.0143 9.28259 10.8946C9.24754 10.7983 9.19498 10.6727 9.15993 10.6173C9.12489 10.5618 9.04312 10.4567 8.97888 10.3896C8.91171 10.3195 8.80074 10.2202 8.72774 10.1706C8.65473 10.121 8.51164 10.0509 8.40651 10.013C8.26633 9.96333 8.15244 9.94581 7.96847 9.94581C7.79033 9.94873 7.66768 9.96624 7.52751 10.013C7.42238 10.048 7.25884 10.1297 7.1654 10.194ZM6.08782 13.5862C6.04986 13.6475 5.81039 14.1059 5.55341 14.6022C5.29643 15.0985 4.80582 16.0473 4.46415 16.7041C4.12248 17.361 3.43038 18.6951 2.92518 19.6673C2.42289 20.6394 2.00821 21.4393 2.00821 21.4481C2.00821 21.4568 2.08998 21.5181 2.19219 21.5853C2.2944 21.6524 2.52802 21.7809 2.712 21.8684C2.89597 21.9589 3.18508 22.0845 3.35445 22.1458L3.66108 22.2626C3.71657 22.0962 4.23345 20.3854 4.84379 18.3535C5.45412 16.3217 5.97685 14.6285 6.00605 14.5876C6.03817 14.5467 6.10534 14.4854 6.16083 14.4475C6.22799 14.4037 6.30392 14.3803 6.39153 14.3803C6.47913 14.3803 6.55701 14.4027 6.62515 14.4475C6.68063 14.4854 6.75656 14.5613 6.7916 14.6168C6.83541 14.6839 6.85877 14.7598 6.85877 14.8357C6.85877 14.9029 6.36816 16.5786 5.73155 18.6893C5.11245 20.7445 4.60433 22.4494 4.60141 22.4815C4.59557 22.5253 4.63353 22.5457 4.81458 22.5895C4.93432 22.6187 5.26431 22.6888 5.54465 22.7443C5.825 22.8026 6.2864 22.8815 6.56674 22.9194C6.84709 22.9603 7.12743 22.9953 7.18584 23.0012L7.29389 23.0099C7.31725 22.7822 7.39025 21.5561 7.47202 20.1343C7.55379 18.7126 7.65308 16.996 7.69104 16.3158C7.73193 15.6385 7.77865 15.0488 7.79617 15.005C7.81369 14.9583 7.85458 14.8912 7.88962 14.8562C7.92466 14.8182 7.98891 14.7686 8.03271 14.7452C8.07944 14.7219 8.16997 14.7044 8.23713 14.7044C8.32182 14.7044 8.39775 14.7248 8.46491 14.7715C8.5204 14.8065 8.59632 14.8824 8.63429 14.9379C8.68393 15.0138 8.69853 15.081 8.69853 15.2006C8.69853 15.2882 8.59924 17.0515 8.47951 19.1213C8.35978 21.1882 8.26049 22.9253 8.26049 22.9807V23.0829C8.58756 23.0829 8.86207 23.0683 9.07817 23.0508C9.29427 23.0362 9.60381 22.9953 9.76443 22.9632C9.92504 22.9311 10.0652 22.8961 10.074 22.8844C10.0857 22.8727 10.0711 22.68 10.0389 22.4552C10.0097 22.2304 9.76151 20.3183 9.487 18.2076C9.2125 16.0969 8.97304 14.284 8.95844 14.1789C8.94091 14.0738 8.91171 13.9716 8.89419 13.9512C8.87375 13.9307 8.73358 13.8723 8.58172 13.8256C8.42987 13.776 8.16704 13.7176 7.99767 13.6943C7.82829 13.6709 7.61804 13.6388 7.53043 13.6213C7.44282 13.6038 7.28513 13.5716 7.18 13.5454C7.07487 13.522 6.87045 13.4957 6.72736 13.4841C6.58134 13.4724 6.39445 13.4665 6.30976 13.4724C6.16959 13.4782 6.15206 13.487 6.08782 13.5892V13.5862ZM11.8378 0.0170898C11.9429 0.0170898 12.013 0.034606 12.0831 0.0813156C12.1386 0.119267 12.2087 0.189332 12.2379 0.236041C12.2671 0.28859 12.3927 0.840347 12.7957 2.83427L12.7489 2.97439C12.7139 3.06489 12.6642 3.13788 12.5912 3.19335C12.5212 3.24297 12.4365 3.27509 12.3518 3.28385C12.2554 3.28968 12.1824 3.27509 12.0919 3.2313C12.0247 3.19918 11.9429 3.1262 11.9137 3.07657C11.8787 3.01527 11.7648 2.52189 11.6071 1.72491C11.3939 0.662267 11.3618 0.454993 11.3852 0.367412C11.4027 0.311944 11.4348 0.236041 11.4582 0.201009C11.4815 0.163058 11.5458 0.10759 11.5954 0.0754769C11.6568 0.0375253 11.7444 0.0170898 11.8378 0.0170898ZM13.2395 0.0170898C13.3447 0.0170898 13.4148 0.034606 13.4848 0.0813156C13.5403 0.119267 13.6075 0.180574 13.6367 0.221445C13.6688 0.265235 13.7331 0.519219 13.9112 1.40378L14.2324 1.41838C14.4806 1.43006 14.577 1.44465 14.6529 1.49136C14.7143 1.5264 14.7785 1.6023 14.8165 1.68112C14.8632 1.77746 14.9654 2.32338 15.5465 5.79741H15.6196C15.6604 5.79741 15.7714 5.81784 15.8678 5.84412C15.9641 5.87039 16.1218 5.92878 16.2182 5.97549C16.3146 6.0222 16.4752 6.1273 16.5745 6.20612C16.6767 6.28786 16.8169 6.43383 16.8869 6.53601C16.957 6.63526 17.0446 6.77539 17.0797 6.84838C17.1147 6.92136 17.1702 7.079 17.1994 7.1987C17.2315 7.31839 17.2549 7.51691 17.2549 7.6366C17.2549 7.75629 17.2345 7.94605 17.2111 8.05991C17.1848 8.17376 17.1176 8.36352 17.0563 8.48321C16.9979 8.60291 16.8723 8.78391 16.7789 8.88317C16.6241 9.05541 16.6154 9.06708 16.6767 9.0846C16.7147 9.09336 16.8169 9.12839 16.9045 9.16342C16.9921 9.19554 17.1439 9.27144 17.2403 9.32691C17.3367 9.38529 17.4856 9.49039 17.5703 9.56337C17.6579 9.63636 17.7981 9.78524 17.8828 9.8991C17.9674 10.013 18.0755 10.1823 18.1251 10.2786C18.1719 10.375 18.2419 10.5443 18.277 10.6581C18.3237 10.8041 18.3471 10.9647 18.3558 11.2274C18.3704 11.5369 18.3617 11.6303 18.3091 11.8405C18.2741 11.9777 18.1952 12.1966 18.0142 12.5703L18.1894 12.6287C18.312 12.6696 18.4084 12.728 18.5106 12.8272C18.6391 12.9498 18.7588 13.1629 19.5502 14.6868C20.0437 15.6356 21.022 17.5186 21.7287 18.8761C22.4354 20.2336 23.0253 21.3955 23.0429 21.4597C23.0721 21.5561 23.0691 21.5999 23.0312 21.7079C22.9961 21.8013 22.9231 21.8947 22.783 22.0261C22.6749 22.1254 22.4851 22.2742 22.3654 22.3531C22.2456 22.4348 22.0091 22.5691 21.8397 22.6567C21.6703 22.7413 21.3871 22.8698 21.2119 22.9428C21.0366 23.0158 20.7066 23.1325 20.4818 23.2055C20.2569 23.2785 19.8948 23.3865 19.6787 23.442C19.4626 23.4974 19.0625 23.5909 18.788 23.6463C18.5135 23.7018 18.0755 23.7806 17.8097 23.8215C17.544 23.8624 17.1498 23.9178 16.9337 23.9441C16.7176 23.9675 16.2094 23.9967 15.8094 24.0054C15.348 24.0171 14.945 24.0113 14.7143 23.9879C14.5128 23.9704 14.1974 23.9237 14.0134 23.8857C13.8294 23.8478 13.5666 23.7748 13.4294 23.7222C13.2658 23.658 13.1432 23.5879 13.076 23.5208C13.0176 23.4624 12.9563 23.369 12.9417 23.3135C12.9212 23.2435 12.9242 23.1033 12.9534 22.861C12.9738 22.6684 13.2483 20.5401 13.5637 18.1317C14.0601 14.3073 14.1419 13.7351 14.2032 13.6067C14.2412 13.5249 14.3434 13.3936 14.5975 13.1542L14.4923 13.0754C14.431 13.0286 14.3142 12.909 14.2266 12.8039C14.1419 12.6988 14.0192 12.5148 13.955 12.3951C13.8937 12.2755 13.8119 12.0711 13.7739 11.9426C13.7214 11.7529 13.7068 11.639 13.7068 11.3296C13.7068 11.061 13.7214 10.8946 13.7593 10.7603C13.7885 10.6552 13.8645 10.4596 13.9287 10.3224C13.9959 10.1852 14.1039 10.0013 14.174 9.9137C14.2441 9.82612 14.358 9.70058 14.4281 9.63344C14.4953 9.56921 14.5887 9.49039 14.7055 9.40281L14.4836 9.28604C14.3376 9.21013 14.1945 9.10212 14.0572 8.96491C13.9316 8.83937 13.8119 8.68173 13.7447 8.5562C13.6863 8.44234 13.6104 8.24675 13.5754 8.11829C13.5374 7.97233 13.517 7.79133 13.517 7.6366C13.517 7.49939 13.5374 7.30963 13.5608 7.21329C13.5841 7.11696 13.6601 6.9272 13.7272 6.78999C13.8177 6.60315 13.8995 6.49221 14.0543 6.33749C14.1682 6.22363 14.3346 6.09518 14.4222 6.04847C14.5099 6.00176 14.5858 5.96381 14.5916 5.96089C14.5975 5.95797 14.4923 5.30696 14.1156 3.05906L14.0426 3.1408C14.0017 3.18459 13.9346 3.23714 13.8878 3.25465C13.844 3.27217 13.7623 3.28677 13.7068 3.28677C13.6513 3.28677 13.552 3.26049 13.4878 3.22838C13.4235 3.19627 13.3447 3.1262 13.3155 3.07657C13.2804 3.01527 13.1665 2.52189 13.0088 1.72491C12.7957 0.662267 12.7635 0.454993 12.7869 0.367412C12.8044 0.311944 12.8365 0.236041 12.8599 0.201009C12.8833 0.163058 12.9475 0.10759 12.9972 0.0754769C13.0585 0.0375253 13.1461 0.0170898 13.2395 0.0170898V0.0170898ZM14.9333 6.83962C14.869 6.87173 14.7639 6.95639 14.7026 7.02646C14.6383 7.09652 14.5595 7.21329 14.5274 7.28628C14.4836 7.38262 14.466 7.47896 14.466 7.6512C14.466 7.82344 14.4836 7.91978 14.5274 8.01612C14.5595 8.0891 14.6383 8.20587 14.7026 8.27302C14.7639 8.34308 14.8807 8.43358 14.9625 8.47154C15.0501 8.51533 15.1844 8.55036 15.2983 8.56204C15.4268 8.57371 15.5378 8.56496 15.6488 8.53284C15.7393 8.50657 15.8765 8.4365 15.9612 8.36936C16.078 8.27886 16.1394 8.20296 16.2094 8.05407C16.2883 7.88767 16.3029 7.82344 16.3029 7.6512C16.3029 7.49647 16.2824 7.40889 16.2299 7.28628C16.189 7.1987 16.116 7.079 16.0664 7.02354C16.0167 6.96807 15.9057 6.88341 15.821 6.8367C15.6896 6.76371 15.6254 6.74912 15.4297 6.74036C15.3012 6.73744 15.164 6.74328 15.1231 6.75788C15.0822 6.76955 14.9975 6.8075 14.9333 6.83962ZM15.2691 10.1677C15.1961 10.2173 15.0764 10.3195 15.0034 10.3983C14.9304 10.4771 14.8311 10.626 14.7785 10.7311C14.7289 10.8362 14.6763 11.0055 14.6588 11.1106C14.6413 11.2362 14.6413 11.3763 14.6617 11.5193C14.6792 11.6449 14.7289 11.8171 14.7785 11.9281C14.8282 12.0361 14.9304 12.185 15.0209 12.2784C15.1056 12.366 15.2516 12.4798 15.345 12.5324C15.4414 12.582 15.5962 12.6462 15.6926 12.6696C15.7889 12.6958 15.9379 12.7163 16.0196 12.7163C16.1043 12.7163 16.2445 12.7017 16.3263 12.6842C16.4109 12.6666 16.5657 12.6112 16.6679 12.5586C16.776 12.509 16.9249 12.3981 17.0184 12.3076C17.1206 12.2054 17.214 12.0711 17.2753 11.9426C17.3279 11.8288 17.3892 11.6536 17.4068 11.5485C17.433 11.4084 17.433 11.3062 17.4097 11.1544C17.3921 11.0406 17.3513 10.8771 17.3162 10.7895C17.2841 10.7019 17.1994 10.556 17.1293 10.4684C17.0592 10.3808 16.9191 10.2523 16.8169 10.1823C16.7117 10.1122 16.5424 10.0305 16.4372 9.99836C16.3146 9.96041 16.1656 9.94289 16.0138 9.94289C15.8473 9.94289 15.7247 9.96333 15.5903 10.01C15.4852 10.048 15.3421 10.1181 15.2691 10.1677ZM16.6708 13.5775C16.5015 13.6154 16.2795 13.6534 16.1744 13.6651C16.0693 13.6738 15.8473 13.7147 15.678 13.7556C15.5086 13.7964 15.3012 13.8636 15.2166 13.9015C15.1143 13.9482 15.0589 13.992 15.0501 14.0387C15.0413 14.0738 14.9245 14.97 14.7873 16.0297C14.65 17.0895 14.396 19.06 14.2207 20.4088C14.0455 21.7575 13.9112 22.8698 13.9229 22.8815C13.9316 22.8931 14.0718 22.9282 14.2324 22.9603C14.393 22.9924 14.6909 23.0303 14.8953 23.0479C15.1027 23.0654 15.3742 23.08 15.5027 23.08H15.7364C15.7364 22.934 15.6371 21.1999 15.5173 19.133C15.3976 17.0632 15.2983 15.297 15.2983 15.2065C15.2983 15.078 15.3129 15.0138 15.3655 14.935C15.4005 14.8795 15.4765 14.8036 15.5319 14.7657C15.5933 14.7248 15.678 14.7014 15.7422 14.7014C15.8035 14.7014 15.897 14.719 15.9466 14.7423C15.9992 14.7627 16.0722 14.8124 16.1072 14.8503C16.1423 14.8883 16.1832 14.9554 16.2007 15.0021C16.2182 15.0459 16.2591 15.5247 16.2912 16.0677C16.3233 16.6078 16.4197 18.3331 16.5102 19.8979C16.6008 21.4627 16.6796 22.7997 16.6854 22.8698C16.7 22.9895 16.703 22.9924 16.8023 22.9924C16.8577 22.9924 17.0972 22.9661 17.3337 22.9311C17.5732 22.899 17.9178 22.8464 18.1018 22.8143C18.2857 22.7822 18.6479 22.7092 18.9048 22.6508C19.1618 22.5954 19.3808 22.5399 19.3925 22.5282C19.4042 22.5195 18.9019 20.8087 18.277 18.7301C17.5849 16.4297 17.1381 14.9029 17.1381 14.8328C17.141 14.7686 17.1673 14.6693 17.1965 14.6139C17.2286 14.5584 17.3045 14.4825 17.3659 14.4475C17.433 14.4066 17.5236 14.3803 17.6053 14.3803C17.6959 14.3803 17.7689 14.4007 17.836 14.4445C17.8915 14.4825 17.9587 14.5438 17.9908 14.5847C18.02 14.6255 18.5573 16.3655 19.1852 18.4528C19.813 20.5401 20.327 22.2509 20.3299 22.2538C20.3329 22.2596 20.4876 22.2042 20.6716 22.1341C20.8556 22.064 21.098 21.9648 21.2119 21.9122C21.3257 21.8626 21.5389 21.7488 21.6849 21.6612C21.8339 21.5736 21.9624 21.486 21.9711 21.4685C21.9799 21.4481 21.6703 20.8204 21.2819 20.073C20.8965 19.3257 19.9678 17.539 19.2202 16.1027C18.4697 14.6664 17.8536 13.4841 17.8477 13.4753C17.8389 13.4665 17.7338 13.4578 17.6112 13.4549C17.4856 13.452 17.2958 13.4636 17.1819 13.4782C17.068 13.4928 16.8402 13.5366 16.6708 13.5775Z" fill="#EE4C7D"/>
</g>
</svg>
