<svg width="34" height="49" viewBox="0 0 34 49" fill="none" xmlns="http://www.w3.org/2000/svg">
<g id="Group 2">
<path id="Vector" d="M8.00989 14.8458C5.64224 13.7234 4.00488 11.3115 4.00488 8.51709C4.00488 4.6511 7.13889 1.51709 11.0049 1.51709C14.8709 1.51709 18.0049 4.6511 18.0049 8.51709C18.0049 11.3115 16.3675 13.7234 13.9999 14.8458" stroke="#991850" stroke-width="2" stroke-miterlimit="10" stroke-linecap="round" stroke-linejoin="round"/>
<path id="Vector_2" d="M18.136 15.5171C19.906 13.7131 21 11.2441 21 8.51709C21 5.79009 19.906 3.32109 18.136 1.51709" stroke="#991850" stroke-width="2" stroke-miterlimit="10" stroke-linecap="round" stroke-linejoin="round"/>
<path id="Vector_3" d="M8 24.5171C8 22.8601 6.657 21.5171 5 21.5171C3.343 21.5171 2 22.8601 2 24.5171V31.5171C2 39.8011 8.716 46.5171 17 46.5171C25.284 46.5171 32 39.8011 32 31.5171V24.5171C32 22.8601 30.657 21.5171 29 21.5171C27.343 21.5171 26 22.8601 26 24.5171V22.5171C26 20.8601 24.657 19.5171 23 19.5171C21.343 19.5171 20 20.8601 20 22.5171V20.5171C20 18.8601 18.657 17.5171 17 17.5171C15.343 17.5171 14 18.8601 14 20.5171V8.51709C14 6.86009 12.657 5.51709 11 5.51709C9.343 5.51709 8 6.86009 8 8.51709V30.5171V24.5171Z" stroke="white" stroke-width="4" stroke-miterlimit="10" stroke-linecap="round" stroke-linejoin="round"/>
<path id="Vector_4" d="M3.864 1.51709C2.094 3.32109 1 5.79009 1 8.51709C1 11.2441 2.094 13.7131 3.864 15.5171" stroke="#991850" stroke-width="2" stroke-miterlimit="10" stroke-linecap="round" stroke-linejoin="round"/>
</g>
</svg>
