<svg width="90" height="90" viewBox="0 0 90 90" fill="none" xmlns="http://www.w3.org/2000/svg">

<path d="M40.4194 22.7073C40.7024 22.6489 41.1695 22.577 41.4525 22.5455C41.7984 22.5051 42.3374 22.4916 43.0921 22.5051C43.9231 22.5185 44.3723 22.5455 44.8214 22.6129C45.1538 22.6669 45.6704 22.7658 45.9669 22.8377C46.2633 22.9096 46.7485 23.0534 47.0449 23.1568C47.3414 23.2557 47.9254 23.5119 48.3476 23.7142C48.7698 23.921 49.3223 24.2356 49.5829 24.4064C49.8434 24.5817 50.2162 24.8514 50.4139 25.0133C50.6115 25.1706 50.9394 25.4673 51.1461 25.6695C51.3482 25.8673 51.5144 26.0606 51.5144 26.0876C51.5144 26.119 51.3751 26.3078 51.2089 26.5056C51.0427 26.7034 50.5441 27.1978 50.1084 27.6069C49.6682 28.0159 49.2056 28.416 49.0753 28.4969C48.9226 28.5958 48.7653 28.6542 48.6171 28.6722C48.4329 28.6902 48.3656 28.6767 48.2353 28.5868C48.15 28.5284 47.9882 28.3575 47.8759 28.2047C47.7636 28.0519 47.5615 27.7687 47.4268 27.5754C47.274 27.3597 47.1033 27.1799 46.9776 27.1034C46.8653 27.0315 46.6946 26.9506 46.5958 26.9236C46.4969 26.8967 46.2768 26.8742 46.1016 26.8787C45.886 26.8787 45.7019 26.9102 45.5177 26.9821C45.3245 27.054 45.1763 27.1529 44.9966 27.3327C44.8214 27.508 44.7136 27.6653 44.6418 27.8541C44.5609 28.0564 44.534 28.2182 44.534 28.5059C44.5295 28.825 44.5474 28.9194 44.6373 29.0902C44.6957 29.2026 44.9787 29.5352 45.2706 29.8319C45.6255 30.2005 45.8186 30.4342 45.877 30.5736C45.9489 30.7624 45.9534 30.7893 45.886 30.9781C45.8276 31.14 45.7108 31.2703 45.2931 31.6524C45.0056 31.9131 44.5789 32.2682 44.3498 32.439C44.1207 32.6098 43.7254 32.8795 43.4694 33.0279C43.2133 33.1807 42.9393 33.338 42.8675 33.383C42.7776 33.4324 42.6878 33.4504 42.6114 33.4324C42.5036 33.4099 42.4407 33.32 42.2116 32.875C42.0634 32.5873 41.7939 32.1064 41.6187 31.8097C41.439 31.513 41.174 31.0995 41.0258 30.8882C40.8281 30.6095 40.7069 30.4837 40.5766 30.4208C40.4463 30.3623 40.3565 30.3443 40.2397 30.3713C40.1184 30.3983 39.9612 30.5286 39.5569 30.9377C39.1527 31.3422 38.964 31.4996 38.7708 31.5939C38.5597 31.6883 38.4474 31.7108 38.1734 31.7108C37.9353 31.7063 37.7602 31.6749 37.567 31.6029C37.3963 31.54 37.2211 31.4276 37.0909 31.2973C36.9202 31.131 36.8573 31.0186 36.754 30.7084C36.6552 30.4163 36.6237 30.241 36.6237 29.9668C36.6237 29.6971 36.6462 29.5622 36.7135 29.4274C36.763 29.3285 36.8932 29.1577 37.0055 29.0498C37.1178 28.9419 37.4278 28.7082 37.6928 28.5329C38.106 28.2632 38.1914 28.1822 38.2722 28.0114C38.3531 27.8316 38.3576 27.7867 38.3127 27.6294C38.2722 27.5035 38.1554 27.3552 37.9129 27.1214C37.7242 26.9416 37.3334 26.591 37.0504 26.3438C36.7674 26.0966 36.3497 25.7549 36.1296 25.5886C35.9095 25.4223 35.7119 25.2515 35.6939 25.211C35.6714 25.1661 35.6759 25.0897 35.6984 25.0312C35.7208 24.9773 35.8511 24.8155 35.9903 24.6716C36.1296 24.5323 36.4081 24.3076 36.6102 24.1727C36.8169 24.0423 37.1672 23.8401 37.3873 23.7277C37.6074 23.6198 38.0252 23.4355 38.3082 23.3231C38.5912 23.2108 39.0673 23.049 39.3638 22.9635C39.6602 22.8781 40.1364 22.7613 40.4194 22.7073Z" stroke="#991850" stroke-width="2"/>
<path d="M31.4266 34.4393C31.5389 34.3044 31.723 34.0977 31.8308 33.9808L32.033 33.7695L32.2396 33.9224C32.3519 34.0078 32.5585 34.1561 32.6933 34.246C32.828 34.3404 33.111 34.5517 33.3222 34.7225C33.5333 34.8888 33.9241 35.2349 34.1936 35.4866C34.4631 35.7383 34.7236 36.008 34.7685 36.08C34.8135 36.1519 34.8494 36.2822 34.8494 36.3631C34.8494 36.4396 34.8269 36.5519 34.8 36.6104C34.773 36.6643 34.7057 36.7587 34.6518 36.8126C34.6023 36.8711 34.3283 37.0689 34.0543 37.2531C33.7758 37.4374 33.4973 37.6532 33.4389 37.7341C33.3761 37.8105 33.2862 37.9679 33.2368 38.0802C33.1874 38.1926 33.1335 38.3859 33.12 38.5073C33.102 38.6376 33.111 38.8444 33.1425 39.0017C33.1739 39.15 33.2458 39.3613 33.2997 39.4737C33.3536 39.5861 33.4839 39.7524 33.5872 39.8468C33.686 39.9367 33.8792 40.067 34.0049 40.1344C34.1891 40.2288 34.3283 40.2603 34.6248 40.2738C34.9707 40.2918 35.0336 40.2828 35.2761 40.1749C35.4828 40.0805 35.6714 39.9277 36.0622 39.5456C36.3452 39.2624 36.6237 39.0107 36.6776 38.9837C36.736 38.9568 36.8214 38.9343 36.8708 38.9343C36.9202 38.9343 37.0325 38.9702 37.1223 39.0107C37.2481 39.0736 37.3739 39.222 37.6613 39.6535C37.8635 39.9636 38.2049 40.53 38.416 40.9121C38.6226 41.2942 38.8427 41.6987 38.9056 41.8111C38.9685 41.9369 39.0538 42.0268 39.1212 42.0448C39.1976 42.0628 39.3189 42.0268 39.5435 41.9055C39.7186 41.8156 40.06 41.6088 40.3071 41.447C40.5541 41.2852 40.927 41.0155 41.1381 40.8447C41.3492 40.6783 41.6996 40.3772 41.9197 40.1749C42.1398 39.9726 42.3464 39.7569 42.3778 39.6894C42.4138 39.6175 42.4407 39.4872 42.4407 39.3973C42.4407 39.3029 42.4093 39.177 42.3644 39.1141C42.3239 39.0511 42.0454 38.75 41.74 38.4398C41.3717 38.0622 41.156 37.8015 41.0887 37.6532C41.0033 37.4734 40.9809 37.352 40.9854 37.0689C40.9854 36.7992 41.0123 36.6418 41.0932 36.4396C41.165 36.2508 41.2728 36.0934 41.448 35.9226C41.6232 35.7473 41.7804 35.6394 41.9691 35.5675C42.1488 35.4986 42.3434 35.4626 42.553 35.4596C42.7282 35.4551 42.9573 35.4776 43.0696 35.5091C43.1819 35.5406 43.3706 35.6439 43.4918 35.7338C43.6221 35.8282 43.8242 36.062 43.977 36.2822C44.1207 36.4935 44.3139 36.7722 44.4082 36.9025C44.498 37.0329 44.6373 37.1812 44.7091 37.2262C44.79 37.2801 44.9248 37.3161 45.046 37.3161C45.2033 37.3161 45.3111 37.2801 45.5267 37.1498C45.6794 37.0554 46.1016 36.7137 46.47 36.3901C46.8338 36.0665 47.2875 35.6215 47.4717 35.4012C47.6558 35.1855 47.8535 34.9607 47.9074 34.9023C47.9613 34.8438 48.0242 34.7989 48.0421 34.7989C48.0601 34.7989 48.1769 34.9427 48.2937 35.1225C48.415 35.3023 48.662 35.7518 48.8417 36.1249C49.0259 36.4935 49.246 37.0014 49.3403 37.2487C49.4301 37.4959 49.5694 37.9634 49.6502 38.2825C49.7356 38.6016 49.8389 39.1096 49.8793 39.4063C49.9377 39.7928 49.9602 40.2154 49.9602 40.9121C49.9602 41.6088 49.9422 42.0178 49.8838 42.373C49.8434 42.6471 49.7491 43.1101 49.6772 43.4068C49.6053 43.7035 49.4706 44.1575 49.3807 44.4182C49.2909 44.6789 49.0888 45.1554 48.936 45.4745C48.7833 45.7936 48.5497 46.2252 48.424 46.4274C48.2937 46.6342 48.1949 46.8185 48.2039 46.841C48.2083 46.8635 48.7878 47.5782 49.493 48.4277C50.1983 49.2773 50.8855 50.0864 51.0203 50.2347C51.155 50.3785 51.3437 50.5359 51.438 50.5808C51.5279 50.6258 51.6896 50.6842 51.7974 50.7067C51.9007 50.7292 52.4397 50.7921 52.9967 50.846C53.5537 50.9045 54.0254 50.9584 54.0433 50.9764C54.0658 50.9899 54.0613 51.1966 54.0344 51.4304C54.0029 51.6641 53.9535 52.2125 53.9221 52.644C53.8771 53.1879 53.8726 53.4936 53.9041 53.6329C53.9265 53.7453 53.9805 53.8712 54.0209 53.9206C54.0613 53.9656 54.1646 54.033 54.2455 54.0644C54.3218 54.1004 54.7486 54.1678 55.1888 54.2128C55.6245 54.2622 56.1545 54.3117 56.3657 54.3252C56.6711 54.3476 56.7654 54.3701 56.9271 54.5409L56.8238 55.6017C56.7699 56.1906 56.725 56.7525 56.725 56.8558C56.725 56.9637 56.7609 57.1255 56.8059 57.2154C56.8463 57.3053 56.9541 57.4267 57.0394 57.4851C57.1562 57.5616 57.3449 57.611 57.8031 57.6739C58.1355 57.7234 58.6745 57.7863 58.9934 57.8133C59.3124 57.8447 59.6043 57.8807 59.6403 57.8942C59.6762 57.9122 59.7211 57.9616 59.7391 58.0021C59.766 58.0515 59.7436 58.2628 59.6897 58.555C59.6313 58.8696 59.5998 59.2112 59.5998 59.5753C59.5998 59.9124 59.6268 60.2451 59.6717 60.4204C59.7076 60.5822 59.8154 60.8654 59.9053 61.0497C60.0221 61.2834 60.1793 61.4992 60.4398 61.7689C60.6375 61.9801 60.8261 62.2139 60.8576 62.2858C60.8935 62.3847 60.898 62.56 60.8576 62.9825C60.8306 63.2927 60.7498 64.2007 60.6779 65.0053C60.6015 65.8099 60.5252 66.6594 60.5027 66.8932C60.4668 67.2303 60.4398 67.3382 60.2736 67.5L58.5083 67.3292C57.5425 67.2393 56.5049 67.1404 56.2084 67.1179C55.912 67.091 55.5706 67.046 55.4448 67.019C55.2696 66.9786 55.1708 66.9157 54.9956 66.7403C54.8699 66.6145 54.515 66.1964 54.2095 65.8144C53.8996 65.4323 53.0416 64.3895 52.3005 63.4995C51.5912 62.6425 50.0657 60.7896 48.8466 59.309L48.7069 59.1393C47.4717 57.629 45.4818 55.2107 42.1173 51.1382L41.6591 51.2371C41.4121 51.2955 41.0348 51.363 40.8236 51.3944C40.6125 51.4259 40.0241 51.4529 39.4985 51.4529C38.964 51.4529 38.3711 51.4259 38.1285 51.3899C37.8949 51.3585 37.4592 51.282 37.1627 51.2191C36.8663 51.1562 36.3901 51.0303 36.1071 50.9359C35.8241 50.846 35.3705 50.6707 35.0965 50.5494C34.8225 50.428 34.3688 50.1898 34.0858 50.0189C33.8028 49.8481 33.385 49.5739 33.1649 49.4076C32.9448 49.2413 32.5675 48.9357 32.3339 48.7244C32.1004 48.5176 31.7455 48.1535 31.5434 47.9198C31.3457 47.686 31.0807 47.3579 30.9549 47.1826C30.8291 47.0073 30.6135 46.6657 30.4698 46.4185C30.326 46.1712 30.1329 45.7892 30.0341 45.5644C29.9353 45.3397 29.787 44.9576 29.7017 44.7104C29.6163 44.4631 29.495 44.0676 29.4367 43.8338C29.3783 43.6001 29.2974 43.2135 29.2615 42.9798C29.221 42.746 29.1671 42.2606 29.1402 41.901C29.1042 41.4155 29.1042 41.0919 29.1447 40.6199C29.1716 40.2738 29.2345 39.7569 29.2839 39.4737C29.3333 39.1905 29.4232 38.7545 29.4861 38.5073C29.5489 38.26 29.6612 37.8645 29.7376 37.6307C29.8095 37.397 29.9353 37.0509 30.0071 36.8666C30.079 36.6823 30.2542 36.3092 30.3934 36.035C30.5327 35.7608 30.7752 35.3473 30.9325 35.1135C31.0897 34.8798 31.3143 34.5741 31.4266 34.4393Z" stroke="#991850" stroke-width="2"/>
</svg>
