<svg width="90" height="90" viewBox="0 0 90 90" fill="none" xmlns="http://www.w3.org/2000/svg">

<path d="M44.477 22.5606C44.0239 22.6856 43.826 22.8158 42.8 23.6439C42.2584 24.0813 41.4147 24.7583 40.92 25.1594C40.1544 25.7791 39.993 25.8832 39.8107 25.9041C39.6805 25.9197 38.7119 25.7895 37.4568 25.5864C34.6966 25.1489 34.8997 25.175 34.5143 25.2427C33.8269 25.3677 33.2123 25.7999 32.9155 26.3728C32.8322 26.5394 32.3999 27.6227 31.9572 28.7788C31.3896 30.2683 31.1136 30.9245 31.0198 31.0182C30.9261 31.112 30.2699 31.388 28.7804 31.9556C27.6243 32.3983 26.5411 32.8306 26.3744 32.9139C26.0151 33.1014 25.6141 33.5232 25.437 33.9034C25.2703 34.2471 25.1714 34.7783 25.2183 35.0856C25.2339 35.2158 25.4005 36.273 25.588 37.4343C25.7703 38.6009 25.9213 39.632 25.9213 39.7258C25.9213 39.8247 25.8692 39.9862 25.8015 40.0903C25.739 40.1945 25.0672 41.0434 24.3069 41.9808C23.5465 42.913 22.8643 43.7931 22.7862 43.9285C22.7029 44.0691 22.6039 44.34 22.5518 44.5379C22.4372 45.0014 22.5102 45.5586 22.7393 46.0065C22.8226 46.1731 23.5309 47.0949 24.3121 48.0532C25.0881 49.0114 25.7703 49.8655 25.8224 49.954C25.8744 50.0374 25.9213 50.1884 25.9213 50.2873C25.9213 50.4436 25.6922 51.9487 25.3485 54.0683C25.1818 55.0838 25.1766 55.188 25.2651 55.5942C25.3953 56.2139 25.7651 56.7399 26.3119 57.0732C26.4265 57.1461 27.2025 57.4638 28.0305 57.7815C30.723 58.8074 30.8948 58.8803 31.0354 59.0314C31.1136 59.1147 31.3219 59.5782 31.5458 60.1615C31.7541 60.7031 32.1187 61.6613 32.3582 62.2863C32.5978 62.9112 32.853 63.5362 32.9311 63.6768C33.0978 63.9841 33.5248 64.4007 33.8269 64.5569C34.1029 64.6975 34.582 64.8225 34.8424 64.8225C34.9518 64.8225 36.0871 64.6559 37.363 64.4528C38.816 64.2236 39.7534 64.0986 39.8576 64.1195C39.9774 64.1403 40.3471 64.4007 41.0085 64.9423C43.7895 67.1869 43.8781 67.2546 44.2114 67.3796C44.477 67.4785 44.6332 67.5046 45.0342 67.4994C45.8987 67.4942 45.6852 67.6296 48.9662 64.984C49.6901 64.4007 50.0598 64.1351 50.1848 64.1143C50.2785 64.0934 50.5129 64.1038 50.7056 64.1403C51.9971 64.359 55.0177 64.8225 55.1792 64.8225C55.8562 64.8225 56.6426 64.3851 57.0436 63.7809C57.1113 63.682 57.5487 62.5936 58.0227 61.3645C58.5747 59.9219 58.9236 59.0887 59.0017 59.0105C59.0746 58.9324 59.6735 58.672 60.5537 58.3335C63.569 57.1774 63.694 57.1201 63.944 56.9222C64.2669 56.6566 64.496 56.3441 64.6471 55.9743C64.8762 55.4067 64.871 55.2765 64.4596 52.6934C64.2409 51.3185 64.1002 50.2613 64.1159 50.1676C64.1367 50.0634 64.444 49.6364 64.9856 48.9645C67.6312 45.6836 67.4958 45.8971 67.501 45.0326C67.5062 44.6316 67.4802 44.4754 67.3812 44.2098C67.2562 43.8765 67.1885 43.7879 64.9439 41.0069C64.4023 40.3455 64.1419 39.9758 64.1211 39.856C64.1002 39.7518 64.2252 38.8144 64.4544 37.3614C64.6575 36.0855 64.8241 34.9502 64.8241 34.8408C64.8241 34.5804 64.6992 34.1013 64.5585 33.8253C64.4023 33.5232 63.9857 33.0962 63.6784 32.9295C63.5378 32.8514 62.9128 32.5962 62.2879 32.3566C61.663 32.1171 60.7099 31.7525 60.1631 31.5442C59.5173 31.2994 59.1215 31.1172 59.0278 31.0234C58.9132 30.9141 58.6788 30.362 58.0227 28.659C57.5539 27.4352 57.1009 26.3363 57.0175 26.2166C56.679 25.7218 56.1791 25.3833 55.601 25.2635C55.1479 25.1698 55.2989 25.1489 52.5804 25.5812C51.4191 25.7687 50.3879 25.9197 50.2838 25.9197C50.0442 25.9197 50.039 25.9145 48.0912 24.3365C47.1799 23.6022 46.3362 22.9304 46.2164 22.8523C45.7529 22.5398 44.9978 22.4148 44.477 22.5606ZM46.232 24.7531C49.4401 27.3414 49.2526 27.206 49.8098 27.3519C50.2213 27.4612 50.3671 27.4508 51.4555 27.279C54.7365 26.7478 55.1375 26.6905 55.3146 26.7217C55.6999 26.7946 55.7624 26.9196 56.6478 29.2267C57.0957 30.3985 57.5175 31.4661 57.5852 31.5963C57.7414 31.8983 58.1841 32.3306 58.4914 32.4764C58.6268 32.5389 59.6527 32.9399 60.7724 33.3722C61.8921 33.7992 62.8764 34.1898 62.9597 34.2315C63.1628 34.3356 63.3139 34.6012 63.3139 34.8512C63.3139 34.9658 63.1628 36.0074 62.9805 37.1687C62.5535 39.8664 62.5743 39.6945 62.6368 40.0487C62.715 40.5434 62.892 40.8455 63.6472 41.7777C64.0378 42.2672 64.7356 43.1265 65.1939 43.6942L66.0219 44.7201V45.0014C66.0219 45.3399 66.1313 45.1888 64.3294 47.4022C63.543 48.3761 62.8816 49.2354 62.8139 49.3812C62.5795 49.8915 62.5587 50.4019 62.741 51.3862C62.8816 52.157 63.3139 55.0005 63.3139 55.1619C63.3139 55.3702 63.2201 55.5838 63.0691 55.7192C63.017 55.766 61.9911 56.1879 60.788 56.6462C59.585 57.1097 58.4966 57.5471 58.3768 57.62C58.1008 57.7763 57.7779 58.1044 57.6112 58.3856C57.5435 58.5054 57.1113 59.5834 56.6478 60.7864C56.1895 61.9894 55.7676 63.0154 55.7208 63.0675C55.5906 63.2133 55.3718 63.3122 55.1792 63.3122C55.0802 63.3122 54.1845 63.182 53.1845 63.0258C50.1692 62.5467 50.3879 62.5727 49.9973 62.6352C49.7994 62.6665 49.5286 62.7446 49.3828 62.8123C49.237 62.88 48.3725 63.5414 47.4038 64.3278C45.1905 66.1297 45.3415 66.0203 45.003 66.0203H44.7217L43.6958 65.1923C43.1281 64.734 42.2688 64.0361 41.7793 63.6455C40.3263 62.4738 40.3419 62.4738 38.0036 62.8435C37.0714 62.9946 36.0298 63.156 35.6861 63.2133C35.3424 63.2654 34.9674 63.3122 34.8528 63.3122C34.6028 63.3122 34.3372 63.1612 34.2331 62.9581C34.1914 62.8748 33.8633 62.0467 33.5092 61.1197C33.1498 60.1927 32.8426 59.3959 32.8218 59.349C32.7957 59.2761 32.853 59.2605 33.1811 59.2293C34.1446 59.1407 34.8945 58.8074 35.5663 58.1721C35.8475 57.9013 35.8736 57.8856 36.009 57.9429C36.3162 58.0679 36.9724 58.1617 37.7692 58.1877C38.4202 58.2137 39.3368 58.1721 41.9876 58.0054C43.852 57.8908 45.5394 57.7815 45.7373 57.7659C45.9404 57.7502 46.6903 57.7034 47.4038 57.6617C48.1225 57.62 48.8724 57.5732 49.0703 57.5575C49.2734 57.5419 49.8359 57.5055 50.3202 57.4742C50.8097 57.443 51.3097 57.3961 51.4347 57.3701C52.0596 57.2347 52.7054 56.7295 53.0179 56.141C53.4397 55.3286 53.3981 54.3703 52.8981 53.6152L52.7471 53.386L53.0543 53.0631C53.6116 52.4747 53.8147 51.8549 53.773 50.881C53.7418 50.2717 53.6585 49.9488 53.4137 49.5478C53.3304 49.4124 53.2627 49.2926 53.2627 49.2822C53.2627 49.2718 53.3824 49.1885 53.5231 49.0947C54.0334 48.7666 54.4761 48.1365 54.6427 47.5063C54.7313 47.1522 54.7417 46.47 54.6636 46.1263C54.575 45.7461 54.3199 45.267 54.0386 44.9545L53.773 44.6681L53.9813 44.4389C54.5021 43.8765 54.7209 43.2828 54.7209 42.4547C54.7209 41.6006 54.5073 41.0694 53.9501 40.5226C53.6064 40.1893 53.0752 39.9133 52.6169 39.8299C52.4086 39.7935 50.7629 39.7726 47.7059 39.7726H43.1073L43.1333 39.6529C43.149 39.5904 43.4458 38.403 43.7895 37.0125C44.5134 34.1013 44.5551 33.8305 44.3624 33.0337C44.0603 31.7681 43.0917 30.7422 41.8574 30.3776C41.5345 30.2787 40.7377 30.211 40.5398 30.2631C40.1961 30.3464 40.1909 30.3568 37.7953 35.6272L35.4882 40.6996L35.2226 40.5018C34.9101 40.2674 34.4102 40.0226 33.9675 39.8924C33.6863 39.8143 33.3269 39.7987 30.5563 39.7831L27.4524 39.7674L27.3379 39.0019C27.2754 38.58 27.1087 37.4968 26.9629 36.5958C26.8171 35.6949 26.7077 34.872 26.7181 34.7679C26.7494 34.5075 26.8796 34.3356 27.1348 34.2054C27.2545 34.1429 28.2805 33.7419 29.4106 33.3097C30.5407 32.8774 31.551 32.4764 31.65 32.4139C31.9312 32.2421 32.202 31.9765 32.3687 31.7109C32.4572 31.5755 32.8947 30.5026 33.3425 29.3309C33.7956 28.1539 34.207 27.1227 34.2591 27.0342C34.3685 26.8519 34.6393 26.7009 34.8372 26.7009C34.9101 26.7009 35.7017 26.8207 36.6027 26.9613C39.7274 27.4612 39.6545 27.4508 40.0503 27.3883C40.243 27.3519 40.5346 27.2581 40.7013 27.1748C40.8627 27.0915 41.7741 26.3936 42.7167 25.6281C43.6645 24.8625 44.5186 24.1751 44.6176 24.1074C44.7686 24.0032 44.8467 23.9876 45.0655 24.0032C45.3206 24.024 45.3779 24.0605 46.232 24.7531ZM41.7793 31.9556C42.3001 32.2004 42.7063 32.6639 42.8677 33.2107C43.0344 33.7628 43.0031 33.9294 42.2636 36.9187L41.571 39.7206H41.0762C40.5034 39.7206 40.2898 39.7987 40.1024 40.0799C39.8836 40.408 39.9722 40.8455 40.3055 41.085L40.4773 41.2048L46.4664 41.2309L52.4554 41.2569L52.7002 41.4027C52.8617 41.4965 52.9971 41.6319 53.0908 41.7933C53.2158 42.0068 53.2366 42.0954 53.2366 42.4547C53.2366 42.8193 53.2158 42.9078 53.0856 43.1474C52.8252 43.6161 52.5231 43.7671 51.5961 43.9129C50.867 44.0275 50.7316 44.0744 50.5754 44.2775C50.3931 44.5222 50.3671 44.7566 50.4921 45.043C50.6483 45.4076 50.8931 45.5013 51.6586 45.5013C52.2159 45.5013 52.2836 45.5117 52.5388 45.6471C52.8773 45.8242 53.122 46.1315 53.2106 46.4908C53.2939 46.8449 53.2418 47.147 53.0387 47.4803C52.7992 47.8761 52.5179 48.0167 51.7003 48.1573C50.8618 48.2979 50.7368 48.3396 50.5858 48.5375C50.2004 49.0479 50.4973 49.6676 51.1639 49.7457C51.5441 49.7926 51.919 49.9905 52.0857 50.2353C52.4242 50.7248 52.3929 51.5633 52.0232 51.9695C51.7732 52.2507 51.6066 52.3236 50.9608 52.4538C50.6535 52.5163 50.3462 52.6101 50.2733 52.6569C49.9557 52.86 49.8567 53.235 50.0286 53.5839C50.1692 53.8756 50.3775 53.9954 50.8097 54.0318C51.2628 54.0631 51.5076 54.1933 51.6795 54.4849C51.8513 54.7817 51.8617 55.1307 51.7055 55.4327C51.5024 55.8389 51.242 55.9379 50.2681 55.99C49.6328 56.0264 48.6433 56.0889 47.2476 56.1775C46.8205 56.2035 46.0706 56.2504 45.581 56.2816C43.0865 56.4326 41.2689 56.5472 40.1284 56.6253C38.5712 56.7243 37.6442 56.7347 37.0662 56.6514C36.8266 56.6149 36.6131 56.5785 36.5923 56.5628C36.5766 56.5524 36.5923 56.4014 36.6287 56.2295C36.6912 55.9691 36.7016 54.7974 36.6912 49.2926L36.6756 42.663L36.5558 42.3297C36.436 42.0016 36.436 42.0016 36.535 41.887C36.5923 41.8298 37.6651 39.5227 38.9202 36.7625C41.1752 31.7942 41.2012 31.7473 41.3314 31.7786C41.4043 31.7942 41.6074 31.8775 41.7793 31.9556ZM31.9104 41.2465L33.5509 41.2569L33.905 41.4235C34.5612 41.736 35.0507 42.3401 35.1913 43.0172C35.2278 43.2046 35.2434 45.2253 35.233 49.6416L35.2174 55.9952L35.0976 56.2816C34.8528 56.8753 34.3633 57.3701 33.8008 57.5888C33.5456 57.6877 33.3686 57.7086 32.6863 57.7294C31.8791 57.7502 31.8635 57.7502 31.6396 57.6148C31.5094 57.5419 30.4365 57.1097 29.2491 56.6566C26.9212 55.7608 26.7962 55.6983 26.7233 55.3129C26.6921 55.1359 26.7494 54.7349 27.2806 51.4539C27.4524 50.3655 27.4628 50.2196 27.3535 49.8082C27.2129 49.2562 27.2806 49.3551 25.1974 46.7772C24.8954 46.4023 24.51 45.9284 24.3381 45.72C24.0621 45.3867 24.0257 45.3086 24.0048 45.0691C23.9788 44.7305 23.9163 44.8191 25.562 42.788L26.8483 41.2048L28.5565 41.2204C29.4991 41.2256 31.0094 41.2361 31.9104 41.2465Z" fill="#991850"/>
<path d="M48.4662 29.9507C48.2423 30.1017 48.2266 30.1433 47.9454 31.1901L47.7267 32.0078L47.8152 32.2421C47.9246 32.5285 48.1381 32.6952 48.435 32.7264C48.6901 32.7525 48.961 32.6327 49.1016 32.4296C49.2161 32.2734 49.6171 30.7787 49.6171 30.5235C49.6171 29.9507 48.9557 29.6226 48.4662 29.9507Z" fill="#991850"/>
<path d="M52.1742 31.3983C51.9659 31.5077 51.8982 31.5962 51.4815 32.3201C51.1222 32.9502 51.0233 33.169 51.0233 33.3252C51.0233 34.0179 51.8617 34.346 52.294 33.8304C52.3669 33.747 52.6064 33.3565 52.8304 32.9607C53.2783 32.1743 53.3303 31.9399 53.122 31.6639C52.8564 31.2993 52.5283 31.2108 52.1742 31.3983Z" fill="#991850"/>
<path d="M55.2677 33.7784C55.1844 33.8305 54.8354 34.1429 54.5021 34.4658C53.7887 35.1637 53.7053 35.3303 53.8564 35.7366C54.0074 36.1219 54.398 36.3094 54.7834 36.1844C55.0125 36.1063 56.2572 34.8616 56.3093 34.6533C56.4759 34.0075 55.8041 33.4451 55.2677 33.7784Z" fill="#991850"/>
<path d="M56.955 37.2677C56.0645 37.7781 55.9499 37.8926 55.9603 38.3041C55.9655 38.6946 56.2624 38.9967 56.6582 39.0019C56.8561 39.0071 56.9967 38.9446 57.6112 38.5957C58.007 38.3718 58.3976 38.1322 58.4809 38.0645C58.809 37.7885 58.7882 37.2729 58.4445 36.9656C58.2935 36.8354 58.2153 36.8042 58.007 36.8042C57.7883 36.8042 57.6581 36.8615 56.955 37.2677Z" fill="#991850"/>
<path d="M58.4966 40.6268C58.0695 40.7466 57.6633 40.882 57.5956 40.9184C57.4185 41.033 57.2571 41.408 57.2935 41.6111C57.3613 41.9756 57.6841 42.2725 58.0122 42.2725C58.0747 42.2725 58.5174 42.1683 58.9913 42.0381C59.7673 41.8298 59.8662 41.7933 60.0173 41.6267C60.2412 41.3819 60.2777 41.1528 60.1475 40.8455C60.0173 40.5539 59.7777 40.3976 59.4861 40.4028C59.3715 40.408 58.9288 40.507 58.4966 40.6268Z" fill="#991850"/>
<path d="M58.1633 44.366C57.6112 44.6524 57.6112 45.392 58.1633 45.668C58.3091 45.7461 58.4862 45.7617 59.2413 45.7617C60.2308 45.7617 60.3297 45.7409 60.5745 45.4492C60.8297 45.1472 60.7203 44.6056 60.361 44.3712C60.2412 44.2931 60.0798 44.2775 59.3038 44.2619C58.4393 44.2462 58.382 44.2514 58.1633 44.366Z" fill="#991850"/>
</svg>
