<svg width="90" height="90" viewBox="0 0 90 90" fill="none" xmlns="http://www.w3.org/2000/svg">

<path d="M33.7133 22.5329C33.1598 22.6027 32.5687 22.7478 31.6713 23.0326C30.2419 23.484 29.7207 23.5861 28.9845 23.5539C28.4793 23.5324 28.3127 23.5002 27.856 23.3336C27.5121 23.21 27.2219 23.1401 27.0499 23.1401H26.7812V24.4674V25.8001L26.1901 25.8323C25.325 25.8861 24.8789 26.058 24.3416 26.5578C23.9278 26.9393 23.6645 27.4444 23.5516 28.0839C23.3797 29.0781 23.7075 30.1635 24.3953 30.8299C24.9273 31.3511 25.5238 31.5768 26.3836 31.5768H26.8081V49.3369C26.8081 67.0647 26.8081 67.097 26.9156 67.097C26.9747 67.097 27.281 66.9626 27.6034 66.796C28.9307 66.1028 29.2585 66.1136 30.9727 66.8981C32.1818 67.4463 32.3806 67.5 33.364 67.5C34.1647 67.4946 34.2184 67.4893 34.6806 67.3227C35.2018 67.14 35.6371 66.8981 36.6259 66.2587C36.9751 66.033 37.3083 65.818 37.3674 65.7804C37.4534 65.7267 37.5394 65.7482 37.9048 65.9201C38.4905 66.1942 39.0494 66.307 39.8393 66.307C41.0484 66.307 42.2467 65.9524 43.1818 65.3183C43.4719 65.1195 44.1114 64.523 44.1114 64.4531C44.1114 64.4262 43.8481 63.7707 43.5257 62.9968C43.2033 62.223 42.6444 60.8635 42.2844 59.9768C41.3225 57.6231 40.8872 56.5753 40.511 55.7316C39.8662 54.2861 39.6942 53.7272 39.5921 52.8029C39.5653 52.5504 39.5599 52.1527 39.576 51.9163L39.6136 51.4864L40.237 51.1908C43.2677 49.7668 45.917 47.9344 48.1148 45.7365C49.1036 44.7531 49.6786 44.0922 50.4201 43.1142C52.8705 39.8684 54.5095 36.2036 55.5789 31.5607L55.6111 31.4156H58.6849H61.7586L62.2638 31.7219C62.9838 32.1572 63.6072 32.2647 64.4294 32.0927C64.9238 31.9852 65.3053 31.781 65.6653 31.421C66.5574 30.5289 66.7562 28.976 66.1275 27.7991C65.6438 26.8856 64.6013 26.3482 63.5105 26.4449C63.1074 26.4772 63.0483 26.5041 62.3283 26.9178C61.6995 27.2779 60.8505 27.337 58.3786 27.1704C57.4059 27.1113 56.4978 27.0629 56.3635 27.0737L56.1216 27.0898L56.1055 26.1118L56.0948 25.1284L55.6756 24.9403C53.9453 24.1342 52.9673 23.8279 51.7904 23.7258C50.7533 23.6345 50.1515 23.7097 49.0767 24.0751C48.0987 24.4083 47.7655 24.4728 47.4646 24.3761C47.3464 24.3438 46.9057 24.145 46.4758 23.9408C44.3747 22.9359 41.8491 22.8392 39.7963 23.6829L39.4148 23.8441L38.8452 23.5485C37.3406 22.7693 36.2013 22.4845 34.6483 22.5006C34.2238 22.506 33.8047 22.5221 33.7133 22.5329ZM35.9488 24.1342C36.2604 24.2041 36.8677 24.3922 37.2922 24.548L38.066 24.8382L38.0499 25.5099C37.9048 32.3291 36.7387 38.9603 34.643 44.9036C34.0572 46.5694 33.09 48.9285 32.4612 50.2236L32.3699 50.4116H30.3601C28.3933 50.4116 28.3504 50.4116 28.3235 50.3042C28.3127 50.2451 28.2859 45.6344 28.2751 40.0565L28.2483 29.9217L29.8013 29.9002L31.3489 29.8841L31.7358 30.1152C32.2732 30.4322 32.6547 30.5558 33.1276 30.5558C33.853 30.5558 34.4011 30.2388 34.6806 29.6584C34.8149 29.3897 34.8364 29.2769 34.8364 28.8631C34.8472 27.9711 34.4764 27.2779 33.7939 26.9071C33.4876 26.7405 33.4016 26.719 33.0685 26.719C32.5795 26.7244 32.1334 26.8963 31.8003 27.208C31.4564 27.5304 31.1339 27.5842 30.1667 27.4982C29.7851 27.4659 29.194 27.4391 28.8662 27.4391H28.259V26.2676V25.1015H29.1027C30.0592 25.0961 30.2097 25.0639 31.7519 24.5641C32.961 24.1719 33.4661 24.0429 34.0357 24.0053C34.7289 23.9515 35.2986 23.9945 35.9488 24.1342ZM44.3532 24.7845C44.9014 24.8651 45.6483 25.1015 46.0459 25.3218L46.32 25.4723L46.2878 25.9828C46.1857 27.5895 46.1373 28.2236 46.0137 29.2393C45.3366 34.9676 43.6654 39.7986 40.8979 44.0169C39.6298 45.9515 38.5873 47.2143 36.7172 49.079L35.3577 50.4385H34.2292C33.536 50.4385 33.0953 50.417 33.0953 50.3848C33.0953 50.3579 33.2297 50.0247 33.3963 49.6486C34.7934 46.4566 35.9326 43.1142 36.7709 39.7717C37.0128 38.8098 37.045 38.6701 37.3406 37.2461C37.6845 35.6178 38.0015 33.6779 38.2272 31.8186C38.3025 31.1953 38.3777 30.5827 38.3938 30.4483L38.4207 30.2065L39.5062 30.1904C40.2262 30.1797 40.6454 30.1904 40.7529 30.2334C40.8442 30.2656 41.0968 30.4107 41.3171 30.5558C41.79 30.8621 42.0963 30.9588 42.4617 30.9051C43.3376 30.7923 43.9126 30.2656 44.0953 29.4112C44.2404 28.7073 44.0416 28.0033 43.5579 27.5627C43.2463 27.2725 43.0743 27.1919 42.6498 27.1166C42.107 27.0199 41.7631 27.1059 41.2365 27.4659C40.7206 27.8152 40.4358 27.8958 39.8769 27.8528C39.6512 27.8314 39.2697 27.7991 39.0333 27.783L38.598 27.7454L38.6195 26.7459C38.6302 26.1978 38.6517 25.741 38.6571 25.7302C38.6679 25.7195 38.9688 25.5959 39.3288 25.4454C41.0215 24.7576 42.7358 24.5319 44.3532 24.7845ZM52.892 25.4562C53.4455 25.569 54.1119 25.8001 54.4182 25.9882C54.5848 26.0903 54.5901 26.1064 54.5901 26.4288C54.5901 27.5895 54.1979 30.4161 53.8163 32.0336C53.0855 35.145 52.0323 37.7243 50.4739 40.2285C48.5877 43.27 46.0621 45.8386 42.9023 47.9505C42.1339 48.461 40.4304 49.482 39.8769 49.7614C38.9527 50.2289 37.9048 50.46 36.9053 50.4278L36.3894 50.4116L37.1149 49.6593C41.0162 45.6129 43.703 41.0721 45.2936 35.8435C45.745 34.3604 46.4758 31.1416 46.4758 30.6364C46.4758 30.5128 46.4758 30.5128 47.5828 30.4752C48.8886 30.4268 48.9424 30.4376 49.5872 30.8729C50.0279 31.163 50.0494 31.1738 50.4578 31.1953C51.0972 31.2222 51.511 31.0663 51.9409 30.6364C52.2096 30.3677 52.2902 30.2441 52.36 29.997C52.4944 29.5456 52.4568 28.8416 52.2794 28.4869C52.1075 28.1323 51.7474 27.783 51.3767 27.611C51.108 27.4874 51.0005 27.4659 50.533 27.4659C50.0655 27.4659 49.958 27.4821 49.7001 27.6057C49.5389 27.6863 49.3132 27.8206 49.1949 27.9173L48.9854 28.0839H47.8838H46.7821L46.8144 27.6379C46.8359 27.3961 46.852 27.0145 46.852 26.7889V26.3751L47.3518 26.1548C49.0875 25.3971 51.2316 25.123 52.892 25.4562ZM26.835 27.4982C27.0177 27.568 27.2219 27.697 27.3777 27.8528L27.6249 28.1L30.2634 28.0732C33.0255 28.0409 33.2888 28.057 33.5199 28.2666C33.6542 28.3902 33.7079 28.7019 33.6273 28.9007C33.5897 28.9921 33.4715 29.1049 33.3425 29.1748C33.1276 29.293 33.0792 29.293 30.2956 29.3199L27.4637 29.3467L27.1735 29.6262C26.7597 30.0131 26.3675 30.1044 25.8086 29.9378C25.5023 29.8465 25.1906 29.5617 25.0617 29.2554C24.9542 28.9867 24.9542 28.3472 25.067 28.1215C25.3895 27.4874 26.1149 27.2295 26.835 27.4982ZM64.2467 28.0356C64.4455 28.1 64.7787 28.444 64.8861 28.7073C64.9936 28.9652 64.9936 29.5724 64.8861 29.8304C64.6712 30.3462 64.2682 30.6203 63.7362 30.6203C63.3331 30.6203 63.2149 30.5666 62.8065 30.2119L62.4626 29.911H58.6903H54.9126L54.9179 29.5724C54.9179 29.3897 54.9502 29.1049 54.9824 28.9437L55.0469 28.6482L56.7396 28.632C57.6908 28.6267 59.0825 28.6535 59.9101 28.6965C61.3771 28.7718 62.0166 28.7503 62.4035 28.6213C62.5056 28.589 62.7528 28.4386 62.9516 28.2935C63.1504 28.1484 63.3761 28.0141 63.4514 27.9979C63.5266 27.9818 63.6179 27.9603 63.6448 27.9496C63.7147 27.9281 64.0317 27.9711 64.2467 28.0356ZM42.4133 28.4063C42.9185 28.5568 43.1012 29.0619 42.768 29.3736C42.5316 29.5939 42.1339 29.6638 41.3171 29.6208C39.6029 29.5348 39.0225 29.5241 38.7915 29.5778C38.6141 29.6208 38.5389 29.6208 38.5066 29.5724C38.4637 29.5079 38.4959 28.5944 38.5496 28.4547C38.5711 28.3956 38.684 28.3848 39.1031 28.3956C39.3879 28.401 39.9038 28.3848 40.2424 28.358C41 28.2935 42.1285 28.3204 42.4133 28.4063ZM50.7103 28.7019C51.0059 28.8255 51.151 29.0082 51.151 29.2769C51.151 29.5617 51.0811 29.6745 50.8124 29.8142C50.6028 29.9325 50.5222 29.9378 49.5926 29.9378C48.3566 29.9378 46.5833 29.8895 46.5833 29.8626C46.5833 29.8519 46.6048 29.6907 46.6371 29.5133C46.6639 29.3306 46.7015 29.0673 46.7177 28.9276L46.7499 28.6697L47.1905 28.6911C47.4324 28.7019 48.0074 28.6804 48.4641 28.6428C49.5335 28.5568 50.404 28.5783 50.7103 28.7019ZM38.0929 52.2118V53.4478H33.1759H28.259V52.4107C28.259 51.8464 28.2751 51.2875 28.2912 51.1747L28.3289 50.9759H33.2082H38.0929V52.2118ZM38.2111 54.141C38.2326 54.1571 38.4744 54.7428 38.7538 55.436C39.5653 57.4566 40.7206 60.2348 41.7739 62.7067L42.2951 63.9372L42.1661 64.0716C42.1017 64.1468 41.9028 64.3026 41.7309 64.4155C40.8818 64.969 39.9092 64.9421 38.152 64.3188C36.9053 63.8728 36.6151 63.7814 36.2067 63.6847L35.8037 63.5879L35.6263 62.8303C35.5296 62.4165 35.406 61.8791 35.3523 61.6427C35.1158 60.6324 34.471 57.9241 34.2775 57.1288C34.1647 56.6559 33.9605 55.8176 33.8262 55.2587C33.6918 54.7052 33.579 54.2162 33.579 54.1732C33.579 54.1034 33.7402 54.0926 34.6268 54.0926C35.4221 54.0926 35.6855 54.1087 35.6962 54.1571C35.7876 54.4473 36.4754 56.5 36.7333 57.2362C36.9107 57.736 37.0719 58.2465 37.0934 58.3647C37.1417 58.628 37.2922 58.9236 37.448 59.0633C37.5609 59.1654 37.5663 59.1654 37.6415 59.0633C37.7543 58.9128 37.7328 58.6979 37.577 58.3217C37.5018 58.139 37.2331 57.3867 36.9805 56.6505C36.7333 55.9089 36.4324 55.0545 36.3142 54.7482C36.2013 54.4365 36.1154 54.1679 36.1368 54.1517C36.2228 54.0658 38.1197 54.055 38.2111 54.141ZM30.4568 54.4473C30.4891 54.6407 30.5804 55.3447 30.6503 56.0164C30.8384 57.8112 31.0157 58.8537 31.1608 59.0902C31.1984 59.1546 31.2253 59.1493 31.3113 59.074C31.4725 58.929 31.4832 58.7516 31.3704 58.0315C31.1339 56.4839 30.9459 55.0706 30.9136 54.5977L30.876 54.0926H31.9024H32.9288L32.9825 54.2914C33.0147 54.4043 33.1437 54.9309 33.278 55.4629C33.5037 56.3711 33.6757 57.0965 34.4173 60.2563C34.5785 60.9602 34.9063 62.3144 35.1481 63.2709C35.3845 64.222 35.5672 65.0388 35.5511 65.0765C35.535 65.1195 35.3684 65.2592 35.1803 65.3828C34.4603 65.8771 33.6972 66.076 32.9341 65.9685C32.4129 65.8986 32.1549 65.8127 31.2199 65.3935C29.9249 64.8185 29.7368 64.7648 28.9468 64.7648L28.259 64.7594V59.4233V54.0926H29.323H30.3924L30.4568 54.4473Z" fill="#991850"/>
<path d="M62.9838 46.3382C62.9946 53.4852 62.9785 60.2453 62.9516 61.3631L62.9086 63.3889L55.509 63.3836C51.4411 63.3836 47.4377 63.3621 46.6102 63.3406C45.7826 63.3191 45.0948 63.3083 45.0841 63.3191C45.0464 63.346 45.1808 63.7436 45.4172 64.3078L45.6429 64.8398H55.063H64.4777V49.0949V33.35H63.7254H62.9731L62.9838 46.3382Z" fill="#991850"/>
<path d="M56.3258 34.1024C56.2613 34.1293 56.1969 34.1992 56.1807 34.2583C56.1646 34.3228 56.1377 34.4195 56.1216 34.4732C56.0625 34.6828 56.5139 34.7204 58.8246 34.7097L60.9311 34.6935V47.9666C60.9311 55.2694 60.9257 61.2557 60.9203 61.2772C60.9096 61.3041 57.191 61.3202 52.6556 61.3202C48.1202 61.3202 44.3747 61.3417 44.3425 61.3632C44.1813 61.4653 44.3586 61.7931 44.6112 61.8737C44.6756 61.8952 48.5071 61.9059 53.1285 61.8952L61.5222 61.8791V47.9988V34.1132L61.404 34.0809C61.2105 34.0326 56.4602 34.0487 56.3258 34.1024Z" fill="#991850"/>
</svg>
