<svg width="90" height="90" viewBox="0 0 90 90" fill="none" xmlns="http://www.w3.org/2000/svg">

<path fill-rule="evenodd" clip-rule="evenodd" d="M55.0845 22.5C55.4332 22.5 55.7162 22.5303 55.9941 22.6011C56.2165 22.6567 56.6006 22.7983 56.8532 22.9196C57.1059 23.041 57.6163 23.3443 57.9903 23.5971C58.3643 23.8499 58.9454 24.2645 59.279 24.5223C59.6125 24.7751 60.1583 25.2251 60.4918 25.5234C60.8203 25.8216 61.2853 26.2817 61.5177 26.5446C61.7553 26.8075 62.0585 27.1715 62.1949 27.3535C62.3314 27.5356 62.5285 27.8541 62.6295 28.0614C62.7963 28.395 62.8165 28.486 62.8367 28.9208C62.8519 29.3101 62.8367 29.4719 62.7407 29.7803C62.6801 29.9876 62.5487 30.3213 62.4476 30.5134C62.3516 30.7055 62.2151 30.9583 62.1393 31.0695C62.0686 31.1808 61.9069 31.4083 61.7856 31.5751C61.6592 31.742 61.4217 32.0352 61.26 32.2324C61.0932 32.4295 60.5575 33.0059 60.0673 33.5216C59.5771 34.0373 58.6119 35.1445 57.9145 35.9736C57.2222 36.8078 56.0649 38.1931 55.3422 39.0577C54.6195 39.9222 53.5633 41.171 52.9923 41.8383C52.4212 42.5057 51.365 43.7343 50.6424 44.5685C49.9146 45.4027 48.7321 46.7576 48.0094 47.5766C47.2868 48.3957 46.175 49.6596 45.5331 50.3826C44.8964 51.1056 44.1333 51.9802 43.8402 52.3291C43.5521 52.6779 43.0821 53.1987 42.8042 53.4868C42.5262 53.775 42.127 54.139 41.9198 54.2958C41.7126 54.4525 41.3841 54.6699 41.187 54.7811C40.9899 54.8873 40.6766 55.039 40.4795 55.1148C40.2824 55.1906 39.4233 55.4889 38.5592 55.7822C37.695 56.0703 36.5478 56.4394 36.0071 56.5961C35.4663 56.7529 34.5314 56.9905 33.9351 57.127C33.3388 57.2635 32.4039 57.5163 31.8631 57.6882C31.3224 57.8601 30.6604 58.0522 30.3976 58.1129C30.1348 58.1786 29.7709 58.2494 29.589 58.2696C29.3313 58.2999 29.2251 58.2898 29.0988 58.2241C29.0078 58.1786 28.8865 58.0825 28.8309 58.0067C28.7703 57.9258 28.7147 57.7944 28.6996 57.7135C28.6793 57.6073 28.7349 57.3747 28.8815 56.9551C28.9977 56.6214 29.306 55.7215 29.5688 54.9581C29.8316 54.1947 30.2409 52.956 30.4734 52.2027C30.7058 51.4494 31.0798 50.2006 31.3022 49.422C31.5245 48.6434 31.7772 47.8042 31.8682 47.5514C31.9541 47.2986 32.1057 46.9042 32.2017 46.6666C32.2977 46.429 32.5403 45.9184 32.7424 45.5291C32.9395 45.1398 33.2983 44.528 33.5409 44.164C33.7784 43.805 34.1777 43.259 34.4253 42.9506C34.6679 42.6473 35.1581 42.1012 35.5068 41.7372C35.8555 41.3783 36.9925 40.2458 38.0336 39.2296C39.0746 38.2083 40.7423 36.55 41.7429 35.5388C42.7436 34.5277 44.0727 33.1525 44.6942 32.4852C45.3209 31.8178 46.2861 30.7611 46.842 30.1342C47.403 29.5073 48.1863 28.6074 48.5855 28.1372C48.9848 27.6619 49.8489 26.6053 50.511 25.7863C51.173 24.9672 51.8906 24.1229 52.1079 23.9106C52.3303 23.6982 52.6537 23.4202 52.8356 23.2887C53.0176 23.1522 53.3208 22.9651 53.5179 22.8691C53.7149 22.768 54.0283 22.6466 54.2254 22.5961C54.4477 22.5404 54.7712 22.5051 55.0845 22.5V22.5ZM54.0738 24.128C53.9323 24.1987 53.6391 24.401 53.4218 24.5779C53.1995 24.7549 52.8053 25.1543 52.5425 25.4576C52.2797 25.766 52.027 26.0643 51.9816 26.13C51.9361 26.1907 51.9108 26.2514 51.926 26.2615C51.9411 26.2716 52.1231 26.3929 52.3303 26.5295C52.5375 26.671 53.0277 27.0199 53.4168 27.3131C53.8059 27.6013 54.3416 28.0209 54.6044 28.2383C54.8672 28.4557 55.4029 28.9259 55.792 29.2747C56.1811 29.6286 56.8027 30.2353 57.1767 30.6196C57.5506 31.0089 58.1065 31.6156 58.4148 31.9695C58.7231 32.3234 58.9859 32.6166 59.001 32.6166C59.0162 32.6166 59.0819 32.5559 59.1526 32.4902C59.2638 32.3739 59.2689 32.3537 59.2032 32.2779C59.1627 32.2324 58.9404 32.0352 58.7079 31.833C58.4451 31.6055 58.2935 31.4386 58.2935 31.3729C58.2935 31.3173 58.3188 31.2414 58.3542 31.206C58.3895 31.1757 58.4603 31.1454 58.5159 31.1454C58.5765 31.1504 58.8444 31.3426 59.1122 31.5751C59.4963 31.9088 59.6226 31.9947 59.6833 31.9543C59.7439 31.9139 59.6681 31.8026 59.2537 31.3577C58.9707 31.0594 58.6877 30.7308 58.622 30.6246C58.5209 30.478 58.5058 30.4173 58.5462 30.3365C58.5765 30.2707 58.6473 30.2353 58.7332 30.2353C58.8292 30.2353 58.9101 30.2808 58.9808 30.3718C59.0364 30.4527 59.2992 30.7359 59.562 31.0089C59.8248 31.2819 60.0522 31.5043 60.0724 31.4993C60.0977 31.4993 60.1583 31.4336 60.2139 31.3476L60.315 31.1959C58.9606 29.841 58.6473 29.4921 58.6473 29.4264C58.6473 29.3708 58.6827 29.2899 58.7281 29.2495C58.7686 29.209 58.8393 29.1736 58.8797 29.1736C58.9202 29.1736 59.2183 29.4466 59.5418 29.7854C59.8703 30.1241 60.2442 30.4881 60.3756 30.5943C60.6081 30.7864 60.6232 30.7864 60.7193 30.7055C60.7799 30.655 60.8254 30.5943 60.8203 30.564C60.8203 30.5336 60.6131 30.3061 60.3605 30.0584C60.1078 29.8107 59.7237 29.4062 59.5013 29.1585C59.284 28.9158 59.1021 28.6832 59.1021 28.6428C59.1021 28.6023 59.1375 28.5315 59.183 28.4911C59.2234 28.4506 59.2941 28.4153 59.3346 28.4153C59.375 28.4153 59.7894 28.8096 60.2594 29.2899L61.1185 30.1595L61.4419 29.4517C60.9669 29.022 60.5121 28.6124 60.128 28.2686C59.7439 27.9198 59.4154 27.6063 59.3902 27.5709C59.3699 27.5356 59.3649 27.4597 59.3801 27.4041C59.3952 27.3485 59.4609 27.2929 59.5317 27.2777C59.6277 27.2575 59.7237 27.308 59.9461 27.4951C60.1078 27.6266 60.5171 27.9906 60.8557 28.299C61.1994 28.6124 61.4773 28.8602 61.4773 28.845C61.4773 28.8298 61.4268 28.7237 61.3712 28.6023C61.3105 28.486 61.1589 28.2535 61.0275 28.0866C60.9012 27.9198 60.5272 27.5002 60.1886 27.1564C59.8551 26.8126 59.3801 26.3626 59.1274 26.1503C58.8747 25.9379 58.4704 25.6144 58.2177 25.4323C57.965 25.2453 57.4647 24.8964 57.1059 24.6538C56.7471 24.4111 56.2771 24.1431 56.0699 24.0572C55.7516 23.9207 55.6151 23.8954 55.2108 23.8802C54.9076 23.8701 54.6549 23.8903 54.5286 23.9308C54.4174 23.9712 54.2102 24.0572 54.0738 24.128ZM50.8394 27.5558C50.5665 27.8895 50.3492 28.1776 50.3543 28.1979C50.3543 28.2181 50.4655 28.299 50.6019 28.3748C50.7333 28.4456 51.2488 28.7793 51.7491 29.113C52.2494 29.4416 52.9569 29.937 53.3157 30.2101C53.6745 30.4831 54.3163 30.9937 54.7307 31.3426C55.1451 31.6914 55.979 32.4649 56.5753 33.0565C57.1716 33.6429 57.6618 34.1283 57.6618 34.1283C57.6618 34.1333 57.8134 33.9513 58.0004 33.7238L58.3441 33.3194C57.586 32.3992 56.828 31.5953 56.1761 30.9381C55.5191 30.2859 54.6398 29.4669 54.2254 29.118C53.8059 28.7742 53.2045 28.2939 52.8862 28.0563C52.5678 27.8187 52.0877 27.4698 51.8198 27.2878L51.3296 26.9491L50.8394 27.5558ZM48.9393 29.8157C48.5148 30.3112 47.8376 31.0797 47.4333 31.5246C47.0341 31.9695 46.2811 32.7885 45.7606 33.3446C45.24 33.9008 44.0474 35.1445 43.1074 36.1101C42.1624 37.0758 40.2875 38.9414 38.9432 40.2609C37.5939 41.5805 36.3406 42.8293 36.1587 43.0366C35.9717 43.2388 35.6331 43.6483 35.4006 43.9365C35.1631 44.2297 34.9206 44.5533 34.8599 44.6595C34.7993 44.7606 34.7538 44.8566 34.7588 44.8668C34.7639 44.8718 35.0115 44.9426 35.3046 45.0184C35.5927 45.0943 36.0829 45.256 36.3912 45.3824C36.6944 45.5038 36.9673 45.6049 36.9976 45.6049C37.0229 45.5998 37.2856 45.3218 37.5838 44.983C37.8769 44.6443 38.7765 43.5927 39.58 42.6473C40.3835 41.7018 41.7581 40.0789 42.6324 39.0324C43.5066 37.9909 44.9419 36.2719 45.8161 35.2153C46.6955 34.1586 48.0347 32.5357 48.7978 31.6004C49.5609 30.6701 50.2734 29.8005 50.3745 29.6691L50.5665 29.4264C50.2684 29.2444 50.0814 29.1332 49.95 29.0573L49.7175 28.9208L48.9393 29.8157ZM50.0511 31.5144C49.3486 32.379 47.873 34.1687 46.7763 35.4883C45.6797 36.8129 44.1939 38.5976 43.4662 39.4621C42.7436 40.3216 41.3791 41.9395 40.434 43.0517C39.4941 44.164 38.5592 45.256 38.3671 45.4785C38.17 45.701 37.9679 45.9335 37.9173 45.9942C37.8314 46.1105 37.8314 46.1105 38.1448 46.3228C38.3166 46.4391 38.6552 46.702 38.8876 46.9042C39.1252 47.1065 39.3324 47.2531 39.3475 47.2329C39.3677 47.2126 39.5244 47.0053 39.7013 46.7677C39.8782 46.5301 40.3987 45.8577 40.8535 45.2763C41.3134 44.6898 41.9956 43.8404 42.3696 43.3804C42.7436 42.9203 43.4157 42.1114 43.8655 41.5856C44.3102 41.0547 45.2249 39.998 45.892 39.2346C46.5641 38.4712 47.595 37.3084 48.1913 36.6562C48.7826 36.004 49.5204 35.1951 49.8338 34.8614C50.142 34.5277 50.9051 33.7087 51.5267 33.0362C52.1534 32.3689 52.775 31.6914 52.9114 31.5296L53.1641 31.2364C52.9367 31.0645 52.593 30.8117 52.2494 30.564C51.9108 30.3112 51.5621 30.0685 51.4813 30.023L51.3347 29.937L50.0511 31.5144ZM53.7301 31.9745C53.6644 32.0605 53.4421 32.3183 53.2349 32.5408C53.0327 32.7683 52.1534 33.7087 51.2892 34.6389C50.425 35.5692 49.2678 36.8331 48.7119 37.4449C48.161 38.0566 47.3676 38.9414 46.9482 39.4166C46.5338 39.8868 45.8515 40.6705 45.4321 41.1609C45.0126 41.6462 44.3203 42.4653 43.8907 42.9809C43.4612 43.4966 42.7082 44.4168 42.223 45.0285C41.7328 45.6403 41.0354 46.525 40.6766 47.0003C40.3178 47.4705 40.0045 47.88 39.9893 47.9103C39.9691 47.9356 40.0803 48.1277 40.2319 48.3401C40.3886 48.5474 40.6463 48.9265 40.803 49.1894C40.9596 49.4473 41.0961 49.6546 41.1011 49.6546C41.1062 49.6546 41.2881 49.4321 41.5054 49.1591C41.7177 48.8861 42.5768 47.8598 43.4106 46.8739C44.2445 45.883 45.6898 44.1893 46.6197 43.1073C47.5495 42.0203 49.1414 40.18 50.1572 39.0122C51.173 37.8443 52.684 36.1152 53.5128 35.1698C54.3467 34.2243 55.0946 33.375 55.1805 33.2789L55.3372 33.1121C54.8672 32.6773 54.5336 32.3891 54.2961 32.1818L53.8564 31.8127L53.7301 31.9745ZM51.173 39.2397C50.0208 40.5592 48.2116 42.6523 47.1503 43.891C46.0941 45.1297 44.6488 46.8233 43.9413 47.6575C43.2388 48.4917 42.4353 49.4574 42.1573 49.8062C41.8794 50.1551 41.6216 50.4837 41.5863 50.5393C41.5307 50.6253 41.5408 50.691 41.6368 50.9691C41.7025 51.1511 41.8086 51.5252 41.8743 51.8033C41.935 52.0813 41.9956 52.3139 42.0057 52.319C42.0158 52.3291 42.1118 52.2381 42.218 52.1167C42.3241 52.0005 42.6829 51.5859 43.0114 51.1966C43.3399 50.8073 44.2243 49.7961 44.9772 48.9468C45.7302 48.0974 47.1554 46.4846 48.1408 45.3572C49.1263 44.2297 50.6019 42.5259 51.4257 41.5653C52.2443 40.6047 53.5633 39.0476 54.3568 38.1021C55.1502 37.1567 56.075 36.0495 56.4136 35.6349C56.7522 35.2254 57.0251 34.8715 57.02 34.8462C57.0099 34.8209 56.7825 34.5681 56.5147 34.2901C56.2418 34.0069 56.0042 33.7794 55.984 33.7845C55.9638 33.7845 55.3422 34.4721 54.6044 35.3113C53.8716 36.1455 52.3252 37.9151 51.173 39.2397ZM34.0463 45.9588C33.9705 46.0852 33.7987 46.4543 33.6521 46.7728C33.5106 47.0913 33.3135 47.5918 33.2074 47.885C33.1063 48.1783 32.8486 49.0074 32.6414 49.7304C32.4342 50.4534 32.1006 51.5657 31.9035 52.2077C31.7115 52.8448 31.5397 53.3857 31.5296 53.406C31.5195 53.4312 31.6357 53.5121 31.7873 53.5981C31.944 53.679 32.2421 53.9166 32.4493 54.1138C32.6616 54.316 32.9446 54.6295 33.081 54.8115C33.2175 54.9935 33.3994 55.2766 33.4904 55.4434C33.5763 55.6103 33.6521 55.7518 33.6521 55.7619C33.6572 55.7721 33.9199 55.7215 34.2383 55.6457C34.5617 55.5698 34.8448 55.4889 34.87 55.4687C34.9054 55.4384 34.8144 55.2361 34.6325 54.9176C34.4708 54.6345 34.3394 54.3767 34.3394 54.3413C34.3394 54.3109 34.3798 54.2402 34.4253 54.1896C34.4809 54.134 34.5567 54.1087 34.6173 54.1239C34.683 54.139 34.8397 54.3615 35.0469 54.7356C35.2288 55.0541 35.4057 55.317 35.4411 55.317C35.4765 55.317 35.6281 55.2816 35.7797 55.2412C35.9363 55.2008 36.0576 55.1553 36.0576 55.1401C36.0576 55.1249 35.8909 54.7862 35.6786 54.3817C35.4714 53.9773 35.2996 53.5981 35.2996 53.5323C35.2996 53.4717 35.3299 53.3908 35.3754 53.3554C35.4158 53.3251 35.5017 53.3048 35.5674 53.32C35.6533 53.3402 35.7746 53.5323 36.1082 54.1795C36.3457 54.6396 36.563 55.0086 36.5882 54.9985C36.6186 54.9884 36.8258 54.9176 37.0582 54.8418L37.4726 54.7103C37.2503 54.2604 37.0178 53.8559 36.8157 53.5222C36.6135 53.1886 36.3608 52.7386 36.2547 52.5212C36.1486 52.3089 36.0576 52.0915 36.0576 52.0409C36.0576 51.9954 36.0829 51.9246 36.1183 51.8892C36.1536 51.8538 36.2395 51.8336 36.3052 51.8387C36.4013 51.8488 36.4821 51.96 36.7095 52.41C36.8713 52.7133 37.1138 53.1481 37.2553 53.3706C37.3918 53.593 37.604 53.952 37.7203 54.1643L37.9275 54.5587C38.4985 54.3615 38.6906 54.2958 38.7259 54.2806C38.7664 54.2604 38.7158 54.1188 38.5541 53.8104C38.4227 53.5677 38.1801 53.1329 38.0134 52.8397C37.8466 52.5465 37.5535 52.0712 37.3665 51.778C37.1745 51.4848 37.0229 51.1966 37.0229 51.1309C37.0178 51.0601 37.0683 50.9944 37.1441 50.9539C37.2503 50.9033 37.2856 50.9084 37.3766 50.9943C37.4373 51.05 37.6697 51.3887 37.8921 51.7527C38.1144 52.1117 38.4278 52.6375 38.5895 52.9155C38.7461 53.1936 38.9483 53.5677 39.0393 53.7497C39.1302 53.9318 39.206 54.0834 39.2111 54.0885C39.2161 54.0986 39.4284 54.0278 39.6861 53.9368C39.9438 53.8509 40.1561 53.7599 40.151 53.7346C40.151 53.7144 39.9944 53.4565 39.8074 53.1532C39.6154 52.8549 39.2414 52.2381 38.9736 51.778C38.7057 51.3179 38.4025 50.7365 38.3014 50.4888C38.1549 50.1146 38.1296 50.0135 38.1751 49.9175C38.2105 49.8467 38.2762 49.8062 38.357 49.8062C38.448 49.8062 38.5187 49.8568 38.6046 49.9933C38.6703 50.0995 38.8017 50.3674 38.8927 50.5899C38.9837 50.8123 39.2616 51.3432 39.5042 51.7628C39.7518 52.1875 40.0854 52.7538 40.2521 53.0167C40.4189 53.2796 40.5857 53.497 40.621 53.497C40.6564 53.497 40.7827 53.4262 40.9091 53.3352L41.1314 53.1683C41.0809 52.4605 41.0051 52.0409 40.9344 51.778C40.8636 51.5151 40.7423 51.1511 40.6716 50.9691C40.6008 50.7871 40.4543 50.4584 40.3431 50.236C40.2319 50.0135 40.0146 49.6394 39.863 49.4018C39.7063 49.1642 39.4536 48.8103 39.2919 48.6181C39.1353 48.421 38.8017 48.0721 38.5541 47.8345C38.3065 47.5969 37.887 47.2581 37.6242 47.0812C37.3615 46.9042 36.9167 46.6464 36.6388 46.5099C36.3608 46.3683 35.8757 46.1661 35.5523 46.0599C35.2339 45.9537 34.7942 45.8375 34.5769 45.797L34.1777 45.7212L34.0463 45.9588ZM52.8407 53.3706C53.5027 53.3857 53.6897 53.406 54.0637 53.5222C54.3062 53.593 54.66 53.7194 54.847 53.8054C55.0339 53.8913 55.3826 54.0885 55.6202 54.2503C55.8526 54.407 56.2771 54.7558 56.5551 55.0238C56.833 55.2918 57.1716 55.6558 57.5607 56.1563L57.2575 55.8833C57.0908 55.7316 56.7977 55.4889 56.6056 55.3423C56.4085 55.1957 56.0699 54.9631 55.8476 54.8266C55.6252 54.6952 55.2361 54.5031 54.9885 54.4019C54.7358 54.3008 54.3365 54.1795 54.1041 54.1289C53.7705 54.0632 53.5179 54.048 52.9923 54.0683C52.5425 54.0885 52.1736 54.1289 51.931 54.1947C51.7188 54.2503 51.3701 54.3716 51.1477 54.4576C50.9254 54.5435 50.5514 54.7205 50.324 54.8519C50.0966 54.9834 49.6973 55.2412 49.4446 55.4232C49.1869 55.6002 48.7068 55.9895 48.3682 56.2877C48.0347 56.581 47.4687 57.127 47.1099 57.5011C46.7511 57.8702 45.9172 58.8005 45.2603 59.5689C44.5982 60.3324 43.7644 61.2879 43.4056 61.6924C43.0518 62.0918 42.4403 62.744 42.0512 63.1333C41.6621 63.5276 41.1365 64.0231 40.8889 64.2405C40.6362 64.4579 40.1814 64.8219 39.8782 65.0545C39.5699 65.287 39.0797 65.6258 38.7916 65.8128C38.4985 65.9948 37.9881 66.278 37.6546 66.4448C37.321 66.6066 36.7399 66.8442 36.3659 66.9706C35.9869 67.1021 35.4108 67.2638 35.0772 67.3346C34.5921 67.4357 34.2686 67.4661 33.5106 67.4913C32.6768 67.5116 32.4645 67.5015 31.9187 67.4054C31.57 67.3498 31.0596 67.2234 30.7816 67.1324C30.5037 67.0363 30.1146 66.8796 29.9225 66.7835C29.7254 66.6875 29.4172 66.5055 29.2352 66.3841C29.0533 66.2628 28.7855 66.0606 28.6389 65.9392C28.4924 65.8128 28.2346 65.5398 28.0679 65.3325C27.896 65.1202 27.6737 64.7713 27.5675 64.5489C27.4564 64.3264 27.325 63.9624 27.2694 63.74C27.1986 63.4771 27.1633 63.1585 27.1582 62.8552C27.1582 62.5872 27.1835 62.2384 27.2138 62.0716C27.2492 61.9047 27.3502 61.6064 27.4412 61.4143C27.5322 61.2171 27.704 60.9492 27.8303 60.8127C27.9516 60.6762 28.1184 60.5144 28.3559 60.3526L28.174 60.5801C28.0729 60.7014 27.9415 60.8834 27.8859 60.9846C27.8303 61.0806 27.7293 61.3081 27.6686 61.4901C27.5777 61.7429 27.5524 61.93 27.5524 62.3243C27.5524 62.6327 27.5878 62.9563 27.6383 63.1585C27.6838 63.3355 27.8202 63.6894 27.9466 63.9422C28.0948 64.2455 28.2751 64.5118 28.4873 64.741C28.6642 64.9331 28.9623 65.2011 29.1493 65.3376C29.3363 65.4741 29.6648 65.6713 29.8821 65.7774C30.0994 65.8887 30.4582 66.0353 30.6806 66.1061C30.9029 66.1718 31.2668 66.2678 31.4892 66.3083C31.7115 66.3487 32.1057 66.3993 32.3735 66.4195C32.6464 66.4397 33.1013 66.4296 33.4348 66.3942C33.7532 66.3639 34.1827 66.3032 34.395 66.2577C34.6022 66.2173 34.966 66.1263 35.2036 66.0555C35.436 65.9847 35.8605 65.8432 36.1385 65.7319C36.4164 65.6258 36.8915 65.3932 37.1997 65.2264C37.503 65.0545 37.9679 64.7713 38.2357 64.5944C38.4985 64.4174 38.9281 64.0989 39.1959 63.8916C39.4587 63.6793 39.9641 63.2394 40.3229 62.9159C40.6817 62.5872 41.3639 61.8997 41.844 61.389C42.3241 60.8733 43.0417 60.0897 43.4359 59.6448C43.8351 59.1999 44.5629 58.4011 45.0531 57.8753C45.5483 57.3444 46.2407 56.6467 46.5995 56.3231C46.9583 55.9996 47.4232 55.6002 47.6355 55.4333C47.8426 55.2715 48.252 54.9732 48.5451 54.7811C48.8332 54.584 49.2223 54.3463 49.4042 54.2452C49.5811 54.1441 49.9146 53.9823 50.137 53.8913C50.3594 53.7953 50.7232 53.6638 50.9456 53.6031C51.1679 53.5374 51.5065 53.4565 51.7036 53.4211C51.9361 53.3756 52.3202 53.3554 52.8407 53.3706Z" fill="#991850"/>
</svg>
