<svg width="463" height="116" viewBox="0 0 463 116" fill="none" xmlns="http://www.w3.org/2000/svg">
<path d="M155.483 58.9518C153.532 53.5991 150.981 48.4714 148.155 43.5188C145.178 38.2911 141.901 33.2385 138.274 28.436C134.673 23.6585 130.796 19.1061 126.618 14.8039C122.591 10.6517 118.264 6.64961 113.111 3.89817C108.759 1.57196 102.506 -0.504117 97.8284 2.12225C95.5773 3.39791 94.2266 5.67411 94.0014 8.25045C93.7513 11.1019 94.8019 13.7533 96.3026 16.1295C97.8785 18.6058 99.8545 20.882 101.78 23.1082C103.707 25.3093 105.683 27.4604 107.759 29.5365C111.886 33.6637 116.263 37.5407 120.865 41.1176C129.07 47.4959 137.924 52.9987 147.179 57.7512C134.122 55.9503 121.041 54.5996 107.884 54.0743C101.981 46.7705 95.5522 39.992 88.3985 33.8888C80.8696 27.4354 72.7654 21.7325 64.1609 16.7799C60.7841 14.8289 55.8566 11.6522 51.9546 14.1285C50.1536 15.2791 49.3782 17.3552 49.4783 19.4313C49.5783 21.7075 50.7539 23.7085 52.2297 25.3844C55.3813 28.9862 59.3084 32.0878 63.1854 34.8893C67.1124 37.7658 71.2646 40.3171 75.5418 42.6434C83.4209 46.9456 91.7003 50.4724 100.03 53.8492C91.0499 53.7241 81.9702 53.9743 72.9154 54.7497C72.7654 54.6746 72.6153 54.5996 72.4152 54.5746C71.8649 54.5245 71.3146 54.4745 70.7393 54.4245C69.2636 52.9487 67.7628 51.473 66.1619 50.0972C64.1109 48.3213 61.9848 46.6705 59.7836 45.0696C55.3563 41.8179 50.7039 38.8664 45.8764 36.215C36.2964 30.9873 26.041 26.9602 15.4605 24.2838C12.609 23.5584 9.53246 22.9081 6.60594 23.6835C4.35477 24.2588 2.32871 25.6845 1.22813 27.7606C-1.39823 32.7882 3.92953 36.9154 7.53141 39.4667C16.1609 45.5949 26.1161 49.4219 36.3464 51.9232C44.7258 53.9742 53.2802 55.0998 61.8347 55.9753C47.102 58.0013 32.6195 61.5782 18.9624 67.3812C15.8107 68.7319 12.7591 70.2077 9.75757 71.8586C8.83209 72.3588 9.40741 73.8096 10.4079 73.3844C23.3397 67.9315 36.5215 63.3791 50.3037 60.6027C53.9556 59.8773 57.6325 59.252 61.3094 58.7267C56.1317 59.8773 50.979 61.228 45.9514 62.8789C34.6705 66.5808 23.7399 71.9586 14.7102 79.8127C10.6831 83.3145 6.23073 87.7168 6.63094 93.5198C6.80603 95.9461 7.95663 98.3974 10.0327 99.7481C12.3089 101.199 15.1104 101.274 17.7117 100.899C23.3897 100.048 28.9176 97.647 33.8201 94.7455C38.8477 91.7939 43.4501 88.1671 47.7774 84.29C56.8821 76.1358 64.8863 66.7559 74.7414 59.4271C75.867 58.6017 76.9926 57.8012 78.1432 57.0509C78.2683 57.0258 78.4183 57.0008 78.5434 56.9758C82.9707 56.7007 87.373 56.5006 91.8003 56.4505C97.1531 56.3755 102.481 56.4505 107.834 56.7007C103.556 57.4761 99.3292 58.6267 95.2771 60.0024C86.5976 62.9539 78.4183 67.2812 71.0895 72.784C68.0629 75.0602 63.9608 78.6621 65.5366 82.9393C67.2125 87.4667 72.8404 87.1915 76.6674 86.3411C84.9217 84.5151 92.8008 81.2635 99.9796 76.8362C108.109 71.8085 115.288 65.2551 120.99 57.6011C120.99 57.5761 120.99 57.5511 121.041 57.5261C132.121 58.4015 143.177 59.8023 154.183 61.4281C139.375 63.3541 125.093 70.5829 114.562 80.9883C113.061 82.4891 111.486 84.0149 110.235 85.7158C108.984 87.4167 108.084 89.6178 109.259 91.5938C111.035 94.6204 115.463 94.0701 118.339 93.4948C126.318 91.894 133.872 88.4672 140.451 83.7147C147.804 78.387 154.058 71.2833 158.06 63.104C158.185 62.8289 158.185 62.6037 158.085 62.4036C158.61 62.3536 159.11 62.3036 159.636 62.2536C165.964 63.2541 172.267 64.3046 178.545 65.4052C187.75 67.031 196.955 68.7069 206.185 70.3328C206.185 70.3328 206.185 70.3328 206.185 70.3578C206.385 70.6329 206.71 70.6329 206.96 70.4578C207.435 70.5329 207.936 70.6329 208.411 70.708C201.257 70.9331 194.104 72.0336 187.225 73.6845C182.122 74.9101 177.095 76.511 172.217 78.437C172.142 78.462 172.067 78.487 171.992 78.537C171.717 78.487 171.417 78.562 171.317 78.8122C167.115 80.5381 162.962 82.6142 159.511 85.5657C156.709 87.9669 153.182 92.4943 156.209 96.0962C158.76 99.1478 163.688 98.4724 167.165 98.0972C176.244 97.1717 185.174 94.6204 193.403 90.7184C202.633 86.3411 210.937 80.2379 217.866 72.734C217.991 72.6089 218.041 72.4589 218.066 72.3338C226.445 73.7345 234.85 75.0352 243.279 76.1358C240.878 76.536 238.502 77.0613 236.175 77.7866C236.1 77.7866 236.025 77.8367 235.925 77.8617C235.575 77.7366 235.15 77.8617 234.9 78.2119C231.623 79.3124 228.446 80.7132 225.42 82.389C225.37 82.389 225.345 82.4391 225.32 82.4391C220.092 85.3156 215.265 88.9675 211.012 93.0946C209.236 94.7955 207.561 96.5964 205.96 98.4724C204.434 100.248 202.533 102.199 202.083 104.576C201.282 108.828 205.86 111.179 209.386 111.604C219.692 112.905 229.472 107.052 237.701 101.624C248.732 94.3453 259.738 87.0164 270.368 79.1874C270.468 79.1123 270.518 79.0123 270.543 78.9372C286.752 80.0378 302.985 79.8377 319.119 78.5871C318.668 78.7371 318.193 78.8872 317.743 79.0123C315.142 79.8377 312.54 80.6881 309.989 81.6136C305.086 83.3896 300.284 85.4656 295.756 88.067C291.679 90.3932 287.802 93.0946 284.376 96.3213C282.65 97.9471 280.999 99.698 279.548 101.574C278.097 103.425 276.722 105.626 276.521 108.052C276.146 112.83 280.649 115.631 284.951 115.731C287.402 115.781 289.853 115.281 292.23 114.731C294.306 114.231 296.357 113.655 298.358 112.955C306.362 110.178 313.791 105.701 320.069 100.048C322.946 97.4469 325.597 94.5704 327.973 91.4938C328.223 91.4187 328.423 91.1686 328.423 90.8935C331.675 86.5912 334.377 81.8888 336.403 76.8862C344.582 75.9107 352.736 74.685 360.865 73.2593C372.471 71.2332 384.002 68.7819 395.483 66.1056C395.383 66.1806 395.283 66.2556 395.208 66.4057C395.208 66.4557 395.158 66.5058 395.158 66.5308C393.382 67.2562 391.606 68.0316 389.855 68.832C385.228 70.9331 380.726 73.2593 376.298 75.7856C368.794 80.0878 360.715 84.8903 356.513 92.7694C355.563 94.5704 354.437 96.9216 355.563 98.8976C356.513 100.573 358.514 100.849 360.24 100.624C362.241 100.373 364.242 99.623 366.143 98.9977C368.219 98.3223 370.27 97.5469 372.271 96.7215C380.15 93.4698 387.579 89.0925 394.283 83.8148C401.887 77.8367 408.54 70.6579 413.893 62.6037C414.118 62.2786 414.093 61.9284 413.968 61.6282C426.099 58.6267 438.256 55.5501 450.137 51.7981C453.964 50.5975 457.841 49.5219 461.718 48.4213C462.268 48.2713 462.143 47.3708 461.593 47.5209C449.286 50.7976 436.93 54.0743 424.574 57.2009C421.822 55.6501 419.021 54.2494 416.244 52.7236C413.443 51.1728 410.716 49.4969 408.015 47.796C402.587 44.3692 397.259 40.8174 391.806 37.4656C381.076 30.8622 369.32 24.9841 356.588 23.7585C353.487 23.4584 350.36 23.4584 347.283 23.7585C347.058 23.6334 346.808 23.7085 346.633 23.8586C344.357 24.1337 342.081 24.684 340.105 25.8596C337.903 27.1853 336.303 29.3614 336.127 31.9878C335.952 34.8643 337.228 37.6407 338.879 39.9169C342.331 44.6194 347.458 47.9711 352.536 50.6725C358.114 53.6491 363.992 56.0753 370.02 58.0263C379.525 61.1029 389.38 62.8789 399.335 63.3541C390.156 65.4552 380.926 67.4312 371.671 69.2072C364.993 70.4828 358.314 71.6334 351.586 72.634C351.485 72.634 351.385 72.634 351.285 72.634C347.483 68.4318 343.181 64.6048 338.954 60.8528C334.377 56.8007 329.649 52.8737 324.747 49.1967C315.066 41.993 304.311 35.5897 292.655 32.2129C287.077 30.6121 280.574 30.1118 275.971 34.289C274.045 36.0399 272.719 38.4161 272.694 41.0675C272.644 43.994 273.92 46.7205 275.621 49.0217C279.223 53.8992 284.601 57.426 289.903 60.2275C295.656 63.2541 301.735 65.6553 307.913 67.7064C318.418 71.1832 329.349 73.3593 340.38 74.2098C320.094 76.7861 299.659 77.9867 279.198 77.0613C272.895 76.7611 266.616 76.2859 260.363 75.6855C257.912 70.9581 255.06 66.4307 252.109 62.0034C248.932 57.2259 245.43 52.6486 241.778 48.2212C240.778 47.0206 239.727 45.845 238.702 44.6694C238.652 44.3943 238.452 44.1942 238.201 44.0941C235.575 41.0925 232.899 38.166 230.097 35.3395C226.095 31.3375 221.993 27.2103 217.416 23.8836C215.19 22.2827 212.763 20.907 210.112 20.1817C207.986 19.6064 205.184 19.4813 203.759 21.5324C202.258 23.6835 203.283 26.7101 203.884 28.9862C204.559 31.6126 205.384 34.1889 206.36 36.6902C210.312 46.7455 216.715 55.8502 224.895 62.8789C229.947 67.2061 235.65 70.758 241.728 73.4094C229.797 71.7585 217.916 69.7324 206.035 67.6063C205.885 67.3562 205.76 67.1061 205.61 66.856C205.61 66.6308 205.484 66.4307 205.284 66.2806C202.983 62.3036 200.532 58.4266 198.056 54.5495C194.829 49.5219 191.452 44.5443 187.875 39.7418C184.323 35.0144 180.546 30.437 176.444 26.1848C172.592 22.1577 168.49 18.2557 163.688 15.3541C161.412 13.9534 158.96 12.8028 156.384 12.0524C155.834 11.9023 155.283 11.7523 154.708 11.6272C154.583 11.5271 154.433 11.5271 154.308 11.5522C152.507 11.177 150.581 10.9769 148.83 11.3521C146.329 11.9023 144.903 13.8784 145.328 16.4297C145.753 19.0311 147.204 21.6574 148.38 23.9836C153.357 33.6387 160.711 41.893 169.191 48.5714C178.545 55.9503 189.251 61.4531 200.207 66.0055C201.007 66.3307 201.833 66.6558 202.633 66.981C197.58 66.0805 192.528 65.1551 187.475 64.2546C176.82 62.3286 166.139 60.4776 155.433 58.8518L155.483 58.9518ZM57.5825 28.1358C57.2823 27.8607 56.9572 27.5855 56.632 27.2854C57.2823 27.2603 57.9577 27.1353 58.583 27.1353C59.5585 27.1353 60.559 27.2603 61.5346 27.4604C63.6607 27.8857 65.7367 28.7861 67.4876 30.0618C69.1135 31.2374 70.4892 32.7632 71.5398 34.4641C72.09 35.3396 72.5153 36.265 72.8904 37.2155C73.1906 37.9909 73.3907 38.7913 73.6908 39.5668C67.9879 36.29 62.5601 32.5631 57.6075 28.1358L57.5825 28.1358ZM74.6664 40.117C74.6664 40.117 74.7164 40.042 74.7414 39.992C75.0166 37.9159 73.891 35.5897 72.8655 33.8388C71.7399 31.8878 70.214 30.1869 68.3881 28.8612C66.5121 27.4855 64.386 26.56 62.1348 26.0347C60.9842 25.7596 59.8086 25.6345 58.608 25.6095C57.5825 25.6095 56.1817 25.4844 55.3313 26.1097C54.0806 24.9341 52.83 23.5834 52.0296 22.1327C52.2547 22.1077 52.5048 22.0826 52.73 22.0576C53.4553 21.9826 54.1557 21.9326 54.8811 21.9326C56.2068 21.9326 57.5325 22.0076 58.8581 22.2077C61.5846 22.6079 64.261 23.4334 66.7122 24.659C71.3647 26.9852 75.1666 30.8122 77.6429 35.3646C78.3183 36.6152 78.8686 37.8909 79.3438 39.2166C79.8191 40.5423 80.1192 41.918 80.5694 43.2437C78.5684 42.2431 76.5924 41.2176 74.6414 40.117L74.6664 40.117ZM81.1448 43.5188C81.2948 43.4438 81.3949 43.2937 81.3949 43.1186C81.3448 40.5172 80.2693 37.7658 79.1187 35.4646C77.9431 33.1134 76.4423 30.9122 74.6414 28.9862C70.8394 24.9091 65.8118 22.1577 60.3589 20.9821C58.7331 20.6319 57.0822 20.4318 55.4063 20.4068C54.6309 20.4068 53.8555 20.4068 53.0801 20.4318C52.5299 20.4568 51.9295 20.4818 51.3792 20.6069C51.0791 19.5563 51.1041 18.4558 51.5543 17.3302C53.4303 12.7778 59.6335 16.4297 62.36 17.9555C68.4631 21.4073 74.3412 25.3093 79.9441 29.5365C80.0442 29.6366 80.1442 29.7366 80.2443 29.8617C80.8946 30.6121 81.5449 31.3875 82.1453 32.1629C83.496 33.8888 84.6966 35.6897 85.7471 37.6157C86.7727 39.4417 87.6481 41.3427 88.3985 43.3187C88.9238 44.7194 89.374 46.1702 89.8493 47.5959C86.8977 46.2953 83.9712 44.9696 81.0947 43.5438L81.1448 43.5188ZM105.482 53.9492C100.73 52.0983 95.9775 50.1723 91.25 48.1462C90.8248 44.1691 88.9738 40.1671 87.0478 36.7403C86.4225 35.6397 85.7471 34.5641 85.0468 33.5136C85.2219 33.6637 85.422 33.8137 85.5971 33.9638C92.9759 40.042 99.9295 46.7705 106.208 53.9742C105.958 53.9742 105.708 53.9743 105.457 53.9492L105.482 53.9492ZM42.1745 50.8226C32.3443 48.9216 22.6393 45.9951 13.8847 41.0675C11.7336 39.8669 9.68252 38.5162 7.68148 37.0655C6.73099 36.3901 5.73047 35.6397 4.83 34.7893C6.83104 34.5641 8.80707 34.3891 10.8081 34.4891C13.1843 34.6142 15.5356 34.9643 17.8368 35.5146C22.5643 36.6402 27.0916 38.5662 31.4439 40.7424C39.0978 44.5693 46.2766 49.3468 54.1307 52.7236C50.1036 52.1983 46.1015 51.623 42.1244 50.8476L42.1745 50.8226ZM57.7326 52.5485C53.3303 50.9227 49.1531 48.7715 45.0509 46.4954C36.6466 41.8679 28.4173 36.7403 19.0124 34.314C14.2349 33.0884 8.83209 32.4631 3.97956 33.7637C3.50432 33.1634 3.10412 32.5381 2.85399 31.8127C2.80396 31.6626 2.77894 31.5126 2.75393 31.3375C4.72996 31.0873 6.68096 30.6371 8.65699 30.437C10.8081 30.2119 12.9592 30.1368 15.1104 30.1869C19.3626 30.2869 23.5898 30.8872 27.6919 31.9378C35.9962 34.0639 43.8503 38.0159 50.4538 43.4938C52.3297 45.0446 54.1057 46.7205 55.7315 48.4964C57.0822 49.9722 58.3329 51.573 59.5835 53.1238C58.9582 52.9237 58.3329 52.7236 57.7075 52.4985L57.7326 52.5485ZM60.8092 53.474C58.683 49.8721 55.6065 46.7205 52.5049 43.944C49.2281 41.0175 45.6262 38.5162 41.7742 36.4151C34.0452 32.1879 25.3907 29.7116 16.5861 29.2114C14.1599 29.0863 11.7086 29.0863 9.28231 29.2864C7.10618 29.4615 4.77998 29.6616 2.65388 30.2619C2.77894 28.6861 3.85451 27.2854 5.28025 26.4349C7.63148 25.0342 10.533 25.3343 13.1093 25.8596C18.262 26.9352 23.3397 28.586 28.2672 30.437C33.0947 32.2379 37.8222 34.314 42.4246 36.6903C47.077 39.0915 51.5794 41.7429 55.9066 44.6694C60.2339 47.5709 64.311 50.8226 68.4381 53.9993C68.5632 54.0993 68.6883 54.1994 68.8133 54.2994C66.1369 54.0743 63.4605 53.7992 60.8092 53.524L60.8092 53.474ZM14.2599 82.7142C17.3115 79.8627 20.6382 77.3364 24.1401 75.0852C23.3647 79.0873 21.5137 82.8143 18.6872 85.8158C17.1614 87.4417 15.3355 88.8424 13.3594 89.918C11.7836 90.7684 10.1578 91.3187 8.48192 91.844C8.95717 88.3171 11.7336 85.0654 14.2599 82.7142ZM8.48192 93.6699C8.4569 93.4448 8.43188 93.2197 8.43188 92.9696C10.4079 92.6444 12.4089 91.819 14.1348 90.8935C16.1859 89.7929 18.0619 88.3922 19.6877 86.7163C23.0395 83.2895 25.1906 78.7371 25.841 74.0097C31.4439 70.5829 37.447 67.8065 43.6002 65.5803C43.8503 65.4802 44.1005 65.4052 44.3506 65.3302C43.9003 65.9055 43.4501 66.5058 43.0249 67.0811C41.8743 68.5568 40.7237 70.0576 39.5731 71.5334C37.2219 74.56 34.8707 77.5615 32.5194 80.5631C28.6174 85.5407 24.7154 91.1436 18.6122 93.5449C15.3355 94.8455 11.7586 95.0706 8.48192 93.6699ZM23.7899 97.5469C19.5877 99.0227 11.9087 101.424 9.25732 96.2212C9.13225 95.9461 9.00719 95.696 8.90714 95.4208C14.5601 97.572 20.9634 94.9706 25.3157 91.1686C27.892 88.9425 30.0181 86.2911 32.0942 83.5897C34.4705 80.4881 36.7966 77.3114 39.1479 74.1848L43.2 68.807C44.2005 67.4813 45.3261 66.1556 46.2266 64.7299C51.0541 63.104 55.9566 61.7783 60.9342 60.6277C60.2089 61.203 59.4835 61.7783 58.8331 62.3786C56.3819 64.5047 54.1807 66.956 52.1296 69.5073C47.8774 74.8101 44.4756 80.7382 40.2484 86.066C38.4475 88.3171 36.5215 90.4683 34.4204 92.4443C31.0937 94.5204 27.5669 96.2963 23.8399 97.597L23.7899 97.5469ZM51.2792 78.6871C47.4772 82.364 43.4751 85.9659 39.1979 89.1426C41.7742 86.3911 44.0504 83.3145 46.2266 80.2629C50.0536 74.9602 53.7305 69.3823 58.533 64.8799C59.8837 63.6293 61.3094 62.4287 62.8102 61.4031C63.7857 60.7278 64.8112 60.1525 65.8118 59.5271C68.4381 58.9769 71.0645 58.4266 73.6908 57.9263C65.5366 64.0545 58.583 71.6334 51.2542 78.6871L51.2792 78.6871ZM71.6148 74.8351C76.0171 71.4333 80.7696 68.5068 85.7471 66.0305C85.572 69.8575 82.3954 72.8591 79.1187 74.535C77.2177 75.4855 75.2167 76.1608 73.2156 76.8612C71.5147 77.4365 69.6888 77.9617 68.0129 78.6621C68.8884 77.1363 70.2891 75.9107 71.6398 74.8601L71.6148 74.8351ZM67.4126 79.8127C69.6888 79.3375 71.9149 78.462 74.0911 77.7366C76.3672 76.9862 78.6935 76.2108 80.7695 74.9852C84.2213 72.9841 87.1979 69.5073 87.0478 65.3802C89.324 64.2796 91.6502 63.2791 94.0264 62.4036C94.5517 62.2035 95.077 62.0284 95.6023 61.8534C95.3521 66.2056 93.126 70.2827 90.0744 73.3593C86.2974 77.1613 81.3949 79.2624 76.2422 80.438C73.2906 81.1134 70.2891 81.4636 67.3126 81.9138C67.1625 81.2384 67.1625 80.5381 67.3876 79.8127L67.4126 79.8127ZM81.1448 83.3645C79.2438 83.9148 77.3178 84.4151 75.3668 84.7903C73.2406 85.1905 70.8644 85.4156 68.9634 84.165C68.3381 83.7397 67.8879 83.2145 67.5877 82.6392C78.0181 82.214 90.1995 78.462 95.2771 68.5819C96.4277 66.3307 97.028 63.8544 97.103 61.3281C100.605 60.1525 104.182 59.202 107.784 58.4766C110.735 57.9013 113.712 57.5011 116.688 57.1759C117.414 57.2259 118.164 57.276 118.889 57.326C109.459 69.7325 96.0775 78.9623 81.1197 83.3645L81.1448 83.3645ZM107.158 26.1347C111.06 26.7351 114.962 27.9607 118.014 30.5621C119.59 31.9128 120.84 33.6387 121.666 35.5397C122.066 36.4901 122.341 37.4657 122.466 38.4912C122.516 38.9414 122.516 39.4167 122.516 39.8919C117.063 35.6897 111.911 31.1123 107.158 26.1097L107.158 26.1347ZM126.468 42.8434C125.568 42.1931 124.667 41.5178 123.767 40.8424C124.317 39.1165 123.767 36.8403 123.217 35.2895C122.466 33.1634 121.116 31.2624 119.465 29.7116C115.813 26.2598 110.71 24.8591 105.808 24.3338C105.708 24.3338 105.607 24.3338 105.532 24.3588C104.457 23.1832 103.381 21.9576 102.356 20.757C107.333 20.4318 112.386 21.5824 116.688 24.1337C121.341 26.9102 124.893 31.1874 126.869 36.215C127.919 38.8914 128.294 41.6178 128.745 44.4443C127.969 43.919 127.219 43.3937 126.443 42.8434L126.468 42.8434ZM129.695 45.0946C129.695 45.0946 129.745 45.0446 129.745 44.9946C130.12 42.2682 129.445 39.3416 128.569 36.7653C127.669 34.0889 126.268 31.5376 124.567 29.2864C121.066 24.734 116.063 21.5073 110.51 20.0816C107.483 19.3062 104.332 19.0811 101.205 19.4313C99.7794 17.7304 98.1786 15.7543 97.103 13.6282C97.5783 13.5782 98.0535 13.5282 98.5288 13.4782C99.5043 13.4031 100.505 13.3781 101.505 13.3781C103.406 13.4031 105.332 13.6282 107.208 13.9784C110.935 14.7038 114.562 16.0795 117.814 18.0305C124.417 22.0076 129.27 28.3359 131.621 35.6397C132.271 37.6658 132.722 39.7919 132.972 41.918C133.172 43.7189 133.097 45.5198 133.147 47.3458C131.996 46.5954 130.821 45.87 129.695 45.0946ZM134.247 48.0712C134.598 46.3203 134.473 44.3692 134.322 42.5933C134.147 40.5923 133.797 38.6163 133.272 36.6652C132.221 32.8633 130.57 29.2614 128.294 26.0097C123.692 19.4313 116.688 14.8539 108.909 12.9529C106.733 12.4276 104.482 12.1024 102.256 12.0274C100.48 11.9524 98.3537 11.8523 96.5528 12.3026C96.1776 11.3521 95.9775 10.3766 95.9275 9.40104C100.405 9.30099 104.782 9.62616 109.109 10.8268C113.512 12.0274 117.714 13.9284 121.516 16.4547C129.02 21.4573 134.648 28.8862 137.624 37.3906C139.25 42.018 139.75 46.7455 140.125 51.573C138.149 50.4224 136.198 49.2468 134.247 48.0462L134.247 48.0712ZM153.457 58.6267C149.23 56.6256 145.078 54.4245 141.001 52.0983C141.526 47.5959 140.651 42.8685 139.35 38.5662C137.999 34.1389 135.948 29.9117 133.272 26.1347C127.894 18.4808 119.94 12.8278 111.01 10.0764C106.233 8.60063 101.005 7.8002 95.9775 8.22543C96.0775 7.47503 96.3026 6.72465 96.7029 5.97426C99.2542 1.14675 106.383 3.02272 110.285 4.69859C115.388 6.89974 119.715 10.5767 123.617 14.4537C127.669 18.4808 131.471 22.783 134.998 27.2603C138.525 31.7627 141.801 36.4651 144.803 41.3427C147.804 46.2452 150.406 51.3729 152.982 56.5256C153.332 57.251 153.708 57.9763 154.058 58.7017C153.858 58.6767 153.683 58.6517 153.482 58.6267L153.457 58.6267ZM115.563 82.5391C117.589 80.5131 119.765 78.6371 122.041 76.8862C121.491 78.7622 120.465 80.4881 119.014 81.8137C117.439 83.2395 115.588 84.0399 113.612 84.4901C114.387 83.6647 115.112 82.9894 115.563 82.5391ZM111.536 87.0415C111.836 86.5662 112.186 86.116 112.561 85.6657C115.212 85.7158 117.914 84.4901 119.865 82.7392C121.916 80.8883 123.267 78.3619 123.717 75.6355C126.018 73.9597 128.444 72.4339 130.921 71.0581C131.171 75.7106 129.32 80.463 125.818 83.5646C121.916 87.0164 116.563 88.117 111.536 87.0415ZM114.162 89.5178C113.387 89.4427 112.611 89.3176 111.836 89.1926C111.435 89.1175 111.035 89.0425 110.635 88.9925C110.735 88.5923 110.91 88.1671 111.135 87.7418C116.413 89.4427 122.541 88.092 126.743 84.4651C130.796 80.9383 132.897 75.5355 132.421 70.2077C133.372 69.7074 134.322 69.2322 135.273 68.782C135.898 68.4818 136.499 68.2317 137.124 67.9565C137.399 68.9821 137.699 69.9826 137.799 71.0581C137.924 72.3588 137.849 73.6595 137.599 74.9602C137.124 77.5865 135.973 80.1129 134.347 82.2139C130.746 86.8664 125.068 89.1926 119.315 89.6178C117.614 89.7429 115.888 89.6928 114.162 89.5178ZM141.926 80.363C136.223 85.0404 129.645 88.6173 122.466 90.7184C120.615 91.2687 118.739 91.7189 116.863 92.0191C115.338 92.2692 113.637 92.3692 112.186 91.7689C111.185 91.3437 110.71 90.7434 110.585 90.043C111.586 90.4182 112.811 90.4933 113.737 90.5933C115.263 90.7684 116.788 90.8434 118.314 90.7934C121.466 90.6934 124.642 90.0931 127.544 88.8424C132.947 86.5162 137.224 81.8638 138.75 76.1608C139.475 73.4594 139.75 69.9826 138.6 67.3062C139.75 66.8309 140.901 66.4307 142.076 66.0305C142.702 67.1061 143.352 68.1316 143.752 69.3573C144.178 70.733 144.378 72.2087 144.278 73.6345C144.178 75.0102 143.852 76.3609 143.327 77.6366C143.052 78.2869 142.727 78.8872 142.377 79.4875C142.227 79.7627 142.101 80.0378 141.951 80.338L141.926 80.363ZM144.378 78.2369C145.028 76.8612 145.428 75.3354 145.553 73.8096C145.678 72.2588 145.503 70.6829 145.078 69.1822C144.728 67.9815 144.203 66.6308 143.427 65.5803C147.629 64.2046 151.932 63.2291 156.334 62.6037C153.282 68.5068 149.23 73.7846 144.403 78.2369L144.378 78.2369ZM354.837 25.7596C362.416 26.2348 369.695 28.461 376.624 31.5626C376.398 31.6126 376.148 31.6626 375.923 31.6876C374.898 31.8377 373.847 31.9127 372.797 31.9628C370.52 32.0378 368.244 31.7877 366.018 31.3124C361.716 30.387 357.689 28.4359 354.237 25.7345C354.437 25.7345 354.637 25.7345 354.837 25.7345L354.837 25.7596ZM353.261 25.6845C353.186 25.8596 353.186 26.0847 353.386 26.2348C356.888 29.3614 361.166 31.4875 365.743 32.5131C368.019 33.0383 370.37 33.2635 372.722 33.2134C373.872 33.2134 374.998 33.1134 376.123 32.9383C376.924 32.8382 377.849 32.7382 378.675 32.4881C380.726 33.4636 382.702 34.5141 384.678 35.5897C384.653 35.5897 384.628 35.5897 384.603 35.5897C374.072 38.9414 362.241 37.0154 353.562 30.1118C351.911 28.8111 350.41 27.3354 349.059 25.7596C350.46 25.6595 351.886 25.6345 353.286 25.6845L353.261 25.6845ZM359.014 51.3979C355.588 49.8221 352.161 48.1212 348.984 46.0451C352.936 44.9695 357.263 44.5693 361.09 46.1952C363.142 47.0706 364.917 48.5714 366.343 50.2723C367.719 51.9232 368.669 53.8242 369.795 55.6251C366.118 54.3995 362.516 52.9987 358.989 51.3979L359.014 51.3979ZM376.273 57.6011C374.447 57.1009 372.647 56.5506 370.846 55.9753C370.37 53.574 368.769 51.2728 367.219 49.4219C365.668 47.5709 363.792 45.9951 361.591 45.0446C357.138 43.1186 352.136 43.7689 347.608 45.1446C346.483 44.3442 345.382 43.4938 344.357 42.5933C343.256 41.6178 341.93 40.2671 340.78 38.7413C353.587 37.2155 366.543 42.018 375.123 51.7481C376.974 53.8492 378.6 56.1504 380.05 58.5766C378.775 58.2765 377.524 57.9763 376.273 57.6512L376.273 57.6011ZM381.301 58.8017C375.723 47.1707 363.917 39.2416 351.26 37.3406C347.483 36.7653 343.631 36.7903 339.829 37.3156C339.104 36.14 338.579 34.8893 338.379 33.6386C340.305 33.7887 342.256 33.7887 344.182 33.9638C346.233 34.1389 348.259 34.4141 350.26 34.7893C354.362 35.5647 358.389 36.7403 362.291 38.2661C369.97 41.2676 377.049 45.6949 383.127 51.2728C386.204 54.0743 389.005 57.2259 391.506 60.5527C388.079 60.1274 384.678 59.5521 381.301 58.8268L381.301 58.8017ZM394.208 60.8278C393.682 60.7778 393.132 60.7027 392.607 60.6527C383.352 46.8705 368.244 37.2655 352.086 33.8137C349.76 33.3135 347.408 32.9383 345.057 32.7132C342.831 32.4881 340.53 32.2879 338.304 32.4881C338.304 31.1874 338.729 29.9367 339.804 28.8111C341.405 27.1353 343.857 26.4349 346.058 26.0597C346.583 25.9847 347.083 25.9096 347.608 25.8596C354.462 33.7387 364.617 38.3661 375.123 38.0409C378.45 37.9409 381.726 37.3406 384.878 36.29C385.103 36.215 385.153 35.9899 385.078 35.8148C386.329 36.5152 387.604 37.2155 388.83 37.9409C399.26 44.1191 409.115 51.523 420.196 56.5756C421.072 56.9758 421.947 57.326 422.848 57.6512C417.92 58.9018 412.967 60.1024 408.015 61.303C403.413 61.303 398.81 61.278 394.183 60.8278L394.208 60.8278ZM375.548 78.3119C378.6 76.486 381.726 74.7851 384.853 73.1592C384.853 73.1592 384.853 73.1592 384.853 73.1842C384.603 73.6845 384.328 74.1848 384.027 74.66C383.427 75.6355 382.727 76.561 382.001 77.4615C380.451 79.2874 378.625 80.8632 376.624 82.1639C374.673 83.4396 372.496 84.4401 370.27 85.1154C369.12 85.4656 367.969 85.7158 366.768 85.8909C365.968 86.0159 365.143 86.0159 364.317 86.116C367.744 83.0644 371.771 80.6131 375.548 78.3369L375.548 78.3119ZM363.317 87.0164C365.593 87.5167 368.419 86.8413 370.595 86.216C372.947 85.5407 375.198 84.5151 377.274 83.2145C379.35 81.9138 381.226 80.2879 382.852 78.462C383.677 77.5365 384.428 76.536 385.103 75.4854C385.628 74.66 386.729 73.2843 386.629 72.2588C387.729 71.6835 388.83 71.1082 389.956 70.5579C391.406 69.8325 392.882 69.1571 394.358 68.4818C394.108 69.0571 393.858 69.6574 393.557 70.2077C392.907 71.4834 392.157 72.709 391.356 73.8846C389.73 76.2608 387.854 78.462 385.703 80.413C381.226 84.4901 375.723 87.3916 369.845 88.8174C366.818 89.5428 363.792 89.7679 360.715 89.8929C361.516 88.8924 362.366 87.9419 363.292 87.0415L363.317 87.0164ZM376.323 92.8695C372.647 94.6454 368.87 96.1712 364.968 97.4469C363.217 98.0222 361.316 98.7726 359.44 98.8476C358.714 98.8476 357.864 98.7726 357.389 98.1472C356.688 97.2718 357.213 95.9211 357.589 95.0206C357.864 94.3703 358.189 93.77 358.514 93.1696C360.115 93.6199 361.841 93.77 363.492 93.87C365.443 93.9701 367.394 93.92 369.345 93.6949C373.247 93.2697 377.099 92.2191 380.701 90.5933C379.25 91.3937 377.799 92.1691 376.323 92.8945L376.323 92.8695ZM404.288 64.0295C404.913 63.8794 405.564 63.7293 406.189 63.5792C406.389 63.5292 406.564 63.4792 406.764 63.4292C407.114 63.4292 407.49 63.4292 407.84 63.4292C408.94 63.4041 410.016 63.3041 411.092 63.204C405.038 71.8585 397.459 79.4375 388.83 85.5157C392.107 82.8142 394.933 79.5876 397.134 75.9107C399.085 72.634 400.486 69.0821 401.361 65.3552C402.337 64.9299 403.312 64.4797 404.288 64.0545L404.288 64.0295ZM390.356 82.6141C385.053 87.9669 378.149 91.3937 370.72 92.5693C368.569 92.8945 366.393 93.0446 364.217 92.9946C362.416 92.9695 360.665 92.6944 358.889 92.5193C359.24 91.944 359.59 91.3687 359.99 90.8184C363.017 91.1186 366.168 90.7684 369.12 90.1431C372.221 89.4927 375.248 88.4672 378.099 87.0665C383.502 84.4151 388.23 80.463 391.806 75.6605C392.757 74.3849 393.632 73.0342 394.433 71.6334C395.158 70.3328 395.959 68.957 396.434 67.5063C397.534 67.006 398.61 66.5308 399.711 66.0555C398.11 72.2838 394.858 78.0618 390.331 82.6141L390.356 82.6141ZM306.712 39.7919C311.865 42.4182 316.742 45.5198 321.445 48.8716C321.545 48.9466 321.645 49.0217 321.745 49.0967C317.768 48.5714 313.966 47.4208 310.439 45.4198C306.887 43.3937 303.861 40.6173 301.509 37.2906C303.285 38.091 305.011 38.9414 306.712 39.8169L306.712 39.7919ZM299.633 36.4651C304.561 44.1191 313.666 49.7971 322.896 49.9471C325.547 51.8982 328.123 53.9242 330.675 56.0003C324.121 56.2754 317.668 55.2499 311.615 52.5735C305.887 50.0222 300.859 46.0701 296.982 41.1426C295.206 38.8914 293.73 36.4651 292.455 33.9138C294.881 34.5891 297.282 35.4646 299.633 36.4651ZM281.449 52.3984C280.574 51.648 279.648 50.7726 278.748 49.8221C278.798 49.8221 278.848 49.8471 278.873 49.8721C279.548 50.1473 280.223 50.4474 280.874 50.7976C282.249 51.498 283.55 52.2734 284.801 53.1738C286.001 54.0243 287.127 54.9748 288.178 55.9753C288.753 56.5256 289.328 57.1009 289.853 57.7012C290.054 57.9013 290.229 58.1264 290.429 58.3515C287.252 56.6756 284.175 54.7496 281.424 52.3984L281.449 52.3984ZM296.832 61.3781C295.181 60.6527 293.555 59.9023 291.929 59.1019C291.954 59.0269 291.979 58.9268 291.929 58.8268C291.704 58.1264 291.179 57.5511 290.729 57.0008C290.204 56.3755 289.653 55.7752 289.103 55.1999C288.002 54.0993 286.827 53.0738 285.576 52.1483C284.351 51.2478 283.05 50.4224 281.699 49.697C280.974 49.3218 280.248 48.9716 279.523 48.6215C278.848 48.3213 278.047 47.796 277.297 47.796C277.247 47.796 277.172 47.796 277.122 47.796C275.996 46.2702 275.096 44.6194 274.746 42.9185C277.747 42.7184 280.499 43.0185 283.3 44.1441C286.051 45.2447 288.553 46.8956 290.679 48.9216C294.631 52.6736 297.257 57.5011 299.483 62.4286C298.608 62.0534 297.707 61.7033 296.832 61.3281L296.832 61.3781ZM300.559 62.9289C298.633 57.2509 295.656 51.8481 291.254 47.746C286.952 43.7439 280.599 40.7173 274.595 41.4427C274.595 40.2671 274.821 39.0665 275.446 37.8909C275.696 37.4406 275.971 37.0404 276.271 36.6402C277.472 37.0904 278.698 37.3906 279.898 37.8408C281.274 38.3661 282.625 38.9414 283.925 39.5918C286.552 40.8924 289.053 42.4182 291.379 44.1941C296.007 47.721 299.859 52.0733 302.91 57.0258C304.511 59.6272 305.862 62.4036 306.912 65.2551C304.786 64.5297 302.66 63.7293 300.559 62.9039L300.559 62.9289ZM314.691 67.7064C312.365 67.0561 310.039 66.3557 307.763 65.5803C304.311 54.1994 295.957 44.5193 285.526 38.9414C284.075 38.166 282.575 37.4656 281.049 36.8653C279.848 36.3901 278.598 35.8648 277.322 35.5396C280.624 32.5631 285.876 32.413 290.079 33.3385C290.354 33.3885 290.629 33.4886 290.904 33.5386C296.032 45.1947 307.463 53.8492 319.869 56.1504C323.646 56.8507 327.548 57.0759 331.375 56.5756C337.153 61.3531 342.731 66.4057 348.334 71.3833C348.809 71.8085 349.284 72.2087 349.76 72.6089C337.928 72.5089 326.097 70.883 314.691 67.7314L314.691 67.7064ZM206.135 101.099C207.561 99.3229 209.086 97.597 210.687 95.9711C212.113 94.5204 213.614 93.1196 215.165 91.7939C215.089 94.5204 214.064 97.1967 212.163 99.1978C211.012 100.398 209.587 101.324 208.011 101.899C207.235 102.199 206.41 102.399 205.585 102.525C205.384 102.55 205.159 102.575 204.959 102.6C205.334 102.049 205.735 101.549 206.11 101.074L206.135 101.099ZM204.359 103.675C205.71 103.8 207.235 103.4 208.386 103C210.112 102.399 211.713 101.399 213.013 100.098C215.44 97.647 216.665 94.1702 216.49 90.7184C219.167 88.5422 222.018 86.5662 225.02 84.8403C224.769 90.1681 222.543 95.4708 218.791 99.2478C216.74 101.299 214.289 102.9 211.613 104C209.111 105.026 206.56 105.401 203.909 105.676C203.859 105.001 204.034 104.3 204.359 103.675ZM204.209 106.877C204.134 106.752 204.109 106.602 204.059 106.477C208.411 106.752 213.063 105.001 216.59 102.65C220.692 99.9232 223.844 95.796 225.42 91.1436C226.195 88.8174 226.57 86.4161 226.595 83.9899C228.897 82.7642 231.298 81.6887 233.749 80.8132C234.124 80.6882 234.475 80.5631 234.85 80.438C234.65 86.091 232.724 91.6439 229.397 96.2212C225.695 101.324 220.242 104.976 214.164 106.627C211.037 107.452 207.886 107.602 204.684 107.627C204.509 107.402 204.334 107.177 204.184 106.927L204.209 106.877ZM215.215 109.778C213.038 110.053 210.712 110.128 208.561 109.628C207.611 109.403 206.585 109.028 205.735 108.453C208.286 108.703 210.887 108.453 213.364 107.902C216.54 107.227 219.592 106.026 222.393 104.375C228.096 100.999 232.499 95.6209 234.75 89.3927C235.85 86.3411 236.401 83.1394 236.476 79.9127C241.653 78.3619 247.056 77.6616 252.434 77.8117C250.058 78.512 247.982 79.9878 246.506 81.9888C244.93 84.1399 243.829 86.7163 242.879 89.1926C241.853 91.919 241.103 94.7205 240.653 97.597C232.899 102.85 224.694 108.628 215.215 109.778ZM265.141 81.4636C259.888 84.7653 254.71 88.167 249.532 91.6188C249.607 91.2186 249.682 90.8434 249.808 90.4432C250.108 89.5177 250.508 88.6173 251.033 87.8169C252.084 86.216 253.509 84.8653 255.135 83.8898C256.986 82.7642 259.087 82.1139 261.213 81.7637C262.239 81.5886 263.29 81.5136 264.315 81.4636C264.565 81.4636 264.84 81.4636 265.116 81.4636L265.141 81.4636ZM265.516 80.0128C265.015 80.0128 264.54 80.0878 264.14 80.0878C262.939 80.1379 261.739 80.2629 260.563 80.488C258.312 80.9133 256.111 81.6637 254.16 82.9143C252.434 84.0149 250.933 85.5157 249.883 87.2916C249.032 88.7173 248.207 90.6683 248.382 92.3942C246.231 93.82 244.105 95.2707 241.978 96.6965C242.554 94.4953 243.229 92.3192 244.055 90.1931C244.955 87.9169 245.931 85.5657 247.381 83.5646C248.732 81.7137 250.433 80.2879 252.609 79.5626C253.585 79.2374 254.66 79.0623 255.686 79.0623C256.736 79.0623 257.837 79.4125 258.862 79.2624C259.262 79.2124 259.438 78.8372 259.363 78.512C261.439 78.8872 263.515 79.3625 265.516 80.0128ZM317.743 80.413C319.844 79.6876 322.045 79.0373 324.096 78.1618C324.446 78.1368 324.772 78.0868 325.122 78.0618C325.122 78.2619 325.072 78.462 325.047 78.6621C324.922 79.2124 324.722 79.7627 324.421 80.2629C323.846 81.2885 322.921 82.1639 321.845 82.6392C320.769 83.0894 319.544 83.1644 318.418 82.8893C317.818 82.7392 317.243 82.5391 316.717 82.2139C316.217 81.9138 315.792 81.5386 315.267 81.2885C316.092 80.9883 316.917 80.6881 317.768 80.413L317.743 80.413ZM314.816 81.4385C314.816 81.4385 314.766 81.6136 314.816 81.6887C315.267 82.9643 316.917 83.7147 318.118 84.0149C319.519 84.3651 321.045 84.29 322.395 83.7147C323.721 83.1394 324.822 82.1139 325.522 80.8882C325.972 80.1128 326.473 78.9372 326.447 77.9117C327.698 77.7866 328.949 77.6616 330.199 77.5365C329.674 81.0884 327.373 84.265 323.821 85.4156C319.794 86.7163 315.917 84.8903 313.09 82.0639C313.666 81.8638 314.241 81.6136 314.816 81.4135L314.816 81.4385ZM284.426 98.7976C287.627 95.5709 291.279 92.7944 295.156 90.4182C297.057 89.2426 299.008 88.1921 301.009 87.2165C299.508 90.6183 297.332 93.6449 294.331 95.8961C291.154 98.2473 287.277 99.573 283.325 99.9732C283.7 99.573 284.05 99.1978 284.426 98.8226L284.426 98.7976ZM279.948 104.175C279.948 104.175 280.073 104 280.123 103.9C280.874 102.775 281.724 101.724 282.625 100.724C291.479 101.024 300.234 94.9956 302.86 86.4411C302.86 86.3911 302.86 86.3411 302.86 86.2911C304.261 85.6407 305.687 85.0154 307.087 84.4151C307.488 86.9664 307.087 89.3427 305.937 91.7439C304.761 94.1201 303.035 96.2212 301.084 97.9471C297.257 101.349 292.505 103.575 287.427 104.25C286.001 104.451 284.576 104.526 283.15 104.476C282.074 104.451 280.999 104.25 279.923 104.15L279.948 104.175ZM290.754 113.28C288.878 113.68 286.927 114.031 285.001 113.955C285.001 113.855 284.976 113.755 284.926 113.655C284.876 113.505 284.851 113.38 284.826 113.23C284.826 112.905 284.901 112.58 285.051 112.305C285.426 111.579 286.176 111.229 286.977 111.179C287.852 111.104 288.778 111.379 289.528 111.804C290.154 112.155 290.579 112.63 290.879 113.255C290.829 113.255 290.779 113.28 290.729 113.28L290.754 113.28ZM322.545 92.9946C323.046 93.0946 323.521 93.2697 323.996 93.4198C321.145 96.6965 317.968 99.673 314.491 102.274C313.04 99.7231 313.441 96.5714 315.742 94.6204C316.917 93.6449 318.343 93.0446 319.869 92.8695C320.769 92.7694 321.67 92.8195 322.545 92.9695L322.545 92.9946ZM326.072 90.8935C325.672 91.4187 325.297 91.944 324.872 92.4443C324.146 92.0941 323.221 91.944 322.495 91.8189C321.52 91.6689 320.494 91.6438 319.519 91.7689C317.743 92.019 316.067 92.7944 314.766 94.0451C312.49 96.2462 311.69 100.223 313.866 102.75C312.79 103.55 311.69 104.3 310.564 105.026C308.788 100.774 310.064 95.821 313.641 92.8945C317.168 90.018 321.87 89.5428 326.072 90.8935ZM334.252 77.1613C332.326 81.6887 329.824 85.9159 326.873 89.8429C322.02 88.2171 316.542 88.7173 312.59 92.1941C308.838 95.4959 307.438 101.024 309.839 105.451C307.312 107.027 304.686 108.453 301.96 109.653C298.708 111.079 295.306 112.205 291.829 113.03C291.704 112.38 291.279 111.779 290.779 111.354C290.079 110.754 289.203 110.354 288.328 110.153C286.552 109.728 284.451 110.329 283.8 112.205C283.65 112.655 283.55 113.355 283.7 113.88C283.675 113.88 283.625 113.88 283.6 113.88C281.599 113.555 279.498 112.38 278.673 110.404C277.922 108.603 278.522 106.677 279.448 105.026C281.699 105.776 284.401 105.701 286.677 105.501C289.403 105.276 292.105 104.601 294.656 103.6C299.834 101.549 304.486 97.8721 307.187 92.9195C308.663 90.2181 309.564 86.8414 308.688 83.8148C309.038 83.6647 309.389 83.5146 309.739 83.3896C310.614 83.0394 311.515 82.7392 312.39 82.389C314.441 86.3661 319.919 87.8919 324.021 86.6412C327.998 85.4406 331.025 81.5886 331.475 77.4615C332.401 77.3614 333.326 77.2864 334.276 77.1863L334.252 77.1613ZM251.483 64.0795C248.782 63.4292 246.231 61.8784 244.58 59.6772C242.954 57.5011 242.279 54.6996 242.529 52.0232C245.655 55.9253 248.632 59.9524 251.483 64.1045L251.483 64.0795ZM238.752 47.3958C239.602 48.3963 240.403 49.4219 241.228 50.4474C240.503 53.8992 241.178 57.5261 243.279 60.3776C245.38 63.2291 248.657 64.98 252.159 65.105C253.209 66.6558 254.26 68.2067 255.26 69.7825C254.635 69.7825 253.985 69.9075 253.434 69.9325C252.209 69.9325 251.008 69.8325 249.808 69.6074C247.381 69.1321 245.03 68.1316 243.029 66.7059C238.827 63.7043 236.351 58.7767 236.326 53.6241C236.326 51.1478 236.901 48.7465 237.951 46.5454C238.202 46.8455 238.477 47.1207 238.727 47.4208L238.752 47.3958ZM212.063 44.3192C212.263 44.3943 212.488 44.4693 212.688 44.5693C213.564 44.9946 214.414 45.4698 215.215 46.0451C216.765 47.1207 218.141 48.4214 219.317 49.8971C221.443 52.5735 222.718 55.6251 223.369 58.9268C218.941 54.6246 215.114 49.697 212.088 44.3192L212.063 44.3192ZM224.369 59.9023C224.294 56.0003 222.643 52.1733 220.242 49.1467C218.992 47.5709 217.491 46.1452 215.84 45.0196C214.464 44.0691 212.838 43.1436 211.187 42.6433C210.887 42.043 210.537 41.4677 210.262 40.8674C209.437 39.1665 208.686 37.3906 208.011 35.6147C213.489 37.1905 218.466 40.4672 222.018 44.9445C224.044 47.4959 225.57 50.4224 226.595 53.524C227.621 56.6506 227.821 59.8523 228.146 63.079C226.871 62.0534 225.62 61.0029 224.419 59.8773L224.369 59.9023ZM229.822 64.4547C229.422 64.1545 229.047 63.8544 228.647 63.5292C228.722 63.4792 228.797 63.4042 228.822 63.3041C229.322 60.6527 228.947 57.8763 228.321 55.2499C227.696 52.5985 226.721 50.0472 225.395 47.696C222.844 43.2186 219.117 39.5417 214.664 36.9904C212.388 35.6897 209.937 34.7392 207.385 34.0889C206.485 31.5376 205.71 28.9362 205.159 26.2848C204.934 25.2093 204.634 23.8586 205.159 22.833C217.666 30.3369 230.247 40.2671 233.174 55.4C233.924 59.227 233.724 62.9789 233.224 66.8059C232.048 66.0555 230.898 65.2801 229.772 64.4547L229.822 64.4547ZM233.974 67.2562C235.175 63.9294 235.225 60.2775 234.775 56.8007C234.299 53.0738 233.099 49.4469 231.448 46.0951C228.046 39.1415 222.568 33.4636 216.49 28.7611C213.239 26.2598 209.787 24.0086 206.26 21.8825C206.91 21.6324 207.661 21.6324 208.336 21.7074C210.887 22.0076 213.339 23.3333 215.44 24.759C219.842 27.7356 223.719 31.6126 227.496 35.3145C230.773 38.5162 233.874 41.8929 236.901 45.3197C234.675 49.9972 234.625 55.7752 236.651 60.5026C238.752 65.4052 243.179 69.0071 248.307 70.3828C249.758 70.758 251.233 70.9831 252.709 70.9831C253.534 70.9831 254.91 71.0831 255.811 70.6579C256.511 71.7335 257.186 72.809 257.862 73.9096C258.187 74.4349 258.512 74.9852 258.837 75.5105C255.936 75.2103 253.009 74.8851 250.108 74.5349C244.43 72.8591 238.977 70.4078 233.949 67.2812L233.974 67.2562ZM159.811 87.3166C163.112 84.315 167.115 82.2139 171.192 80.488C171.042 81.3385 170.766 82.1389 170.216 82.9393C169.391 84.1399 168.29 85.1155 167.014 85.8158C165.614 86.5912 164.038 87.0164 162.462 87.3166C161.462 87.4917 160.436 87.5667 159.41 87.6918C159.536 87.5667 159.686 87.4417 159.811 87.3166ZM158.41 88.7674C159.936 88.8174 161.537 88.5923 162.987 88.3171C164.713 87.992 166.439 87.4667 167.94 86.5412C170.166 85.1905 172.342 82.6642 172.542 79.9128C176.244 78.412 180.046 77.1363 183.898 76.0357C183.098 78.462 182.247 80.7382 180.722 82.8643C179.071 85.1405 176.995 87.0915 174.543 88.4672C171.867 89.993 168.865 90.8434 165.814 91.0435C164.238 91.1436 162.662 91.0686 161.111 90.8184C159.936 90.6183 158.76 90.1681 157.56 89.943C157.81 89.5178 158.11 89.1175 158.41 88.7423L158.41 88.7674ZM156.634 93.2697C156.634 93.1446 156.609 93.0196 156.609 92.8695C156.609 92.1191 156.834 91.4187 157.134 90.7184C157.935 91.1686 158.91 91.4187 159.786 91.6188C161.061 91.919 162.387 92.0941 163.688 92.1691C166.214 92.2692 168.74 91.944 171.167 91.1686C175.644 89.7429 179.571 86.7163 182.197 82.8143C183.598 80.7382 184.899 78.2119 185.274 75.7106C185.274 75.7106 185.274 75.6855 185.274 75.6605C185.424 75.6105 185.574 75.5855 185.724 75.5355C189.051 74.66 192.403 73.9596 195.804 73.4094C191.127 85.2655 180.071 94.0701 167.24 95.2457C165.339 95.4208 163.438 95.4458 161.562 95.1457C160.536 94.9706 159.561 94.7205 158.61 94.2952C157.935 93.9951 157.284 93.6199 156.634 93.2697ZM216.315 72.0086C204.759 84.4901 189.026 93.0696 172.267 95.9711C170.141 96.3463 168.015 96.6214 165.889 96.7965C163.988 96.9716 162.012 97.1467 160.136 96.6965C158.86 96.3963 157.71 95.696 157.084 94.6454C158.01 95.2958 159.16 95.671 160.211 95.9461C161.862 96.3713 163.588 96.4964 165.289 96.4714C168.69 96.4213 172.092 95.771 175.319 94.6704C181.697 92.5193 187.4 88.5422 191.727 83.3896C194.204 80.463 196.23 77.0863 197.505 73.4594C197.555 73.3343 197.555 73.2093 197.555 73.0842C199.056 72.8591 200.582 72.659 202.108 72.4839C206.335 72.0086 210.587 71.8085 214.839 71.7085C215.34 71.7835 215.84 71.8836 216.34 71.9586L216.315 72.0086ZM152.807 28.3109C152.032 27.0853 151.306 25.8346 150.606 24.5589C155.383 26.7101 159.611 29.9617 162.937 34.0139C164.663 36.14 166.164 38.4412 167.34 40.9175C167.915 42.1181 168.44 43.3687 168.89 44.6444C169.116 45.2947 169.291 45.9701 169.491 46.6204C163.037 41.4177 157.284 35.3145 152.807 28.3109ZM174.768 50.6225C173.418 49.697 172.117 48.6965 170.816 47.696C170.641 45.845 169.916 43.944 169.266 42.2932C168.44 40.2421 167.39 38.2911 166.189 36.4401C163.738 32.6632 160.561 29.3614 156.909 26.7601C154.858 25.3093 152.632 24.0837 150.306 23.1082C150.156 23.0331 150.006 23.0581 149.881 23.1082C149.58 22.5329 149.28 21.9576 149.005 21.3823C148.455 20.2317 147.955 19.0561 147.504 17.8554C147.154 16.8799 146.779 15.6543 147.129 14.6288C159.711 20.3818 169.841 31.0873 175.419 43.7189C176.219 45.5198 176.92 47.3958 177.52 49.2718C177.92 50.5475 178.22 51.8731 178.595 53.1488C177.32 52.3234 176.044 51.498 174.768 50.6225ZM179.621 53.7992C179.446 52.3984 179.021 50.9977 178.62 49.672C178.12 47.9461 177.52 46.2452 176.845 44.5694C175.494 41.2176 173.818 38.0159 171.892 34.9894C168.015 28.9112 162.987 23.5334 157.184 19.2562C154.258 17.1051 151.106 15.2291 147.854 13.6533C149.43 12.3776 152.482 12.9779 154.183 13.3281C154.608 13.4031 155.033 13.5282 155.458 13.6282C166.964 22.1327 176.194 33.4886 182.047 46.5704C182.898 48.4964 183.698 50.4474 184.424 52.4234C184.774 53.424 185.124 54.3995 185.449 55.4C185.724 56.2504 185.824 57.2009 186.575 57.7512C186.625 57.7762 186.675 57.7512 186.7 57.7262C187 56.9758 186.7 56.3255 186.5 55.5751C186.224 54.6496 185.924 53.7491 185.624 52.8487C185.024 51.0477 184.323 49.2468 183.598 47.4709C182.147 44.0191 180.446 40.6923 178.545 37.4907C174.743 31.0623 170.091 25.1592 164.738 19.9565C162.887 18.1556 160.936 16.4547 158.935 14.8539C159.811 15.2291 160.661 15.6293 161.512 16.0795C166.189 18.6309 170.216 22.2827 173.943 26.0597C177.92 30.0618 181.597 34.364 185.074 38.8164C191.652 47.2708 197.405 56.3255 203.083 65.4052C195.004 62.1535 187.075 58.4266 179.671 53.8242L179.621 53.7992Z" fill="#FFCDD9"/>
</svg>
