<svg width="458" height="180" viewBox="0 0 458 180" fill="none" xmlns="http://www.w3.org/2000/svg">
<path d="M455.677 26.6928C457.179 22.8119 457.774 18.3645 455.904 14.4837C454.063 10.6878 450.352 8.61987 446.159 9.07311C441.967 9.52635 438.058 11.9908 434.828 14.597C431.571 17.2314 428.766 20.4041 426.443 23.8601C423.639 28.0525 421.515 32.6982 419.957 37.4856C419.135 40.0351 418.455 42.6129 417.917 45.2473C417.407 47.7118 416.897 50.2613 416.755 52.7824C412.336 52.3575 407.917 52.1026 403.555 52.0743C388.938 51.9326 374.349 53.8589 360.129 57.2299C356.135 58.1647 352.197 59.2411 348.26 60.4025C351.121 58.4196 353.897 56.2667 356.673 54.1422C360.865 50.9128 364.916 47.5419 368.769 43.8876C375.624 37.3723 381.743 30.0071 386.105 21.5655C387.21 19.4126 388.371 17.1464 388.995 14.7953C389.504 12.784 389.391 10.6595 387.918 9.10144C387.72 8.90315 387.521 8.73318 387.323 8.56322C387.267 8.05332 386.757 7.65674 386.303 7.99667C383.669 7.06186 380.638 9.55468 378.485 11.5376C379.278 9.89461 379.788 8.1383 379.646 6.26869C379.477 3.88918 378.145 1.39636 375.794 0.574863C372.989 -0.4166 370.128 1.14141 368.032 2.95437C365.794 4.88064 363.84 7.26015 362.027 9.58301C354.548 19.1294 349.676 30.517 346.22 42.0746C345.257 45.304 344.407 48.59 343.614 51.876C342.821 55.2753 341.971 58.7029 341.376 62.1588C341.376 62.3288 341.376 62.4704 341.376 62.6121C319.904 69.6656 299.451 79.4953 279.452 90.0897C279.48 89.9764 279.509 89.8915 279.537 89.7782C279.934 89.6932 280.302 89.4099 280.33 88.9283C293.899 74.3397 301.264 53.9722 301.236 34.1713C301.236 29.0723 301.378 22.6986 297.893 18.5628C297.015 17.5147 295.91 16.6366 294.692 16.07C294.607 15.985 294.522 15.9284 294.409 15.9284C293.531 15.5601 292.596 15.3335 291.605 15.3335C289.395 15.3335 287.412 16.3816 285.882 17.9113C282.257 21.5939 280.812 27.2594 279.48 32.1034C279.395 32.415 279.339 32.6982 279.254 33.0098C278.914 30.6303 278.376 28.2792 277.186 26.1546C275.713 23.5485 273.135 21.3956 270.104 20.9707C263.617 20.0642 260.841 27.1177 259.991 32.2733C257.81 45.7006 259.566 59.921 264.892 72.4417C266.393 75.9543 268.178 79.382 270.217 82.6113C271.86 85.2174 273.673 87.7952 275.798 90.0897C275.911 90.3447 276.024 90.5996 276.138 90.8263C276.279 91.1379 276.563 91.2795 276.818 91.2795C276.818 91.3362 276.818 91.3928 276.818 91.4211C259.595 100.599 242.57 110.231 225.092 118.955C225.092 118.87 225.092 118.786 225.092 118.701C225.092 118.644 225.092 118.616 225.063 118.559C234.95 106.095 238.915 88.9566 237.187 73.3199C236.734 69.1557 236.139 64.1984 233.023 61.0824C230.304 58.3913 226.111 57.7681 223.222 60.5158C220.446 63.122 219.653 67.1728 219.03 70.7421C218.576 73.4049 218.265 76.0676 218.095 78.7588C215.545 74.113 212.316 69.5523 206.962 68.1359C204.214 67.4277 201.183 67.6544 198.804 69.2974C196.623 70.8271 195.404 73.3199 194.979 75.8977C194.045 81.5065 196.113 87.5119 198.265 92.6109C200.588 98.1064 203.789 103.29 207.699 107.766C211.976 112.667 217.018 116.774 222.797 119.777C222.684 119.919 222.599 120.089 222.485 120.23C213.647 124.593 204.724 128.728 195.574 132.411C180.419 138.53 164.782 143.204 148.862 146.66C149.571 145.98 150.25 145.3 150.93 144.592C152.602 142.892 154.188 141.051 155.689 139.21C158.664 135.584 161.355 131.759 163.791 127.765C166.199 123.799 168.352 119.664 170.193 115.386C172.034 111.109 173.762 106.661 174.839 102.129C175.689 98.588 175.745 93.914 172.006 92.016C167.785 89.8631 163.451 92.9508 160.533 95.8402C156.426 99.9194 153.14 104.707 150.619 109.891C151.185 104.31 150.76 98.5597 149.032 93.2908C148.239 90.8263 146.766 88.1918 144.132 87.3986C141.271 86.5205 138.523 88.2485 136.653 90.2597C134.5 92.5826 133.311 95.8119 132.602 98.8429C131.838 102.101 131.724 105.443 131.809 108.786C131.979 115.471 132.772 122.241 134.33 128.757C135.945 135.584 138.494 142.269 142.715 147.906C130.478 150.286 118.127 151.985 105.663 152.977C103.765 153.118 101.867 153.26 99.969 153.373C101.329 152.297 102.575 151.079 103.765 149.861C105.833 147.708 107.759 145.413 109.43 142.921C112.716 138.048 115.209 132.609 116.711 126.915C117.249 124.819 118.609 121.193 116.286 119.692C113.906 118.106 110.875 120.967 109.175 122.411C104.841 126.094 101.414 130.796 99.0626 135.98C96.5698 141.504 95.4083 147.566 95.7199 153.6C83.5108 154.223 71.3016 154.28 59.0925 153.827C43.5407 153.26 28.1305 151.56 12.6637 149.889C8.86785 149.464 5.10029 148.983 1.33273 148.444C0.851164 148.388 0.766185 149.096 1.24775 149.181C31.3316 154.733 62.0102 157.198 92.6039 156.036C98.4111 155.81 104.246 155.441 110.054 154.96C111.498 157.962 113.935 160.654 116.201 163.005C118.779 165.724 121.64 168.189 124.727 170.313C130.903 174.591 137.928 177.622 145.321 179.123C148.551 179.775 152.148 180.426 155.321 179.236C158.635 178.018 159.91 174.477 158.267 171.39C156.426 167.905 152.715 165.441 149.514 163.316C146.143 161.05 142.517 159.181 138.749 157.679C133.084 155.441 127.135 154.167 121.101 153.798C141.865 151.305 162.375 146.886 182.204 140.173C183.45 139.748 184.668 139.295 185.915 138.87C189.059 145.3 194.611 150.541 200.758 154.025C208.237 158.274 217.103 159.86 225.63 158.699C229.482 158.189 233.76 157.254 237.017 155.045C239.822 153.147 241.465 149.804 239.539 146.66C238.887 145.583 237.924 144.733 236.876 143.997C237.952 141.051 236.564 137.255 234.865 134.847C232.598 131.618 229.086 129.72 225.318 128.785C221.296 127.794 217.018 127.879 212.939 128.275C212.429 128.332 211.948 128.417 211.438 128.473C220.418 124.394 229.284 119.975 238.037 115.415C238.066 115.415 238.094 115.471 238.122 115.5C242.485 117.482 247.272 118.927 251.918 120.145C256.563 121.363 261.294 122.383 266.053 122.921C275.118 123.969 284.466 123.431 293.134 120.4C296.788 119.125 300.839 116.916 301.378 112.638C301.887 108.701 298.516 106.293 295.174 105.273C291.18 104.055 286.902 103.46 282.766 103.12C278.461 102.78 274.127 102.809 269.821 103.205C265.09 103.659 260.388 104.565 255.855 105.925C258.716 104.367 261.606 102.837 264.467 101.279C276.619 94.7071 288.857 88.1918 301.321 82.1864C301.321 82.1864 301.321 82.1864 301.321 82.2147C304.777 86.1522 309.366 89.3249 313.927 91.8744C318.686 94.5372 323.756 96.6051 329.025 98.0498C339.478 100.939 350.526 101.562 361.234 99.9194C364.18 99.4662 367.579 99.0696 369.987 97.1433C371.998 95.5286 372.933 92.8092 371.941 90.458C376.36 90.0048 382.083 89.3816 383.697 84.7925C385.539 79.6086 379.533 77.1158 375.709 75.7844C370.383 73.9147 364.774 73.0366 359.166 72.5834C353.5 72.1301 347.778 72.1018 342.084 72.3851C331.263 72.9516 320.527 74.8779 310.159 77.9656C322.028 72.555 334.152 67.7677 346.673 63.9435C366.106 58.0513 386.615 54.4254 406.954 55.1619C409.589 62.867 413.781 70.0339 418.71 76.4926C421.231 79.7785 424.007 82.9229 427.01 85.7556C429.843 88.4184 433.157 90.7696 437.038 91.4778C438.766 91.7894 440.664 91.7327 442.42 91.3078C442.647 91.3645 442.873 91.3078 443.043 91.1379C444.318 90.7413 445.508 90.1181 446.528 89.2116C449.275 86.8038 450.069 83.0645 449.559 79.5519C448.482 72.1584 442.647 65.9831 436.528 62.1588C432.874 59.8643 428.908 58.2496 424.829 57.0032C428.03 57.5415 431.203 58.2213 434.347 59.0145C438.001 59.9493 441.655 60.9408 445.253 61.9605C446.613 62.3571 447.462 60.4592 446.103 59.8643C438.681 56.635 430.693 54.6237 422.591 53.434C429.078 52.1026 435.253 49.2982 440.607 45.389C447.038 40.6583 452.646 34.0863 455.536 26.6078L455.677 26.6928ZM115.719 122.496C115.719 122.695 115.691 122.865 115.663 123.006C115.493 124.394 115.124 125.754 114.756 127.114C113.368 132.156 111.187 137 108.326 141.363C106.711 143.827 104.926 146.15 102.943 148.303C102.632 148.643 102.292 148.954 101.98 149.294C107.929 141.136 112.49 132.043 115.747 122.468L115.719 122.496ZM97.7312 152.779C97.448 143.09 101.244 133.402 107.901 126.377C108.722 125.527 109.572 124.706 110.45 123.941C110.677 123.771 110.875 123.573 111.102 123.375C111.045 123.46 110.988 123.545 110.932 123.601C110.025 124.848 109.147 126.094 108.297 127.369C106.626 129.918 105.125 132.581 103.765 135.329C101.045 140.824 99.0626 146.575 97.7312 152.58C97.7312 152.58 97.7312 152.58 97.7312 152.609C97.7312 152.665 97.6745 152.694 97.6745 152.75L97.7312 152.779ZM104.501 135.839C105.89 133.148 107.476 130.541 109.175 128.049C109.969 126.887 110.818 125.726 111.668 124.593C112.433 123.573 113.425 122.61 113.963 121.448C114.104 121.392 114.246 121.335 114.416 121.278C114.388 121.307 114.359 121.363 114.331 121.392C111.697 126.944 108.666 132.298 105.776 137.708C104.332 140.399 102.887 143.062 101.47 145.725C100.564 147.425 99.5441 149.124 98.6376 150.852C100.082 145.668 102.037 140.569 104.501 135.782V135.839ZM102.037 146.688C103.482 143.94 104.926 141.193 106.399 138.445C108.836 133.884 111.187 129.267 113.736 124.791C110.337 133.997 105.748 142.722 100.309 150.881C100.281 150.937 100.309 150.966 100.309 151.022C99.9974 151.305 99.6858 151.617 99.3742 151.9C100.337 150.201 101.187 148.388 102.094 146.688H102.037ZM155.406 177.31C152.658 178.67 149.287 178.047 146.426 177.508C139.628 176.234 133.056 173.543 127.248 169.775C123.962 167.65 120.875 165.158 118.127 162.41C116.796 161.078 115.521 159.662 114.331 158.189C113.736 157.453 113.198 156.716 112.631 155.951C114.983 158.217 117.73 160.059 120.478 161.843C123.169 163.571 125.945 165.186 128.778 166.687C134.585 169.718 140.647 172.239 146.879 174.194C149.995 175.157 153.14 175.95 156.312 176.659C156.029 176.914 155.746 177.14 155.378 177.338L155.406 177.31ZM157.389 174.619C157.332 174.959 157.219 175.299 157.077 175.61C144.67 173.061 132.744 168.302 122.008 161.617C119.175 159.832 116.484 157.849 113.651 156.064C120.676 158.841 127.758 161.532 134.727 164.478C142.319 167.735 149.882 171.106 157.361 174.619H157.389ZM135.18 163.345C129.713 161.135 124.217 158.954 118.694 156.943C131.101 160.314 143.197 164.393 154.783 170.058C155.009 170.172 155.236 170.143 155.406 170.058C156.171 170.88 156.851 171.815 157.191 172.863C149.939 169.52 142.602 166.347 135.18 163.345ZM152.205 167.226C141.044 162.183 129.26 158.132 117.22 156.008C117.051 155.98 116.937 156.149 116.966 156.291C116.456 156.121 115.946 155.923 115.436 155.753C128.353 155.13 142.007 159.265 152.205 167.226ZM172.459 94.6505C171.496 96.0385 171.128 97.9648 170.533 99.5511C169.881 101.307 169.201 103.064 168.493 104.792C167.077 108.333 165.547 111.817 163.904 115.245C160.618 122.128 156.992 128.842 152.998 135.357C151.808 137.312 150.562 139.238 149.316 141.164C154.868 128.898 160.392 116.633 165.972 104.367C167.587 100.769 169.116 97.0866 170.901 93.574C171.496 93.829 172.006 94.1689 172.431 94.6505H172.459ZM168.607 93.1774C168.947 93.1774 169.258 93.1774 169.598 93.1774C168.352 96.3501 166.85 99.4378 165.491 102.554C163.961 106.01 162.431 109.494 160.93 112.95C157.87 119.89 154.783 126.774 151.752 133.714C150.76 135.98 149.769 138.218 148.777 140.484C149.797 127.369 153.961 114.536 160.817 103.319C162.941 99.8061 165.462 96.6334 167.813 93.2908C168.097 93.2341 168.352 93.1774 168.635 93.1774H168.607ZM134.104 113.772C133.622 107.794 133.311 101.392 135.548 95.7269C136.285 93.8856 137.333 91.9027 138.834 90.4863C136.455 97.2849 135.435 104.678 135.265 111.817C135.124 118.502 135.747 125.188 137.22 131.703C135.548 125.896 134.614 119.834 134.104 113.743V113.772ZM145.633 120.627C145.52 122.326 145.35 124.054 145.123 125.754C144.925 127.482 144.443 129.267 144.613 131.023C144.613 131.193 144.726 131.306 144.84 131.363C144.811 131.731 144.755 132.128 144.698 132.496C144.585 133.686 144.5 134.904 144.443 136.094C144.443 136.037 144.415 135.98 144.415 135.924C143.65 132.298 143.027 128.672 142.574 124.989C141.639 117.511 141.356 109.976 141.695 102.441C141.894 98.2197 142.432 94.0273 142.687 89.8348C142.715 89.2683 141.922 89.1549 141.809 89.7215C140.987 93.4607 140.704 97.3133 140.477 101.109C140.251 104.848 140.194 108.616 140.307 112.383C140.506 119.975 141.356 127.539 142.772 134.989C143.169 137.085 143.622 139.181 144.132 141.249C144.217 141.646 144.33 142.042 144.443 142.439C144.5 144.139 144.613 145.838 144.812 147.51C144.812 147.51 144.812 147.51 144.812 147.538C144.642 147.566 144.443 147.595 144.273 147.651C144.273 147.623 144.245 147.566 144.217 147.538C144.302 147.368 144.302 147.17 144.217 146.943C143.537 145.158 142.659 143.459 141.95 141.674C141.242 139.889 140.591 138.105 140.024 136.292C138.863 132.609 137.985 128.813 137.39 124.989C136.2 117.369 136.143 109.607 137.276 101.959C137.9 97.7382 138.948 93.6024 140.081 89.4949C140.392 89.2966 140.704 89.1549 141.044 89.0133C141.865 88.6734 142.602 88.6451 143.31 88.7584C143.31 88.7584 143.31 88.7867 143.282 88.815C143.112 90.4863 143.82 92.3276 144.132 93.9423C144.443 95.6419 144.727 97.3133 144.953 99.0129C145.435 102.554 145.746 106.095 145.86 109.664C146.001 113.29 145.916 116.944 145.661 120.57L145.633 120.627ZM145.066 93.4324C144.783 91.9594 144.585 90.2314 143.82 88.9C145.378 89.4099 146.568 90.8546 147.276 92.4976C148.692 95.7553 149.174 99.5795 149.372 103.12C149.599 107.03 149.287 110.967 148.466 114.791C148.437 114.933 148.466 115.046 148.466 115.16C148.126 116.123 147.786 117.086 147.474 118.077C147.276 118.672 147.134 119.295 146.964 119.919C147.134 116.519 147.134 113.12 146.993 109.749C146.823 106.123 146.483 102.497 145.973 98.9279C145.718 97.0866 145.378 95.2737 145.038 93.4607L145.066 93.4324ZM147.021 144.507C146.936 144.705 146.851 144.903 146.766 145.073C146.738 144.932 146.681 144.79 146.653 144.649C146.454 141.363 146.37 138.105 146.568 134.791C146.823 130.683 147.389 126.576 148.352 122.553C150.222 114.678 153.593 107.086 158.692 100.769C160.023 99.1262 161.44 97.5682 162.998 96.1235C163.848 95.3303 164.811 94.5938 165.859 94.0273C163.876 96.2935 162.12 98.8146 160.533 101.336C158.522 104.508 156.709 107.794 155.123 111.194C151.922 118.049 149.627 125.329 148.324 132.779C147.644 136.66 147.219 140.569 147.049 144.507H147.021ZM148.579 144.11C152.403 138.841 155.718 133.148 158.862 127.454C162.516 120.768 165.802 113.913 168.833 106.916C169.711 104.905 170.533 102.894 171.326 100.854C171.723 99.8627 172.091 98.8713 172.487 97.8798C172.742 97.2283 173.026 96.6051 173.224 95.9252C173.847 97.6249 173.592 99.5795 173.224 101.307C172.346 105.472 170.674 109.607 169.031 113.545C167.304 117.624 165.321 121.59 163.083 125.414C160.618 129.578 157.87 133.601 154.839 137.397C153.31 139.323 151.695 141.164 150.052 142.977C149.571 143.515 149.089 144.025 148.607 144.535C148.607 144.394 148.607 144.252 148.607 144.082L148.579 144.11ZM213.052 137.425C220.616 138.53 228.463 140.966 234.978 144.988C235.035 145.017 235.091 145.073 235.148 145.102C228.123 143.289 221.041 141.731 213.902 140.399C209.88 139.635 205.829 138.955 201.778 138.36C199.399 137.992 197.019 137.623 194.64 137.368C200.73 136.49 206.934 136.519 213.024 137.397L213.052 137.425ZM190.305 138.162C193.903 138.955 197.586 139.351 201.212 139.946C205.262 140.598 209.285 141.306 213.307 142.099C220.304 143.459 227.244 145.073 234.156 146.886C222.599 146.122 211.183 144.11 199.993 141.164C196.594 140.286 193.223 139.295 189.881 138.275C190.022 138.246 190.164 138.218 190.305 138.19V138.162ZM237.046 152.609C234.44 155.016 230.474 155.866 227.103 156.489C219.143 157.906 210.9 156.773 203.648 153.26C198.067 150.541 193.535 146.49 189.739 141.759C200.588 149.577 213.987 153.288 227.358 152.92C229.397 152.863 231.465 152.694 233.477 152.41C234.893 152.212 236.423 152.042 237.867 151.702C237.641 152.042 237.357 152.354 237.074 152.637L237.046 152.609ZM238.462 148.813C238.547 149.124 238.547 149.464 238.547 149.747C236.989 149.946 235.431 150.427 233.901 150.654C232.145 150.937 230.389 151.135 228.633 151.249C225.092 151.504 221.579 151.419 218.038 151.051C210.985 150.286 204.101 148.274 197.699 145.215C194.328 143.6 191.099 141.702 188.068 139.521C187.813 139.153 187.529 138.785 187.274 138.416C187.444 138.36 187.643 138.303 187.813 138.218C187.813 138.53 188.068 138.898 188.436 138.7C188.493 138.7 188.549 138.643 188.606 138.615C188.634 138.643 188.662 138.7 188.719 138.728C201.183 143.572 214.355 146.461 227.641 147.906C231.239 148.303 234.865 148.586 238.49 148.756L238.462 148.813ZM234.27 137.538C234.468 137.907 234.638 138.303 234.78 138.7C235.091 139.55 235.261 140.456 235.318 141.363C235.318 141.872 235.289 142.382 235.233 142.892C233.533 141.929 231.777 141.051 229.964 140.258C226.083 138.558 222.032 137.255 217.868 136.32C213.024 135.244 208.067 134.762 203.109 134.819C206.707 134.422 210.333 134.252 213.931 134.337C217.33 134.422 220.701 134.762 224.044 135.3C225.687 135.555 227.329 135.895 228.944 136.264C229.879 136.462 230.814 136.717 231.72 136.943C232.513 137.17 233.335 137.482 234.156 137.538C234.213 137.538 234.241 137.538 234.298 137.538H234.27ZM231.692 134.054C232.202 134.536 232.683 135.074 233.108 135.64C231.919 135.272 230.615 135.074 229.511 134.819C227.754 134.422 225.998 134.082 224.242 133.827C220.814 133.318 217.387 133.006 213.931 132.949C208.52 132.864 203.138 133.289 197.841 134.366C199.767 133.572 201.721 132.779 203.648 131.958C205.772 131.363 207.954 130.881 210.135 130.541C217.075 129.465 226.111 128.927 231.692 134.054ZM235.29 72.64C236.309 80.6 235.771 88.7584 233.76 96.5201C232.542 101.251 230.757 105.812 228.548 110.174C229.086 108.984 229.567 107.823 230.049 106.605C231.409 103.205 232.428 99.6928 233.222 96.0952C234.808 88.8717 235.091 81.3366 234.128 73.9997C233.618 70.0056 232.712 66.0964 231.522 62.2721C234.27 64.7933 234.808 69.1274 235.261 72.64H235.29ZM230.445 61.4507C230.162 61.6206 229.964 61.9322 230.106 62.3288C234.893 75.926 234.468 91.4495 229.766 104.99C228.831 107.624 227.641 110.174 226.395 112.695C226.366 112.27 226.31 111.874 226.253 111.449C227.301 106.35 228.236 101.251 228.831 96.0952C229.681 88.6167 230.162 81.0816 230.191 73.5182C230.191 71.4503 230.191 69.3824 230.162 67.3144C230.162 66.238 230.134 65.1899 230.077 64.1134C230.049 63.0937 230.077 62.0739 229.794 61.1107C230.021 61.1957 230.219 61.3373 230.445 61.4507ZM228.406 60.7141C228.548 60.7141 228.718 60.7425 228.859 60.7708C228.746 60.8558 228.633 60.9974 228.604 61.139C228.264 62.8387 228.661 64.7933 228.746 66.5213C228.831 68.4475 228.859 70.4021 228.888 72.3284C228.888 76.0676 228.831 79.8069 228.661 83.5461C228.293 91.0246 227.471 98.4464 226.508 105.868C226.366 106.86 226.225 107.851 226.055 108.843C225.063 96.6617 225.318 84.3959 226.763 72.2434C226.99 70.2605 227.273 68.2493 227.556 66.2663C227.811 64.425 228.236 62.5554 228.406 60.6858V60.7141ZM217.726 81.7615C217.811 81.9031 217.925 82.0164 218.038 82.1014C218.01 83.3761 217.981 84.6509 218.01 85.9256C218.066 91.3362 218.576 96.7467 219.426 102.129C217.981 98.8429 216.508 95.557 215.064 92.271C213.449 88.5317 211.834 84.8208 210.191 81.0816C208.548 77.314 207.104 73.3482 205.092 69.7789C211.438 70.3455 214.979 76.6625 217.726 81.7331V81.7615ZM202.118 95.6703C199.71 91.0246 197.642 85.8123 197.076 80.5717C196.906 79.0704 196.877 77.4557 197.161 75.9543C199.597 88.5601 205.801 100.543 214.044 110.287C215.29 111.789 216.622 113.233 217.981 114.621C218.038 114.678 218.095 114.735 218.151 114.791C211.551 109.607 205.971 103.149 202.118 95.6703ZM220.871 112.837C219.879 111.477 218.916 110.117 217.981 108.729C216.112 105.953 214.299 103.149 212.684 100.231C209.398 94.3955 206.594 88.2768 204.299 81.9881C202.996 78.4472 201.863 74.8779 200.815 71.252C200.673 70.7704 199.852 70.997 199.965 71.4786C202.968 84.5376 208.548 97.1433 215.772 108.418C216.792 110.032 217.868 111.619 218.973 113.177C219.143 113.432 219.341 113.687 219.511 113.942C219.454 113.885 219.398 113.828 219.341 113.772C218.208 112.61 217.103 111.42 216.055 110.202C213.902 107.709 211.891 105.103 210.021 102.384C206.31 96.945 203.279 91.0529 201.013 84.8775C199.71 81.3649 198.605 77.739 197.699 74.1414C197.784 73.8864 197.897 73.6598 198.011 73.4049C199.2 71.0537 201.58 69.7223 204.186 69.7223C204.243 69.7223 204.299 69.7223 204.384 69.7223C204.328 69.8356 204.299 69.9489 204.328 70.0905C205.517 74.0281 207.387 77.7956 209.002 81.5915L213.732 92.8092C215.319 96.5484 216.848 100.316 218.406 104.055C219.199 105.953 220.021 107.851 220.814 109.777C220.871 109.919 220.927 110.032 220.984 110.174C221.267 111.505 221.579 112.808 221.919 114.14C221.579 113.687 221.211 113.262 220.871 112.808V112.837ZM223.279 110.882C221.777 104.395 220.616 97.8515 220.134 91.1662C219.794 86.5205 219.794 81.8465 220.219 77.2007C220.588 73.1499 221.012 68.7025 222.655 64.9349C223.307 63.4902 224.213 61.9889 225.658 61.1957C226.168 60.9124 226.706 60.7425 227.273 60.6858C226.905 62.1305 226.706 63.6602 226.451 65.1332C226.14 66.9179 225.885 68.7025 225.658 70.4871C225.177 74.1414 224.808 77.7956 224.553 81.4782C224.044 88.7584 223.902 96.0668 224.129 103.347C224.242 107.143 224.497 110.91 224.837 114.678C224.412 113.375 223.845 112.1 223.25 110.825L223.279 110.882ZM245.402 114.99C259.255 114.763 273.135 114.111 286.987 113.573C289.197 113.488 291.378 113.403 293.587 113.318C294.692 113.262 295.797 113.233 296.902 113.177C296.052 113.517 295.202 113.913 294.381 114.196C292.511 114.876 290.641 115.443 288.715 115.953C285.061 116.916 281.293 117.624 277.554 118.077C269.906 118.955 262.116 118.644 254.552 117.227C251.493 116.661 248.433 115.868 245.431 114.99H245.402ZM298.063 115.33C296.76 116.746 294.891 117.567 293.134 118.219C285.089 121.193 276.308 121.76 267.838 120.938C262.909 120.457 258.008 119.522 253.221 118.304C252.938 118.219 252.626 118.134 252.343 118.049C256.309 118.927 260.388 119.465 264.438 119.72C272.285 120.202 280.274 119.607 287.922 117.794C289.99 117.312 292.03 116.746 294.041 116.123C295.514 115.669 297.185 115.245 298.658 114.565C298.488 114.82 298.318 115.103 298.12 115.33H298.063ZM299.196 110.287C299.395 110.684 299.48 111.08 299.536 111.505C297.978 111.42 296.335 111.619 294.806 111.675L288.828 111.93C284.919 112.1 280.982 112.27 277.073 112.44C269.311 112.78 261.549 113.12 253.759 113.488C250.076 113.658 246.394 113.885 242.711 114.14C249.567 112.383 256.45 110.74 263.504 109.834C271.237 108.814 279.112 108.446 286.902 108.871C289.083 108.984 291.293 109.154 293.474 109.381C295.287 109.551 297.185 109.976 299.026 110.004C299.083 110.117 299.168 110.174 299.225 110.287H299.196ZM289.933 106.208C291.916 106.576 294.749 106.945 296.874 108.078C295.967 107.993 295.061 107.936 294.211 107.851C292.284 107.653 290.358 107.539 288.404 107.455C284.523 107.285 280.642 107.256 276.789 107.37C268.914 107.624 261.068 108.588 253.362 110.259C250.926 110.797 248.49 111.392 246.082 112.072C259.651 105.642 275.146 103.517 289.962 106.208H289.933ZM295.316 32.7549C295.485 29.9221 295.542 27.0894 295.542 24.2567C295.542 22.5287 295.655 20.6591 295.485 18.8744C299.281 22.0754 299.253 28.1375 299.338 32.6982C299.536 42.6695 297.808 52.6691 294.437 62.0739C291.463 70.3172 287.157 77.9939 281.888 84.9908C289.707 68.6742 294.352 50.8562 295.344 32.7832L295.316 32.7549ZM292.879 17.4864C293.191 17.5714 293.531 17.6563 293.842 17.8263C293.729 19.7242 294.012 21.6788 294.041 23.5485C294.097 26.0696 294.069 28.5908 293.984 31.1119C293.814 36.0975 293.333 41.0832 292.624 46.0122C291.18 55.8985 288.715 65.6714 285.146 74.9912C284.041 77.9089 282.823 80.77 281.52 83.5744C286.166 67.2011 289.282 50.4029 291.293 33.5197C291.945 28.1942 292.454 22.8403 292.851 17.4864H292.879ZM291.435 17.3731C290.301 36.4375 287.355 55.3602 282.88 73.9431C282.087 77.2857 281.208 80.6 280.302 83.9427C279.764 66.9179 281.407 49.8647 285.543 33.2931C286.817 28.1375 288.319 23.0102 289.905 17.9113C289.905 17.8546 289.905 17.8263 289.905 17.7697C290.387 17.5714 290.896 17.4297 291.435 17.3731ZM273.05 24.0584C273.022 31.0269 273.787 38.0521 274.24 45.0207C274.721 52.3009 275.175 59.6094 275.628 66.8895C275.628 67.2011 275.656 67.5127 275.685 67.8243C275.685 70.997 275.77 74.1697 275.883 77.3424C272.965 64.1418 271.039 50.7429 270.444 37.2023C270.246 32.4433 270.161 27.6559 270.076 22.8686C270.076 22.8686 270.076 22.8686 270.076 22.8403C271.124 23.0102 272.144 23.4352 273.05 24.0584ZM272.795 83.2628C271.067 80.6 269.509 77.7956 268.178 74.9062C265.515 69.2124 263.56 63.207 262.399 57.0316C261.237 50.9128 260.869 44.6524 261.323 38.4487C261.549 35.5593 261.804 32.5283 262.626 29.7239C263.22 27.6559 264.184 25.3614 265.912 23.9734C264.552 32.3583 264.608 41.0832 265.345 49.4964C266.138 58.6179 267.895 67.626 270.614 76.3509C271.407 78.9287 272.342 81.4782 273.333 83.971C273.163 83.7161 272.965 83.4611 272.795 83.2062V83.2628ZM266.11 37.4856C266.166 32.7549 266.563 28.0525 266.96 23.3218C267.838 22.8969 268.716 22.7553 269.622 22.8119C269.622 22.8119 269.594 22.8686 269.594 22.8969C269.056 31.3102 269.396 39.7518 270.076 48.1367C270.756 56.635 271.889 65.0766 273.475 73.4332C274.296 77.6823 275.26 81.9031 276.336 86.0956C276.336 86.4355 276.364 86.7754 276.393 87.1154C269.566 71.5069 265.94 54.5671 266.11 37.5139V37.4856ZM276.478 49.6664C276.364 50.8845 276.279 52.0742 276.194 53.2923C275.741 47.4569 275.316 41.6214 274.863 35.7859C274.58 32.1034 274.381 28.3925 273.9 24.7382C274.381 25.1631 274.806 25.6164 275.175 26.0979C277.469 29.129 277.752 33.2365 278.064 36.8907C278.064 37.174 278.206 37.3723 278.376 37.4856C277.526 41.5081 276.874 45.5873 276.478 49.6947V49.6664ZM278.489 89.2682C278.262 85.1608 278.036 81.0249 277.866 76.9175C277.894 75.926 277.866 74.9062 277.781 73.9147C277.611 67.8527 277.611 61.8189 277.979 55.7568C278.319 50.0913 278.971 44.4258 280.075 38.8736C281.123 33.6897 282.398 28.3075 284.664 23.4918C285.599 21.5372 287.072 19.4693 288.885 18.3079C285.684 26.9194 283.39 35.8709 281.69 44.9074C279.962 54.2271 278.857 63.6319 278.546 73.0932C278.376 78.3905 278.404 83.6877 278.716 88.985C278.631 89.07 278.574 89.1833 278.489 89.2682ZM366.984 96.6617C364.661 97.5682 361.998 97.8798 359.534 98.1914C354.548 98.8429 349.506 99.0129 344.492 98.673C334.634 97.9931 324.889 95.4153 316.108 90.8546C313.615 89.5515 311.207 88.1351 308.913 86.5488C306.731 85.0475 304.692 83.3478 302.596 81.7048C302.709 81.6482 302.822 81.5915 302.936 81.5349C302.936 81.5632 302.936 81.6198 302.992 81.6482C304.635 83.0929 306.873 84.0277 308.799 84.9625C310.867 85.9823 312.992 86.9171 315.145 87.7952C319.422 89.5515 323.813 90.9962 328.289 92.2143C337.07 94.5655 346.078 95.9535 355.171 96.2651C359.534 96.4068 363.925 96.3785 368.287 95.9819C367.862 96.2651 367.409 96.5201 366.984 96.6617ZM369.987 94.3105C365.596 94.6222 361.234 94.8771 356.814 94.7921C352.31 94.7071 347.806 94.3389 343.359 93.7157C334.492 92.4976 325.796 90.2597 317.411 87.1154C316.08 86.6055 314.776 86.0956 313.473 85.5574C315.711 86.2372 317.977 86.8321 320.244 87.427C325.683 88.7867 331.178 89.8065 336.759 90.5147C347.806 91.9027 358.996 91.9877 370.072 90.7696C370.072 90.9112 370.128 91.0246 370.213 91.1662C370.893 92.271 370.667 93.4041 370.043 94.3389L369.987 94.3105ZM309.338 82.1864C309.338 82.1864 309.423 82.1297 309.479 82.0731C318.119 81.5915 326.731 81.0533 335.399 81.025C345.342 80.9966 355.285 81.3932 365.199 82.2147C368.061 82.4413 370.893 82.7246 373.754 83.0079C375.907 83.2345 378.117 83.6028 380.326 83.7727C361.743 85.3874 343.104 85.5574 324.521 83.886C319.451 83.4328 314.408 82.8096 309.366 82.1864H309.338ZM378.57 87.1437C376.247 88.0218 373.584 88.1918 371.148 88.4751C360.639 89.7215 349.959 89.7781 339.421 88.6734C333.529 88.0502 327.694 87.0587 321.915 85.7556C319.507 85.2174 317.128 84.5659 314.748 83.886C322.085 84.9058 329.507 85.529 336.872 85.9539C346.277 86.4922 355.681 86.6055 365.086 86.2655C370.468 86.0672 375.822 85.7556 381.176 85.2458C380.468 86.0956 379.476 86.7471 378.542 87.1154L378.57 87.1437ZM381.714 81.6482C381.714 81.6482 381.828 81.8465 381.884 81.9598C381.969 82.1297 381.969 82.2997 382.026 82.498C379.646 81.9598 377.125 81.8464 374.746 81.5915C372.225 81.3365 369.732 81.1099 367.211 80.9116C362.168 80.5151 357.154 80.2318 352.112 80.0618C342.056 79.7219 331.971 79.8069 321.915 80.2884C318.147 80.4867 314.352 80.685 310.556 81.0533C319.281 79.1553 328.005 77.5407 336.957 77.0308C346.39 76.4926 355.908 76.9458 365.256 78.3338C370.667 79.1553 376.021 80.2318 381.289 81.6765C381.459 81.7331 381.601 81.6765 381.743 81.6765L381.714 81.6482ZM336.787 74.9345C347.325 73.9147 358.372 73.8298 368.797 76.011C371.46 76.5492 374.066 77.2857 376.587 78.2772C377.607 78.6738 378.825 79.127 379.873 79.7785C361.828 75.2178 342.934 74.3397 324.521 77.2574C319.422 78.0506 314.323 79.127 309.394 80.7133C309.394 80.7133 309.366 80.7133 309.338 80.7133C309.111 80.7983 308.884 80.855 308.629 80.9116C308.516 80.94 308.488 81.025 308.488 81.1099C308.431 81.1099 308.403 81.1099 308.346 81.1099C308.318 81.1099 308.261 81.1099 308.233 81.1099H308.289C308.289 81.1099 308.29 81.1099 308.233 81.1099C308.205 81.1099 308.205 81.1099 308.233 81.1099C308.233 81.1099 308.176 81.1099 308.148 81.1099C308.091 81.0816 308.006 81.0533 307.95 81.025C307.95 81.025 307.95 81.025 307.921 81.025C307.921 81.025 307.921 81.025 307.893 81.025C317.241 77.9089 326.929 75.8693 336.759 74.9345H336.787ZM387.72 13.5772C387.38 15.8434 386.133 18.0529 385.114 20.0642C381.119 28.1092 375.397 35.2477 368.995 41.5081C365.936 44.5108 362.678 47.3719 359.364 50.1197C360.695 48.7883 362.027 47.4569 363.302 46.0971C369.42 39.5818 375.029 32.5849 379.93 25.1065C382.678 20.914 385.312 16.6366 387.72 12.2458C387.776 12.699 387.776 13.1523 387.72 13.6055V13.5772ZM377.72 4.85231C378.91 7.94001 377.154 11.1127 375.992 13.9738C369.59 19.9225 363.726 26.4662 358.514 33.4914C356.248 36.5508 354.095 39.7235 352.055 42.9811C353.387 40.4033 354.718 37.8822 356.163 35.361C360.1 28.3925 364.491 21.6505 369.25 15.1919C371.913 11.6226 374.604 7.99667 377.664 4.739C377.664 4.79566 377.72 4.82399 377.72 4.85231ZM347.183 46.2105C348.571 40.8282 350.242 35.5027 352.339 30.3471C354.407 25.2481 356.899 20.3191 359.902 15.7017C361.347 13.4639 362.933 11.311 364.633 9.24308C366.418 7.09019 368.287 4.76733 370.667 3.23765C371.856 2.44448 373.358 1.82127 374.831 2.13287C375.766 2.33117 376.474 2.89772 377.04 3.63423C376.927 3.66256 376.814 3.71921 376.729 3.83252C374.293 7.03353 371.686 10.1212 369.279 13.3506C366.871 16.5799 364.576 19.8942 362.367 23.2652C358.004 29.9505 354.067 36.8907 350.582 44.0859C349.563 46.2105 348.6 48.3917 347.693 50.5446C346.872 52.0742 346.05 53.6323 345.285 55.1903C345.88 52.1876 346.503 49.1848 347.268 46.2105H347.183ZM344.095 61.7056C344.095 61.7056 344.039 61.7623 344.01 61.7906C343.982 61.7906 343.925 61.7906 343.897 61.8189C343.897 61.7339 343.925 61.6773 343.954 61.5923C343.954 61.5923 343.954 61.5923 343.982 61.564C347.665 53.4623 351.801 45.6722 356.814 38.3071C361.8 30.9703 367.522 24.115 373.839 17.883C375.397 16.3249 377.012 14.8236 378.655 13.3506C380.241 11.9342 381.941 10.1212 384.009 9.4697C384.377 9.35639 384.717 9.32806 385.029 9.32806C379.052 15.0502 373.528 21.3106 368.23 27.6559C362.48 34.5395 357.268 41.763 352.197 49.1565C349.421 53.2074 346.305 57.2299 344.095 61.6489V61.7056ZM346.617 59.0145C348.345 56.2384 349.931 53.3773 351.744 50.6579C354.208 47.0036 356.786 43.5193 359.477 40.0351C364.831 33.0948 370.468 26.3812 376.474 20.0075C378.343 17.9963 380.298 16.0417 382.224 14.1154C378.457 19.8942 374.604 25.6447 370.468 31.1686C365.143 38.2788 359.421 45.0774 353.472 51.6493C351.234 54.1422 348.911 56.5783 346.588 59.0145H346.617ZM361.828 43.661C367.579 36.8341 373.046 29.7239 378.258 22.472C381.204 18.3929 384.066 14.2287 386.7 9.95126C387.097 10.3478 387.38 10.8577 387.578 11.4243C387.295 11.2543 386.842 11.2543 386.615 11.6509C378.428 27.4293 367.409 41.7347 354.322 53.8022C353.613 54.4538 352.905 55.077 352.197 55.7002C350.809 56.7483 349.449 57.7964 348.061 58.8729C352.905 54.0289 357.438 48.8449 361.828 43.6327V43.661ZM453.355 13.8605C453.921 14.6253 454.374 15.4468 454.658 16.325C454.601 16.3816 454.516 16.4666 454.488 16.5516C448.737 28.7041 439.644 38.9586 428.37 46.2954C426.387 47.5985 424.319 48.7599 422.223 49.893C432.789 38.2504 442.675 26.013 453.185 14.3137C453.326 14.1721 453.355 14.0021 453.326 13.8605H453.355ZM450.182 11.4809C451.145 11.8492 452.052 12.4158 452.845 13.2656C452.59 13.1806 452.306 13.2373 452.108 13.4922C441.854 25.928 430.863 37.7972 420.693 50.3179C425.565 38.732 432.789 28.1092 441.854 19.3843C444.516 16.8065 447.378 14.427 450.125 11.9625C450.295 11.8209 450.267 11.6509 450.182 11.5093V11.4809ZM419.277 47.0036C419.73 44.8507 420.24 42.6978 420.835 40.5733C422.053 36.3808 423.639 32.2733 425.764 28.4491C429.446 21.7638 435.055 15.3335 442.165 12.1891C444.601 11.1127 447.406 10.6028 449.842 11.3676C449.814 11.3676 449.757 11.3676 449.729 11.3676C444.176 14.7953 439.361 19.5543 435.055 24.4549C430.664 29.4406 426.812 34.8795 423.611 40.6866C421.798 43.9726 420.183 47.3719 418.767 50.8562C418.653 51.1678 418.738 51.4227 418.88 51.621C418.71 51.706 418.54 51.791 418.398 51.876C418.71 50.2613 418.965 48.6183 419.305 47.0036H419.277ZM438.511 89.6365C434.885 89.2966 431.741 87.2003 429.078 84.8492C426.245 82.328 423.696 79.4669 421.288 76.5492C416.302 70.4871 412.308 63.7735 408.88 56.7483C409.277 57.0032 409.645 57.2299 410.042 57.4848C414.518 63.7169 419.872 69.439 425.169 74.9629C430.069 80.0618 435.197 84.9625 440.494 89.6365C439.842 89.6932 439.191 89.6932 438.539 89.6365H438.511ZM442.392 89.2682C436.67 84.3959 431.118 79.297 425.849 73.9431C423.101 71.1387 420.438 68.2776 417.832 65.3598C415.934 63.2353 414.121 61.0824 412.251 58.9295C413.47 59.6943 414.659 60.4309 415.849 61.224C418.483 62.952 421.061 64.7933 423.582 66.7196C428.653 70.6004 433.44 74.8779 437.831 79.5236C440.324 82.1581 442.703 84.9058 444.941 87.7669C444.998 87.8519 445.083 87.9085 445.14 87.9369C444.318 88.5884 443.383 89.0133 442.363 89.3249L442.392 89.2682ZM446.669 86.2089C446.499 86.4922 446.273 86.7471 446.046 87.0021C446.046 86.9737 446.018 86.9171 445.989 86.8887C437.859 76.9175 428.228 68.1359 417.52 60.9974C415.367 59.5527 413.158 58.1363 410.892 56.9183C422.563 59.921 433.185 65.9831 441.089 75.1895C443.468 77.9656 445.536 80.9683 447.349 84.1693C447.378 84.226 447.434 84.2826 447.462 84.3109C447.264 84.9625 447.009 85.5857 446.641 86.1806L446.669 86.2089ZM432.336 62.2155C438.398 65.2182 444.091 69.9772 446.698 76.3792C447.462 78.2489 447.944 80.4017 447.802 82.498C441.514 71.4503 431.004 62.7254 419.107 58.3346C416.84 57.4848 414.546 56.8333 412.195 56.3517C419.078 57.6264 426.019 59.0711 432.336 62.2155ZM420.58 51.7343C420.58 51.7343 420.665 51.621 420.721 51.5927C432.477 46.3804 442.448 37.259 449.899 26.9194C451.853 24.2283 453.581 21.3672 455.139 18.4495C455.423 20.6307 455.083 22.9253 454.346 24.9932C451.882 31.9901 446.783 38.2221 441.004 42.7545C435.055 47.4569 428.03 50.5162 420.58 51.7343Z" fill="#FFCDD9"/>
</svg>
