<svg width="270" height="71" viewBox="0 0 270 71" fill="none" xmlns="http://www.w3.org/2000/svg">
<path d="M267.146 30.5956C268.534 28.6935 269.51 26.3492 269.055 23.9542C268.603 21.6099 266.877 19.9369 264.519 19.5717C262.161 19.2065 259.663 19.9823 257.517 20.9349C255.351 21.8989 253.354 23.2233 251.579 24.773C249.432 26.655 247.592 28.8841 246.04 31.2735C245.218 32.5472 244.47 33.857 243.79 35.2186C243.151 36.4913 242.5 37.8105 242.054 39.1681C239.7 38.2897 237.322 37.5043 234.941 36.851C226.971 34.6366 218.714 33.5568 210.447 33.3207C208.126 33.2478 205.817 33.2606 203.494 33.3199C205.348 32.6541 207.181 31.883 209.009 31.1274C211.773 29.9749 214.48 28.7243 217.121 27.2898C221.821 24.7302 226.243 21.5984 229.862 17.6213C230.78 16.6058 231.747 15.5367 232.431 14.3425C233.004 13.3175 233.252 12.1395 232.675 11.0724C232.596 10.935 232.512 10.8131 232.428 10.6912C232.472 10.4041 232.251 10.1128 231.954 10.2324C230.65 9.33616 228.629 10.2558 227.162 11.0251C227.836 10.2428 228.371 9.35725 228.567 8.31446C228.822 6.98877 228.459 5.43133 227.293 4.63849C225.905 3.68647 224.113 4.11993 222.702 4.80458C221.197 5.53046 219.781 6.54555 218.45 7.55036C212.966 11.6759 208.638 17.189 205.059 23.0021C204.06 24.6267 203.115 26.2989 202.201 27.9793C201.27 29.7217 200.305 31.4713 199.474 33.2736C199.449 33.3666 199.429 33.444 199.408 33.5214C186.638 34.2383 174.02 36.6219 161.538 39.4898C161.57 39.432 161.598 39.3897 161.63 39.3319C161.859 39.3434 162.102 39.2424 162.188 38.9833C171.739 32.9917 178.743 22.9339 181.622 12.1049C182.368 9.31734 183.377 5.85364 182.077 3.08326C181.75 2.38188 181.274 1.74031 180.691 1.2525C180.657 1.19362 180.619 1.15022 180.557 1.13365C180.131 0.803944 179.653 0.543378 179.111 0.398431C177.903 0.0753961 176.666 0.358488 175.606 0.971108C173.085 2.45421 171.467 5.34023 170.031 7.79372C169.939 7.95165 169.867 8.09823 169.775 8.25616C169.937 6.90562 169.986 5.54157 169.646 4.20616C169.222 2.56608 168.127 1.01226 166.533 0.336829C163.119 -1.10712 160.57 2.3431 159.352 5.03734C156.196 12.0589 155.077 20.0897 156.158 27.7132C156.465 29.853 156.94 31.9878 157.583 34.0514C158.1 35.7163 158.714 37.3906 159.54 38.9556C159.565 39.1115 159.59 39.2675 159.618 39.4079C159.65 39.599 159.784 39.7179 159.924 39.7551C159.916 39.7861 159.907 39.8171 159.903 39.8326C149.146 42.3321 138.43 45.1084 127.6 47.3229C127.612 47.2764 127.625 47.2299 127.637 47.1835C127.645 47.1525 127.649 47.137 127.642 47.1019C134.869 41.7333 139.543 32.944 140.884 24.143C141.245 21.8002 141.645 19.0032 140.397 16.8441C139.304 14.9754 137.103 14.0218 135.121 15.1015C133.223 16.1204 132.197 18.2189 131.334 20.0791C130.697 21.4685 130.138 22.8787 129.651 24.325C128.937 21.4125 127.838 18.4471 125.118 16.8901C123.72 16.1012 122.03 15.782 120.489 16.3323C119.072 16.8497 118.042 18.0344 117.433 19.3815C116.102 22.3111 116.354 25.8965 116.786 28.9987C117.252 32.3427 118.244 35.6446 119.727 38.663C121.349 41.9674 123.505 44.9501 126.225 47.4365C126.143 47.4974 126.071 47.5779 125.989 47.6387C120.519 48.7315 115.036 49.6879 109.496 50.3634C100.316 51.4928 91.0846 51.7619 81.8761 51.3237C82.3626 51.0556 82.8337 50.7833 83.3089 50.4956C84.4711 49.8108 85.6075 49.0361 86.6975 48.249C88.8536 46.7016 90.8839 45.0044 92.7996 43.177C94.6958 41.3609 96.4774 39.4147 98.1093 37.3455C99.7413 35.2763 101.336 33.0976 102.587 30.7771C103.57 28.9656 104.284 26.4187 102.517 24.8344C100.524 23.0404 97.7037 24.0947 95.6861 25.2478C92.8443 26.8773 90.348 29.014 88.2118 31.4794C89.3374 28.5115 89.9458 25.3056 89.7715 22.1726C89.6982 20.7093 89.278 19.0537 87.9538 18.235C86.518 17.3366 84.7633 17.8796 83.4472 18.7058C81.9306 19.6609 80.8081 21.2524 79.9778 22.8059C79.0834 24.4749 78.5328 26.2858 78.0905 28.1255C77.2061 31.8051 76.6498 35.6223 76.549 39.4119C76.4337 43.3801 76.85 47.4076 78.3333 51.1064C71.2954 50.6182 64.295 49.7417 57.3361 48.4615C56.2778 48.2614 55.2195 48.0614 54.1654 47.8458C55.0661 47.4562 55.9255 46.9725 56.754 46.4805C58.1993 45.6059 59.5878 44.6331 60.8659 43.5147C63.3747 41.3315 65.5326 38.7226 67.1858 35.8293C67.7865 34.762 69.06 32.9786 68.0096 31.8182C66.9407 30.6031 64.8654 31.7241 63.725 32.2654C60.8172 33.645 58.2559 35.7146 56.2127 38.2048C54.0423 40.8602 52.5211 44.0044 51.8093 47.3485C45.0436 45.9043 38.3608 44.1503 31.7525 42.1175C23.3334 39.5341 15.1574 36.352 6.9463 33.1771C4.93327 32.3899 2.94401 31.5758 0.963033 30.7307C0.708052 30.6294 0.55806 31.0041 0.8089 31.121C16.4435 38.5545 32.8548 44.387 49.7497 48.2248C52.9575 48.9499 56.2015 49.6017 59.4465 50.1874C59.7973 52.0402 60.7357 53.8675 61.6309 55.4842C62.6426 57.3478 63.8464 59.1133 65.2238 60.7262C67.9744 63.9675 71.3718 66.6516 75.1942 68.5532C76.8644 69.3816 78.7359 70.2637 80.6443 70.0771C82.6342 69.8958 83.8488 68.1464 83.402 66.2182C82.9048 64.0442 81.2365 62.1543 79.7971 60.5249C78.2856 58.7932 76.5766 57.241 74.7365 55.8694C71.9664 53.8177 68.9007 52.2511 65.656 51.1677C77.3718 52.8405 89.2299 53.4231 101.052 52.6519C101.795 52.6018 102.527 52.5321 103.271 52.482C104.05 56.4571 106.319 60.1338 109.17 62.9373C112.637 66.3536 117.252 68.5171 122.084 69.1287C124.264 69.4132 126.739 69.5275 128.843 68.7958C130.654 68.1683 132.041 66.5811 131.447 64.5805C131.249 63.8968 130.846 63.2914 130.381 62.7355C131.4 61.2823 131.196 59.0042 130.619 57.4394C129.852 55.3427 128.21 53.7916 126.287 52.7297C124.232 51.5996 121.882 51.0207 119.594 50.6411C119.307 50.5976 119.031 50.5736 118.744 50.53C124.249 49.6129 129.743 48.4933 135.195 47.2797C135.21 47.2839 135.217 47.319 135.229 47.3386C137.324 49.0604 139.73 50.5501 142.091 51.8952C144.453 53.2403 146.89 54.4894 149.413 55.4795C154.215 57.3777 159.405 58.4501 164.586 58.0604C166.77 57.8978 169.308 57.2821 170.228 55.0223C171.082 52.9443 169.591 51.1351 167.913 50.0889C165.907 48.8391 163.656 47.8885 161.445 47.098C159.141 46.2827 156.767 45.6646 154.355 45.2519C151.703 44.808 148.999 44.6161 146.323 44.6968C148.115 44.2634 149.918 43.8495 151.71 43.4161C159.314 41.6 166.957 39.8272 174.649 38.3664C174.649 38.3664 174.649 38.3664 174.645 38.3819C175.958 41.0397 178.003 43.4451 180.124 45.5056C182.336 47.6571 184.806 49.5289 187.475 51.089C192.767 54.1968 198.716 56.1526 204.81 56.8199C206.486 57.0028 208.403 57.283 210.001 56.582C211.336 55.9933 212.245 54.6433 212.047 53.213C214.529 53.6113 217.748 54.1071 219.302 51.8344C221.066 49.2697 218.147 47.0289 216.251 45.7419C213.613 43.9412 210.676 42.6412 207.676 41.5734C204.645 40.4973 201.52 39.6453 198.366 38.9677C192.368 37.6954 186.217 37.1788 180.098 37.3511C187.377 36.1285 194.705 35.2838 202.109 35.0237C213.594 34.6436 225.336 35.6598 236.348 39.036C236.661 43.6334 237.906 48.1643 239.656 52.4158C240.554 54.5808 241.612 56.7056 242.839 58.6932C243.999 60.5631 245.467 62.333 247.485 63.2875C248.384 63.7105 249.43 63.957 250.452 63.9815C250.568 64.0456 250.7 64.0477 250.818 63.9797C251.572 63.9492 252.314 63.7825 253.004 63.436C254.858 62.5214 255.838 60.5932 256.073 58.5983C256.566 54.3991 254.278 50.1699 251.492 47.1847C249.83 45.3961 247.898 43.9336 245.85 42.6559C247.522 43.4181 249.157 44.2536 250.76 45.1469C252.621 46.1922 254.474 47.2684 256.291 48.3519C256.977 48.7675 257.719 47.8542 257.062 47.3302C253.477 44.4797 249.404 42.2123 245.149 40.3774C248.89 40.598 252.676 39.9676 256.174 38.6133C260.381 36.9672 264.408 34.1944 267.081 30.5285L267.146 30.5956ZM67.2899 33.2685C67.2609 33.3769 67.2206 33.4657 67.1844 33.539C66.8885 34.273 66.4884 34.9625 66.0883 35.652C64.5923 38.2056 62.6917 40.5348 60.4898 42.5014C59.2468 43.6127 57.9315 44.6216 56.5328 45.5087C56.3127 45.6489 56.0813 45.7696 55.8613 45.9099C60.3061 42.3196 64.1288 38.0152 67.3095 33.2572L67.2899 33.2685ZM53.029 47.1935C54.2905 41.8558 57.782 37.1144 62.4483 34.2471C63.0217 33.9026 63.6063 33.5778 64.1982 33.288C64.347 33.2282 64.4844 33.1488 64.6373 33.0735C64.5939 33.1117 64.5504 33.1499 64.5112 33.1726C63.8334 33.7214 63.1711 34.2745 62.5202 34.8471C61.2337 35.9965 60.0237 37.2327 58.8786 38.5361C56.5885 41.1428 54.6638 43.9966 53.058 47.0851C53.058 47.0851 53.058 47.0851 53.0538 47.1005C53.0455 47.1315 53.0104 47.1387 53.0021 47.1697L53.029 47.1935ZM59.2067 38.9225C60.359 37.6543 61.6072 36.4614 62.9008 35.3471C63.5042 34.8282 64.1386 34.3175 64.7689 33.8223C65.3361 33.3766 66.0189 32.995 66.483 32.4388C66.5687 32.4285 66.6544 32.4182 66.7556 32.4121C66.736 32.4235 66.7122 32.4503 66.6926 32.4616C64.4406 35.1118 62.0009 37.5955 59.6303 40.131C58.447 41.3909 57.2679 42.6354 56.1043 43.8841C55.3603 44.6807 54.5543 45.4608 53.8061 46.2729C55.3538 43.6502 57.1678 41.1484 59.215 38.8915L59.2067 38.9225ZM56.2733 44.4934C57.4648 43.2025 58.6563 41.9115 59.8633 40.6247C61.8619 38.4876 63.8223 36.3071 65.8704 34.233C62.6661 38.7691 58.8817 42.8679 54.7156 46.5328C54.6919 46.5596 54.7032 46.5792 54.6949 46.6102C54.4832 46.7195 54.2673 46.8443 54.0555 46.9536C54.8305 46.1652 55.5602 45.2984 56.3042 44.5017L56.2733 44.4934ZM80.9724 69.0365C79.2714 69.3781 77.5196 68.5446 76.0342 67.8321C72.5039 66.1412 69.3046 63.7092 66.6807 60.8006C65.1949 59.1587 63.8713 57.3445 62.7709 55.4406C62.2377 54.5181 61.7479 53.5574 61.3128 52.5782C61.0953 52.0886 60.9087 51.6073 60.7108 51.1063C61.6649 52.6889 62.8979 54.0973 64.1391 55.4746C65.3577 56.8127 66.6393 58.1013 67.9684 59.3362C70.6999 61.8422 73.6453 64.1068 76.7665 66.0864C78.3292 67.0685 79.9323 67.9618 81.5632 68.8128C81.371 68.9108 81.183 68.9933 80.9527 69.0478L80.9724 69.0365ZM82.4498 67.8552C82.3692 68.0328 82.2575 68.202 82.1345 68.3517C75.7243 65.144 69.9004 60.7987 65.0085 55.5744C63.7208 54.1846 62.5395 52.7071 61.2518 51.3174C64.6865 53.8621 68.1646 56.3686 71.5435 58.998C75.2176 61.8888 78.8595 64.8374 82.4343 67.8511L82.4498 67.8552ZM71.957 58.4448C69.2912 56.4376 66.6057 54.4417 63.8799 52.5346C70.1701 56.1914 76.1863 60.1898 81.6919 64.9809C81.7992 65.076 81.9272 65.0936 82.0326 65.072C82.3306 65.6329 82.5656 66.2434 82.5982 66.8661C79.1224 63.9785 75.5754 61.1714 71.957 58.4448ZM80.6968 63.0554C75.3324 58.6671 69.4823 54.7298 63.2113 51.8082C63.1225 51.7679 63.0357 51.8442 63.0305 51.9258C62.7766 51.7583 62.5269 51.5754 62.273 51.4079C69.4258 52.9557 76.2855 57.2129 80.6968 63.0554ZM102.38 26.3409C101.65 26.9589 101.167 27.9581 100.61 28.7384C99.9973 29.6033 99.3688 30.464 98.7291 31.3052C97.4371 33.0339 96.0914 34.715 94.6921 36.3487C91.8893 39.6314 88.9256 42.7715 85.7895 45.7494C84.8533 46.644 83.8903 47.5149 82.9273 48.3857C87.7559 42.4919 92.5689 36.5939 97.4129 30.7043C98.8216 28.9736 100.196 27.184 101.685 25.5246C101.973 25.751 102.202 26.0114 102.364 26.3368L102.38 26.3409ZM100.489 24.9724C100.675 25.0221 100.845 25.0676 101.031 25.1173C99.8858 26.6696 98.6136 28.1381 97.4147 29.6428C96.0732 31.3084 94.7276 32.9896 93.4015 34.6594C90.7144 38.0063 88.02 41.318 85.3483 44.669C84.475 45.7629 83.6058 46.8414 82.7325 47.9353C85.2075 40.9143 89.36 34.5079 94.7477 29.3775C96.4227 27.7679 98.2648 26.402 100.039 24.9184C100.202 24.9288 100.35 24.9351 100.505 24.9765L100.489 24.9724ZM78.616 31.1866C79.2266 27.8486 79.9922 24.3031 82.0439 21.5331C82.7157 20.6341 83.5786 19.7033 84.6064 19.1485C82.3117 22.5173 80.6733 26.4102 79.5367 30.2878C78.4819 33.9219 77.8452 37.6677 77.6979 41.4449C77.6332 38.0259 78.0085 34.5752 78.6201 31.1711L78.616 31.1866ZM83.9166 36.6198C83.6062 37.5324 83.2607 38.4522 82.8883 39.3483C82.5273 40.2639 82.0031 41.1692 81.8392 42.1541C81.8144 42.2471 81.8597 42.3256 81.9134 42.3731C81.8441 42.5703 81.7551 42.7788 81.6703 42.9719C81.4345 43.6057 81.2099 44.2592 81.005 44.9013C81.0133 44.8704 81.0061 44.8352 81.0144 44.8043C81.1263 42.7102 81.3157 40.6369 81.6064 38.5574C82.1886 34.3324 83.1354 30.1716 84.4229 26.102C85.1483 23.8235 86.0555 21.6103 86.8078 19.3556C86.9062 19.05 86.4891 18.8721 86.3443 19.1653C85.3486 21.0893 84.6305 23.154 83.9516 25.1961C83.2811 27.2071 82.6993 29.2585 82.2104 31.3347C81.2089 35.514 80.5677 39.7731 80.2528 44.053C80.1632 45.257 80.1045 46.4692 80.0809 47.6743C80.0694 47.9035 80.0734 48.1369 80.0773 48.3702C79.8598 49.3077 79.6733 50.2534 79.5373 51.1961C79.5373 51.1961 79.5373 51.1961 79.5332 51.2116C79.4361 51.2022 79.3236 51.1887 79.2224 51.1948C79.2265 51.1794 79.2193 51.1442 79.2079 51.1246C79.2792 51.0441 79.3082 50.9357 79.2949 50.7994C79.1842 49.7244 78.9526 48.6668 78.8263 47.5877C78.7001 46.5085 78.6048 45.4376 78.5602 44.3637C78.4636 42.1807 78.5385 39.9771 78.7724 37.7995C79.236 33.4598 80.3398 29.2083 82.0774 25.1927C83.0352 22.9763 84.2128 20.8686 85.4328 18.7887C85.6321 18.7259 85.8232 18.694 86.0297 18.6663C86.5285 18.6005 86.9353 18.6927 87.3059 18.8582C87.3059 18.8582 87.3018 18.8737 87.2821 18.8851C86.9449 19.7739 87.0628 20.884 86.9971 21.8123C86.919 22.787 86.8295 23.7421 86.7049 24.7044C86.4505 26.7106 86.1032 28.6919 85.6433 30.6598C85.1906 32.6627 84.6099 34.648 83.9404 36.593L83.9166 36.6198ZM87.5827 21.6702C87.6432 20.8235 87.7874 19.8499 87.5639 19.0102C88.3411 19.5167 88.7803 20.4805 88.9273 21.4822C89.2253 23.4702 88.9295 25.6312 88.5202 27.596C88.0726 29.7662 87.3266 31.8732 86.3184 33.8438C86.2822 33.9171 86.2811 33.9832 86.2645 34.0451C85.9379 34.5219 85.6113 34.9988 85.296 35.4952C85.1006 35.7915 84.932 36.1114 84.748 36.4273C85.3379 34.5938 85.8349 32.7355 86.2503 30.8719C86.6875 28.8648 87.0318 26.8329 87.2748 24.8071C87.4047 23.7632 87.4838 22.7224 87.5631 21.6816L87.5827 21.6702ZM81.1842 49.8776C81.1088 49.9736 81.0334 50.0696 80.962 50.1501C80.9673 50.0685 80.957 49.9828 80.9622 49.9012C81.3342 48.0758 81.764 46.2825 82.357 44.4996C83.0969 42.2913 84.0071 40.1287 85.1217 38.0704C87.2951 34.0386 90.2479 30.3811 93.9589 27.6732C94.927 26.9696 95.9291 26.325 96.992 25.7629C97.5726 25.4536 98.2068 25.1917 98.8626 25.0352C97.4473 25.9842 96.1185 27.1057 94.8827 28.2521C93.3193 29.6925 91.8478 31.2239 90.4836 32.8503C87.7314 36.1299 85.4127 39.7745 83.6112 43.6568C82.6721 45.679 81.8683 47.754 81.1997 49.8817L81.1842 49.8776ZM82.0939 49.8886C84.9549 47.5672 87.5992 44.9391 90.1506 42.286C93.1257 39.1655 95.9243 35.8983 98.6043 32.5163C99.3784 31.5452 100.122 30.5658 100.853 29.5667C101.215 29.0827 101.561 28.5945 101.923 28.1105C102.158 27.7916 102.404 27.4923 102.612 27.1496C102.704 28.1699 102.279 29.2012 101.825 30.092C100.736 32.2401 99.2175 34.2567 97.7436 36.1691C96.2026 38.1465 94.5387 40.0246 92.7562 41.7881C90.8001 43.7043 88.7099 45.5016 86.4979 47.1336C85.38 47.963 84.2282 48.7336 83.0649 49.4845C82.723 49.7083 82.3851 49.9167 82.0473 50.125C82.068 50.0476 82.0887 49.9701 82.1136 49.8772L82.0939 49.8886ZM118.318 55.6597C122.291 57.3695 126.225 59.8485 129.198 63C129.225 63.0238 129.248 63.0631 129.275 63.0868C125.699 61.0686 122.056 59.1815 118.348 57.41C116.26 56.4038 114.145 55.4399 112.018 54.5225C110.771 53.9733 109.524 53.4241 108.26 52.9368C111.718 53.3472 115.105 54.2696 118.307 55.6401L118.318 55.6597ZM105.775 52.7368C107.626 53.6964 109.581 54.4516 111.476 55.3069C113.595 56.2553 115.691 57.2306 117.774 58.2522C121.4 60.0185 124.958 61.9159 128.472 63.9175C122.265 61.8097 116.318 59.0412 110.632 55.7947C108.902 54.8177 107.204 53.7828 105.526 52.7366C105.608 52.7419 105.689 52.7471 105.771 52.7523L105.775 52.7368ZM129.215 67.4682C127.438 68.4035 125.146 68.2883 123.212 68.1361C118.653 67.7467 114.312 65.9221 110.861 62.9416C108.208 60.639 106.323 57.7619 104.939 54.6207C109.727 60.4811 116.51 64.4687 123.873 66.2221C124.996 66.4893 126.152 66.6988 127.293 66.8379C128.096 66.9366 128.957 67.0673 129.797 67.0927C129.623 67.2454 129.423 67.3743 129.226 67.4878L129.215 67.4682ZM130.544 65.6001C130.545 65.7828 130.495 65.9687 130.454 66.1236C129.573 66.0042 128.651 66.0397 127.782 65.9399C126.78 65.838 125.791 65.6896 124.814 65.4948C122.841 65.1165 120.933 64.5565 119.051 63.8375C115.307 62.3882 111.838 60.2823 108.785 57.6738C107.179 56.2982 105.691 54.7885 104.353 53.153C104.267 52.9144 104.166 52.6716 104.081 52.4331C104.182 52.4269 104.298 52.425 104.404 52.4033C104.358 52.5737 104.444 52.8123 104.674 52.7577C104.705 52.766 104.744 52.7433 104.779 52.7361C104.791 52.7557 104.798 52.7909 104.825 52.8146C110.931 57.285 117.709 60.7904 124.761 63.5225C126.67 64.2653 128.611 64.9502 130.568 65.5732L130.544 65.6001ZM129.901 58.8236C129.955 59.0539 129.99 59.2956 130.009 59.5331C130.056 60.0433 130.016 60.5637 129.914 61.0675C129.84 61.3463 129.75 61.6209 129.644 61.8913C128.856 61.1163 128.024 60.3795 127.149 59.6808C125.276 58.1843 123.252 56.8797 121.112 55.7598C118.621 54.4632 115.982 53.4752 113.263 52.7814C115.288 53.0905 117.295 53.5277 119.249 54.1001C121.095 54.6436 122.889 55.3222 124.637 56.1052C125.498 56.4847 126.347 56.9108 127.175 57.3482C127.658 57.5932 128.131 57.8693 128.594 58.1257C128.994 58.3655 129.398 58.656 129.839 58.8071C129.87 58.8153 129.885 58.8195 129.916 58.8278L129.901 58.8236ZM129.001 56.542C129.209 56.8798 129.394 57.2444 129.543 57.6163C128.946 57.241 128.263 56.9421 127.696 56.6412C126.794 56.1676 125.884 55.725 124.961 55.3289C123.162 54.549 121.333 53.8775 119.452 53.3413C116.507 52.5038 113.502 51.9493 110.449 51.7633C111.618 51.6113 112.803 51.4634 113.976 51.296C115.224 51.2814 116.487 51.337 117.729 51.47C121.681 51.8962 126.699 52.9231 129.001 56.542ZM139.946 23.4938C139.34 27.9946 137.853 32.3759 135.619 36.3251C134.261 38.7332 132.619 40.9656 130.773 43.0274C131.241 42.4557 131.674 41.8911 132.116 41.2956C133.356 39.6361 134.427 37.8649 135.386 36.0141C137.31 32.297 138.566 28.2191 139.112 24.0674C139.418 21.8093 139.493 19.5396 139.402 17.2751C140.536 19.0551 140.196 21.5031 139.931 23.4897L139.946 23.4938ZM138.934 16.6686C138.754 16.7201 138.6 16.8615 138.62 17.099C139.249 25.2323 136.747 33.6566 132.197 40.3715C131.301 41.675 130.277 42.8949 129.227 44.0909C129.274 43.8545 129.301 43.6294 129.332 43.3888C130.651 40.7545 131.907 38.1037 132.986 35.3722C134.544 31.4081 135.909 27.3591 137.03 23.2284C137.332 22.098 137.635 20.9675 137.922 19.8328C138.079 19.2444 138.217 18.6672 138.343 18.0705C138.477 17.5088 138.641 16.9555 138.627 16.3875C138.739 16.4671 138.826 16.5735 138.934 16.6686ZM137.926 15.9678C138.004 15.9885 138.093 16.0288 138.166 16.065C138.092 16.0949 138.009 16.1558 137.973 16.2291C137.538 17.1085 137.47 18.2351 137.263 19.1921C137.028 20.2576 136.758 21.3303 136.492 22.3875C135.945 24.4317 135.367 26.4676 134.728 28.4869C133.433 32.5215 131.899 36.4587 130.287 40.3753C130.065 40.8966 129.843 41.4179 129.605 41.9351C130.844 35.1311 132.776 28.4628 135.343 22.0305C135.757 20.9796 136.205 19.9214 136.65 18.8788C137.059 17.9095 137.564 16.9495 137.931 15.9523L137.926 15.9678ZM129.011 25.9127C129.037 26.0026 129.082 26.0811 129.132 26.1441C128.93 26.8368 128.728 27.5296 128.557 28.2306C127.797 31.1967 127.285 34.2291 126.963 37.2958C126.653 35.2882 126.328 33.2764 126.019 31.2688C125.683 28.9885 125.343 26.7238 124.991 24.4394C124.644 22.1395 124.434 19.7603 123.856 17.515C127.242 18.7524 128.254 22.7235 129.015 25.8972L129.011 25.9127ZM118.445 31.2345C117.808 28.3427 117.439 25.1909 117.896 22.2432C118.022 21.3975 118.243 20.5107 118.617 19.7313C118.106 26.9789 119.746 34.4365 122.827 40.9689C123.289 41.9719 123.806 42.9564 124.346 43.914C124.369 43.9532 124.392 43.9925 124.414 44.0317C121.564 40.2328 119.458 35.8861 118.445 31.2345ZM126.187 43.3608C125.844 42.4725 125.516 41.5883 125.208 40.6928C124.592 38.9019 124.01 37.1037 123.554 35.2725C122.611 31.602 121.972 27.8469 121.638 24.0736C121.443 21.9473 121.345 19.8303 121.302 17.6949C121.295 17.4109 120.813 17.4147 120.805 17.6945C120.537 25.2727 121.745 32.9799 124.045 40.1995C124.367 41.2313 124.723 42.2559 125.1 43.2691C125.155 43.4333 125.226 43.6017 125.282 43.7659C125.259 43.7267 125.237 43.6874 125.214 43.6482C124.764 42.8476 124.334 42.0356 123.939 41.2165C123.127 39.539 122.408 37.8202 121.784 36.0602C120.55 32.5443 119.755 28.88 119.419 25.1727C119.22 23.0619 119.146 20.9182 119.176 18.8189C119.26 18.692 119.355 18.5846 119.454 18.4618C120.449 17.3504 121.944 16.9704 123.369 17.3515C123.4 17.3597 123.431 17.368 123.477 17.3804C123.43 17.4341 123.398 17.4919 123.392 17.5735C123.467 19.9 123.938 22.233 124.266 24.5442L125.212 31.3684C125.533 33.6445 125.818 35.9278 126.123 38.1997C126.28 39.3533 126.451 40.5109 126.603 41.68C126.613 41.7657 126.628 41.8359 126.638 41.9216C126.598 42.6909 126.578 43.4488 126.569 44.2264C126.45 43.9289 126.311 43.6428 126.191 43.3453L126.187 43.3608ZM127.789 42.6442C127.917 38.8784 128.238 35.1313 128.952 31.4061C129.446 28.8167 130.129 26.2615 131.041 23.7839C131.834 21.6232 132.717 19.254 134.166 17.4345C134.733 16.74 135.448 16.0517 136.354 15.8293C136.674 15.749 136.993 15.7348 137.311 15.7866C136.899 16.5226 136.567 17.3298 136.212 18.0979C135.781 19.0279 135.38 19.9663 134.995 20.9088C134.198 22.8361 133.462 24.78 132.785 26.7559C131.442 30.6613 130.296 34.6361 129.355 38.6492C128.862 40.7409 128.451 42.8378 128.086 44.9472C128.044 44.1727 127.921 43.393 127.782 42.6091L127.789 42.6442ZM139.283 48.1242C146.889 50.0255 154.573 51.6986 162.224 53.4295C163.444 53.7061 164.649 53.9785 165.87 54.2551C166.482 54.3857 167.09 54.5317 167.702 54.6622C167.188 54.7238 166.665 54.8164 166.175 54.8511C165.053 54.9495 163.948 54.9859 162.821 54.983C160.682 54.9753 158.519 54.8116 156.409 54.5127C152.099 53.8746 147.886 52.5654 143.958 50.6853C142.368 49.9283 140.812 49.0474 139.299 48.1284L139.283 48.1242ZM168.022 56.009C167.103 56.5928 165.961 56.7685 164.905 56.868C160.072 57.3178 155.189 56.3437 150.679 54.6563C148.054 53.6725 145.512 52.4449 143.073 51.0791C142.93 50.9913 142.772 50.8992 142.63 50.8114C144.67 51.8712 146.821 52.7618 148.998 53.4934C153.218 54.9039 157.672 55.7466 162.118 55.8737C163.319 55.9127 164.517 55.9012 165.707 55.8545C166.579 55.8221 167.555 55.8341 168.459 55.6778C168.329 55.7923 168.195 55.9224 168.053 56.0173L168.022 56.009ZM169.379 53.4181C169.429 53.6639 169.418 53.8931 169.387 54.1337C168.547 53.8595 167.62 53.7277 166.776 53.535L163.471 52.8005C161.309 52.3219 159.131 51.8392 156.97 51.3606C152.677 50.4117 148.384 49.4627 144.071 48.5252C142.033 48.0797 139.987 47.6652 137.936 47.2662C141.941 47.3083 145.944 47.4164 149.933 47.9521C154.309 48.5252 158.668 49.4752 162.865 50.8464C164.041 51.2272 165.224 51.6432 166.383 52.086C167.35 52.4439 168.325 52.9537 169.327 53.2384C169.342 53.3086 169.38 53.352 169.394 53.4222L169.379 53.4181ZM164.911 49.8338C165.942 50.325 167.436 50.9405 168.432 51.8706C167.949 51.6916 167.462 51.5281 167.01 51.3574C165.985 50.9674 164.949 50.6238 163.893 50.2916C161.796 49.6313 159.679 49.0484 157.556 48.5471C153.214 47.5352 148.783 46.9145 144.326 46.7018C142.916 46.6398 141.497 46.6089 140.081 46.6285C148.439 45.0969 157.221 46.2008 164.927 49.838L164.911 49.8338ZM178.593 10.465C179.1 8.94121 179.545 7.40087 179.959 5.85225C180.211 4.90759 180.547 3.90207 180.715 2.90159C182.322 5.20649 181.42 8.51639 180.8 11.0221C179.45 16.5022 177.044 21.7162 173.826 26.3648C170.995 30.4364 167.519 34.0037 163.615 37.0585C170.275 29.2815 175.42 20.2198 178.604 10.4846L178.593 10.465ZM179.493 1.76175C179.651 1.85377 179.824 1.94992 179.97 2.08839C179.63 3.1094 179.499 4.21937 179.242 5.2456C178.904 6.63215 178.52 8.00629 178.105 9.37214C177.283 12.0729 176.291 14.728 175.183 17.3191C172.948 22.5126 170.172 27.495 166.858 32.0681C165.828 33.5017 164.743 34.8877 163.621 36.2303C168.554 27.9585 172.714 19.2308 176.282 10.295C177.416 7.47887 178.478 4.62652 179.477 1.75761L179.493 1.76175ZM178.72 1.48859C175.313 11.7451 170.936 21.6592 165.772 31.1638C164.85 32.8752 163.885 34.5587 162.901 36.2536C165.096 26.8677 168.487 17.7852 173.171 9.33042C174.622 6.6983 176.192 4.11479 177.805 1.5592C177.813 1.52822 177.817 1.51274 177.825 1.48177C178.118 1.44377 178.417 1.44087 178.72 1.48859ZM167.692 2.45554C166.657 6.26101 166.049 10.2134 165.278 14.0893C164.476 18.1396 163.656 22.2013 162.839 26.2476C162.794 26.4179 162.764 26.5924 162.733 26.7669C162.27 28.5013 161.852 30.2482 161.45 31.9992C161.785 24.3561 162.691 16.7495 164.345 9.26013C164.933 6.62946 165.586 3.99986 166.24 1.37027C166.24 1.37027 166.24 1.37027 166.244 1.35479C166.792 1.60094 167.287 1.98232 167.692 2.45554ZM158.897 34.7844C158.341 33.0761 157.9 31.3152 157.594 29.5409C156.971 26.0389 156.78 22.4701 157.048 18.9243C157.308 15.4095 158.022 11.9332 159.177 8.60798C159.723 7.06152 160.305 5.44176 161.165 4.02873C161.792 2.98521 162.654 1.87164 163.802 1.36544C161.832 5.75057 160.588 10.5286 159.76 15.2357C158.861 20.3382 158.504 25.5196 158.715 30.6869C158.772 32.2121 158.91 33.7425 159.087 35.2503C159.032 35.086 158.961 34.9177 158.905 34.7535L158.897 34.7844ZM161.935 8.78134C162.657 6.20343 163.561 3.69071 164.47 1.16249C165.012 1.05858 165.513 1.10954 166 1.27304C166 1.27304 165.976 1.29986 165.972 1.31535C164.448 5.83606 163.4 10.5007 162.545 15.184C161.675 19.9292 161.06 24.7098 160.706 29.5101C160.533 31.9531 160.443 34.4014 160.418 36.8507C160.369 37.0366 160.334 37.2265 160.3 37.4165C158.85 27.8855 159.344 18.0947 161.93 8.79683L161.935 8.78134ZM165.822 16.9562C165.582 17.6055 165.361 18.2435 165.137 18.897C165.742 15.6406 166.363 12.3883 166.968 9.13189C167.352 7.07726 167.786 5.01957 168.057 2.95145C168.258 3.25415 168.424 3.56405 168.555 3.88115C169.366 5.87363 168.921 8.16054 168.557 10.2038C168.515 10.3587 168.564 10.4878 168.64 10.5746C167.587 12.6494 166.635 14.7841 165.818 16.9717L165.822 16.9562ZM161.132 38.8999C161.608 36.6213 162.089 34.3272 162.596 32.0568C162.757 31.519 162.891 30.9573 162.989 30.4029C163.782 27.064 164.664 23.7654 165.752 20.5052C166.766 17.4577 167.951 14.4557 169.366 11.5819C170.697 8.90116 172.181 6.14515 174.124 3.84381C174.921 2.91193 176.028 1.99679 177.189 1.62691C174.18 5.86673 171.617 10.4249 169.367 15.1165C167.06 19.9589 165.081 24.9388 163.527 30.0656C162.66 32.9367 161.901 35.8367 161.297 38.7782C161.238 38.8122 161.19 38.8659 161.132 38.8999ZM208.43 55.8797C207.027 56.0357 205.526 55.8167 204.133 55.6268C201.312 55.254 198.531 54.6098 195.839 53.6909C190.55 51.878 185.599 49.0441 181.465 45.267C180.293 44.1902 179.184 43.0639 178.161 41.8612C177.188 40.7215 176.322 39.4942 175.416 38.2895C175.486 38.2751 175.556 38.2607 175.627 38.2463C175.623 38.2617 175.614 38.2927 175.641 38.3165C176.328 39.3465 177.415 40.1847 178.331 40.9774C179.313 41.8372 180.337 42.6589 181.386 43.4537C183.468 45.0392 185.657 46.4709 187.926 47.7912C192.383 50.3604 197.104 52.4362 202.03 53.9359C204.394 54.6511 206.798 55.2776 209.241 55.6985C208.968 55.7913 208.682 55.8644 208.43 55.8797ZM210.415 55.0333C207.969 54.5618 205.547 54.0634 203.143 53.3708C200.693 52.6659 198.285 51.8061 195.945 50.8152C191.276 48.853 186.849 46.3582 182.724 43.4133C182.071 42.9399 181.433 42.4707 180.799 41.9859C181.923 42.6848 183.075 43.3413 184.227 43.9978C187.002 45.5363 189.857 46.8973 192.804 48.1003C198.641 50.4743 204.746 52.1566 210.979 53.11C210.958 53.1874 210.973 53.2576 210.998 53.3475C211.208 54.0509 210.919 54.6372 210.442 55.0571L210.415 55.0333ZM179.031 39.5384C179.031 39.5384 179.086 39.5199 179.125 39.4972C183.919 40.4971 188.706 41.4618 193.448 42.7136C198.888 44.1518 204.266 45.8222 209.566 47.7208C211.097 48.263 212.604 48.832 214.127 49.4052C215.271 49.8438 216.425 50.3681 217.608 50.7841C207.213 48.95 196.998 46.3179 187.083 42.6874C184.378 41.6983 181.712 40.6204 179.047 39.5426L179.031 39.5384ZM216.155 52.3702C214.757 52.5107 213.276 52.2143 211.903 52.013C205.975 51.1579 200.129 49.6275 194.529 47.483C191.399 46.2808 188.354 44.8857 185.385 43.3285C184.148 42.6822 182.942 41.9782 181.741 41.2586C185.603 42.8887 189.569 44.3145 193.533 45.6236C198.596 47.2928 203.721 48.7297 208.912 49.9188C211.883 50.5973 214.856 51.2097 217.857 51.7136C217.346 52.0747 216.708 52.2859 216.144 52.3506L216.155 52.3702ZM218.677 49.8256C218.677 49.8256 218.71 49.9505 218.725 50.0208C218.746 50.1261 218.721 50.219 218.723 50.3357C217.501 49.6936 216.14 49.2631 214.876 48.7758C213.535 48.2678 212.205 47.7795 210.856 47.3025C208.157 46.3485 205.458 45.4606 202.726 44.6305C197.278 42.9745 191.753 41.5466 186.185 40.3396C184.096 39.8972 181.992 39.4507 179.863 39.097C184.91 39.335 189.916 39.7279 194.884 40.7578C200.12 41.8427 205.257 43.482 210.164 45.6075C213.002 46.8476 215.772 48.2188 218.441 49.7789C218.525 49.8347 218.611 49.8245 218.689 49.8452L218.677 49.8256ZM195.098 39.587C201.008 40.5701 207.06 42.1388 212.44 44.8553C213.817 45.5388 215.134 46.3225 216.367 47.2331C216.867 47.599 217.466 48.0249 217.944 48.5343C208.746 43.4029 198.545 40.1605 188.053 39.0636C185.149 38.7518 182.204 38.5948 179.278 38.7414C179.278 38.7414 179.262 38.7373 179.247 38.7331C179.11 38.7465 178.978 38.7443 178.831 38.738C178.764 38.7369 178.737 38.7792 178.724 38.8257C178.693 38.8174 178.678 38.8133 178.647 38.805C178.631 38.8008 178.6 38.7926 178.585 38.7884L178.616 38.7967C178.616 38.7967 178.616 38.7967 178.585 38.7884C178.569 38.7843 178.569 38.7843 178.585 38.7884C178.585 38.7884 178.554 38.7801 178.538 38.776C178.511 38.7522 178.469 38.7243 178.442 38.7006C178.442 38.7006 178.442 38.7006 178.427 38.6964C178.427 38.6964 178.427 38.6964 178.411 38.6923C183.977 38.3555 189.572 38.6568 195.082 39.5829L195.098 39.587ZM231.912 13.4902C231.395 14.6794 230.391 15.7051 229.539 16.6555C226.179 20.4697 222.008 23.5356 217.592 26.0221C215.481 27.2164 213.282 28.3042 211.068 29.3218C211.991 28.7886 212.913 28.2554 213.809 27.6984C218.106 25.0312 222.196 22.0261 225.968 18.6542C228.083 16.764 230.149 14.8107 232.107 12.7624C232.072 13.0184 232.005 13.2662 231.908 13.5057L231.912 13.4902ZM227.721 7.25853C227.92 9.12047 226.496 10.5981 225.443 11.9925C221.073 14.3086 216.911 17.0286 213.035 20.1072C211.348 21.4484 209.708 22.8681 208.116 24.3508C209.221 23.1362 210.317 21.9526 211.476 20.7855C214.647 17.5516 218.033 14.5078 221.579 11.6727C223.557 10.1107 225.558 8.52193 227.707 7.1883C227.698 7.21927 227.725 7.24304 227.721 7.25853ZM204.981 25.4039C206.526 22.6645 208.218 19.9974 210.118 17.4854C211.994 15.0002 214.078 12.67 216.394 10.5848C217.511 9.57258 218.693 8.62756 219.925 7.74555C221.215 6.82951 222.577 5.83297 224.101 5.34459C224.868 5.08492 225.779 4.96372 226.539 5.34942C227.021 5.59449 227.326 6.00775 227.528 6.49322C227.461 6.49214 227.391 6.50655 227.328 6.55608C225.528 7.94985 223.652 9.25683 221.864 10.6702C220.075 12.0836 218.336 13.5601 216.636 15.0799C213.273 18.0969 210.106 21.3153 207.149 24.7394C206.281 25.7518 205.436 26.8034 204.626 27.8478C203.953 28.564 203.276 29.2956 202.63 30.0356C203.394 28.481 204.174 26.9306 205.027 25.4163L204.981 25.4039ZM201.027 33.4235C201.027 33.4235 200.988 33.4461 200.968 33.4575C200.953 33.4533 200.922 33.4451 200.902 33.4564C200.915 33.4099 200.938 33.3831 200.966 33.3408C200.966 33.3408 200.966 33.3408 200.986 33.3294C204.184 29.4388 207.583 25.7847 211.401 22.4913C215.2 19.2093 219.33 16.2982 223.695 13.8148C224.774 13.1908 225.876 12.6061 226.99 12.0411C228.064 11.4987 229.258 10.756 230.484 10.7022C230.702 10.6941 230.892 10.7283 231.062 10.7738C226.958 13.0282 223.023 15.6431 219.199 18.3375C215.049 21.26 211.144 24.4469 207.291 27.7475C205.181 29.5562 202.889 31.2997 201.035 33.3925L201.027 33.4235ZM202.799 32.3208C204.149 31.0558 205.435 29.7236 206.824 28.502C208.705 26.8646 210.624 25.3367 212.604 23.8253C216.546 20.8139 220.609 17.9678 224.824 15.3614C226.14 14.5352 227.495 13.7524 228.829 12.981C225.925 15.5894 222.978 18.1698 219.909 20.585C215.958 23.6935 211.836 26.5736 207.623 29.2967C206.035 30.3323 204.409 31.3245 202.783 32.3167L202.799 32.3208ZM213.36 26.1513C217.501 23.2598 221.53 20.1721 225.439 16.9696C227.646 15.1703 229.819 13.3121 231.885 11.3589C232.044 11.6337 232.124 11.9538 232.15 12.2925C232.02 12.1582 231.772 12.092 231.59 12.2756C224.808 19.7046 216.692 25.9141 207.773 30.5978C207.291 30.8505 206.812 31.0877 206.334 31.3248C205.422 31.6949 204.526 32.0691 203.609 32.4546C206.966 30.5147 210.201 28.3433 213.364 26.1358L213.36 26.1513ZM267.752 23.2408C267.95 23.7417 268.078 24.2571 268.104 24.7786C268.065 24.8013 268.006 24.8353 267.978 24.8776C263.058 30.6805 256.588 34.9571 249.352 37.3197C248.077 37.7422 246.777 38.0748 245.465 38.3878C252.944 33.5677 260.137 28.323 267.593 23.4637C267.691 23.407 267.732 23.3182 267.737 23.2367L267.752 23.2408ZM266.366 21.4761C266.838 21.8182 267.251 22.2605 267.561 22.841C267.434 22.7573 267.27 22.7469 267.125 22.8572C259.701 28.1565 251.957 33.0383 244.567 38.3964C248.924 32.7749 254.426 28.0237 260.657 24.5792C262.49 23.5592 264.402 22.6767 266.264 21.7311C266.378 21.6785 266.387 21.5814 266.362 21.4916L266.366 21.4761ZM244.277 36.3775C244.839 35.2668 245.433 34.1644 246.069 33.0899C247.348 30.976 248.815 28.9624 250.536 27.1824C253.527 24.0661 257.533 21.3707 261.88 20.6912C263.369 20.4589 264.977 20.5902 266.197 21.3645C266.181 21.3603 266.15 21.352 266.135 21.3479C262.598 22.41 259.27 24.3076 256.199 26.3573C253.07 28.4409 250.169 30.851 247.57 33.5577C246.098 35.0891 244.719 36.7113 243.435 38.4091C243.327 38.5629 243.337 38.7147 243.385 38.8438C243.28 38.8654 243.174 38.887 243.085 38.9127C243.491 38.0756 243.871 37.2147 244.292 36.3816L244.277 36.3775ZM248.559 62.4963C246.627 61.7803 245.214 60.1747 244.102 58.5C242.922 56.7076 241.947 54.7708 241.057 52.8237C239.218 48.7807 238.016 44.5265 237.169 40.1848C237.348 40.3822 237.517 40.5599 237.696 40.7573C239.232 44.8186 241.322 48.7295 243.411 52.5238C245.344 56.0278 247.431 59.4565 249.643 62.7862C249.279 62.7219 248.923 62.6266 248.575 62.5004L248.559 62.4963ZM250.735 62.8623C248.319 59.3621 246.029 55.7629 243.931 52.0657C242.839 50.1308 241.802 48.1774 240.804 46.2013C240.077 44.7624 239.4 43.3204 238.693 41.8701C239.247 42.4663 239.79 43.0429 240.324 43.6505C241.512 44.9803 242.652 46.3637 243.748 47.7854C245.953 50.6483 247.945 53.6866 249.666 56.8683C250.644 58.673 251.543 60.523 252.348 62.4143C252.366 62.469 252.405 62.5124 252.431 62.5362C251.887 62.7723 251.314 62.8679 250.711 62.8892L250.735 62.8623ZM253.52 61.8152C253.386 61.9452 253.225 62.0514 253.064 62.1577C253.068 62.1422 253.061 62.1071 253.049 62.0874C250.063 55.4477 246.081 49.2389 241.271 43.7709C240.305 42.6664 239.304 41.569 238.244 40.5718C244.185 43.9196 249.106 48.7867 252.081 54.9752C252.976 56.8407 253.667 58.7846 254.19 60.7996C254.197 60.8347 254.22 60.8739 254.231 60.8936C254.028 61.2208 253.797 61.5242 253.509 61.7955L253.52 61.8152ZM249.192 46.6028C252.067 49.1306 254.484 52.5647 254.973 56.4456C255.118 57.5795 255.066 58.8269 254.682 59.9521C252.86 52.9931 248.39 46.6869 242.527 42.5471C241.413 41.7512 240.254 41.0596 239.039 40.4526C242.616 42.1558 246.198 43.9603 249.192 46.6028ZM244.298 39.1542C244.298 39.1542 244.361 39.1047 244.396 39.0975C251.585 37.9667 258.369 34.4379 263.954 29.8747C265.416 28.6892 266.779 27.3778 268.057 26.0105C267.893 27.2443 267.372 28.449 266.667 29.4718C264.297 32.9366 260.598 35.5981 256.776 37.231C252.837 38.9321 248.549 39.5775 244.298 39.1542Z" fill="#FFCDD9"/>
</svg>
