<svg width="262" height="66" viewBox="0 0 262 66" fill="none" xmlns="http://www.w3.org/2000/svg">
<path d="M173.529 32.7981C174.633 35.8272 176.077 38.7289 177.676 41.5316C179.361 44.4899 181.215 47.3492 183.267 50.0669C185.306 52.7704 187.5 55.3466 189.864 57.7812C192.142 60.1309 194.591 62.3957 197.507 63.9527C199.97 65.2691 203.509 66.4439 206.156 64.9577C207.43 64.2358 208.194 62.9477 208.321 61.4898C208.463 59.8761 207.868 58.3757 207.019 57.031C206.127 55.6297 205.009 54.3416 203.919 53.0818C202.829 51.8362 201.711 50.6189 200.536 49.4441C198.201 47.1085 195.724 44.9145 193.119 42.8904C188.476 39.2809 183.466 36.1669 178.228 33.4775C185.617 34.4966 193.02 35.261 200.465 35.5582C203.806 39.6914 207.444 43.5274 211.492 46.9811C215.753 50.6331 220.339 53.8604 225.208 56.663C227.119 57.7671 229.907 59.5647 232.115 58.1634C233.135 57.5123 233.573 56.3374 233.517 55.1626C233.46 53.8745 232.795 52.7421 231.96 51.7938C230.176 49.7555 227.954 48.0003 225.76 46.4149C223.538 44.7872 221.188 43.3434 218.768 42.027C214.309 39.5924 209.624 37.5965 204.91 35.6856C209.992 35.7564 215.13 35.6149 220.254 35.1761C220.339 35.2185 220.424 35.261 220.537 35.2751C220.848 35.3035 221.16 35.3318 221.485 35.3601C222.32 36.1952 223.17 37.0303 224.076 37.8089C225.236 38.8138 226.439 39.7481 227.685 40.654C230.19 42.4941 232.823 44.1643 235.555 45.6647C240.976 48.6231 246.78 50.902 252.767 52.4166C254.381 52.8271 256.122 53.1951 257.778 52.7563C259.052 52.4307 260.199 51.6239 260.821 50.4491C262.308 47.6039 259.293 45.2684 257.254 43.8246C252.371 40.3567 246.737 38.191 240.948 36.7756C236.206 35.6149 231.365 34.9779 226.524 34.4825C234.862 33.3359 243.057 31.3118 250.786 28.0279C252.569 27.2636 254.296 26.4284 255.995 25.4942C256.518 25.2111 256.193 24.3901 255.627 24.6308C248.309 27.7165 240.849 30.2927 233.05 31.8639C230.983 32.2743 228.902 32.6282 226.822 32.9255C229.752 32.2743 232.668 31.51 235.513 30.5758C241.896 28.4809 248.082 25.4376 253.192 20.993C255.471 19.0113 257.99 16.5201 257.764 13.2362C257.665 11.8632 257.014 10.476 255.839 9.71165C254.551 8.89067 252.965 8.84821 251.493 9.06053C248.28 9.54179 245.152 10.9006 242.378 12.5426C239.533 14.2129 236.928 16.2653 234.479 18.4593C229.327 23.0737 224.797 28.3818 219.22 32.5291C218.584 32.9962 217.947 33.4492 217.295 33.8738C217.225 33.888 217.14 33.9021 217.069 33.9163C214.564 34.072 212.072 34.1852 209.567 34.2135C206.538 34.256 203.523 34.2135 200.494 34.072C202.914 33.6332 205.306 32.9821 207.599 32.2036C212.511 30.5333 217.14 28.0845 221.287 24.9705C223 23.6824 225.321 21.6441 224.429 19.2236C223.481 16.6616 220.296 16.8173 218.131 17.2986C213.46 18.3319 209.001 20.172 204.938 22.6774C200.338 25.5225 196.276 29.2311 193.048 33.5624C193.048 33.5766 193.048 33.5907 193.02 33.6049C186.749 33.1095 180.493 32.3168 174.265 31.3967C182.645 30.3068 190.727 26.2161 196.686 20.3277C197.535 19.4784 198.427 18.615 199.135 17.6525C199.843 16.6899 200.352 15.4443 199.687 14.3261C198.682 12.6134 196.177 12.9248 194.549 13.2503C190.033 14.1562 185.759 16.0954 182.036 18.7849C177.874 21.7998 174.336 25.8198 172.071 30.4484C172 30.6041 172 30.7315 172.057 30.8447C171.76 30.873 171.476 30.9013 171.179 30.9296C167.598 30.3634 164.031 29.7689 160.478 29.1461C155.269 28.2261 150.06 27.2777 144.837 26.3577C144.837 26.3577 144.837 26.3577 144.837 26.3435C144.724 26.1878 144.54 26.1878 144.398 26.2869C144.129 26.2444 143.846 26.1878 143.577 26.1453C147.626 26.0179 151.674 25.3951 155.567 24.4609C158.454 23.7673 161.299 22.8614 164.059 21.7715C164.102 21.7574 164.144 21.7432 164.187 21.7149C164.342 21.7432 164.512 21.7007 164.569 21.5592C166.947 20.5825 169.297 19.4077 171.25 17.7374C172.835 16.3785 174.831 13.8165 173.118 11.7782C171.675 10.0514 168.886 10.4335 166.919 10.6459C161.78 11.1696 156.727 12.6134 152.07 14.8215C146.847 17.2986 142.148 20.7524 138.227 24.9988C138.156 25.0696 138.128 25.1545 138.114 25.2253C133.372 24.4326 128.616 23.6966 123.846 23.0737C125.205 22.8473 126.549 22.55 127.866 22.1395C127.908 22.1395 127.951 22.1112 128.007 22.0971C128.205 22.1678 128.446 22.0971 128.588 21.8989C130.442 21.2761 132.239 20.4834 133.952 19.5351C133.981 19.5351 133.995 19.5067 134.009 19.5067C136.967 17.8789 139.699 15.8124 142.105 13.4768C143.11 12.5143 144.059 11.4952 144.965 10.4335C145.828 9.42856 146.904 8.32449 147.159 6.97978C147.612 4.57347 145.021 3.24292 143.025 3.00229C137.194 2.26625 131.659 5.57846 127.002 8.65004C120.76 12.7691 114.532 16.9164 108.516 21.3469C108.459 21.3893 108.431 21.446 108.417 21.4884C99.2447 20.8656 90.0583 20.9788 80.9284 21.6866C81.1832 21.6017 81.4522 21.5167 81.707 21.446C83.1791 20.9788 84.6512 20.4976 86.0949 19.9739C88.8693 18.9689 91.587 17.794 94.149 16.3219C96.4562 15.0055 98.6502 13.4768 100.589 11.6509C101.566 10.7308 102.5 9.73996 103.321 8.67836C104.142 7.6309 104.921 6.38528 105.034 5.01227C105.246 2.30871 102.698 0.723379 100.264 0.66676C98.8767 0.63845 97.4895 0.921545 96.1448 1.23295C94.97 1.51605 93.8093 1.84161 92.6769 2.23794C88.1474 3.80912 83.9434 6.34282 80.3906 9.5418C78.7628 11.0139 77.2624 12.6417 75.9177 14.3827C75.7761 14.4252 75.6629 14.5667 75.6629 14.7224C73.8228 17.1571 72.2941 19.8182 71.1475 22.6491C66.5189 23.2011 61.9045 23.8947 57.3042 24.7015C50.7363 25.8481 44.211 27.2353 37.714 28.7498C37.7706 28.7073 37.8272 28.6649 37.8697 28.58C37.8697 28.5516 37.898 28.5233 37.898 28.5092C38.9029 28.0987 39.908 27.6599 40.8988 27.2069C43.5174 26.0179 46.0653 24.7015 48.5706 23.2719C52.8171 20.8373 57.3891 18.1196 59.7671 13.6608C60.305 12.6417 60.9419 11.3111 60.305 10.1929C59.7671 9.24455 58.6347 9.08885 57.658 9.21624C56.5257 9.35779 55.3932 9.78243 54.3175 10.1363C53.1426 10.5185 51.982 10.9573 50.8496 11.4244C46.3908 13.2645 42.1868 15.7416 38.3934 18.7282C34.0903 22.1112 30.3252 26.1736 27.296 30.7315C27.1687 30.9155 27.1828 31.1137 27.2536 31.2835C20.3885 32.9821 13.5093 34.7231 6.7858 36.8463C4.62012 37.5258 2.42612 38.1344 0.232149 38.7572C-0.0792525 38.8422 -0.00851271 39.3517 0.302889 39.2668C7.26705 37.4125 14.2595 35.5583 21.252 33.7889C22.809 34.6665 24.3943 35.4592 25.9655 36.3226C27.5508 37.2002 29.0937 38.1486 30.6224 39.1111C33.694 41.0503 36.709 43.0603 39.7947 44.957C45.8671 48.6939 52.5198 52.0202 59.7246 52.7138C61.4798 52.8837 63.2491 52.8837 64.9902 52.7138C65.1176 52.7846 65.2591 52.7421 65.3582 52.6572C66.6463 52.5015 67.9344 52.1901 69.0526 51.5248C70.2982 50.7746 71.2041 49.5432 71.3032 48.0569C71.4023 46.4291 70.6804 44.8579 69.7462 43.5698C67.7928 40.9088 64.8911 39.012 62.0177 37.4833C58.8612 35.7989 55.5348 34.4259 52.1235 33.3218C46.7447 31.5808 41.1677 30.5758 35.5341 30.3068C40.7289 29.1178 45.952 27.9996 51.1893 26.9946C54.9686 26.2727 58.7479 25.6216 62.5556 25.0554C62.6122 25.0554 62.6688 25.0554 62.7254 25.0554C64.8769 27.4334 67.3116 29.5991 69.7037 31.7223C72.294 34.0154 74.9693 36.2377 77.7436 38.3184C83.2215 42.395 89.3081 46.0186 95.9042 47.9295C99.0607 48.8354 102.741 49.1185 105.345 46.7547C106.435 45.7638 107.186 44.4191 107.2 42.9187C107.228 41.2626 106.506 39.7198 105.544 38.4175C103.505 35.6573 100.462 33.6615 97.4612 32.0762C94.2056 30.3635 90.766 29.0046 87.2698 27.8439C81.3248 25.8764 75.1392 24.6449 68.8969 24.1637C80.3764 22.7057 91.9409 22.0263 103.519 22.55C107.086 22.7199 110.639 22.9888 114.178 23.3285C115.565 26.0038 117.179 28.5658 118.849 31.0712C120.647 33.7747 122.628 36.3651 124.695 38.8705C125.261 39.5499 125.856 40.2152 126.436 40.8804C126.464 41.0361 126.578 41.1494 126.719 41.206C128.205 42.9046 129.72 44.5607 131.305 46.1602C133.57 48.4249 135.891 50.7605 138.482 52.643C139.741 53.549 141.115 54.3275 142.615 54.738C143.818 55.0635 145.403 55.1343 146.21 53.9736C147.06 52.7563 146.479 51.0436 146.139 49.7555C145.757 48.2692 145.29 46.8113 144.738 45.3958C142.502 39.7056 138.878 34.5533 134.249 30.5758C131.39 28.127 128.163 26.117 124.723 24.6166C131.475 25.5508 138.199 26.6974 144.922 27.9005C145.007 28.0421 145.078 28.1836 145.163 28.3252C145.163 28.4526 145.234 28.5658 145.347 28.6507C146.649 30.9013 148.036 33.0953 149.438 35.2893C151.263 38.1344 153.174 40.9512 155.198 43.6689C157.208 46.3442 159.346 48.9345 161.667 51.3408C163.847 53.6197 166.168 55.8279 168.886 57.4698C170.174 58.2625 171.561 58.9136 173.019 59.3382C173.331 59.4232 173.642 59.5081 173.968 59.5789C174.038 59.6355 174.123 59.6355 174.194 59.6213C175.213 59.8337 176.303 59.9469 177.294 59.7346C178.71 59.4232 179.516 58.305 179.276 56.8612C179.035 55.3891 178.214 53.9028 177.549 52.5864C174.732 47.1227 170.571 42.4516 165.772 38.6723C160.478 34.4966 154.42 31.3826 148.22 28.8064C147.767 28.6224 147.3 28.4384 146.847 28.2544C149.706 28.764 152.566 29.2877 155.425 29.7973C161.455 30.8872 167.499 31.9346 173.557 32.8547L173.529 32.7981ZM228.931 50.2367C229.101 50.3924 229.285 50.5481 229.469 50.718C229.101 50.7321 228.718 50.8029 228.364 50.8029C227.812 50.8029 227.246 50.7321 226.694 50.6189C225.491 50.3783 224.316 49.8687 223.325 49.1468C222.405 48.4815 221.627 47.6181 221.032 46.6556C220.721 46.1602 220.48 45.6364 220.268 45.0986C220.098 44.6598 219.985 44.2068 219.815 43.768C223.042 45.6223 226.114 47.7313 228.917 50.2367L228.931 50.2367ZM219.263 43.4566C219.263 43.4566 219.235 43.4991 219.22 43.5274C219.065 44.7022 219.702 46.0186 220.282 47.0094C220.919 48.1135 221.783 49.076 222.816 49.8262C223.877 50.6048 225.081 51.1285 226.354 51.4257C227.006 51.5814 227.671 51.6522 228.35 51.6664C228.931 51.6664 229.723 51.7371 230.205 51.3833C230.912 52.0485 231.62 52.8129 232.073 53.6339C231.946 53.648 231.804 53.6622 231.677 53.6763C231.266 53.7188 230.87 53.7471 230.459 53.7471C229.709 53.7471 228.959 53.7047 228.209 53.5914C226.666 53.3649 225.151 52.8978 223.764 52.2042C221.131 50.8878 218.98 48.7222 217.579 46.146C217.196 45.4383 216.885 44.7164 216.616 43.9662C216.347 43.216 216.177 42.4375 215.922 41.6873C217.055 42.2535 218.173 42.8338 219.277 43.4566L219.263 43.4566ZM215.597 41.5316C215.512 41.574 215.455 41.6589 215.455 41.758C215.484 43.2301 216.092 44.7871 216.743 46.0894C217.409 47.4199 218.258 48.6656 219.277 49.7555C221.429 52.0627 224.274 53.6197 227.359 54.285C228.28 54.4832 229.214 54.5964 230.162 54.6106C230.601 54.6106 231.04 54.6106 231.479 54.5964C231.79 54.5822 232.13 54.5681 232.441 54.4973C232.611 55.0918 232.597 55.7146 232.342 56.3516C231.28 58.9278 227.77 56.8612 226.227 55.9977C222.773 54.0444 219.447 51.8362 216.276 49.4441C216.22 49.3874 216.163 49.3308 216.106 49.2601C215.738 48.8354 215.37 48.3966 215.031 47.9578C214.266 46.9811 213.587 45.962 212.992 44.8721C212.412 43.8388 211.917 42.763 211.492 41.6448C211.195 40.8521 210.94 40.0311 210.671 39.2243C212.341 39.9604 213.997 40.7106 215.625 41.5174L215.597 41.5316ZM201.824 35.629C204.514 36.6765 207.203 37.7664 209.878 38.9129C210.119 41.1635 211.166 43.4283 212.256 45.3675C212.61 45.9903 212.992 46.599 213.389 47.1935C213.29 47.1085 213.176 47.0236 213.077 46.9387C208.902 43.4991 204.967 39.6914 201.414 35.6149C201.555 35.6149 201.697 35.6149 201.838 35.629L201.824 35.629ZM237.65 37.3984C243.213 38.4741 248.705 40.1302 253.659 42.9187C254.876 43.5981 256.037 44.3625 257.169 45.1835C257.707 45.5657 258.273 45.9903 258.783 46.4716C257.651 46.599 256.532 46.698 255.4 46.6414C254.055 46.5707 252.725 46.3725 251.423 46.0611C248.747 45.4241 246.185 44.3342 243.722 43.1027C239.391 40.9371 235.329 38.2335 230.884 36.3226C233.163 36.6199 235.428 36.9454 237.678 37.3842L237.65 37.3984ZM228.846 36.4217C231.337 37.3417 233.701 38.5591 236.022 39.8471C240.778 42.4658 245.435 45.3675 250.757 46.7405C253.461 47.4341 256.518 47.788 259.264 47.0519C259.533 47.3916 259.76 47.7455 259.901 48.156C259.93 48.2409 259.944 48.3258 259.958 48.4249C258.84 48.5665 257.736 48.8213 256.617 48.9345C255.4 49.0619 254.183 49.1044 252.965 49.076C250.559 49.0194 248.167 48.6797 245.846 48.0852C241.146 46.8821 236.702 44.6456 232.965 41.5457C231.903 40.6681 230.898 39.7197 229.978 38.7148C229.214 37.8796 228.506 36.9737 227.798 36.0961C228.152 36.2094 228.506 36.3226 228.86 36.45L228.846 36.4217ZM227.105 35.898C228.308 37.9362 230.049 39.7197 231.804 41.2909C233.658 42.947 235.697 44.3625 237.876 45.5515C242.25 47.9437 247.148 49.345 252.13 49.6281C253.503 49.6988 254.891 49.6989 256.264 49.5856C257.495 49.4865 258.811 49.3733 260.015 49.0336C259.944 49.9253 259.335 50.718 258.528 51.1993C257.198 51.9919 255.556 51.8221 254.098 51.5248C251.182 50.9162 248.309 49.9819 245.52 48.9345C242.788 47.9154 240.113 46.7405 237.508 45.3958C234.876 44.037 232.328 42.5365 229.879 40.8804C227.43 39.2385 225.123 37.3984 222.787 35.6007C222.717 35.5441 222.646 35.4875 222.575 35.4309C224.09 35.5582 225.604 35.7139 227.105 35.8696L227.105 35.898ZM253.447 19.351C251.72 20.9647 249.837 22.3943 247.856 23.6682C248.294 21.4035 249.342 19.2944 250.941 17.5959C251.805 16.6758 252.838 15.8831 253.956 15.2745C254.848 14.7932 255.768 14.4818 256.716 14.1846C256.448 16.1804 254.876 18.0205 253.447 19.351ZM256.716 13.1513C256.731 13.2786 256.745 13.406 256.745 13.5476C255.627 13.7316 254.494 14.1987 253.517 14.7224C252.357 15.3452 251.295 16.1379 250.375 17.0863C248.478 19.0255 247.261 21.6016 246.893 24.2769C243.722 26.2161 240.325 27.7873 236.843 29.0471C236.702 29.1037 236.56 29.1461 236.419 29.1886C236.673 28.863 236.928 28.5233 237.169 28.1978C237.82 27.3626 238.471 26.5134 239.122 25.6782C240.453 23.9655 241.783 22.2669 243.114 20.5683C245.322 17.7516 247.53 14.5809 250.984 13.222C252.838 12.486 254.862 12.3586 256.716 13.1513ZM248.054 10.9573C250.432 10.1221 254.777 8.76328 256.278 11.7075C256.348 11.8632 256.419 12.0047 256.476 12.1604C253.277 10.9431 249.653 12.4152 247.19 14.5667C245.732 15.8265 244.529 17.3269 243.354 18.8556C242.01 20.6108 240.693 22.4085 239.363 24.1778L237.07 27.2211C236.503 27.9713 235.866 28.7215 235.357 29.5283C232.625 30.4484 229.851 31.1986 227.034 31.8497C227.444 31.5241 227.855 31.1986 228.223 30.8589C229.61 29.6557 230.856 28.2685 232.016 26.8248C234.423 23.8239 236.348 20.4693 238.74 17.4543C239.759 16.1804 240.849 14.9631 242.038 13.8448C243.921 12.67 245.916 11.665 248.025 10.929L248.054 10.9573ZM232.498 21.63C234.649 19.5492 236.914 17.5109 239.334 15.7133C237.876 17.2703 236.588 19.0113 235.357 20.7382C233.191 23.739 231.11 26.8955 228.393 29.4434C227.628 30.1511 226.822 30.8306 225.972 31.4109C225.42 31.7931 224.84 32.1186 224.274 32.4725C222.787 32.7839 221.301 33.0953 219.815 33.3784C224.429 29.9105 228.364 25.6216 232.512 21.63L232.498 21.63ZM220.99 23.8098C218.499 25.7348 215.809 27.3909 212.992 28.7923C213.091 26.6266 214.889 24.928 216.743 23.9796C217.819 23.4418 218.952 23.0596 220.084 22.6633C221.046 22.3377 222.08 22.0404 223.028 21.6441C222.533 22.5076 221.74 23.2011 220.976 23.7956L220.99 23.8098ZM223.368 20.993C222.08 21.2619 220.82 21.7574 219.589 22.1678C218.3 22.5925 216.984 23.0313 215.809 23.7249C213.856 24.8572 212.171 26.8248 212.256 29.1603C210.968 29.7831 209.652 30.3493 208.307 30.8447C208.01 30.9579 207.713 31.057 207.415 31.1561C207.557 28.6932 208.817 26.386 210.544 24.6449C212.681 22.4934 215.455 21.3044 218.371 20.6391C220.041 20.2569 221.74 20.0588 223.424 19.804C223.509 20.1862 223.509 20.5825 223.382 20.993L223.368 20.993ZM215.597 18.983C216.673 18.6716 217.763 18.3885 218.867 18.1762C220.07 17.9497 221.414 17.8223 222.49 18.5301C222.844 18.7707 223.099 19.0679 223.269 19.3935C217.366 19.6341 210.473 21.7574 207.599 27.3485C206.948 28.6224 206.609 30.0237 206.566 31.4534C204.584 32.1186 202.56 32.6565 200.522 33.067C198.852 33.3926 197.167 33.619 195.483 33.8031C195.072 33.7747 194.648 33.7464 194.237 33.7181C199.574 26.6974 207.146 21.4743 215.611 18.983L215.597 18.983ZM200.876 51.3691C198.668 51.0294 196.46 50.3358 194.733 48.8637C193.841 48.0994 193.133 47.1227 192.666 46.0469C192.44 45.509 192.284 44.957 192.213 44.3767C192.185 44.1219 192.185 43.8529 192.185 43.584C195.271 45.962 198.187 48.5523 200.876 51.3833L200.876 51.3691ZM189.948 41.9137C190.458 42.2818 190.968 42.6639 191.477 43.0461C191.166 44.0228 191.477 45.3109 191.789 46.1885C192.213 47.3916 192.978 48.4674 193.912 49.345C195.978 51.2983 198.866 52.091 201.64 52.3883C201.697 52.3883 201.754 52.3883 201.796 52.3741C202.405 53.0394 203.013 53.733 203.594 54.4124C200.777 54.5964 197.918 53.9453 195.483 52.5015C192.85 50.9303 190.84 48.5099 189.722 45.6647C189.127 44.1502 188.915 42.6073 188.66 41.0078C189.099 41.3051 189.524 41.6023 189.963 41.9137L189.948 41.9137ZM188.122 40.6398C188.122 40.6398 188.094 40.6681 188.094 40.6964C187.882 42.2393 188.264 43.8954 188.759 45.3533C189.269 46.8679 190.062 48.3117 191.024 49.5856C193.006 52.1618 195.837 53.9877 198.979 54.7946C200.692 55.2334 202.475 55.3608 204.245 55.1626C205.052 56.1251 205.957 57.2433 206.566 58.4465C206.297 58.4748 206.028 58.5031 205.759 58.5314C205.207 58.5739 204.641 58.588 204.075 58.588C202.999 58.5739 201.909 58.4465 200.848 58.2483C198.739 57.8378 196.686 57.0593 194.846 55.9553C191.109 53.7047 188.363 50.1235 187.033 45.9903C186.665 44.8438 186.41 43.6406 186.268 42.4375C186.155 41.4183 186.197 40.3992 186.169 39.3659C186.82 39.7905 187.485 40.201 188.122 40.6398ZM185.546 38.9554C185.348 39.9462 185.419 41.0503 185.504 42.0553C185.603 43.1877 185.801 44.3059 186.098 45.41C186.693 47.5615 187.627 49.5998 188.915 51.4399C191.52 55.1626 195.483 57.7529 199.885 58.8287C201.117 59.1259 202.39 59.3099 203.65 59.3524C204.655 59.3949 205.858 59.4515 206.878 59.1967C207.09 59.7346 207.203 60.2866 207.231 60.8387C204.698 60.8953 202.221 60.7113 199.772 60.0318C197.281 59.3524 194.903 58.2766 192.751 56.847C188.505 54.0161 185.32 49.8121 183.635 44.9995C182.715 42.3808 182.432 39.7056 182.22 36.9737C183.338 37.6248 184.442 38.2901 185.546 38.9695L185.546 38.9554ZM174.675 32.9821C177.068 34.1145 179.417 35.3601 181.725 36.6765C181.427 39.2243 181.923 41.8996 182.659 44.3342C183.423 46.8396 184.584 49.2318 186.098 51.3691C189.142 55.7005 193.643 58.8995 198.696 60.4565C201.4 61.2916 204.358 61.7446 207.203 61.5039C207.146 61.9286 207.019 62.3532 206.793 62.7779C205.349 65.5097 201.315 64.4481 199.107 63.4998C196.219 62.2541 193.77 60.1734 191.562 57.9794C189.269 55.7005 187.117 53.2659 185.122 50.7322C183.126 48.1843 181.272 45.5232 179.573 42.763C177.874 39.9887 176.402 37.087 174.944 34.1711C174.746 33.7606 174.534 33.3501 174.336 32.9396C174.449 32.9538 174.548 32.9679 174.661 32.9821L174.675 32.9821ZM196.12 19.4501C194.973 20.5967 193.742 21.6583 192.454 22.6491C192.765 21.5875 193.346 20.6108 194.167 19.8606C195.058 19.0538 196.106 18.6008 197.224 18.3461C196.785 18.8132 196.375 19.1953 196.12 19.4501ZM198.399 16.9023C198.229 17.1712 198.031 17.426 197.818 17.6808C196.318 17.6525 194.789 18.3461 193.685 19.3369C192.525 20.3843 191.76 21.814 191.505 23.3568C190.203 24.3052 188.83 25.1687 187.429 25.9472C187.287 23.3144 188.335 20.625 190.316 18.8698C192.525 16.9164 195.554 16.2936 198.399 16.9023ZM196.913 15.5009C197.351 15.5434 197.79 15.6142 198.229 15.685C198.455 15.7274 198.682 15.7699 198.908 15.7982C198.852 16.0247 198.753 16.2653 198.625 16.5059C195.639 15.5434 192.171 16.3078 189.793 18.3602C187.5 20.356 186.311 23.4135 186.58 26.4284C186.042 26.7115 185.504 26.9805 184.966 27.2352C184.612 27.4051 184.272 27.5467 183.919 27.7024C183.763 27.122 183.593 26.5558 183.536 25.9472C183.466 25.2111 183.508 24.4751 183.65 23.739C183.919 22.2528 184.57 20.8231 185.49 19.6341C187.528 17.0014 190.741 15.685 193.997 15.4443C194.959 15.3736 195.936 15.4019 196.913 15.5009ZM181.201 20.6816C184.428 18.0346 188.151 16.0105 192.213 14.8215C193.261 14.5101 194.322 14.2553 195.384 14.0855C196.247 13.9439 197.21 13.8873 198.031 14.227C198.597 14.4676 198.866 14.8074 198.937 15.2037C198.371 14.9914 197.677 14.9489 197.153 14.8923C196.29 14.7932 195.426 14.7507 194.563 14.7791C192.779 14.8357 190.982 15.1754 189.34 15.8831C186.282 17.1995 183.862 19.8323 182.998 23.0596C182.588 24.5883 182.432 26.5558 183.083 28.0704C182.432 28.3393 181.781 28.5658 181.116 28.7923C180.762 28.1836 180.394 27.6033 180.167 26.9097C179.927 26.1312 179.814 25.296 179.87 24.4892C179.927 23.7107 180.111 22.9464 180.408 22.2245C180.564 21.8564 180.748 21.5167 180.946 21.177C181.031 21.0213 181.102 20.8656 181.187 20.6957L181.201 20.6816ZM179.814 21.8847C179.446 22.6633 179.219 23.5267 179.148 24.3901C179.078 25.2677 179.177 26.1595 179.417 27.0088C179.615 27.6882 179.913 28.4526 180.352 29.0471C177.974 29.8256 175.539 30.3776 173.048 30.7315C174.775 27.3909 177.068 24.4043 179.799 21.8847L179.814 21.8847ZM60.7155 51.5814C56.4266 51.3125 52.3075 50.0527 48.3866 48.2975C48.514 48.2692 48.6556 48.2409 48.783 48.2268C49.3633 48.1418 49.9578 48.0994 50.5523 48.0711C51.8404 48.0286 53.1285 48.1701 54.3883 48.4391C56.8229 48.9628 59.1018 50.0669 61.0552 51.5956C60.9419 51.5956 60.8287 51.5956 60.7155 51.5956L60.7155 51.5814ZM61.6072 51.6239C61.6496 51.5248 61.6497 51.3974 61.5364 51.3125C59.5548 49.5432 57.1343 48.34 54.544 47.7597C53.2559 47.4624 51.9253 47.335 50.5948 47.3633C49.9437 47.3633 49.3067 47.4199 48.6697 47.519C48.2168 47.5756 47.6931 47.6323 47.226 47.7738C46.0653 47.2218 44.947 46.6273 43.8288 46.0186C43.843 46.0186 43.8571 46.0186 43.8713 46.0186C49.8304 44.1219 56.5256 45.2118 61.4373 49.1185C62.3715 49.8546 63.2209 50.6897 63.9852 51.5814C63.1925 51.6381 62.3857 51.6522 61.5931 51.6239L61.6072 51.6239ZM58.3516 37.0728C60.2908 37.9646 62.23 38.9271 64.0277 40.1019C61.7912 40.7106 59.3425 40.9371 57.1768 40.017C56.0161 39.5216 55.0111 38.6723 54.2043 37.7098C53.4258 36.7756 52.8879 35.6998 52.2509 34.6807C54.3317 35.3742 56.37 36.1669 58.3658 37.0728L58.3516 37.0728ZM48.5848 33.5624C49.6181 33.8455 50.6372 34.1569 51.6564 34.4825C51.9253 35.8413 52.8312 37.1436 53.7088 38.191C54.5864 39.2385 55.648 40.1302 56.8937 40.6681C59.4132 41.758 62.2442 41.39 64.8062 40.6115C65.4431 41.0645 66.0659 41.5457 66.6463 42.0553C67.2691 42.6073 68.0193 43.3717 68.6704 44.2351C61.4232 45.0986 54.091 42.3808 49.2359 36.8746C48.1885 35.6856 47.2684 34.3834 46.4474 33.0104C47.1693 33.1803 47.8771 33.3501 48.5848 33.5341L48.5848 33.5624ZM45.7397 32.883C48.8962 39.465 55.5773 43.952 62.7396 45.0278C64.877 45.3533 67.0568 45.3392 69.2083 45.0419C69.6188 45.7072 69.916 46.415 70.0293 47.1227C68.9394 47.0378 67.8353 47.0378 66.7454 46.9387C65.5847 46.8396 64.4381 46.6839 63.3058 46.4716C60.9844 46.0328 58.7055 45.3675 56.4973 44.5041C52.1518 42.8055 48.146 40.3001 44.7064 37.1436C42.9653 35.5583 41.3801 33.7748 39.9646 31.8922C41.9038 32.1328 43.8288 32.4584 45.7397 32.8688L45.7397 32.883ZM38.4358 31.7365C38.7331 31.7648 39.0445 31.8072 39.3418 31.8356C44.579 39.6348 53.1285 45.0702 62.2724 47.0236C63.5889 47.3067 64.9194 47.519 66.2499 47.6464C67.5097 47.7738 68.812 47.8871 70.0717 47.7738C70.0717 48.5099 69.8311 49.2176 69.2224 49.8546C68.3165 50.8029 66.9294 51.1993 65.6838 51.4116C65.3865 51.4541 65.1034 51.4965 64.8062 51.5248C60.9278 47.0661 55.1809 44.4474 49.2359 44.6315C47.3533 44.6881 45.4991 45.0278 43.7156 45.6223C43.5882 45.6648 43.5598 45.7921 43.6023 45.8912C42.8946 45.4949 42.1727 45.0986 41.4791 44.6881C35.5766 41.1919 29.9996 37.002 23.7291 34.1428C23.2336 33.9163 22.7382 33.7181 22.2287 33.5341C25.0171 32.8264 27.8198 32.147 30.6224 31.4675C33.2269 31.4675 35.8314 31.4817 38.45 31.7365L38.4358 31.7365ZM48.9953 21.8423C47.2684 22.8756 45.4991 23.8381 43.7298 24.7582C43.7298 24.7582 43.7298 24.7582 43.7298 24.744C43.8713 24.4609 44.027 24.1778 44.1968 23.9089C44.5365 23.3568 44.9329 22.8331 45.3434 22.3235C46.221 21.2903 47.2543 20.3985 48.3866 19.6625C49.4907 18.9406 50.7222 18.3744 51.9819 17.9922C52.6331 17.794 53.2842 17.6525 53.9636 17.5534C54.4166 17.4826 54.8837 17.4826 55.3508 17.426C53.4116 19.1529 51.1327 20.54 48.9953 21.8281L48.9953 21.8423ZM55.917 16.9164C54.6289 16.6333 53.0294 17.0155 51.7979 17.3694C50.4674 17.7516 49.1935 18.3319 48.0186 19.068C46.8438 19.804 45.7822 20.7241 44.8621 21.7574C44.395 22.2811 43.9704 22.8473 43.5882 23.4418C43.2909 23.9089 42.6681 24.6874 42.7247 25.2677C42.1019 25.5933 41.4791 25.9189 40.8422 26.2303C40.0212 26.6408 39.186 27.0229 38.3509 27.4051C38.4925 27.0795 38.634 26.7398 38.8039 26.4284C39.1719 25.7065 39.5965 25.013 40.0495 24.3477C40.9696 23.003 42.0311 21.7574 43.2484 20.6533C45.7822 18.3461 48.8962 16.7041 52.2226 15.8973C53.9353 15.4868 55.648 15.3594 57.3891 15.2886C56.9361 15.8548 56.4549 16.3927 55.9312 16.9023L55.917 16.9164ZM48.5565 13.6042C50.6372 12.5992 52.7746 11.7358 54.9828 11.0139C55.9736 10.6883 57.0493 10.2637 58.1109 10.2212C58.5214 10.2212 59.0027 10.2637 59.2717 10.6176C59.668 11.113 59.3708 11.8773 59.1584 12.3869C59.0027 12.7549 58.8187 13.0946 58.6347 13.4344C57.7288 13.1796 56.7521 13.0946 55.8179 13.038C54.7138 12.9814 53.6097 13.0097 52.5057 13.1371C50.2975 13.3777 48.1177 13.9722 46.0794 14.8923C46.9004 14.4393 47.7213 14.0005 48.5565 13.5901L48.5565 13.6042ZM32.7315 29.9247C32.3776 30.0096 32.0096 30.0945 31.6557 30.1794C31.5425 30.2078 31.4434 30.2361 31.3302 30.2644C31.132 30.2644 30.9197 30.2644 30.7215 30.2644C30.0987 30.2785 29.49 30.3351 28.8814 30.3918C32.3068 25.4942 36.5957 21.2053 41.4791 17.7657C39.6248 19.2944 38.0254 21.1204 36.7798 23.2011C35.6757 25.0554 34.883 27.0654 34.3876 29.1745C33.8356 29.4151 33.2835 29.6699 32.7315 29.9105L32.7315 29.9247ZM40.6157 19.4077C43.6165 16.3785 47.5232 14.4393 51.7272 13.7741C52.9445 13.5901 54.176 13.5051 55.4074 13.5334C56.4266 13.5476 57.4174 13.7033 58.4223 13.8024C58.2242 14.1279 58.026 14.4535 57.7995 14.7649C56.0868 14.595 54.3033 14.7932 52.6331 15.1471C50.8779 15.5151 49.1651 16.0955 47.5515 16.8881C44.4941 18.3885 41.8188 20.625 39.7947 23.3427C39.2568 24.0646 38.7614 24.8289 38.3084 25.6216C37.898 26.3577 37.445 27.1362 37.1761 27.9571C36.5533 28.2402 35.9446 28.5092 35.3218 28.7781C36.2277 25.2536 38.0678 21.9838 40.6299 19.4077L40.6157 19.4077ZM87.9492 43.6406C85.0333 42.1544 82.2732 40.3992 79.6121 38.5024C79.5554 38.46 79.4988 38.4175 79.4422 38.375C81.6928 38.6723 83.8443 39.3234 85.8402 40.4558C87.8501 41.6023 89.5629 43.1735 90.8934 45.0561C89.8884 44.6031 88.9117 44.1219 87.9492 43.6265L87.9492 43.6406ZM91.955 45.5232C89.1665 41.1918 84.0142 37.9787 78.7911 37.8938C77.2907 36.7897 75.8327 35.6432 74.3889 34.4683C78.0975 34.3126 81.7494 34.893 85.1749 36.4075C88.4163 37.8513 91.2614 40.0878 93.4554 42.8763C94.4604 44.1502 95.2955 45.5232 96.0174 46.967C94.6444 46.5848 93.2856 46.0894 91.955 45.5232ZM102.246 36.5066C102.741 36.9313 103.265 37.4267 103.774 37.9646C103.746 37.9646 103.718 37.9504 103.703 37.9363C103.321 37.7805 102.939 37.6107 102.571 37.4125C101.793 37.0162 101.057 36.5774 100.349 36.0678C99.6694 35.5866 99.0324 35.0487 98.4379 34.4825C98.1123 34.1711 97.7868 33.8455 97.4895 33.5058C97.3763 33.3926 97.2772 33.2652 97.164 33.1378C98.9616 34.0862 100.703 35.1761 102.26 36.5066L102.246 36.5066ZM93.5403 31.4251C94.4746 31.8355 95.3946 32.2602 96.3147 32.7131C96.3005 32.7556 96.2864 32.8122 96.3147 32.8688C96.4421 33.2652 96.7393 33.5907 96.9941 33.9021C97.2914 34.256 97.6028 34.5957 97.9142 34.9213C98.537 35.5441 99.2023 36.1244 99.91 36.6482C100.604 37.1577 101.34 37.6248 102.104 38.0353C102.514 38.2477 102.925 38.4458 103.335 38.644C103.718 38.8138 104.171 39.1111 104.595 39.1111C104.624 39.1111 104.666 39.1111 104.694 39.1111C105.331 39.9745 105.841 40.9087 106.039 41.8713C104.34 41.9845 102.783 41.8147 101.198 41.1777C99.6411 40.5549 98.2256 39.6207 97.0224 38.4741C94.786 36.3509 93.2997 33.619 92.0399 30.8306C92.5354 31.0429 93.0449 31.241 93.5403 31.4534L93.5403 31.4251ZM91.4313 30.5475C92.5212 33.7606 94.2056 36.818 96.6969 39.1394C99.1315 41.4042 102.727 43.1169 106.124 42.7064C106.124 43.3717 105.997 44.0511 105.643 44.7164C105.501 44.9712 105.345 45.1976 105.176 45.4241C104.496 45.1693 103.803 44.9995 103.123 44.7447C102.345 44.4474 101.58 44.1219 100.844 43.7539C99.358 43.0178 97.9425 42.1544 96.6261 41.1494C94.0074 39.1536 91.8276 36.6906 90.1007 33.888C89.1948 32.4159 88.4305 30.8447 87.836 29.2311C89.0391 29.6416 90.2423 30.0945 91.4313 30.5616L91.4313 30.5475ZM83.4338 27.8439C84.7502 28.2119 86.0666 28.6083 87.3547 29.0471C89.3081 35.4875 94.0358 40.9654 99.9383 44.1219C100.759 44.5607 101.609 44.957 102.472 45.2967C103.151 45.5657 103.859 45.8629 104.581 46.0469C102.713 47.7313 99.7401 47.8163 97.3621 47.2925C97.2064 47.2642 97.0507 47.2076 96.895 47.1793C93.9933 40.5832 87.5246 35.6856 80.5038 34.3834C78.3664 33.9871 76.1583 33.8597 73.9926 34.1428C70.7228 31.4392 67.5663 28.58 64.3957 25.7632C64.1267 25.5225 63.8578 25.296 63.5889 25.0696C70.2841 25.1262 76.9793 26.0463 83.4338 27.8298L83.4338 27.8439ZM144.866 8.94729C144.059 9.95228 143.195 10.929 142.289 11.849C141.483 12.67 140.633 13.4627 139.756 14.2129C139.798 12.67 140.378 11.1554 141.454 10.0231C142.105 9.34363 142.912 8.8199 143.804 8.49434C144.243 8.32448 144.71 8.21125 145.177 8.14047C145.29 8.12632 145.418 8.11216 145.531 8.09801C145.318 8.40941 145.092 8.69251 144.88 8.96145L144.866 8.94729ZM145.871 7.48935C145.106 7.41858 144.243 7.64506 143.592 7.87153C142.615 8.21125 141.709 8.77744 140.973 9.51349C139.6 10.9007 138.906 12.8682 139.005 14.8215C137.491 16.053 135.877 17.1712 134.179 18.1479C134.32 15.1329 135.58 12.1321 137.703 9.99475C138.864 8.83406 140.251 7.92815 141.766 7.30534C143.181 6.725 144.625 6.51268 146.125 6.35697C146.154 6.73915 146.055 7.13548 145.871 7.48935ZM145.955 5.67754C145.998 5.74832 146.012 5.83325 146.04 5.90402C143.577 5.74832 140.945 6.73915 138.949 8.0697C136.627 9.61257 134.844 11.9481 133.952 14.5809C133.513 15.8973 133.301 17.2561 133.287 18.6292C131.985 19.3227 130.626 19.9314 129.239 20.4268C129.026 20.4976 128.828 20.5684 128.616 20.6391C128.729 17.4402 129.819 14.2978 131.702 11.7075C133.797 8.8199 136.882 6.75331 140.322 5.81909C142.091 5.35198 143.875 5.26706 145.686 5.2529C145.786 5.38029 145.885 5.50769 145.97 5.64923L145.955 5.67754ZM139.727 4.03559C140.959 3.87989 142.275 3.83742 143.493 4.12052C144.03 4.24791 144.611 4.46023 145.092 4.78579C143.648 4.64425 142.176 4.78579 140.775 5.0972C138.977 5.47938 137.25 6.15881 135.665 7.09302C132.438 9.00391 129.946 12.0472 128.672 15.5717C128.05 17.2986 127.738 19.1104 127.696 20.9364C124.766 21.814 121.708 22.2103 118.665 22.1254C120.01 21.729 121.185 20.8939 122.02 19.7615C122.911 18.5442 123.534 17.0863 124.072 15.685C124.652 14.1421 125.077 12.5568 125.332 10.929C129.72 7.95646 134.363 4.68671 139.727 4.03559ZM111.474 20.0588C114.447 18.1904 117.377 16.2653 120.307 14.3119C120.265 14.5384 120.222 14.7507 120.151 14.9772C119.981 15.5009 119.755 16.0105 119.458 16.4635C118.863 17.3694 118.056 18.1337 117.136 18.6858C116.089 19.3227 114.9 19.6908 113.697 19.8889C113.116 19.988 112.522 20.0305 111.942 20.0588C111.8 20.0588 111.644 20.0588 111.489 20.0588L111.474 20.0588ZM111.262 20.8798C111.545 20.8798 111.814 20.8373 112.041 20.8373C112.72 20.809 113.399 20.7382 114.065 20.6108C115.339 20.3702 116.584 19.9455 117.688 19.2378C118.665 18.615 119.514 17.7657 120.109 16.7607C120.59 15.9539 121.057 14.8498 120.958 13.8732C122.175 13.0663 123.379 12.2454 124.582 11.4385C124.256 12.6842 123.874 13.9156 123.407 15.1188C122.897 16.4069 122.345 17.7374 121.524 18.8698C120.76 19.9172 119.797 20.7241 118.566 21.1345C118.014 21.3186 117.405 21.4176 116.825 21.4176C116.23 21.4176 115.608 21.2195 115.027 21.3044C114.801 21.3327 114.702 21.545 114.744 21.729C113.569 21.5167 112.395 21.2478 111.262 20.8798ZM81.707 20.6533C80.518 21.0638 79.2723 21.4318 78.1116 21.9272C77.9135 21.9414 77.7294 21.9697 77.5313 21.9838C77.5313 21.8706 77.5596 21.7574 77.5737 21.6441C77.6445 21.3327 77.7578 21.0213 77.9276 20.7382C78.2532 20.1579 78.7769 19.6625 79.3856 19.3935C79.9942 19.1387 80.6878 19.0963 81.3248 19.252C81.6645 19.3369 81.9901 19.4501 82.2873 19.6341C82.5704 19.804 82.811 20.0163 83.1083 20.1579C82.6412 20.3277 82.1741 20.4976 81.6928 20.6533L81.707 20.6533ZM83.3631 20.0729C83.3631 20.0729 83.3914 19.9739 83.3631 19.9314C83.1083 19.2095 82.1741 18.7849 81.4946 18.615C80.702 18.4168 79.8385 18.4593 79.0742 18.7849C78.324 19.1104 77.7012 19.6908 77.3049 20.3843C77.0501 20.8231 76.7669 21.4884 76.7811 22.0688C76.0733 22.1395 75.3656 22.2103 74.6579 22.2811C74.9551 20.2711 76.2574 18.4735 78.2674 17.8223C80.5463 17.0863 82.7403 18.1196 84.3398 19.7191C84.0142 19.8323 83.6886 19.9739 83.3631 20.0871L83.3631 20.0729ZM100.561 10.2495C98.7493 12.0755 96.6827 13.6467 94.4887 14.9914C93.4129 15.6567 92.3089 16.2512 91.1765 16.8032C92.0258 14.8781 93.2572 13.1654 94.9558 11.8915C96.7535 10.5609 98.9474 9.81074 101.184 9.58426C100.972 9.81074 100.773 10.0231 100.561 10.2354L100.561 10.2495ZM103.095 7.20626C103.095 7.20626 103.024 7.30534 102.996 7.36196C102.571 7.99893 102.09 8.59343 101.58 9.15962C96.5695 8.98976 91.6153 12.4011 90.129 17.242C90.129 17.2703 90.129 17.2986 90.129 17.3269C89.3364 17.6949 88.5295 18.0488 87.7369 18.3885C87.5104 16.9447 87.7369 15.6 88.388 14.2412C89.0533 12.8965 90.03 11.7075 91.134 10.7308C93.2997 8.80575 95.9891 7.54598 98.8625 7.1638C99.6693 7.05056 100.476 7.00809 101.283 7.0364C101.892 7.05056 102.5 7.1638 103.109 7.22042L103.095 7.20626ZM96.9799 2.05393C98.0415 1.82745 99.1456 1.62928 100.236 1.67175C100.236 1.72837 100.25 1.78499 100.278 1.84161C100.306 1.92653 100.32 1.99731 100.335 2.08224C100.335 2.26625 100.292 2.45026 100.207 2.60596C99.9949 3.01645 99.5703 3.21462 99.1173 3.24293C98.6219 3.28539 98.0982 3.12969 97.6735 2.88906C97.3197 2.69089 97.079 2.42195 96.9092 2.06808C96.9375 2.06808 96.9658 2.05393 96.9941 2.05393L96.9799 2.05393ZM78.9892 13.5334C78.7061 13.4768 78.4372 13.3777 78.1683 13.2928C79.7819 11.4385 81.5796 9.75412 83.5471 8.28202C84.3681 9.72581 84.1416 11.5093 82.8393 12.6134C82.1741 13.1654 81.3672 13.5051 80.5038 13.6042C79.9942 13.6608 79.4847 13.6325 78.9892 13.5476L78.9892 13.5334ZM76.9934 14.7224C77.2199 14.4252 77.4322 14.1279 77.6728 13.8448C78.0833 14.043 78.6071 14.1279 79.0176 14.1987C79.5696 14.2836 80.1499 14.2978 80.702 14.227C81.707 14.0855 82.6553 13.6467 83.3914 12.9389C84.6795 11.6933 85.1324 9.44271 83.901 8.01308C84.5096 7.56013 85.1324 7.13549 85.7694 6.725C86.7744 9.13131 86.0525 11.934 84.0283 13.5901C82.0325 15.2179 79.3714 15.4868 76.9934 14.7224ZM72.3648 22.4934C73.4547 19.9314 74.8702 17.5392 76.5405 15.3169C79.2865 16.237 82.3864 15.9539 84.6228 13.9864C86.746 12.118 87.5387 8.98976 86.1799 6.48437C87.6095 5.59262 89.0957 4.7858 90.6386 4.10637C92.4787 3.29955 94.4038 2.66258 96.3713 2.19547C96.4421 2.5635 96.6827 2.90321 96.9658 3.14384C97.3621 3.48356 97.8575 3.71003 98.353 3.82327C99.3579 4.0639 100.547 3.72419 100.915 2.66258C101 2.4078 101.057 2.01146 100.972 1.71421C100.986 1.71421 101.014 1.71421 101.028 1.71421C102.161 1.89822 103.35 2.5635 103.817 3.68172C104.241 4.70087 103.902 5.79078 103.378 6.725C102.104 6.30036 100.575 6.34282 99.2872 6.45606C97.7443 6.58345 96.2156 6.96563 94.7718 7.53182C91.8418 8.69251 89.209 10.7733 87.6803 13.5759C86.8451 15.1046 86.3356 17.0155 86.831 18.7282C86.6328 18.8132 86.4346 18.8981 86.2365 18.9689C85.7411 19.167 85.2315 19.3369 84.7361 19.5351C83.5754 17.2845 80.4755 16.421 78.1541 17.1288C75.9035 17.8082 74.1908 19.988 73.936 22.3235C73.4123 22.3802 72.8886 22.4226 72.3507 22.4793L72.3648 22.4934ZM119.203 29.8963C120.732 30.2644 122.175 31.142 123.11 32.3876C124.03 33.619 124.412 35.2044 124.27 36.7189C122.501 34.5108 120.817 32.2319 119.203 29.8822L119.203 29.8963ZM126.408 39.3376C125.926 38.7714 125.473 38.191 125.006 37.6107C125.417 35.6573 125.035 33.6049 123.846 31.9912C122.657 30.3776 120.802 29.3868 118.821 29.316C118.226 28.4384 117.632 27.5608 117.066 26.6691C117.419 26.6691 117.787 26.5983 118.099 26.5841C118.792 26.5841 119.472 26.6407 120.151 26.7681C121.524 27.0371 122.855 27.6033 123.987 28.4101C126.365 30.1087 127.767 32.8972 127.781 35.813C127.781 37.2144 127.455 38.5732 126.861 39.8188C126.719 39.649 126.563 39.4933 126.422 39.3234L126.408 39.3376ZM141.511 41.0786C141.398 41.0361 141.27 40.9937 141.157 40.9371C140.662 40.6964 140.18 40.4275 139.727 40.1019C138.85 39.4933 138.071 38.7572 137.406 37.9221C136.203 36.4075 135.481 34.6807 135.113 32.8122C137.618 35.2468 139.784 38.0353 141.497 41.0786L141.511 41.0786ZM134.547 32.2602C134.589 34.4683 135.523 36.634 136.882 38.3467C137.59 39.2385 138.439 40.0453 139.373 40.6823C140.152 41.2202 141.072 41.7439 142.006 42.027C142.176 42.3667 142.374 42.6922 142.53 43.032C142.997 43.9945 143.422 44.9995 143.804 46.0045C140.704 45.1127 137.887 43.2584 135.877 40.7247C134.731 39.281 133.867 37.6248 133.287 35.8697C132.707 34.1003 132.593 32.2885 132.409 30.4625C133.131 31.0429 133.839 31.6374 134.518 32.2743L134.547 32.2602ZM131.461 29.684C131.687 29.8539 131.9 30.0237 132.126 30.2077C132.084 30.2361 132.041 30.2785 132.027 30.3351C131.744 31.8355 131.956 33.4067 132.31 34.893C132.664 36.3934 133.216 37.8372 133.966 39.1677C135.41 41.7014 137.519 43.7822 140.039 45.226C141.327 45.962 142.714 46.4999 144.158 46.8679C144.667 48.3117 145.106 49.7838 145.418 51.2842C145.545 51.8928 145.715 52.6572 145.418 53.2376C138.34 48.9911 131.22 43.3717 129.564 34.808C129.14 32.6424 129.253 30.5192 129.536 28.3535C130.201 28.7781 130.852 29.2169 131.489 29.684L131.461 29.684ZM129.111 28.0987C128.432 29.9813 128.404 32.0479 128.658 34.0154C128.927 36.1244 129.607 38.1769 130.541 40.0736C132.466 44.0086 135.566 47.2218 139.005 49.8829C140.846 51.2983 142.799 52.5723 144.795 53.7754C144.427 53.917 144.002 53.917 143.62 53.8745C142.176 53.7047 140.789 52.9545 139.6 52.1476C137.109 50.4632 134.915 48.2692 132.777 46.1743C130.923 44.3625 129.168 42.4516 127.455 40.5124C128.715 37.8655 128.743 34.5957 127.597 31.9205C126.408 29.1461 123.902 27.1079 121.001 26.3293C120.18 26.117 119.344 25.9896 118.509 25.9896C118.042 25.9896 117.264 25.933 116.754 26.1736C116.358 25.565 115.976 24.9563 115.593 24.3335C115.409 24.0363 115.225 23.7249 115.041 23.4276C116.683 23.5975 118.339 23.7815 119.981 23.9797C123.195 24.928 126.28 26.3152 129.125 28.0845L129.111 28.0987ZM171.08 16.7466C169.212 18.4451 166.947 19.6341 164.64 20.6108C164.725 20.1296 164.88 19.6766 165.192 19.2237C165.659 18.5442 166.282 17.9922 167.004 17.5959C167.796 17.1571 168.688 16.9164 169.58 16.7466C170.146 16.6475 170.726 16.605 171.307 16.5342C171.236 16.605 171.151 16.6758 171.08 16.7466ZM171.873 15.9256C171.009 15.8973 170.103 16.0247 169.282 16.1804C168.306 16.3644 167.329 16.6616 166.48 17.1854C165.22 17.9497 163.989 19.3794 163.875 20.9364C161.78 21.7857 159.629 22.5076 157.449 23.1304C157.902 21.7574 158.383 20.4693 159.247 19.2661C160.181 17.978 161.356 16.874 162.743 16.0954C164.258 15.232 165.956 14.7507 167.683 14.6375C168.575 14.5809 169.466 14.6234 170.344 14.7649C171.009 14.8781 171.675 15.1329 172.354 15.2603C172.213 15.5009 172.043 15.7274 171.873 15.9397L171.873 15.9256ZM172.878 13.3777C172.878 13.4485 172.892 13.5193 172.892 13.6042C172.892 14.0289 172.765 14.4252 172.595 14.8215C172.142 14.5667 171.59 14.4252 171.094 14.3119C170.372 14.1421 169.622 14.043 168.886 14.0005C167.457 13.9439 166.027 14.1279 164.654 14.5667C162.12 15.3736 159.898 17.0863 158.412 19.2944C157.619 20.4693 156.883 21.8989 156.671 23.3144C156.671 23.3144 156.671 23.3285 156.671 23.3427C156.586 23.371 156.501 23.3852 156.416 23.4135C154.533 23.9089 152.636 24.3052 150.711 24.6166C153.358 17.9073 159.615 12.9248 166.876 12.2595C167.952 12.1604 169.028 12.1463 170.089 12.3161C170.67 12.4152 171.222 12.5568 171.76 12.7974C172.142 12.9672 172.51 13.1796 172.878 13.3777ZM139.105 25.4093C145.644 18.3461 154.547 13.491 164.031 11.849C165.234 11.6367 166.437 11.481 167.641 11.3819C168.716 11.2828 169.835 11.1837 170.896 11.4385C171.618 11.6084 172.269 12.0047 172.623 12.5992C172.099 12.2312 171.448 12.0189 170.854 11.8632C169.919 11.6225 168.943 11.5518 167.98 11.5659C166.055 11.5942 164.13 11.9623 162.304 12.5851C158.695 13.8024 155.467 16.053 153.019 18.9689C151.617 20.625 150.471 22.5359 149.749 24.5883C149.721 24.6591 149.721 24.7299 149.721 24.8006C148.871 24.928 148.008 25.0413 147.144 25.1403C144.752 25.4093 142.346 25.5225 139.94 25.5791C139.657 25.5367 139.373 25.4801 139.09 25.4376L139.105 25.4093ZM175.043 50.1377C175.482 50.8312 175.893 51.539 176.289 52.2609C173.586 51.0436 171.193 49.2034 169.311 46.9104C168.334 45.7072 167.485 44.405 166.82 43.0037C166.494 42.3242 166.197 41.6165 165.942 40.8946C165.815 40.5266 165.715 40.1444 165.602 39.7764C169.254 42.7206 172.51 46.1743 175.043 50.1377ZM162.616 37.5116C163.38 38.0353 164.116 38.6015 164.852 39.1677C164.951 40.2152 165.362 41.2909 165.73 42.2251C166.197 43.3858 166.791 44.4899 167.471 45.5374C168.858 47.6747 170.655 49.5432 172.722 51.0153C173.883 51.8362 175.143 52.5298 176.459 53.0818C176.544 53.1243 176.629 53.1102 176.7 53.0818C176.869 53.4074 177.039 53.733 177.195 54.0585C177.506 54.7096 177.789 55.3749 178.044 56.0543C178.242 56.6064 178.455 57.3 178.257 57.8803C171.137 54.6247 165.404 48.5665 162.248 41.4183C161.795 40.3992 161.398 39.3376 161.059 38.276C160.832 37.5541 160.662 36.8039 160.45 36.082C161.172 36.5491 161.894 37.0162 162.616 37.5116ZM159.87 35.714C159.969 36.5066 160.209 37.2993 160.436 38.0495C160.719 39.0262 161.059 39.9887 161.441 40.9371C162.205 42.8338 163.153 44.6456 164.243 46.3583C166.437 49.7979 169.282 52.8412 172.566 55.2617C174.222 56.479 176.006 57.5406 177.846 58.4323C176.954 59.1542 175.227 58.8145 174.265 58.6164C174.024 58.5739 173.784 58.5031 173.543 58.4465C167.032 53.6339 161.809 47.2076 158.497 39.8047C158.015 38.7148 157.562 37.6107 157.152 36.4925C156.954 35.9263 156.756 35.3742 156.572 34.808C156.416 34.3268 156.359 33.7889 155.935 33.4775C155.906 33.4633 155.878 33.4775 155.864 33.4917C155.694 33.9163 155.864 34.2843 155.977 34.709C156.133 35.2327 156.303 35.7423 156.472 36.2518C156.812 37.271 157.208 38.2901 157.619 39.2951C158.44 41.2485 159.402 43.131 160.478 44.9429C162.63 48.5806 165.263 51.9212 168.292 54.8653C169.339 55.8845 170.443 56.847 171.576 57.7529C171.08 57.5406 170.599 57.3141 170.118 57.0593C167.471 55.6155 165.192 53.549 163.083 51.4116C160.832 49.1468 158.751 46.7122 156.784 44.1927C153.061 39.4083 149.806 34.2843 146.592 29.1461C151.164 30.9863 155.651 33.0953 159.841 35.6998L159.87 35.714Z" fill="#FFCDD9"/>
</svg>
