<svg width="25" height="25" viewBox="0 0 25 25" fill="none" xmlns="http://www.w3.org/2000/svg">
<g id="image 13 (traced)" clip-path="url(#clip0_154_697)">
<g id="Black">
<path id="Vector" d="M16.9189 0.859373C15.9912 1.06445 15.166 1.5039 14.4775 2.1582C13.7646 2.83691 13.3545 3.50586 13.0518 4.47265L12.9199 4.90722L12.9004 7.23633C12.8857 9.53125 12.8857 9.56543 12.9834 9.66308C13.0664 9.74609 13.1494 9.76562 13.374 9.76562H13.6572L13.7939 10.1416C13.8672 10.3516 13.999 10.6787 14.082 10.8643L14.2383 11.2061L13.9941 11.084L13.7451 10.9619L7.87598 10.9473C2.02148 10.9375 2.00684 10.9375 1.7334 11.04C1.37207 11.1768 1.02051 11.5234 0.883789 11.8896C0.78125 12.1582 0.78125 12.2266 0.78125 16.0156C0.78125 19.8047 0.78125 19.873 0.883789 20.1416C1.02051 20.5029 1.37207 20.8545 1.7334 20.9912C1.9873 21.0889 2.10449 21.0937 3.4668 21.0937C4.27246 21.0937 4.93164 21.1035 4.93164 21.1182C4.93164 21.1328 4.79004 21.7139 4.61426 22.4121C4.43848 23.1104 4.29688 23.7549 4.29688 23.8525C4.29688 23.96 4.33594 24.0625 4.39453 24.1211C4.49219 24.2187 4.55566 24.2187 7.8125 24.2187C11.0693 24.2187 11.1328 24.2187 11.2305 24.1211C11.3232 24.0283 11.3281 23.96 11.3281 23.0469C11.3281 22.1338 11.3232 22.0654 11.2305 21.9727C11.1768 21.9189 11.0791 21.875 11.0107 21.875C10.8691 21.875 10.8643 21.8408 10.9521 21.4111L11.0156 21.1182L11.9971 21.1035L12.9834 21.0937L12.9443 21.2256C12.9199 21.3037 12.7246 21.9727 12.5049 22.7246C12.2803 23.4717 12.1191 24.1016 12.1436 24.1211C12.2119 24.1846 12.8662 24.3604 12.8955 24.3262C12.9102 24.3066 13.0957 23.6914 13.3105 22.9639C13.5205 22.2314 13.7061 21.6309 13.7207 21.6309C13.7354 21.6357 13.8037 21.7285 13.8818 21.8457L14.0137 22.0605V23.1348C14.0137 23.7305 14.0332 24.2236 14.0576 24.2383C14.082 24.2529 14.2676 24.2529 14.4727 24.2334L14.8486 24.2041L14.834 22.9541L14.8193 21.7041L14.6387 21.4551C14.5361 21.3184 14.4189 21.1133 14.3701 21.001L14.2773 20.791L14.4434 20.6201C14.5313 20.5273 14.6533 20.3564 14.7119 20.2441C14.8193 20.0439 14.8193 20.0342 14.834 17.0508L14.8486 14.0576L15.0732 14.0723L15.2979 14.0869L15.5029 14.751C15.7275 15.4932 15.8887 15.7812 16.2793 16.1523C16.7383 16.5869 17.3047 16.8066 17.9688 16.8066C18.6865 16.8066 19.292 16.5479 19.7656 16.04C20.1221 15.6592 20.2539 15.4004 20.4639 14.6533L20.6299 14.0625H20.8594H21.0938V16.0937V18.125L21.3086 18.4521C21.6553 18.9795 21.748 19.2725 21.748 19.873C21.7529 20.2295 21.7285 20.4687 21.6699 20.6592L21.582 20.9326L20.9814 20.9912L20.376 21.0547L19.9121 20.8203L19.4482 20.5908L19.8145 20.0244C20.2686 19.3262 20.3125 19.2187 20.3125 18.8477C20.3125 18.3496 20.0879 17.9932 19.6533 17.793C19.1797 17.5684 18.54 17.6855 18.208 18.0469C18.1348 18.125 17.4365 19.1748 16.6553 20.3809C15.4834 22.1924 15.2344 22.6074 15.2344 22.749C15.2344 23.0518 15.4834 23.9893 15.5957 24.1162C15.6885 24.2187 15.7227 24.2285 16.0156 24.1943C16.1914 24.1797 16.3867 24.165 16.4551 24.1699C16.5234 24.1797 17.9834 24.1846 19.7022 24.1895L22.8272 24.1943L23.1201 24.0527C23.4961 23.8672 23.8672 23.4961 24.0527 23.1201L24.1943 22.8271L24.209 19.0234C24.2188 15.6543 24.2139 15.1855 24.1406 14.9463C23.9355 14.2187 23.3252 13.5986 22.6025 13.374C22.3438 13.2959 22.1484 13.2812 21.1133 13.2812H19.9219V12.8906V12.5H20.5957C21.0596 12.5 21.2939 12.4805 21.3477 12.4365C21.543 12.29 22.1484 11.1475 22.4365 10.4004C22.6367 9.88769 22.8223 9.19433 22.9248 8.62304C22.9785 8.30566 23.0322 8.13965 23.125 8.01758C23.5254 7.49512 23.5449 6.66015 23.1738 6.10351C23.0762 5.96191 23.0518 5.84961 23.0322 5.41992C22.9736 4.23828 22.4365 3.10058 21.5186 2.21191C20.8594 1.57226 20.2539 1.21582 19.3555 0.947264C18.9746 0.830076 18.8232 0.815428 18.0908 0.800779C17.4707 0.786131 17.1729 0.800779 16.9189 0.859373ZM18.8916 1.68945C20.459 2.0459 21.7041 3.26172 22.0996 4.82422C22.2705 5.48828 22.2754 5.46875 21.9238 5.46875C21.665 5.46875 21.5869 5.44433 21.3477 5.29297C20.5273 4.77051 20.0391 4.09668 19.6777 3.00781C19.5898 2.74414 19.4775 2.48535 19.4287 2.43652C19.3262 2.33398 19.0479 2.31445 18.9014 2.39258C18.7891 2.45117 18.8184 2.36816 18.335 3.90625C17.8272 5.51269 17.8223 5.53222 17.5684 6.02051C17.041 7.03125 16.1865 7.87597 15.1611 8.38867C14.7656 8.58887 14.165 8.80371 13.8428 8.86719L13.6719 8.89648V7.46582C13.6768 5.01953 13.7744 4.49219 14.4336 3.48633C15.2344 2.26074 16.7334 1.5039 18.1885 1.59179C18.4033 1.60644 18.7207 1.65039 18.8916 1.68945ZM19.5752 4.76074C19.8096 5.10254 20.4834 5.75195 20.8203 5.95703L21.1035 6.12793L21.0791 7.39746C21.0498 8.77441 21.0156 8.98926 20.752 9.5459C20.3662 10.3467 19.585 10.9814 18.7109 11.2061C18.3496 11.2988 17.6465 11.3086 17.3047 11.2256C17.1729 11.1963 16.8799 11.084 16.6504 10.9717C16.3135 10.8154 16.1621 10.7031 15.8447 10.3809C15.6006 10.1367 15.3906 9.86816 15.2881 9.67773C15.2002 9.50683 15.1367 9.36035 15.1465 9.35058C15.1514 9.3457 15.3027 9.26758 15.4785 9.17969C16.8018 8.52051 17.8857 7.40234 18.4766 6.08398C18.5889 5.83984 18.7842 5.2832 18.9209 4.84863L19.1602 4.05762L19.2871 4.28711C19.3555 4.41406 19.4873 4.62402 19.5752 4.76074ZM22.2559 6.39648C22.7246 6.68457 22.7246 7.37793 22.2559 7.66601C22.168 7.71972 22.0459 7.76367 21.9873 7.76367C21.875 7.76367 21.875 7.75879 21.875 7.03125C21.875 6.30371 21.875 6.29883 21.9873 6.29883C22.0459 6.29883 22.168 6.34277 22.2559 6.39648ZM22.0459 8.76953C21.9238 9.44336 21.5039 10.5664 21.1279 11.2305L20.8643 11.6943L20.3955 11.709C20.0977 11.7187 19.9219 11.7041 19.9219 11.6699C19.9219 11.6455 20.0049 11.5723 20.1074 11.5039C21.0059 10.9326 21.6943 9.87793 21.8506 8.82324C21.8799 8.63769 21.9043 8.59375 21.9824 8.59375C22.0703 8.59375 22.0752 8.61328 22.0459 8.76953ZM15.7813 11.4502C16.0938 11.6455 16.084 11.7187 15.752 11.7187H15.4834L15.3174 11.4355C15.2246 11.2842 15.0928 11.0449 15.0195 10.9033L14.8926 10.6494L15.2246 10.9766C15.4053 11.1572 15.6543 11.3721 15.7813 11.4502ZM13.3984 11.7676C13.6377 11.8213 13.8135 11.9482 13.9404 12.1631C14.0332 12.3242 14.0381 12.4316 14.0527 15.7959C14.0625 17.7002 14.0527 19.375 14.0381 19.5166C14.0039 19.8193 13.8574 20.0488 13.623 20.1855C13.457 20.2832 13.3691 20.2881 11.4648 20.3027C9.57031 20.3174 9.47266 20.3125 9.47266 20.2295C9.47266 20.1807 9.54102 19.624 9.61914 18.9941C9.79492 17.6123 9.79981 17.417 9.66797 17.2852C9.5752 17.1924 9.50684 17.1875 7.82227 17.1875C6.41602 17.1875 6.05469 17.2021 5.98145 17.2559C5.91309 17.3047 5.7959 17.7002 5.51758 18.8037L5.1416 20.2881H3.65723C2.24609 20.2881 2.16309 20.2832 2.00195 20.1855C1.76758 20.0488 1.62109 19.8193 1.58691 19.5166C1.57227 19.375 1.5625 17.7002 1.57227 15.7959C1.58691 12.4316 1.5918 12.3242 1.68457 12.1631C1.80664 11.958 1.9873 11.8164 2.20215 11.7676C2.43652 11.7139 13.1641 11.709 13.3984 11.7676ZM17.1875 12.0557C17.6221 12.1533 18.6182 12.1143 19.0576 11.9824C19.1357 11.958 19.1406 12.0166 19.1406 12.7588C19.1406 13.5107 19.1455 13.5693 19.2529 13.7256C19.3115 13.8184 19.4531 13.9355 19.5605 13.9941L19.7607 14.0967L19.6289 14.541C19.4629 15.0977 19.2822 15.3955 18.9697 15.6348C18.6279 15.8936 18.335 15.9814 17.8809 15.957C17.4316 15.9375 17.1191 15.8008 16.8164 15.498C16.5576 15.2393 16.4697 15.0732 16.3086 14.5264L16.1816 14.0918L16.3818 13.9893C16.4893 13.9355 16.626 13.8184 16.6846 13.7256C16.792 13.5693 16.7969 13.5107 16.7969 12.7588C16.7969 12.0166 16.8018 11.958 16.8848 11.9824C16.9287 11.9971 17.0654 12.0312 17.1875 12.0557ZM15.5273 12.5H16.0156V12.8906V13.2812H15.4297H14.8438V12.793V12.3047L14.9414 12.4023C15.0244 12.4853 15.1025 12.5 15.5273 12.5ZM22.5586 14.2578C22.8125 14.3848 23.1104 14.6875 23.2373 14.9316C23.4131 15.2783 23.4375 15.6641 23.4375 18.2227C23.4375 20.5371 23.4326 20.6982 23.3545 20.7227C23.3057 20.7324 23.0908 20.7617 22.8809 20.7812L22.4951 20.8154L22.5293 20.6982C22.5488 20.6348 22.5781 20.3613 22.5928 20.0879C22.6367 19.3311 22.4365 18.5986 22.0264 17.998L21.875 17.7783V15.9375V14.0967L22.1143 14.126C22.2461 14.1406 22.4463 14.1992 22.5586 14.2578ZM8.88672 18.0762C8.88184 18.1396 8.73535 19.3652 8.55469 20.8008L8.22266 23.4131L6.72363 23.4277C5.89844 23.4326 5.22461 23.4277 5.22461 23.4131C5.22461 23.3789 6.53809 18.1104 6.56738 18.0273C6.58203 17.9834 6.86035 17.9687 7.73926 17.9687H8.88672V18.0762ZM19.3701 18.6133C19.5557 18.7891 19.5117 18.9258 19.0576 19.6387L18.6279 20.3027L18.2129 20.3857C17.9834 20.4297 17.749 20.4785 17.6855 20.4932C17.5928 20.5127 17.6855 20.3467 18.1885 19.5752C18.5303 19.0527 18.8428 18.5986 18.8867 18.5645C19.0088 18.4717 19.2432 18.4961 19.3701 18.6133ZM10.1563 21.1475C10.1563 21.1719 10.1221 21.3477 10.0781 21.5381L10 21.875H9.63379H9.26758L9.30176 21.5186C9.32129 21.3281 9.3457 21.1523 9.36035 21.1279C9.39453 21.0742 10.1563 21.084 10.1563 21.1475ZM19.4336 21.5088C20.0147 21.8018 20.21 21.875 20.3809 21.875C20.498 21.875 21.1816 21.8066 21.8994 21.7285C22.6172 21.6455 23.2568 21.582 23.3252 21.582H23.4522L23.4229 22.0361C23.4082 22.2852 23.3594 22.5781 23.3154 22.6855C23.208 22.9395 22.9736 23.1836 22.7051 23.3105C22.4902 23.4082 22.4219 23.4131 19.8389 23.4277L17.1875 23.4424V22.4414V21.4404L17.4463 21.3916C17.583 21.3623 17.9004 21.2939 18.1397 21.2451C18.3838 21.1963 18.6084 21.1523 18.6426 21.1475C18.6768 21.1426 19.0332 21.3086 19.4336 21.5088ZM16.3965 23.2666C16.3867 23.2764 16.3379 23.291 16.2891 23.3008C16.2109 23.3105 16.1816 23.2715 16.1328 23.0811C16.0742 22.8516 16.0791 22.8369 16.2256 22.5977L16.3818 22.3486L16.3965 22.8027C16.4014 23.0518 16.4014 23.2617 16.3965 23.2666ZM10.5469 23.0469V23.4375H9.80957H9.07227L9.10645 23.0811C9.12598 22.8906 9.15039 22.7148 9.16504 22.6904C9.17481 22.6709 9.49219 22.6562 9.86817 22.6562H10.5469V23.0469Z" fill="#991850"/>
<path id="Vector_2" d="M19.3066 6.41602C19.1602 6.5625 19.1406 6.61133 19.1406 6.83594C19.1406 7.06055 19.1602 7.10938 19.3066 7.25586C19.4531 7.40234 19.502 7.42188 19.7266 7.42188C19.9512 7.42188 20 7.40234 20.1465 7.25586C20.293 7.10938 20.3125 7.06055 20.3125 6.83594C20.3125 6.61133 20.293 6.5625 20.1465 6.41602C20 6.26953 19.9512 6.25 19.7266 6.25C19.502 6.25 19.4531 6.26953 19.3066 6.41602Z" fill="#991850"/>
<path id="Vector_3" d="M16.7969 8.74023C16.7969 9.08691 17.0947 9.50195 17.4561 9.67285C17.583 9.73145 17.7637 9.76562 17.9688 9.76562C18.1738 9.76562 18.3545 9.73145 18.4814 9.67285C18.8428 9.50195 19.1406 9.08691 19.1406 8.74023V8.59375H18.7354C18.335 8.59375 18.3301 8.59375 18.2764 8.74023C18.2422 8.82812 18.1738 8.89648 18.0957 8.91602C17.8906 8.96484 17.7197 8.89648 17.6611 8.74023C17.6074 8.59375 17.6025 8.59375 17.2021 8.59375H16.7969V8.74023Z" fill="#991850"/>
<path id="Vector_4" d="M2.34375 12.8906V13.2812H3.125H3.90625V12.8906V12.5H3.125H2.34375V12.8906Z" fill="#991850"/>
<path id="Vector_5" d="M4.6875 12.8906V13.2812H5.46875H6.25V12.8906V12.5H5.46875H4.6875V12.8906Z" fill="#991850"/>
<path id="Vector_6" d="M7.03125 12.8906V13.2812H7.8125H8.59375V12.8906V12.5H7.8125H7.03125V12.8906Z" fill="#991850"/>
<path id="Vector_7" d="M9.375 12.8906V13.2812H10.1562H10.9375V12.8906V12.5H10.1562H9.375V12.8906Z" fill="#991850"/>
<path id="Vector_8" d="M11.7188 12.8906V13.2812H12.5H13.2812V12.8906V12.5H12.5H11.7188V12.8906Z" fill="#991850"/>
</g>
</g>
<defs>
<clipPath id="clip0_154_697">
<rect width="25" height="25" fill="white"/>
</clipPath>
</defs>
</svg>
