<svg width="25" height="21" viewBox="0 0 25 21" fill="none" xmlns="http://www.w3.org/2000/svg">
<g id="image 14 (traced)" clip-path="url(#clip0_154_720)">
<g id="Black">
<path id="Vector" d="M6.00499 1.005C5.94499 1.05 5.89999 1.45501 5.89999 1.905V2.7H3.66499C2.41999 2.7 1.38499 2.76001 1.32499 2.835C1.27999 2.91001 1.51999 3.69001 1.86499 4.57501L2.47999 6.16501L2.08999 6.52501C1.77499 6.82501 1.69999 7.02001 1.69999 7.65001C1.69999 8.19001 1.77499 8.47501 1.98499 8.68501C2.26999 8.97001 2.26999 9.00001 1.42999 10.83L0.574991 12.675L0.529991 14.73C0.454991 17.73 0.919991 18.87 2.62999 19.71L3.40999 20.1H12.455H21.5V19.245V18.39L22.295 19.17C22.73 19.605 23.15 19.95 23.24 19.95C23.51 19.95 24.5 18.825 24.5 18.51C24.5 18.345 24.005 17.715 23.315 17.04C22.25 15.975 22.145 15.825 22.265 15.495C22.595 14.61 22.235 12.585 21.665 12.225C21.545 12.165 21.5 10.905 21.5 7.92001L21.515 3.70501L20.12 2.29501L18.725 0.900005H12.41C8.94499 0.900005 6.04999 0.945005 6.00499 1.005ZM18.2 2.85001V4.20001H19.55H20.9V7.87501V11.565L20.435 11.31C20.075 11.13 19.67 11.085 18.86 11.13C17.45 11.19 16.67 11.685 16.055 12.885C15.2 14.595 15.815 16.545 17.495 17.43C18.11 17.745 18.845 17.805 20.375 17.67L20.825 17.625L20.87 18.555L20.915 19.5H13.775H6.64999V10.5V1.50001H12.425H18.2V2.85001ZM20.15 3.55501C20.15 3.585 19.85 3.60001 19.475 3.60001H18.8V2.89501V2.19001L19.475 2.85001C19.85 3.21 20.15 3.52501 20.15 3.55501ZM5.89999 4.80001V6.31501L4.60999 6.27001L3.31999 6.22501L2.80999 4.90501C2.52499 4.17001 2.29999 3.51001 2.29999 3.43501C2.29999 3.36001 3.10999 3.3 4.09999 3.3H5.89999V4.80001ZM5.89999 7.65001V8.40001H4.39999C3.09499 8.40001 2.85499 8.35501 2.59999 8.10001C2.43499 7.93501 2.29999 7.72501 2.29999 7.65001C2.29999 7.56001 2.43499 7.36501 2.59999 7.20001C2.85499 6.94501 3.09499 6.90001 4.39999 6.90001H5.89999V7.65001ZM5.89999 11.25V13.5H5.34499C4.27999 13.5 3.34999 14.43 3.34999 15.48C3.34999 16.425 4.39999 17.4 5.40499 17.4H5.89999V18.465V19.545L4.75999 19.44C4.14499 19.38 3.46999 19.275 3.28999 19.2C2.77999 19.005 1.87999 18.18 1.60999 17.67C1.21999 16.92 1.06999 15.54 1.23499 14.1C1.35499 12.99 1.51999 12.495 2.25499 10.89L3.12499 9.00001H4.50499H5.89999V11.25ZM20.57 12.285C21.305 12.795 21.695 13.68 21.62 14.64C21.44 16.86 18.8 17.85 17.24 16.275C15.965 15 16.235 13.125 17.825 12.12C18.455 11.715 19.895 11.805 20.57 12.285ZM5.86999 15.36C5.91499 16.44 5.82499 16.65 5.25499 16.65C4.87999 16.65 4.09999 15.84 4.09999 15.45C4.09999 14.955 4.90999 14.22 5.40499 14.28C5.80999 14.325 5.82499 14.355 5.86999 15.36ZM22.67 17.595C23.51 18.45 23.585 18.57 23.375 18.75C23.165 18.93 23.015 18.825 22.175 18C21.44 17.265 21.245 16.995 21.38 16.845C21.47 16.74 21.575 16.65 21.635 16.65C21.695 16.65 22.16 17.07 22.67 17.595Z" fill="#991850"/>
<path id="Vector_2" d="M8.29999 5.09999C8.29999 5.38499 8.40499 5.39999 12.05 5.39999C15.695 5.39999 15.8 5.38499 15.8 5.09999C15.8 4.81499 15.695 4.79999 12.05 4.79999C8.40499 4.79999 8.29999 4.81499 8.29999 5.09999Z" fill="#991850"/>
<path id="Vector_3" d="M8.29999 8.09999C8.29999 8.38499 8.40499 8.39999 10.55 8.39999C12.695 8.39999 12.8 8.38499 12.8 8.09999C12.8 7.81499 12.695 7.79999 10.55 7.79999C8.40499 7.79999 8.29999 7.81499 8.29999 8.09999Z" fill="#991850"/>
<path id="Vector_4" d="M8.29999 11.1C8.29999 11.385 8.40499 11.4 11.3 11.4C14.195 11.4 14.3 11.385 14.3 11.1C14.3 10.815 14.195 10.8 11.3 10.8C8.40499 10.8 8.29999 10.815 8.29999 11.1Z" fill="#991850"/>
<path id="Vector_5" d="M8.29999 14.1C8.29999 14.385 8.40499 14.4 10.4 14.4C12.395 14.4 12.5 14.385 12.5 14.1C12.5 13.815 12.395 13.8 10.4 13.8C8.40499 13.8 8.29999 13.815 8.29999 14.1Z" fill="#991850"/>
<path id="Vector_6" d="M8.29999 17.1C8.29999 17.385 8.40499 17.4 12.05 17.4C15.695 17.4 15.8 17.385 15.8 17.1C15.8 16.815 15.695 16.8 12.05 16.8C8.40499 16.8 8.29999 16.815 8.29999 17.1Z" fill="#991850"/>
<path id="Vector_7" d="M17.87 12.57C17.615 12.72 17.45 12.945 17.45 13.155C17.45 13.56 17.825 13.605 18.26 13.275C18.62 13.005 19.445 12.99 19.835 13.23C20.06 13.365 20.18 13.365 20.36 13.215C20.705 12.93 20.66 12.795 20.15 12.525C19.565 12.225 18.38 12.24 17.87 12.57Z" fill="#991850"/>
</g>
</g>
<defs>
<clipPath id="clip0_154_720">
<rect width="25" height="21" fill="white"/>
</clipPath>
</defs>
</svg>
