<svg width="25" height="25" viewBox="0 0 25 25" fill="none" xmlns="http://www.w3.org/2000/svg">
<g id="image 15 (traced)" clip-path="url(#clip0_154_740)">
<g id="Black">
<path id="Vector" d="M3.7611 0.70798C3.5841 0.774352 3.208 1.03984 2.92039 1.2832C2.5664 1.61506 2.1903 1.7478 1.65933 1.70356C0.132777 1.57081 -0.597312 3.36285 0.597378 4.31417C0.995608 4.62391 1.39384 4.75665 1.76994 4.69028C2.12393 4.60178 2.47791 4.7124 2.78764 5.00002C3.51773 5.68586 4.44694 5.86285 5.44251 5.50886C5.90711 5.33187 6.7257 5.19913 7.23455 5.19913C8.1195 5.19913 8.16375 5.22125 8.23012 5.90709C8.27437 6.46019 8.40711 6.63718 8.73897 6.63718C9.07083 6.63718 9.20357 6.46019 9.24782 5.90709L9.31419 5.19913H11.3938H13.4735L13.5399 5.90709C13.5841 6.39382 13.739 6.65931 14.0045 6.70355C14.3142 6.76993 14.3806 6.61506 14.3806 5.99559V5.19913H16.4602H18.562L18.6284 5.90709C18.6726 6.46019 18.8053 6.63718 19.1372 6.63718C19.4691 6.63718 19.6018 6.46019 19.6461 5.90709L19.7124 5.19913H21.8142H23.8938V5.97347C23.8938 6.61506 23.9823 6.7478 24.3363 6.7478C24.7567 6.7478 24.8009 6.63718 24.7345 5.46462L24.6682 4.20355L15.9292 4.13718L7.16817 4.09294L7.14605 3.09736L7.1018 2.10179L15.885 2.05754L24.6682 1.99117L24.7345 1.50444L24.8009 0.99559L15.2213 0.929219C9.95579 0.884971 5.28764 0.774352 4.86729 0.70798C4.44694 0.619484 3.93809 0.619484 3.7611 0.70798ZM5.59738 2.03541C6.2611 2.80975 6.28322 3.58409 5.64163 4.20355C5.19915 4.66816 4.93366 4.75665 4.46906 4.64603C3.60623 4.42479 3.09738 3.89382 3.09738 3.16373C3.09738 1.90267 4.77879 1.15046 5.59738 2.03541ZM1.99118 3.11948C1.99118 3.53984 1.37171 3.7832 1.06198 3.47347C0.884989 3.29648 0.884989 3.14161 1.0841 2.89825C1.39384 2.52214 1.99118 2.67701 1.99118 3.11948Z" fill="#991850"/>
<path id="Vector_2" d="M8.56198 9.00444C8.20799 9.26993 8.18587 9.8894 8.23012 16.8142C8.29649 24.1593 8.29649 24.3363 8.73897 24.3363C9.15932 24.3363 9.18144 24.1593 9.24782 17.8319C9.29206 11.7699 9.31419 11.3496 9.69029 11.5044C11.2832 12.1682 12.4558 12.0354 13.4292 11.1283L13.9381 10.6416L14.3806 11.1283C15.3319 12.146 17.3894 12.1682 18.6062 11.1947C19.1151 10.7965 19.1372 10.7965 19.646 11.1947C21.4381 12.6106 24.2699 11.7478 24.6903 9.66816C24.823 9.04869 24.7788 8.9602 24.3806 8.9602C24.0929 8.9602 23.8275 9.22568 23.5841 9.71241C22.854 11.2611 20.9071 11.3053 19.9337 9.77878C19.2921 8.78321 18.916 8.73896 18.4735 9.60179C17.5885 11.3496 15.3319 11.3717 14.6018 9.62391C14.2478 8.76108 13.6283 8.76108 13.2744 9.62391C12.9646 10.354 12.0575 10.9513 11.239 10.9513C10.5089 10.9513 9.80091 10.3982 9.33631 9.49117C9.00445 8.82745 8.89383 8.76108 8.56198 9.00444Z" fill="#991850"/>
<path id="Vector_3" d="M13.6062 13.208C13.5399 13.3629 13.5177 15.9513 13.5399 18.9159C13.6062 23.562 13.6505 24.3363 13.9381 24.3363C14.2257 24.3363 14.2699 23.562 14.2699 18.7168C14.2699 14.4027 14.2036 13.0752 14.0045 13.0089C13.8496 12.9425 13.6726 13.031 13.6062 13.208Z" fill="#991850"/>
<path id="Vector_4" d="M18.8274 13.1416C18.6504 13.2522 18.5841 14.7788 18.6283 18.8275C18.6947 24.1593 18.7168 24.3363 19.1372 24.3363C19.5575 24.3363 19.5797 24.1593 19.646 18.7832C19.6903 14.2478 19.646 13.1859 19.4027 13.0974C19.2257 13.031 18.9823 13.0531 18.8274 13.1416Z" fill="#991850"/>
<path id="Vector_5" d="M24.0044 13.2301C23.9381 13.385 23.916 15.9513 23.9381 18.9159C24.0044 23.562 24.0487 24.3363 24.3363 24.3363C24.6239 24.3363 24.6682 23.5398 24.7345 18.6283C24.7788 13.6283 24.7567 12.9425 24.4469 12.9425C24.2478 12.9425 24.0487 13.0752 24.0044 13.2301Z" fill="#991850"/>
</g>
</g>
<defs>
<clipPath id="clip0_154_740">
<rect width="25" height="23.8938" fill="white" transform="translate(0 0.553101)"/>
</clipPath>
</defs>
</svg>
