<svg width="25" height="25" viewBox="0 0 25 25" fill="none" xmlns="http://www.w3.org/2000/svg">
<g id="image 16 (traced)" clip-path="url(#clip0_154_752)">
<path id="Vector" d="M3.07191 7.84034L3.07089 7.83778C2.85717 7.30944 2.79345 6.43321 2.92927 5.80138C3.02019 5.39789 3.18342 4.9851 3.39002 4.6428L3.07191 7.84034ZM3.07191 7.84034C3.11715 7.95436 3.16552 8.08834 3.16645 8.2449C3.16736 8.39886 3.12194 8.53457 3.07965 8.65087L3.07968 8.65088M3.07191 7.84034L3.07968 8.65088M3.07968 8.65088L3.07787 8.65566M3.07968 8.65088L3.07787 8.65566M3.07787 8.65566C2.79783 9.39732 2.78214 10.3028 3.03783 11.0575L3.03885 11.0606M3.07787 8.65566L3.03885 11.0606M3.03885 11.0606C3.25731 11.7223 3.49279 12.1007 3.94945 12.5573C4.72976 13.3376 5.66632 13.7016 6.77338 13.6578L6.77442 13.6578M3.03885 11.0606L6.77442 13.6578M6.77442 13.6578C7.10429 13.6456 7.59495 13.5469 7.87223 13.4425L7.87428 13.4418M6.77442 13.6578L7.87428 13.4418M7.87428 13.4418C7.99844 13.3958 8.1301 13.3604 8.30352 13.3745C8.44652 13.3861 8.60264 13.4313 8.78053 13.4861L8.78054 13.4861M7.87428 13.4418L8.78054 13.4861M8.78054 13.4861L8.78442 13.4873M8.78054 13.4861L8.78442 13.4873M8.78442 13.4873C9.3767 13.6764 10.1407 13.7232 10.5841 13.6214C10.7121 13.5892 10.8168 13.6255 10.8436 13.6348C10.8903 13.651 10.929 13.6722 10.9541 13.6871C11.0061 13.7178 11.0594 13.7574 11.108 13.7959C11.2082 13.8752 11.3351 13.9877 11.4787 14.1208L11.4787 14.1207L11.4812 14.1231C11.6311 14.2644 11.735 14.3563 11.8153 14.4155C11.8507 14.4415 11.8751 14.4563 11.8902 14.4645C11.9279 14.4433 11.9871 14.4 12.0905 14.3109L12.3423 14.0936L12.6354 13.8407L12.9091 14.1145L16.4516 17.6569C17.6182 18.8235 18.5174 19.7158 19.1374 20.3238C19.4476 20.628 19.6869 20.8599 19.8544 21.0191C19.9383 21.0989 20.0025 21.1588 20.0479 21.1997C20.0648 21.215 20.0779 21.2266 20.0877 21.2351C20.2423 21.3089 20.4944 21.3314 20.6993 21.267C21.1 21.1319 21.3556 20.7109 21.3033 20.3445C21.2834 20.2053 21.2611 20.1396 21.2007 20.0486C21.1233 19.9319 20.983 19.7761 20.6891 19.4822L20.1781 18.9712L19.8736 18.6667L20.188 18.3724L20.5126 18.0686L20.8371 17.7647L21.0488 17.5665L21.3082 17.6962L21.4854 17.7849M8.78442 13.4873L21.4854 17.7849M21.4854 17.7849C21.8882 17.9793 22.4556 17.7593 22.6276 17.3037L22.6276 17.3037L22.6294 17.2991C22.7175 17.0737 22.7184 16.9253 22.6424 16.711C22.6205 16.6504 22.612 16.6306 22.6012 16.6114C22.5906 16.5925 22.5699 16.5605 22.5147 16.4967C22.3968 16.3601 22.1779 16.1407 21.7157 15.6819L21.7146 15.6808C21.3746 15.3408 21.1356 15.1071 20.9673 14.952C20.8831 14.8744 20.8212 14.8209 20.7762 14.7852C20.7407 14.757 20.725 14.7475 20.7242 14.7468C20.5523 14.6657 20.2979 14.6504 20.0891 14.7229C19.9717 14.7643 19.9415 14.7809 19.919 14.7967C19.8909 14.8164 19.8513 14.8522 19.7457 14.9716L19.7455 14.9718C19.4728 15.2799 19.4403 15.5913 19.5802 15.8804C19.5803 15.8806 19.5804 15.8809 19.5806 15.8811L19.6661 16.0556L19.7927 16.3138L19.5961 16.5238L19.2923 16.8483L18.9885 17.1729L18.6942 17.4872L18.3897 17.1827L16.2525 15.0455L14.1153 12.9083L13.8415 12.6346L14.0944 12.3415L14.3117 12.0897C14.4008 11.9863 14.4441 11.9271 14.4653 11.8894C14.4571 11.8743 14.4423 11.8499 14.4163 11.8145C14.3571 11.7342 14.2652 11.6303 14.1239 11.4804L14.1216 11.4779C13.9885 11.3343 13.876 11.2074 13.7967 11.1072C13.7582 11.0586 13.7186 11.0053 13.6879 10.9533C13.673 10.9282 13.6518 10.8895 13.6356 10.8428C13.6263 10.816 13.59 10.7113 13.6222 10.5833C13.724 10.1399 13.6772 9.3759 13.4881 8.78362L13.4881 8.78363L13.4869 8.77973C13.4321 8.60184 13.3869 8.44572 13.3753 8.30272C13.3612 8.1293 13.3966 7.99764 13.4426 7.87348L13.4433 7.87143C13.5477 7.59415 13.6464 7.10349 13.6586 6.77362L13.6586 6.77258C13.7024 5.66552 13.3384 4.72896 12.5581 3.94865C12.1014 3.49199 11.7231 3.25651 11.0614 3.03806L11.0583 3.03702C10.3036 2.78134 9.39812 2.79703 8.65646 3.07707L8.65647 3.0771L8.65167 3.07885C8.53537 3.12114 8.39966 3.16656 8.2457 3.16565C8.08914 3.16472 7.95516 3.11635 7.84114 3.07111L7.84035 3.07079C7.10844 2.77863 6.08042 2.78157 5.22707 3.10158C4.55407 3.3544 3.77446 4.00622 3.39006 4.64273L21.4854 17.7849ZM20.105 21.2495C20.105 21.2495 20.1042 21.2489 20.1027 21.2478L20.105 21.2495ZM8.29186 4.47942L8.29185 4.4794L8.29571 4.47752C8.75272 4.25487 9.09795 4.16957 9.60032 4.16957L9.60143 4.16958C11.1159 4.17361 12.3026 5.30386 12.3474 6.81467L12.3474 6.8179C12.359 7.34697 12.2903 7.70892 12.0729 8.1479L12.0713 8.15112C12.0477 8.19778 12.0307 8.23224 12.0184 8.25881C12.1304 8.47393 12.2134 8.67105 12.266 8.88884C12.3197 9.11131 12.3372 9.33624 12.3372 9.59952C12.3372 10.3999 12.1017 11.002 11.5522 11.5514C11.0028 12.1009 10.4007 12.3364 9.60032 12.3364C9.33704 12.3364 9.11211 12.3189 8.88964 12.2652C8.67185 12.2126 8.47473 12.1296 8.25961 12.0176C8.23304 12.0299 8.19858 12.0469 8.15192 12.0705L8.15193 12.0705L8.14869 12.0721C7.70972 12.2895 7.34776 12.3582 6.8187 12.3466L6.81547 12.3466C5.30466 12.3018 4.17441 11.1151 4.17037 9.60063L4.17037 9.59952C4.17037 9.09715 4.25567 8.75192 4.4783 8.2949L4.48022 8.29106C4.48678 8.27794 4.49245 8.26641 4.49738 8.25616C4.15603 7.6318 4.06963 6.73078 4.28352 6.06438L4.28448 6.06147C4.49366 5.42588 4.92194 4.87872 5.48109 4.55139C6.31884 4.06001 7.41019 4.03072 8.25699 4.49657C8.26723 4.49164 8.27875 4.48597 8.29186 4.47942Z" stroke="#991850" stroke-width="0.833333"/>
</g>
<defs>
<clipPath id="clip0_154_752">
<rect width="25" height="25" fill="white"/>
</clipPath>
</defs>
</svg>
