<svg width="325" height="91" viewBox="0 0 325 91" fill="none" xmlns="http://www.w3.org/2000/svg">
<path d="M320.026 42.7631C320.636 41.8915 321.638 41.1943 323.033 40.6713C324.079 40.3227 324.558 40.4534 324.471 41.0635C324.427 41.325 324.231 41.7172 323.883 42.2402C323.229 43.1117 322.728 43.809 322.379 44.332C322.031 44.8113 321.399 45.6829 320.484 46.9467C319.568 48.1669 318.74 49.1692 318 49.9537C317.302 50.6945 316.431 51.6097 315.385 52.6992C314.382 53.7886 313.424 54.6166 312.509 55.1832C311.593 55.7497 310.635 56.2726 309.632 56.752C308.674 57.1878 307.715 57.3621 306.756 57.275C305.797 57.1878 304.904 56.8392 304.076 56.2291C303.466 55.7497 303.03 54.9217 302.769 53.745C302.507 52.5684 302.376 51.3264 302.376 50.019C302.42 48.7117 302.42 47.4697 302.376 46.293C302.376 45.0728 302.202 44.1359 301.853 43.4822C301.548 42.7849 301.004 42.567 300.219 42.8285C299.478 43.0464 298.629 43.6129 297.67 44.5281C296.711 45.3997 295.949 46.2059 295.382 46.9467C294.815 47.644 294.031 48.7117 293.029 50.1498C292.026 51.5879 291.46 52.3941 291.329 52.5684C290.85 53.2221 290 53.7886 288.78 54.268C287.821 54.6602 287.363 54.5295 287.407 53.8758C287.407 53.6579 287.472 53.3964 287.603 53.0914C288.562 50.7817 289.303 48.4284 289.826 46.0315C290.044 44.7678 290.109 43.7654 290.022 43.0246C289.978 42.2402 289.673 41.8697 289.107 41.9133C288.584 41.9569 287.777 42.4798 286.688 43.4822C282.94 47.1864 279.541 51.1957 276.49 55.51C276.098 56.033 275.292 56.5777 274.072 57.1442C272.939 57.6672 272.416 57.58 272.503 56.8827C272.503 56.7956 272.525 56.6866 272.568 56.5559L277.732 38.3834C277.994 37.5554 278.909 36.6402 280.478 35.6379C281.96 34.6792 282.679 34.5702 282.635 35.3111C282.635 35.3982 282.613 35.4854 282.57 35.5726L279.301 47.0121C283.354 41.9133 287.102 38.6667 290.545 37.2721C292.07 36.6185 293.203 36.5749 293.944 37.1414C294.685 37.6644 295.033 38.5795 294.99 39.8869C294.946 41.1507 294.772 42.5452 294.467 44.0705C299.261 38.6667 303.008 36.5749 305.71 37.7951C306.625 38.2309 307.235 38.8846 307.541 39.7562C307.846 40.5842 307.933 41.5211 307.802 42.567C307.671 43.5693 307.497 44.5934 307.279 45.6393C307.061 46.6417 306.974 47.6658 307.018 48.7117C307.061 49.714 307.323 50.5202 307.802 51.1303C310.112 54.0065 314.099 51.3264 319.764 43.09C319.895 42.9592 319.982 42.8503 320.026 42.7631Z" fill="#991850"/>
<path d="M278.056 42.7631C279.407 41.5865 280.148 41.5211 280.279 42.567C280.322 43.5693 280.039 44.4191 279.429 45.1164C276.901 47.5132 274.265 49.7576 271.519 51.8494C271.301 52.0237 270.909 52.3505 270.343 52.8299C269.776 53.2657 269.297 53.6361 268.905 53.9411C268.512 54.2026 268.011 54.5513 267.401 54.987C266.835 55.4228 266.29 55.7933 265.767 56.0983C265.288 56.3598 264.765 56.6431 264.198 56.9481C263.632 57.2096 263.065 57.4057 262.498 57.5364C261.976 57.6236 261.453 57.6672 260.93 57.6672C257.4 57.5364 256.659 53.44 258.707 45.3779C257.313 47.0339 256.354 48.1233 255.831 48.6463C255.657 48.8642 255.177 49.3871 254.393 50.2151C253.652 51.0431 253.085 51.675 252.693 52.1108C252.301 52.503 251.713 53.0696 250.928 53.8104C250.187 54.5513 249.534 55.1178 248.967 55.51C248.401 55.9022 247.747 56.2944 247.006 56.6866C246.265 57.0353 245.568 57.275 244.914 57.4057C243.65 57.6236 242.757 57.3839 242.234 56.6866C241.668 55.9894 241.493 54.9435 241.711 53.5489C241.929 52.1544 242.234 50.7599 242.626 49.3653C242.975 47.9708 243.542 46.3802 244.326 44.5934C245.154 42.8067 245.742 41.4993 246.091 40.6713C246.483 39.8433 246.897 38.9935 247.333 38.1219C247.769 37.3375 248.749 36.5313 250.274 35.7033C251.582 35.006 252.192 34.9842 252.105 35.6379C252.105 35.8122 252.018 36.0519 251.843 36.357C250.536 38.9281 249.381 41.5429 248.379 44.2012C247.028 47.644 246.374 49.8883 246.418 50.9342C246.505 52.0673 247.071 52.5466 248.117 52.3723C248.64 52.2851 249.229 52.0019 249.882 51.5225C250.58 50.9996 251.277 50.3459 251.974 49.5615C252.671 48.777 253.303 48.0362 253.87 47.3389C254.436 46.5981 255.025 45.8136 255.635 44.9856C256.288 44.1576 256.724 43.6129 256.942 43.3514C258.598 41.4339 260.058 39.6254 261.322 37.9258C261.714 37.4465 262.542 36.9017 263.806 36.2916C265.07 35.6815 265.549 35.8776 265.244 36.8799C265.2 37.0107 265.135 37.2286 265.048 37.5336C261.954 47.121 261.54 52.2198 263.806 52.8299C264.372 52.9606 265.135 52.8081 266.094 52.3723C267.096 51.8929 268.229 51.1521 269.493 50.1498C270.8 49.1474 271.89 48.2759 272.761 47.535C273.676 46.7506 274.766 45.7701 276.03 44.5934C277.294 43.4168 277.969 42.8067 278.056 42.7631Z" fill="#991850"/>
<path d="M243.787 44.0051C244.31 43.3078 245.138 42.7631 246.271 42.3709C246.968 42.153 247.295 42.2619 247.251 42.6977C247.208 42.9156 247.055 43.2207 246.794 43.6129C244.397 47.0992 241.717 50.1498 238.753 52.7645C235.834 55.3793 232.761 56.9699 229.536 57.5364C228.36 57.7979 227.379 57.8851 226.595 57.7979C225.81 57.6672 225.135 57.4929 224.568 57.275C224.045 57.0135 223.653 56.6213 223.392 56.0983C223.174 55.5754 223.021 55.0524 222.934 54.5295C222.847 54.0065 222.869 53.3746 222.999 52.6338C223.13 51.8929 223.283 51.1957 223.457 50.542C223.675 49.8883 223.936 49.191 224.241 48.4502C224.59 47.6658 224.895 46.9685 225.157 46.3584C225.462 45.7483 225.789 45.1382 226.137 44.5281C226.355 44.0923 226.508 43.7436 226.595 43.4822C226.725 43.2207 226.769 43.0028 226.726 42.8285C226.682 42.6542 226.617 42.5452 226.529 42.5016C226.442 42.4145 226.268 42.3709 226.006 42.3709C225.745 42.3273 225.484 42.3055 225.222 42.3055C225.004 42.3055 224.677 42.3273 224.241 42.3709C223.806 42.3709 223.435 42.3709 223.13 42.3709C222.999 42.3709 222.716 42.3709 222.28 42.3709C221.845 42.3709 221.474 42.3709 221.169 42.3709C220.908 42.3709 220.603 42.3491 220.254 42.3055C219.905 42.2184 219.6 42.1094 219.339 41.9787C219.077 41.8044 218.859 41.6083 218.685 41.3904C218.075 40.388 218.228 39.1243 219.143 37.599C220.101 36.0737 221.147 34.8753 222.28 34.0037C223.762 32.8271 225.091 32.2605 226.268 32.3041C227.183 32.3913 227.554 33.0232 227.379 34.1998C227.248 35.4636 226.181 37.0542 224.176 38.9717C224.525 38.9717 225.505 38.9064 227.118 38.7756C228.73 38.6013 229.558 38.6231 229.602 38.841C230.125 39.0589 230.473 39.3422 230.648 39.6908C230.866 40.0394 230.909 40.4534 230.778 40.9328C230.648 41.4122 230.495 41.8262 230.321 42.1748C230.146 42.5234 229.863 43.0028 229.471 43.6129C229.079 44.1794 228.839 44.5499 228.752 44.7242C228.665 44.8549 228.447 45.2253 228.098 45.8354C227.793 46.402 227.575 46.816 227.445 47.0774C227.314 47.3389 227.118 47.7311 226.856 48.2541C226.638 48.7334 226.486 49.191 226.399 49.6268C226.312 50.019 226.268 50.4112 226.268 50.8035C226.268 51.7186 226.508 52.4377 226.987 52.9606C227.466 53.4836 228.076 53.8104 228.817 53.9412C229.602 54.0283 230.386 54.0283 231.171 53.9412C231.955 53.854 232.718 53.6797 233.458 53.4182C236.988 52.0673 240.431 48.9296 243.787 44.0051Z" fill="#991850"/>
<path d="M198.158 42.9684V37.6061H213.99V42.9684H198.158Z" fill="#991850"/>
<path d="M194.963 41.7172C196.924 40.8456 198.319 40.8238 199.147 41.6518C199.582 42.0876 199.561 42.4145 199.081 42.6324C190.888 46.5109 183.436 51.4789 176.725 57.5364C176.159 59.3232 175.854 60.3037 175.81 60.478C175.548 61.306 175.134 62.6134 174.568 64.4001C174.045 66.2305 173.609 67.6468 173.261 68.6491C172.956 69.695 172.52 71.046 171.953 72.702C171.387 74.358 170.864 75.7743 170.384 76.9509C169.905 78.1711 169.338 79.4785 168.685 80.873C168.075 82.2676 167.399 83.5749 166.658 84.7952C165.917 86.0154 165.155 87.1484 164.37 88.1943C162.584 90.4604 160.557 91.3538 158.291 90.8745C156.069 90.3951 154.304 88.8044 152.996 86.1025C152.473 85.0566 152.234 83.9018 152.277 82.638C152.277 81.4178 152.43 80.2411 152.735 79.1081C153.04 78.0186 153.606 76.7766 154.434 75.3821C155.219 74.0311 155.96 72.8545 156.657 71.8522C157.311 70.8934 158.204 69.7386 159.337 68.3876C160.47 67.0803 161.342 66.0997 161.952 65.446C162.562 64.8359 163.39 63.9861 164.436 62.8967C164.741 62.548 164.981 62.3083 165.155 62.1776C167.552 59.6936 170.079 57.3621 172.738 55.1832C173.304 53.3528 173.609 52.3723 173.653 52.2416C170.123 56.5995 166.745 58.6913 163.521 58.517C161.734 58.3862 160.318 57.9286 159.272 57.1442C158.226 56.3162 157.55 55.2485 157.245 53.9412C156.984 52.5902 156.875 51.2175 156.918 49.8229C156.962 48.3848 157.223 46.816 157.703 45.1164C158.226 43.4168 158.705 41.9787 159.141 40.8021C159.577 39.6254 160.056 38.4488 160.579 37.2721C160.666 37.0542 161.058 37.1196 161.756 37.4682C162.453 37.8169 163.085 38.2963 163.651 38.9064C164.261 39.4729 164.479 39.9523 164.305 40.3445C162.736 43.7001 161.603 47.1864 160.906 50.8035C160.862 50.8906 160.797 51.1521 160.71 51.5879C160.666 51.9801 160.623 52.2634 160.579 52.4377C160.579 52.5684 160.557 52.8081 160.514 53.1567C160.514 53.4618 160.535 53.7015 160.579 53.8758C160.623 54.0065 160.688 54.1808 160.775 54.3987C160.862 54.573 160.993 54.7256 161.167 54.8563C161.385 54.9435 161.625 55.0088 161.886 55.0524C162.104 55.096 162.322 55.096 162.54 55.0524C162.802 54.9653 163.063 54.8345 163.325 54.6602C163.63 54.4423 163.891 54.268 164.109 54.1373C164.327 54.0065 164.61 53.7886 164.959 53.4836C165.307 53.1785 165.547 52.9606 165.678 52.8299C165.809 52.6991 166.026 52.503 166.331 52.2416C166.637 51.9365 166.789 51.7622 166.789 51.7186C170.624 48.058 174.437 42.6106 178.229 35.3765C178.359 35.115 178.752 35.1586 179.405 35.5072C180.102 35.8558 180.734 36.3134 181.301 36.8799C181.911 37.4465 182.172 37.8822 182.085 38.1873C181.083 42.2402 179.972 46.402 178.752 50.6727C183.894 47.23 189.298 44.2448 194.963 41.7172ZM160.383 85.4488C162.475 82.7905 164.24 79.7182 165.678 76.2319C167.159 72.7891 168.619 68.6927 170.057 63.9426C168.314 65.7293 166.68 67.5378 165.155 69.3682C163.717 71.0242 162.562 72.4187 161.69 73.5518C160.819 74.6848 159.882 76.1011 158.879 77.8007C157.877 79.5439 157.158 81.1999 156.722 82.7687C155.72 86.0807 155.938 87.8239 157.376 87.9982C157.507 88.0418 157.659 88.02 157.834 87.9329C158.008 87.8893 158.182 87.8021 158.357 87.6714C158.531 87.5406 158.683 87.4099 158.814 87.2792C158.988 87.1484 159.163 86.9741 159.337 86.7562C159.511 86.5383 159.642 86.364 159.729 86.2333C159.816 86.1461 159.925 85.9936 160.056 85.7757C160.23 85.5578 160.339 85.4488 160.383 85.4488Z" fill="#991850"/>
<path d="M157.033 44.0051C157.556 43.3078 158.384 42.7631 159.517 42.3709C160.214 42.153 160.541 42.2619 160.497 42.6977C160.454 42.9156 160.301 43.2207 160.04 43.6129C157.643 47.0992 154.963 50.1498 151.999 52.7645C149.08 55.3793 146.007 56.9699 142.782 57.5364C141.606 57.7979 140.625 57.8851 139.841 57.7979C139.056 57.6672 138.381 57.4929 137.814 57.275C137.291 57.0135 136.899 56.6213 136.638 56.0983C136.42 55.5754 136.267 55.0524 136.18 54.5295C136.093 54.0065 136.115 53.3746 136.246 52.6338C136.376 51.8929 136.529 51.1957 136.703 50.542C136.921 49.8883 137.182 49.191 137.488 48.4502C137.836 47.6658 138.141 46.9685 138.403 46.3584C138.708 45.7483 139.035 45.1382 139.383 44.5281C139.601 44.0923 139.754 43.7436 139.841 43.4822C139.972 43.2207 140.015 43.0028 139.972 42.8285C139.928 42.6542 139.863 42.5452 139.775 42.5016C139.688 42.4145 139.514 42.3709 139.252 42.3709C138.991 42.3273 138.73 42.3055 138.468 42.3055C138.25 42.3055 137.923 42.3273 137.488 42.3709C137.052 42.3709 136.681 42.3709 136.376 42.3709C136.246 42.3709 135.962 42.3709 135.526 42.3709C135.091 42.3709 134.72 42.3709 134.415 42.3709C134.154 42.3709 133.849 42.3491 133.5 42.3055C133.151 42.2184 132.846 42.1094 132.585 41.9787C132.323 41.8044 132.106 41.6083 131.931 41.3904C131.321 40.388 131.474 39.1243 132.389 37.599C133.348 36.0737 134.393 34.8753 135.526 34.0037C137.008 32.8271 138.337 32.2605 139.514 32.3041C140.429 32.3913 140.8 33.0232 140.625 34.1998C140.494 35.4636 139.427 37.0542 137.422 38.9717C137.771 38.9717 138.751 38.9064 140.364 38.7756C141.976 38.6013 142.804 38.6231 142.848 38.841C143.371 39.0589 143.719 39.3422 143.894 39.6908C144.112 40.0394 144.155 40.4534 144.024 40.9328C143.894 41.4122 143.741 41.8262 143.567 42.1748C143.392 42.5234 143.109 43.0028 142.717 43.6129C142.325 44.1794 142.085 44.5499 141.998 44.7242C141.911 44.8549 141.693 45.2253 141.344 45.8354C141.039 46.402 140.821 46.816 140.691 47.0774C140.56 47.3389 140.364 47.7311 140.102 48.2541C139.884 48.7334 139.732 49.191 139.645 49.6268C139.558 50.019 139.514 50.4112 139.514 50.8035C139.514 51.7186 139.754 52.4377 140.233 52.9606C140.712 53.4836 141.322 53.8104 142.063 53.9412C142.848 54.0283 143.632 54.0283 144.417 53.9412C145.201 53.854 145.964 53.6797 146.705 53.4182C150.234 52.0673 153.677 48.9296 157.033 44.0051Z" fill="#991850"/>
<path d="M132.375 40.9328C133.334 40.2791 133.77 40.3009 133.682 40.9982C133.552 41.8697 133.072 42.7195 132.244 43.5475C132.114 43.6783 131.983 43.7872 131.852 43.8744C126.187 47.6222 121.48 49.8447 117.732 50.542C116.12 52.2416 114.268 53.7015 112.176 54.9217C110.084 56.0983 108.341 56.7738 106.947 56.9481C103.547 57.2967 101.979 56.1855 102.24 53.6143C102.502 51.1303 104.07 48.0362 106.947 44.332C107.034 44.2012 107.121 44.0705 107.208 43.9397C107.382 43.7654 107.578 43.5911 107.796 43.4168C108.101 42.3709 108.712 41.4122 109.627 40.5406C110.585 39.669 111.631 39.0153 112.764 38.5795C113.941 38.1437 115.161 38.013 116.425 38.1873C117.689 38.318 118.735 38.7974 119.563 39.6254C121.567 41.6301 121.872 44.0487 120.478 46.8813C121.785 46.6199 123.289 46.0751 124.988 45.2471C126.732 44.4191 127.974 43.7654 128.714 43.2861C129.499 42.8067 130.719 42.0223 132.375 40.9328ZM107.47 53.2875C108.559 53.7233 109.736 53.7015 110.999 53.2221C112.307 52.6991 113.505 51.9147 114.595 50.8688C113.331 50.8688 112.133 50.542 110.999 49.8883C109.866 49.2346 108.973 48.363 108.319 47.2735C108.189 47.0121 108.08 46.7724 107.992 46.5545C105.421 50.1716 105.247 52.4159 107.47 53.2875ZM117.013 47.0121C117.318 45.879 117.188 44.7895 116.621 43.7436C116.49 43.4822 116.207 43.1989 115.771 42.8939C115.379 42.5888 114.943 42.3491 114.464 42.1748C113.985 41.9569 113.505 41.7826 113.026 41.6518C112.547 41.5211 112.133 41.4993 111.784 41.5865C111.435 41.6301 111.239 41.7826 111.196 42.0441C111.021 42.8285 111.326 43.6565 112.111 44.5281C112.939 45.3997 113.767 46.0315 114.595 46.4238C115.336 46.7724 116.12 46.9903 116.948 47.0774C116.948 47.0339 116.97 47.0121 117.013 47.0121Z" fill="#991850"/>
<path d="M114.898 23.414C115.813 23.414 115.879 23.9805 115.094 25.1136C114.223 26.2902 113.395 26.9439 112.61 27.0746C107.294 27.1182 102.609 27.2925 98.5559 27.5976C94.9388 33.7858 92.0626 40.3227 89.9272 47.2082C89.8837 47.2953 89.7965 47.5568 89.6658 47.9926C89.5786 48.3848 89.4914 48.7117 89.4043 48.9731C89.3607 49.191 89.2736 49.5397 89.1428 50.019C89.0121 50.4548 88.9249 50.847 88.8813 51.1957C88.8378 51.5007 88.7724 51.8711 88.6852 52.3069C88.6416 52.7427 88.6199 53.1132 88.6199 53.4182C88.6634 53.7233 88.7288 54.0283 88.816 54.3334C88.9031 54.6384 89.0121 54.8999 89.1428 55.1178C89.7529 55.8151 91.1039 55.7279 93.1957 54.8563C95.331 53.9847 97.1178 53.0478 98.5559 52.0455C102.783 49.0385 106.509 45.5086 109.734 41.4557C110.388 40.6277 111.02 40.3881 111.63 40.7367C112.283 41.0853 112.24 41.7826 111.499 42.8285C110.497 44.3537 109.734 45.4868 109.211 46.2277C108.732 46.9685 107.947 48.058 106.858 49.4961C105.768 50.8906 104.788 52.0019 103.916 52.8299C103.088 53.6579 102.064 54.5295 100.844 55.4446C99.6672 56.3162 98.4905 56.9917 97.3139 57.4711C95.6579 58.0376 93.9801 58.2555 92.2805 58.1247C90.6245 57.994 89.0992 57.3839 87.7047 56.2944C86.3537 55.2049 85.504 53.7886 85.1553 52.0455C85.0246 51.3482 84.9592 50.6291 84.9592 49.8883C84.9156 49.1475 84.9374 48.4284 85.0246 47.7311C85.0682 46.9903 85.1989 46.2277 85.4168 45.4432C85.6347 44.6152 85.8526 43.8526 86.0705 43.1553C86.2884 42.4145 86.5498 41.6301 86.8549 40.8021C87.2035 39.9305 87.5304 39.1678 87.8354 38.5141C88.1405 37.8605 88.4891 37.1196 88.8813 36.2916C89.3171 35.4636 89.6658 34.7663 89.9272 34.1998C90.2323 33.6333 90.5809 32.9578 90.9731 32.1734C91.3653 31.389 91.6704 30.7789 91.8883 30.3431C91.9755 30.1688 92.3677 29.4279 93.0649 28.1205C90.5809 28.4256 88.2494 28.7742 86.0705 29.1664C83.9787 29.5586 81.9087 30.0816 79.8605 30.7353C79.7733 30.7353 79.49 30.8442 79.0107 31.0621L78.1609 31.389C78.2045 31.3454 78.2698 31.3018 78.357 31.2582C77.3111 31.7812 76.8317 31.694 76.9189 30.9968C77.0496 30.1687 77.5508 29.3625 78.4223 28.5781C78.5967 28.4474 78.7492 28.3602 78.8799 28.3166C84.0658 25.9198 89.5132 24.5035 95.2221 24.0677C97.0088 20.8428 98.7738 17.8359 100.517 15.0468C100.648 14.7853 101.062 14.8507 101.759 15.2429C102.5 15.5915 103.153 16.0927 103.72 16.7464C104.287 17.3565 104.461 17.8141 104.243 18.1191C103.11 19.9494 101.977 21.8016 100.844 23.6755C102.456 23.5883 107.141 23.5011 114.898 23.414Z" fill="#991850"/>
<path d="M87.3161 42.1094C88.1441 41.1507 88.9285 40.6931 89.6694 40.7367C90.2795 40.7803 90.1052 41.3468 89.1464 42.4363C85.6601 46.3584 81.8033 49.8883 77.5762 53.026C70.7343 57.994 65.7662 59.4757 62.6721 57.4711C61.9749 57.0353 61.4737 56.4905 61.1686 55.8369C60.8636 55.1832 60.7111 54.5295 60.7111 53.8758C60.7546 53.1785 60.8636 52.4377 61.0379 51.6533C61.2558 50.8253 61.4955 50.0844 61.757 49.4307C62.062 48.7335 62.3235 48.0144 62.5414 47.2736C62.8029 46.4891 62.9554 45.879 62.999 45.4432C63.1297 44.2666 62.3017 44.3538 60.515 45.7047C58.7282 47.0121 57.0286 48.4284 55.4162 49.9537C52.3221 52.9606 49.5984 56.2944 47.2451 59.9551L46.8529 60.8702C46.7657 61.0881 46.3735 61.0228 45.6763 60.6741C44.979 60.3255 44.3471 59.8679 43.7806 59.3014C43.1705 58.6913 42.9526 58.1901 43.1269 57.7979L61.8877 11.5823C61.9749 11.3644 62.3671 11.4297 63.0643 11.7784C63.7616 12.127 64.3935 12.6064 64.96 13.2165C65.5701 13.783 65.8098 14.2624 65.6791 14.6546L50.5789 51.6533C53.2372 48.9078 56.0699 46.3584 59.0768 44.0051C59.7741 43.4386 60.6457 42.8939 61.6916 42.3709C62.7375 41.848 63.7834 41.4993 64.8293 41.325C65.8752 41.1507 66.5289 41.434 66.7903 42.1748C67.0518 42.8721 67.0954 43.6783 66.9211 44.5934C66.7468 45.465 66.5289 46.402 66.2674 47.4043C66.0495 48.363 65.788 49.3218 65.483 50.2805C65.1779 51.1957 65.0254 52.0237 65.0254 52.7645C65.0254 53.5054 65.1561 54.0937 65.4176 54.5295C65.7227 54.9653 66.3328 55.1614 67.2479 55.1178C68.2067 55.0742 69.4923 54.7692 71.1047 54.2026C73.9373 53.1132 76.77 51.4789 79.6026 49.3C82.4352 47.121 85.0064 44.7242 87.3161 42.1094Z" fill="#991850"/>
<path d="M37.9357 0.0120067C39.7224 0.0555852 41.1169 0.578534 42.1193 1.58085C43.1216 2.58317 43.7099 3.7816 43.8842 5.17613C44.1021 6.52708 44.0803 8.11772 43.8189 9.94804C43.5574 11.7348 43.2087 13.3254 42.773 14.72C42.3807 16.0709 41.9232 17.4219 41.4002 18.7728C41.0952 19.4265 40.3543 20.0802 39.1777 20.7339C38.1318 21.2568 37.6524 21.1915 37.7396 20.5378C37.7831 20.407 37.8485 20.2545 37.9357 20.0802C41.0734 12.236 41.3131 7.13719 38.6547 4.78392C37.7831 3.9995 36.6937 3.56371 35.3863 3.47655C34.0789 3.38939 32.7498 3.60728 31.3988 4.13023C30.0479 4.65318 28.8059 5.2415 27.6728 5.89519C26.5833 6.5053 25.6028 7.15898 24.7312 7.85625C19.5017 11.9963 17.8239 17.095 19.6978 23.1525C20.09 24.4163 20.613 25.7019 21.2667 27.0093C21.9639 28.3166 22.5958 29.4279 23.1624 30.3431C23.7725 31.2582 24.644 32.4131 25.7771 33.8076C26.9102 35.1586 27.7382 36.1391 28.2611 36.7492C28.8276 37.3157 29.7646 38.318 31.072 39.7562C31.2463 39.9741 31.9 40.6931 33.033 41.9133C34.1661 43.09 34.9505 43.9398 35.3863 44.4627C35.8221 44.9421 36.4322 45.7047 37.2166 46.7506C38.001 47.7529 38.5894 48.7117 38.9816 49.6268C39.3738 50.542 39.6788 51.4789 39.8967 52.4377C40.2018 53.9629 40.1146 55.5318 39.6353 57.1442C39.1995 58.7131 38.4368 60.1948 37.3474 61.5893C36.3015 63.0274 35.1248 64.3784 33.8175 65.6422C32.5537 66.9495 31.0938 68.1697 29.4377 69.3028C27.8253 70.4794 26.3436 71.4818 24.9927 72.3098C23.6853 73.1378 22.3779 73.9004 21.0706 74.5977C19.676 75.2949 18.0418 75.9486 16.1679 76.5587C14.3376 77.1688 12.3765 77.5828 10.2847 77.8007C8.19293 78.0622 6.31903 78.0186 4.66303 77.67C3.0506 77.3214 1.7868 76.4062 0.871643 74.9245C6.10352e-05 73.4864 -0.217834 71.5035 0.217957 68.976C0.610169 66.9713 1.28564 64.9013 2.24439 62.7659C3.2467 60.6306 4.57587 58.4516 6.23187 56.2291C7.93146 54.0065 9.34778 52.2198 10.4808 50.8688C11.6139 49.5179 13.1827 47.7529 15.1874 45.574C15.9282 44.7895 16.7344 44.3755 17.606 44.332C18.434 44.332 18.4994 44.7895 17.8021 45.7047L17.4753 46.0969C16.8652 46.7506 16.2769 47.4043 15.7103 48.058C15.1874 48.7117 14.4465 49.5832 13.4878 50.6727C12.5726 51.7622 11.7446 52.8299 11.0038 53.8758C10.2629 54.9217 9.43494 56.0983 8.51978 57.4057C7.64819 58.7131 6.90735 59.9333 6.29724 61.0663C5.73071 62.243 5.18598 63.4414 4.66303 64.6616C4.18366 65.8818 3.92218 67.0149 3.8786 68.0608C3.83502 69.1067 3.94397 70.0654 4.20544 70.937C4.46692 71.8522 5.01166 72.6148 5.83966 73.2249C6.71124 73.8786 7.82251 74.3362 9.17346 74.5977C10.8295 74.9899 12.6162 74.9899 14.5337 74.5977C16.4948 74.2055 18.3904 73.5082 20.2208 72.5059C22.0511 71.5471 23.7071 70.5666 25.1888 69.5643C26.7141 68.562 28.1957 67.4507 29.6339 66.2305C31.1591 64.9667 32.3793 63.7682 33.2945 62.6352C34.2532 61.5457 34.9723 60.3473 35.4517 59.0399C35.9746 57.7325 36.0836 56.3598 35.7785 54.9217C35.517 53.4836 34.8416 51.9801 33.7521 50.4113C32.7062 48.8424 31.2463 47.0339 29.3724 44.9856C27.4985 42.8939 25.7771 40.9982 24.2083 39.2986C22.6394 37.599 21.0923 35.7469 19.5671 33.7422C18.0854 31.694 16.9305 29.5369 16.1025 27.2707C15.2745 24.9611 14.9259 22.586 15.0566 20.1456C15.1874 16.9643 16.473 13.783 18.9134 10.6017C21.3538 7.37688 24.339 4.78392 27.8689 2.82286C31.3988 0.818219 34.7544 -0.118732 37.9357 0.0120067Z" fill="#991850"/>
</svg>
