<svg width="46" height="45" viewBox="0 0 46 45" fill="none" xmlns="http://www.w3.org/2000/svg">

<path d="M22.6601 13.318C17.6975 13.318 13.6604 17.3553 13.6604 22.3177C13.6604 24.2599 14.4487 26.0038 14.7877 26.6634C14.9455 26.9707 15.3226 27.0915 15.6297 26.9338C15.9369 26.776 16.0579 26.399 15.9001 26.0918C15.6028 25.5131 14.9111 23.9869 14.9111 22.3176C14.911 18.0449 18.3872 14.5686 22.6601 14.5686C26.9333 14.5686 30.4098 18.0449 30.4098 22.3177C30.4098 26.5907 26.9333 30.067 22.6601 30.067C20.9889 30.067 19.661 29.4884 19.1676 29.2395C19.0213 29.1656 18.8518 29.1523 18.6957 29.2022L14.7569 30.4609C14.428 30.5661 14.2465 30.9179 14.3517 31.2469C14.4365 31.5126 14.6825 31.682 14.9471 31.682C15.0102 31.682 15.0743 31.6725 15.1376 31.6522L18.8387 30.4695C19.613 30.8289 20.9758 31.3176 22.6601 31.3176C27.6228 31.3176 31.6604 27.2803 31.6604 22.3177C31.6604 17.3553 27.6228 13.318 22.6601 13.318Z" fill="#5D001D"/>
<path d="M20.8858 20.783C20.6119 20.9934 20.5604 21.3859 20.7707 21.6599C20.9811 21.9337 21.3735 21.9853 21.6476 21.7749C21.8392 21.6277 22.3484 21.2367 22.2739 20.5372C22.2279 20.1214 21.8222 19.5509 21.49 19.1456C21.0038 18.5525 20.5923 18.2012 20.2691 18.1024C19.9663 18.0085 19.656 18.0233 19.3465 18.1466C18.7099 18.401 18.2606 18.8226 18.0471 19.3657C17.8393 19.8946 17.877 20.4865 18.1566 21.0779C18.8092 22.4554 19.6813 23.6451 20.749 24.6141C20.7531 24.618 20.7574 24.6218 20.7616 24.6257C21.8444 25.5828 23.1255 26.3202 24.5697 26.8178C24.8438 26.9119 25.1128 26.9589 25.3711 26.9589C25.6955 26.9589 26.0033 26.8848 26.2832 26.7373C26.7993 26.4651 27.1687 25.9721 27.3515 25.3103C27.4396 24.9895 27.4199 24.6797 27.2941 24.3912C27.1591 24.079 26.7647 23.7089 26.1215 23.2912C25.6822 23.0059 25.0709 22.6659 24.6508 22.6659C24.6505 22.6659 24.6502 22.6659 24.6499 22.6659C23.949 22.6688 23.6163 23.218 23.491 23.4248C23.3121 23.7202 23.4065 24.1047 23.7019 24.2837C23.9971 24.4626 24.3817 24.3683 24.5607 24.0728C24.6102 23.9911 24.6415 23.9477 24.6612 23.9251C25.0144 24.0276 25.9591 24.6456 26.1527 24.9056C26.1559 24.9195 26.1563 24.9404 26.1458 24.9785C26.0842 25.2015 25.9568 25.4957 25.6999 25.6311C25.4598 25.7575 25.1736 25.7031 24.9764 25.6354C23.6914 25.1927 22.5542 24.5397 21.5962 23.6945C21.596 23.6943 21.5956 23.694 21.5954 23.6937C20.6468 22.8343 19.8701 21.7742 19.2869 20.5431C19.1976 20.3541 19.1118 20.0757 19.211 19.8233C19.3173 19.553 19.5956 19.3939 19.8099 19.3083C19.8467 19.2936 19.8674 19.2914 19.8825 19.2934C20.1625 19.4572 20.8804 20.3274 21.0214 20.6671C21.0011 20.6891 20.9614 20.7249 20.8858 20.783Z" fill="#5D001D"/>
</svg>
