<svg width="46" height="45" viewBox="0 0 46 45" fill="none" xmlns="http://www.w3.org/2000/svg">

<path d="M28.151 30.5503C28.0104 30.5503 27.8707 30.5087 27.7509 30.4275L23.225 27.3574L20.7975 29.1041C20.6071 29.241 20.3618 29.2755 20.1407 29.1964C19.9199 29.1172 19.7522 28.9343 19.6924 28.7076L18.4735 24.0884L14.1184 22.4232C13.8442 22.3183 13.6624 22.056 13.6604 21.7624C13.6584 21.4689 13.8366 21.2041 14.1095 21.0955L30.6692 14.5063C30.7444 14.4744 30.8239 14.4559 30.9041 14.451C30.9328 14.4493 30.9615 14.4493 30.9901 14.4509C31.1562 14.4608 31.3193 14.5284 31.4466 14.6533C31.4598 14.6662 31.4724 14.6794 31.4842 14.6932C31.5897 14.8136 31.6476 14.9605 31.6586 15.1101C31.6612 15.1477 31.661 15.1858 31.6577 15.2239C31.6554 15.2511 31.6515 15.2782 31.646 15.3051L28.8508 29.9712C28.8059 30.2068 28.6455 30.404 28.424 30.4959C28.3361 30.5323 28.2433 30.5503 28.151 30.5503ZM23.6224 25.905L27.6539 28.6396L29.8289 17.2278L21.9735 24.7866L23.6034 25.8922C23.6099 25.8963 23.6162 25.9007 23.6224 25.905ZM20.2663 25.2969L20.8061 27.3423L21.9691 26.5054L20.4462 25.4724C20.3754 25.4245 20.3148 25.3649 20.2663 25.2969ZM16.3334 21.7443L19.3238 22.8876C19.538 22.9695 19.6997 23.1496 19.7582 23.3714L20.1375 24.8086C20.1548 24.6429 20.23 24.4869 20.3521 24.3694L27.8371 17.167L16.3334 21.7443Z" fill="#5D001D"/>
</svg>
